<svg xmlns="http://www.w3.org/2000/svg" xmlns:vectornator="http://vectornator.io" xml:space="preserve" stroke-miterlimit="10" style="fill-rule:nonzero;clip-rule:evenodd;stroke-linecap:round;stroke-linejoin:round" viewBox="0 0 1024 1024"><g vectornator:layerName="Layer 1"><path vectornator:layerName="Rectangle 1" fill="none" stroke="#134e4a" stroke-linecap="butt" stroke-linejoin="miter" stroke-width="40" d="M141.14 179.922c0-73.219 59.356-132.575 132.575-132.575h476.57c73.219 0 132.575 59.356 132.575 132.575v664.156c0 73.219-59.356 132.574-132.575 132.574h-476.57c-73.219 0-132.575-59.355-132.575-132.574V179.922Z"/><path vectornator:layerName="Rectangle 2" fill="#134e4a" d="M458.799 432.233c0-16.03 12.995-29.025 29.025-29.025h234.571c16.03 0 29.025 12.995 29.025 29.025v13.838c0 16.03-12.995 29.025-29.025 29.025H487.824c-16.03 0-29.025-12.995-29.025-29.025v-13.838Z"/><path vectornator:layerName="Rectangle 3" fill="#134e4a" d="M293.509 258.93c0-19.851 16.092-35.944 35.944-35.944h365.094c19.852 0 35.944 16.093 35.944 35.944 0 19.852-16.092 35.944-35.944 35.944H329.453c-19.852 0-35.944-16.092-35.944-35.944Z"/><path vectornator:layerName="Rectangle 4" fill="#134e4a" d="M458.799 591.812c0-16.03 12.995-29.025 29.025-29.025h234.571c16.03 0 29.025 12.995 29.025 29.025v13.838c0 16.03-12.995 29.025-29.025 29.025H487.824c-16.03 0-29.025-12.995-29.025-29.025v-13.838Z"/><path vectornator:layerName="Rectangle 5" fill="#134e4a" d="M458.799 758.15c0-16.03 12.995-29.024 29.025-29.024h234.571c16.03 0 29.025 12.994 29.025 29.024v13.839c0 16.03-12.995 29.025-29.025 29.025H487.824c-16.03 0-29.025-12.995-29.025-29.025V758.15Z"/><path vectornator:layerName="Rectangle 6" fill="#134e4a" d="M272.58 436.81c0-18.558 15.044-33.602 33.602-33.602h6.925c18.558 0 33.602 15.044 33.602 33.602v4.684c0 18.558-15.044 33.602-33.602 33.602h-6.925c-18.558 0-33.602-15.044-33.602-33.602v-4.684Z"/><path vectornator:layerName="Rectangle 7" fill="#134e4a" d="M272.58 598.731c0-19.851 16.093-35.944 35.944-35.944h2.241c19.852 0 35.944 16.093 35.944 35.944 0 19.851-16.092 35.944-35.944 35.944h-2.241c-19.851 0-35.944-16.093-35.944-35.944Z"/><path vectornator:layerName="Rectangle 8" fill="#134e4a" d="M272.58 765.07c0-19.852 16.093-35.944 35.944-35.944h2.241c19.852 0 35.944 16.092 35.944 35.944 0 19.851-16.092 35.944-35.944 35.944h-2.241c-19.851 0-35.944-16.093-35.944-35.944Z"/></g></svg>