<svg xmlns="http://www.w3.org/2000/svg" xml:space="preserve" stroke-miterlimit="10" style="fill-rule:nonzero;clip-rule:evenodd;stroke-linecap:round;stroke-linejoin:round" viewBox="0 0 1060 1060"><defs><linearGradient id="b" x1="179" x2="845" y1="512" y2="512" gradientTransform="translate(-154.261 -16.766) scale(1.33644)" gradientUnits="userSpaceOnUse"><stop offset="0" stop-color="#ffbd59"/><stop offset="1" stop-color="#ff6b11"/></linearGradient><linearGradient id="d" x1="178.274" x2="844.274" y1="366.436" y2="366.436" gradientTransform="translate(-154.261 -16.766) scale(1.33644)" gradientUnits="userSpaceOnUse"><stop offset="0" stop-color="#ffbd59"/><stop offset="1" stop-color="#ff6b11"/></linearGradient><linearGradient id="e" x1="-1.154" x2="664.846" y1="700.221" y2="700.221" gradientTransform="translate(-154.261 -16.766) scale(1.33644)" gradientUnits="userSpaceOnUse"><stop offset="0" stop-color="#ff1148"/><stop offset="1" stop-color="#ee3cff"/></linearGradient><linearGradient id="f" x1="341.43" x2="1007.43" y1="698.728" y2="698.728" gradientTransform="translate(-154.261 -16.766) scale(1.33644)" gradientUnits="userSpaceOnUse"><stop offset="0" stop-color="#00d2ff"/><stop offset="1" stop-color="#2aff75"/></linearGradient></defs><path fill="none" stroke="#310024" stroke-width="40" d="M95 530C95 289.756 289.756 95 530 95s435 194.756 435 435-194.756 435-435 435S95 770.244 95 530Z"/><clipPath id="a" clip-rule="nonzero"><path d="M95 530C95 289.756 289.756 95 530 95s435 194.756 435 435-194.756 435-435 435S95 770.244 95 530Z"/></clipPath><g clip-path="url(#a)"><path fill="url(#b)" stroke="#310024" stroke-width="40" d="M527.106 27.95c-188.346.821-348.743 118.541-412.994 284.101-16.41 62.602-26.34 127.841-28.648 195.038.401 5.222.759 10.46 1.335 15.632-.548.279-1.067.607-1.615.89-.077 4.858-.22 9.697-.22 14.574 0 324.029 173.305 607.345 432.13 763.015.889-.53 1.84-.96 2.726-1.5 4.362 2.59 8.894 4.89 13.351 7.34 264.222-154.36 441.863-440.766 441.863-768.855 0-1.061-.051-2.11-.051-3.17-1.657-.989-3.229-2.093-4.902-3.06 1.937-14.56 2.948-29.391 3.449-44.337-3.016-53.804-10.756-106.328-22.914-157.153-59.652-176.559-226.905-303.37-423.51-302.514Z" opacity=".332"/><path fill="none" stroke="#310024" stroke-width="40" d="M527.106 27.95c-188.346.821-348.743 118.541-412.994 284.101-16.41 62.602-26.34 127.841-28.648 195.038.401 5.222.759 10.46 1.335 15.632-.548.279-1.067.607-1.615.89-.077 4.858-.22 9.697-.22 14.574 0 324.029 173.305 607.345 432.13 763.015.889-.53 1.84-.96 2.726-1.5 4.362 2.59 8.894 4.89 13.351 7.34 264.222-154.36 441.863-440.766 441.863-768.855 0-1.061-.051-2.11-.051-3.17-1.657-.989-3.229-2.093-4.902-3.06 1.937-14.56 2.948-29.391 3.449-44.337-3.016-53.804-10.756-106.328-22.914-157.153-59.652-176.559-226.905-303.37-423.51-302.514Z"/><clipPath id="c" clip-rule="nonzero"><path d="M527.106 27.95c-188.346.821-348.743 118.541-412.994 284.101-16.41 62.602-26.34 127.841-28.648 195.038.401 5.222.759 10.46 1.335 15.632-.548.279-1.067.607-1.615.89-.077 4.858-.22 9.697-.22 14.574 0 324.029 173.305 607.345 432.13 763.015.889-.53 1.84-.96 2.726-1.5 4.362 2.59 8.894 4.89 13.351 7.34 264.222-154.36 441.863-440.766 441.863-768.855 0-1.061-.051-2.11-.051-3.17-1.657-.989-3.229-2.093-4.902-3.06 1.937-14.56 2.948-29.391 3.449-44.337-3.016-53.804-10.756-106.328-22.914-157.153-59.652-176.559-226.905-303.37-423.51-302.514Z"/></clipPath><g stroke="#310024" stroke-width="40" clip-path="url(#c)"><path fill="url(#d)" d="M83.997 474.895C82.927 229.11 281.306 28.995 527.09 27.923c245.784-1.07 445.905 197.309 446.975 443.094 1.071 245.784-197.31 445.899-443.096 446.972-245.785 1.07-445.9-197.309-446.972-443.094Z"/><path fill="url(#e)" d="M-155.799 920.981C-156.87 675.197 41.509 475.08 287.294 474.009c245.785-1.07 445.901 197.309 446.972 443.093 1.072 245.788-197.309 445.908-443.094 446.978-245.784 1.07-445.899-197.31-446.971-443.099Z"/><path fill="url(#f)" d="M302.046 918.985c-1.071-245.784 197.309-445.899 443.093-446.972 245.783-1.07 445.911 197.309 446.981 443.094 1.07 245.783-197.316 445.893-443.101 446.963-245.786 1.08-445.901-197.3-446.973-443.085Z"/></g></g><path fill="none" stroke="#310024" stroke-width="40" d="M95 530C95 289.756 289.756 95 530 95s435 194.756 435 435-194.756 435-435 435S95 770.244 95 530Z"/></svg>