<svg xmlns="http://www.w3.org/2000/svg" xmlns:vectornator="http://vectornator.io" xml:space="preserve" stroke-miterlimit="10" style="fill-rule:nonzero;clip-rule:evenodd;stroke-linecap:round;stroke-linejoin:round" viewBox="0 0 1920 1920"><defs><radialGradient id="c" cx="697.299" cy="1115.08" r="396.353" gradientTransform="translate(-1926.17 -1770.63) scale(2.92426)" gradientUnits="userSpaceOnUse"><stop offset="0" stop-color="#f1c5ff"/><stop offset="1" stop-color="#ffebf1" stop-opacity="0"/></radialGradient><radialGradient id="d" cx="1042.87" cy="838.569" r="440.015" gradientTransform="translate(-1585.76 -640.193) scale(3.05305)" gradientUnits="userSpaceOnUse"><stop offset="0" stop-color="#abedff"/><stop offset="1" stop-color="#ebffee" stop-opacity="0"/></radialGradient><linearGradient id="b" x1="490.961" x2="1488.95" y1="875.063" y2="284.185" gradientUnits="userSpaceOnUse"><stop offset="0" stop-color="#ffede5"/><stop offset="1" stop-color="#fffbe4"/></linearGradient></defs><clipPath id="a"><path d="M0 0h1920v1920H0z"/></clipPath><g vectornator:layerName="Layer 2" clip-path="url(#a)"><path vectornator:layerName="Rectangle 2" fill="url(#b)" d="M0 0h1920v1920H0V0Z"/><path vectornator:layerName="Oval 1" fill="url(#c)" d="M-1046.13 1490.14c0-640.116 518.919-1159.034 1159.038-1159.034S1271.95 850.024 1271.95 1490.14c0 640.12-518.923 1159.04-1159.042 1159.04-640.119 0-1159.038-518.92-1159.038-1159.04Z"/><path vectornator:layerName="Oval 2" fill="url(#d)" d="M254.799 1920c0-741.93 601.455-1343.388 1343.391-1343.388 741.93 0 1343.38 601.458 1343.38 1343.388s-601.45 1343.39-1343.38 1343.39c-741.936 0-1343.391-601.46-1343.391-1343.39Z"/></g></svg>