<?xml version="1.0" encoding="UTF-8" standalone="no"?>
<!DOCTYPE svg PUBLIC "-//W3C//DTD SVG 1.1//EN" "http://www.w3.org/Graphics/SVG/1.1/DTD/svg11.dtd">
<!-- Created with Vectornator (http://vectornator.io/) -->
<svg height="100%" stroke-miterlimit="10" style="fill-rule:nonzero;clip-rule:evenodd;stroke-linecap:round;stroke-linejoin:round;" version="1.1" viewBox="0 0 1024 1024" width="100%" xml:space="preserve" xmlns="http://www.w3.org/2000/svg" xmlns:vectornator="http://vectornator.io" xmlns:xlink="http://www.w3.org/1999/xlink">
<defs/>
<g id="Layer-1" vectornator:layerName="Layer 1">
<path d="M24.8404 213.985C24.8404 109.524 109.524 24.8404 213.985 24.8404L810.015 24.8404C914.476 24.8404 999.16 109.524 999.16 213.985L999.16 810.015C999.16 914.476 914.476 999.16 810.015 999.16L213.985 999.16C109.524 999.16 24.8404 914.476 24.8404 810.015L24.8404 213.985Z" fill="none" opacity="1" stroke="#000000" stroke-linecap="butt" stroke-linejoin="miter" stroke-width="40" vectornator:layerName="Rectangle 1"/>
<g opacity="1" vectornator:layerName="Group 1">
<path d="M454.965 512C454.965 480.501 480.501 454.965 512 454.965C543.499 454.965 569.035 480.501 569.035 512C569.035 543.499 543.499 569.035 512 569.035C480.501 569.035 454.965 543.499 454.965 512Z" fill="#000000" fill-rule="nonzero" opacity="1" stroke="none" vectornator:layerName="Oval 1"/>
<path d="M264.083 512C264.083 480.501 289.618 454.965 321.117 454.965C352.617 454.965 378.152 480.501 378.152 512C378.152 543.499 352.617 569.035 321.117 569.035C289.618 569.035 264.083 543.499 264.083 512Z" fill="#000000" fill-rule="nonzero" opacity="1" stroke="none" vectornator:layerName="Oval 2"/>
<path d="M645.848 512C645.848 480.501 671.383 454.965 702.883 454.965C734.382 454.965 759.917 480.501 759.917 512C759.917 543.499 734.382 569.035 702.883 569.035C671.383 569.035 645.848 543.499 645.848 512Z" fill="#000000" fill-rule="nonzero" opacity="1" stroke="none" vectornator:layerName="Oval 3"/>
</g>
</g>
</svg>
