<svg xmlns="http://www.w3.org/2000/svg" xmlns:vectornator="http://vectornator.io" xml:space="preserve" stroke-miterlimit="10" style="fill-rule:nonzero;clip-rule:evenodd;stroke-linecap:round;stroke-linejoin:round" viewBox="0 0 1024 1024"><g vectornator:layerName="Layer 1"><path vectornator:layerName="Rectangle 1" fill="none" stroke="#000" stroke-linecap="butt" stroke-linejoin="miter" stroke-width="40" d="M24.84 213.985c0-104.461 84.684-189.145 189.145-189.145h596.03c104.461 0 189.145 84.684 189.145 189.145v596.03c0 104.461-84.684 189.145-189.145 189.145h-596.03c-104.461 0-189.145-84.684-189.145-189.145v-596.03Z"/><g vectornator:layerName="Group 1"><path vectornator:layerName="Oval 1" d="M454.965 512c0-31.499 25.536-57.035 57.035-57.035 31.499 0 57.035 25.536 57.035 57.035 0 31.499-25.536 57.035-57.035 57.035-31.499 0-57.035-25.536-57.035-57.035Z"/><path vectornator:layerName="Oval 2" d="M264.083 512c0-31.499 25.535-57.035 57.034-57.035 31.5 0 57.035 25.536 57.035 57.035 0 31.499-25.535 57.035-57.035 57.035-31.499 0-57.034-25.536-57.034-57.035Z"/><path vectornator:layerName="Oval 3" d="M645.848 512c0-31.499 25.535-57.035 57.035-57.035 31.499 0 57.034 25.536 57.034 57.035 0 31.499-25.535 57.035-57.034 57.035-31.5 0-57.035-25.536-57.035-57.035Z"/></g></g></svg>