<svg xmlns="http://www.w3.org/2000/svg" xmlns:vectornator="http://vectornator.io" xmlns:xlink="http://www.w3.org/1999/xlink" xml:space="preserve" stroke-miterlimit="10" style="fill-rule:nonzero;clip-rule:evenodd;stroke-linecap:round;stroke-linejoin:round" viewBox="0 0 1024 1024"><defs><linearGradient id="b" x1="254.923" x2="799.163" y1="821.777" y2="230.397" gradientUnits="userSpaceOnUse"><stop offset="0" stop-color="#85ec74"/><stop offset="1" stop-color="#4cce78"/></linearGradient><linearGradient id="e" x1="130.8" x2="861.694" y1="905.926" y2="96.187" gradientTransform="matrix(.7909 0 0 .7909 107.06 107.06)" gradientUnits="userSpaceOnUse"><stop offset=".003" stop-color="#00bc60"/><stop offset="1" stop-color="#1e74ff"/></linearGradient><linearGradient id="f" x1="389.483" x2="671.661" y1="664.985" y2="390.102" gradientTransform="matrix(.7909 0 0 .7909 107.06 107.06)" gradientUnits="userSpaceOnUse"><stop offset=".003" stop-color="#00bc60"/><stop offset="1" stop-color="#1e74ff"/></linearGradient><path id="c" d="M0 512C0 229.23 229.23 0 512 0s512 229.23 512 512-229.23 512-512 512S0 794.77 0 512Z"/></defs><clipPath id="a"><path d="M0 0h1024v1024H0z"/></clipPath><g vectornator:layerName="Layer 1" clip-path="url(#a)"><g vectornator:layerName="Oval 1"><use xlink:href="#c" fill="url(#b)"/><mask id="d" width="1024" height="1024" x="0" y="0" maskUnits="userSpaceOnUse"><path d="M0 0h1024v1024H0z"/><use xlink:href="#c" fill="#fff" fill-rule="evenodd"/></mask><use xlink:href="#c" fill="none" stroke="#2b7b46" stroke-linecap="butt" stroke-linejoin="miter" stroke-width="72" mask="url(#d)"/></g><g vectornator:layerName="Group 1"><path vectornator:layerName="Curve 1" fill="url(#e)" d="m512 107.06-52.07 191.86c16.694-4.065 34.124-6.278 52.07-6.278 17.946 0 35.376 2.213 52.07 6.278L512 107.06ZM225.659 225.659l98.856 172.429a220.483 220.483 0 0 1 73.573-73.573l-172.429-98.856Zm572.682 0-172.429 98.856a220.483 220.483 0 0 1 73.573 73.573l98.856-172.429ZM298.92 459.93 107.06 512l191.86 52.07c-4.065-16.694-6.278-34.124-6.278-52.07 0-17.946 2.213-35.376 6.278-52.07Zm426.16 0c4.065 16.694 6.278 34.124 6.278 52.07 0 17.946-2.213 35.376-6.278 52.07L916.94 512l-191.86-52.07ZM324.515 625.912l-98.856 172.429 172.429-98.856a220.483 220.483 0 0 1-73.573-73.573Zm374.97 0a220.483 220.483 0 0 1-73.573 73.573l172.429 98.856-98.856-172.429ZM459.93 725.08 512 916.94l52.07-191.86c-16.694 4.065-34.124 6.278-52.07 6.278-17.946 0-35.376-2.213-52.07-6.278Z"/><path vectornator:layerName="Oval 1" fill="url(#f)" d="M322.552 512c0-104.629 84.819-189.448 189.448-189.448S701.448 407.371 701.448 512 616.629 701.448 512 701.448 322.552 616.629 322.552 512Z"/></g></g></svg>