<svg stroke-miterlimit="10" style="fill-rule:nonzero;clip-rule:evenodd;stroke-linecap:round;stroke-linejoin:round" viewBox="0 0 1024 1024" xml:space="preserve" xmlns="http://www.w3.org/2000/svg" xmlns:vectornator="http://vectornator.io" xmlns:xlink="http://www.w3.org/1999/xlink"><defs><linearGradient gradientUnits="userSpaceOnUse" id="b" x1="254.923" x2="799.163" y1="821.777" y2="230.397"><stop offset="0" stop-color="#60cf4d"/><stop offset="1" stop-color="#91d04b"/></linearGradient><linearGradient gradientTransform="matrix(.7909 0 0 .7909 107.06 107.06)" gradientUnits="userSpaceOnUse" id="e" x1="130.8" x2="861.694" y1="905.926" y2="96.187"><stop offset=".001" stop-color="#a9ff2f"/><stop offset="1" stop-color="#ffbf1e"/></linearGradient><linearGradient gradientTransform="matrix(.7909 0 0 .7909 107.06 107.06)" gradientUnits="userSpaceOnUse" id="f" x1="389.483" x2="671.661" y1="664.985" y2="390.102"><stop offset=".001" stop-color="#a9ff2f"/><stop offset="1" stop-color="#ffbf1e"/></linearGradient><path d="M0 512C0 229.23 229.23 0 512 0s512 229.23 512 512-229.23 512-512 512S0 794.77 0 512z" id="c"/></defs><clipPath id="a"><path d="M0 0h1024v1024H0z"/></clipPath><g clip-path="url(#a)" vectornator:layerName="Layer 1"><g vectornator:layerName="Oval 1"><use fill="url(#b)" xlink:href="#c"/><mask height="1024" id="d" maskUnits="userSpaceOnUse" width="1024" x="0" y="0"><path d="M0 0h1024v1024H0z"/><use fill="#fff" fill-rule="evenodd" xlink:href="#c"/></mask><use fill="none" mask="url(#d)" stroke="#194e10" stroke-width="72" xlink:href="#c"/></g><g vectornator:layerName="Group 1"><path d="m512 107.06-52.07 191.86c16.694-4.065 34.124-6.278 52.07-6.278 17.946 0 35.376 2.213 52.07 6.278L512 107.06zM225.659 225.659l98.856 172.429a220.483 220.483 0 0 1 73.573-73.573l-172.429-98.856zm572.682 0-172.429 98.856a220.483 220.483 0 0 1 73.573 73.573l98.856-172.429zM298.92 459.93 107.06 512l191.86 52.07c-4.065-16.694-6.278-34.124-6.278-52.07 0-17.946 2.213-35.376 6.278-52.07zm426.16 0c4.065 16.694 6.278 34.124 6.278 52.07 0 17.946-2.213 35.376-6.278 52.07L916.94 512l-191.86-52.07zM324.515 625.912l-98.856 172.429 172.429-98.856a220.483 220.483 0 0 1-73.573-73.573zm374.97 0a220.483 220.483 0 0 1-73.573 73.573l172.429 98.856-98.856-172.429zM459.93 725.08 512 916.94l52.07-191.86c-16.694 4.065-34.124 6.278-52.07 6.278-17.946 0-35.376-2.213-52.07-6.278z" fill="url(#e)" vectornator:layerName="Curve 1"/><path d="M322.552 512c0-104.629 84.819-189.448 189.448-189.448S701.448 407.371 701.448 512 616.629 701.448 512 701.448 322.552 616.629 322.552 512z" fill="url(#f)" vectornator:layerName="Oval 1"/></g></g></svg>