<svg xmlns="http://www.w3.org/2000/svg" xmlns:vectornator="http://vectornator.io" xml:space="preserve" stroke-miterlimit="10" style="fill-rule:nonzero;clip-rule:evenodd;stroke-linecap:round;stroke-linejoin:round" viewBox="0 0 24 24"><g vectornator:layerName="Untitled" fill="none" stroke="#000" stroke-width="2.4"><path vectornator:layerName="path" d="M6.344 19.234V4.766"/><path vectornator:layerName="path 1" d="M17.656 6.647v10.706c0 1.221 0 1.832-.25 2.146a1.146 1.146 0 0 1-.897.43c-.402 0-.878-.381-1.832-1.144l-4.902-3.921c-1.223-.98-1.835-1.469-2.057-2.06a2.292 2.292 0 0 1 0-1.608c.222-.591.834-1.08 2.057-2.06l4.902-3.92c.954-.764 1.43-1.145 1.832-1.146.349 0 .679.159.897.431.25.314.25.925.25 2.146Z"/></g></svg>