<?xml version="1.0" encoding="UTF-8" standalone="no"?>
<!DOCTYPE svg PUBLIC "-//W3C//DTD SVG 1.1//EN" "http://www.w3.org/Graphics/SVG/1.1/DTD/svg11.dtd">
<!-- Created with Vectornator (http://vectornator.io/) -->
<svg height="100%" stroke-miterlimit="10" style="fill-rule:nonzero;clip-rule:evenodd;stroke-linecap:round;stroke-linejoin:round;" version="1.1" viewBox="0 0 1920 1920" width="100%" xml:space="preserve" xmlns="http://www.w3.org/2000/svg" xmlns:vectornator="http://vectornator.io" xmlns:xlink="http://www.w3.org/1999/xlink">
<defs>
<radialGradient cx="1007.26" cy="1042.86" gradientTransform="matrix(1.94904 0 0 1.94904 -1003.18 -1072.57)" gradientUnits="userSpaceOnUse" id="RadialGradient" r="460.534">
<stop offset="0.674951" stop-color="#d556ff"/>
<stop offset="1" stop-color="#ffb2d6" stop-opacity="0"/>
</radialGradient>
<linearGradient gradientTransform="matrix(0.703662 0 0 0.703662 284.485 284.485)" gradientUnits="userSpaceOnUse" id="LinearGradient" x1="604.662" x2="1278.87" y1="1302.5" y2="712.003">
<stop offset="0" stop-color="#fbf0ff"/>
<stop offset="0.995124" stop-color="#ffe1f5"/>
</linearGradient>
<linearGradient gradientTransform="matrix(1 0 0 1 3.19744e-13 3.19744e-13)" gradientUnits="userSpaceOnUse" id="LinearGradient_2" x1="397.312" x2="1538.5" y1="1052.98" y2="1052.98">
<stop offset="0" stop-color="#f2a2ff"/>
<stop offset="0.994425" stop-color="#ff90da"/>
</linearGradient>
</defs>
<g id="Layer-2" vectornator:layerName="Layer 2">
<path d="M3.19744e-13 960C3.19744e-13 429.807 429.807 3.19744e-13 960 3.19744e-13C1490.19 3.19744e-13 1920 429.807 1920 960C1920 1490.19 1490.19 1920 960 1920C429.807 1920 3.19744e-13 1490.19 3.19744e-13 960Z" fill="url(#RadialGradient)" fill-rule="nonzero" opacity="0" stroke="none" vectornator:layerName="Oval 1"/>
<path d="M308.128 960C308.128 599.981 599.981 308.128 960 308.128C1320.02 308.128 1611.87 599.981 1611.87 960C1611.87 1320.02 1320.02 1611.87 960 1611.87C599.981 1611.87 308.128 1320.02 308.128 960Z" fill="url(#LinearGradient)" fill-rule="nonzero" opacity="0" stroke="none" vectornator:layerName="Oval 2"/>
<path d="M1280.34 494.094C1246.85 493.887 1215.17 529.688 1185.19 586.781C1173.8 608.47 1162.65 633.255 1151.75 660.281C1049.06 914.968 965.87 1467.64 881.875 1194.09C797.88 920.552 600.809 855 504.625 956.25C428.286 1036.61 416.068 1095.83 397.313 1289C510.466 1482.11 720.017 1611.87 960 1611.87C1211.66 1611.88 1429.86 1469.18 1538.5 1260.37C1536.81 1233.43 1533.55 1205.13 1528.09 1175.06C1436.38 669.291 1354.03 494.548 1280.34 494.094ZM1274.19 799.656C1344.14 799.656 1400.84 856.362 1400.84 926.312C1400.84 996.263 1344.14 1052.97 1274.19 1052.97C1204.24 1052.97 1147.53 996.263 1147.53 926.312C1147.53 856.362 1204.24 799.656 1274.19 799.656Z" fill="url(#LinearGradient_2)" fill-rule="nonzero" opacity="0.713262" stroke="none" vectornator:layerName="Curve 1"/>
</g>
</svg>
