<?xml version="1.0" encoding="UTF-8" standalone="no"?>
<!DOCTYPE svg PUBLIC "-//W3C//DTD SVG 1.1//EN" "http://www.w3.org/Graphics/SVG/1.1/DTD/svg11.dtd">
<!-- Created with Vectornator (http://vectornator.io/) -->
<svg height="100%" stroke-miterlimit="10" style="fill-rule:nonzero;clip-rule:evenodd;stroke-linecap:round;stroke-linejoin:round;" version="1.1" viewBox="0 0 1920 1920" width="100%" xml:space="preserve" xmlns="http://www.w3.org/2000/svg" xmlns:vectornator="http://vectornator.io" xmlns:xlink="http://www.w3.org/1999/xlink">
<defs>
<radialGradient cx="1007.26" cy="1042.86" gradientTransform="matrix(1.94904 0 0 1.94904 -1003.18 -1072.57)" gradientUnits="userSpaceOnUse" id="RadialGradient" r="460.534">
<stop offset="0.674951" stop-color="#d556ff"/>
<stop offset="1" stop-color="#ffb2d6" stop-opacity="0"/>
</radialGradient>
<linearGradient gradientTransform="matrix(0.703662 0 0 0.703662 284.485 284.485)" gradientUnits="userSpaceOnUse" id="LinearGradient" x1="604.662" x2="1278.87" y1="1302.5" y2="712.003">
<stop offset="0" stop-color="#fbf0ff"/>
<stop offset="0.995124" stop-color="#ffe1f5"/>
</linearGradient>
<linearGradient gradientTransform="matrix(1 0 0 1 3.19744e-13 3.19744e-13)" gradientUnits="userSpaceOnUse" id="LinearGradient_2" x1="397.312" x2="1538.5" y1="1052.98" y2="1052.98">
<stop offset="0" stop-color="#f2a2ff"/>
<stop offset="0.994425" stop-color="#ff90da"/>
</linearGradient>
<linearGradient gradientTransform="matrix(1 0 0 1 0 0)" gradientUnits="userSpaceOnUse" id="LinearGradient_3" x1="938.777" x2="980.539" y1="1468.64" y2="526.322">
<stop offset="0" stop-color="#f2a2ff"/>
<stop offset="0.994425" stop-color="#ff90da"/>
</linearGradient>
<linearGradient gradientTransform="matrix(1 0 0 1 2.84217e-14 0)" gradientUnits="userSpaceOnUse" id="LinearGradient_4" x1="849.503" x2="1003.93" y1="1341.4" y2="544.143">
<stop offset="0" stop-color="#f2a2ff"/>
<stop offset="0.994425" stop-color="#ff90da"/>
</linearGradient>
</defs>
<g id="Layer-2" vectornator:layerName="Layer 2">
<g opacity="0" vectornator:layerName="Group 1">
<path d="M3.19744e-13 960C3.19744e-13 429.807 429.807 3.19744e-13 960 3.19744e-13C1490.19 3.19744e-13 1920 429.807 1920 960C1920 1490.19 1490.19 1920 960 1920C429.807 1920 3.19744e-13 1490.19 3.19744e-13 960Z" fill="url(#RadialGradient)" fill-rule="nonzero" opacity="0.49681" stroke="none" vectornator:layerName="Oval 1"/>
<path d="M308.128 960C308.128 599.981 599.981 308.128 960 308.128C1320.02 308.128 1611.87 599.981 1611.87 960C1611.87 1320.02 1320.02 1611.87 960 1611.87C599.981 1611.87 308.128 1320.02 308.128 960Z" fill="url(#LinearGradient)" fill-rule="nonzero" opacity="0.901384" stroke="none" vectornator:layerName="Oval 2"/>
</g>
<path d="M1280.34 494.094C1246.85 493.887 1215.17 529.688 1185.19 586.781C1173.8 608.47 1162.65 633.255 1151.75 660.281C1049.06 914.968 965.87 1467.64 881.875 1194.09C797.88 920.552 600.809 855 504.625 956.25C428.286 1036.61 416.068 1095.83 397.313 1289C510.466 1482.11 720.017 1611.87 960 1611.87C1211.66 1611.88 1429.86 1469.18 1538.5 1260.37C1536.81 1233.43 1533.55 1205.13 1528.09 1175.06C1436.38 669.291 1354.03 494.548 1280.34 494.094ZM1274.19 799.656C1344.14 799.656 1400.84 856.362 1400.84 926.312C1400.84 996.263 1344.14 1052.97 1274.19 1052.97C1204.24 1052.97 1147.53 996.263 1147.53 926.312C1147.53 856.362 1204.24 799.656 1274.19 799.656Z" fill="url(#LinearGradient_2)" fill-rule="nonzero" opacity="0" stroke="none" vectornator:layerName="Curve 1"/>
<path d="M959.781 376.469C950.114 376.318 941.296 379.514 937.219 388.969C900.01 475.249 852.467 558.28 829.188 649.312C820.958 681.491 833.139 716.796 845.5 747.625C853.866 768.49 887.566 776.579 889.188 799C899.313 938.998 886.595 1079.81 879.656 1220C873.335 1347.71 859.836 1474.94 849.688 1602.41C885.562 1608.52 922.382 1611.88 960 1611.88C997.576 1611.88 1034.35 1608.51 1070.19 1602.41C1060.97 1486.26 1049.04 1370.29 1042.97 1253.94C1036.24 1125.06 1026.26 828.989 1030.66 806.344C1032.32 797.757 1071.96 753.929 1076.44 740.438C1085.93 711.815 1098.66 680.25 1090.84 651.125C1065.53 556.83 1024.27 475.772 982.219 387.656C979.311 381.563 966.531 376.574 959.781 376.469Z" fill="url(#LinearGradient_3)" fill-rule="nonzero" opacity="0" stroke="none" vectornator:layerName="Curve 2"/>
<path d="M960 308.125C955.764 308.125 951.592 308.357 947.375 308.438L947.375 486.562L1099.94 486.562L1099.94 445.594L1003.41 445.594L1003.41 409.906L1090.44 409.906L1090.44 373L1003.41 373L1003.41 344.25L1097.22 344.25L1097.22 322.719C1052.96 313.234 1007.09 308.125 960 308.125ZM875.094 313.812C828.663 319.856 783.766 330.687 740.938 345.969C733.639 359.84 729.906 376.548 729.906 396.219C729.906 417.365 734.064 434.961 742.375 449.031C750.686 463.102 761.535 473.406 774.906 479.906C788.277 486.407 805.157 489.656 825.563 489.656C845.64 489.656 862.391 485.872 875.844 478.344C889.297 470.815 899.602 460.285 906.719 446.75C913.836 433.215 917.406 415.897 917.406 394.75C917.406 365.622 909.261 342.95 892.969 326.781C887.749 321.601 881.734 317.333 875.094 313.812ZM1136.03 332.375L1136.03 413.5C1136.03 422.386 1137.73 432.574 1141.19 444.094C1143.33 451.252 1147.32 458.222 1153.12 464.969C1158.93 471.716 1165.32 476.901 1172.31 480.562C1179.31 484.224 1188 486.672 1198.41 487.906C1208.81 489.141 1218.41 489.781 1227.22 489.781C1242.44 489.781 1255.48 487.751 1266.34 483.719C1274.16 480.839 1281.63 475.836 1288.75 468.719C1295.87 461.601 1301.11 453.285 1304.44 443.781C1307.77 434.278 1309.44 424.197 1309.44 413.5L1309.44 409.812C1291.41 398.342 1272.79 387.753 1253.62 378.062L1253.62 416.094C1253.63 426.132 1250.91 433.872 1245.44 439.344C1239.97 444.816 1232.41 447.562 1222.78 447.562C1213.07 447.562 1205.47 444.773 1200 439.219C1194.53 433.665 1191.81 425.967 1191.81 416.094L1191.81 350.719C1173.6 343.784 1154.99 337.681 1136.03 332.375ZM823.219 344.875C834.985 344.875 844.318 348.798 851.188 356.656C858.058 364.514 861.469 376.967 861.469 394C861.469 414.241 858.177 428.277 851.594 436.094C845.011 443.911 835.732 447.812 823.719 447.812C812.035 447.812 802.788 443.825 796 435.844C789.212 427.862 785.813 414.735 785.813 396.469C785.812 378.038 789.233 364.825 796.062 356.844C802.892 348.862 811.946 344.875 823.219 344.875ZM699.781 362.281C681.791 370.124 664.195 378.686 647.094 388.062L647.094 405.719L638.469 393.031C625.219 400.561 612.212 408.464 599.562 416.875L647.094 486.562L699.781 486.562L699.781 362.281ZM579.344 430.969C561.089 444.127 543.521 458.161 526.75 473.094L526.75 486.562L579.344 486.562L579.344 430.969ZM1346.81 435.344L1346.81 486.562L1399.41 486.562L1399.41 478.5C1382.66 463.213 1365.08 448.837 1346.81 435.344ZM617.938 527.438C588.563 527.438 565.644 535.669 549.188 552.125C532.731 568.581 524.5 591.586 524.5 621.125C524.5 642.272 528.658 659.867 536.969 673.938C545.279 688.008 556.129 698.281 569.5 704.781C582.871 711.281 599.75 714.531 620.156 714.531C640.233 714.531 657.016 710.779 670.469 703.25C683.922 695.721 694.196 685.192 701.313 671.656C708.43 658.121 712 640.772 712 619.625C712 590.497 703.854 567.856 687.563 551.688C671.271 535.519 648.053 527.438 617.938 527.438ZM1438 527.438C1408.63 527.438 1385.71 535.669 1369.25 552.125C1352.79 568.581 1344.56 591.586 1344.56 621.125C1344.56 642.272 1348.72 659.867 1357.03 673.938C1365.34 688.008 1376.19 698.281 1389.56 704.781C1402.93 711.281 1419.81 714.531 1440.22 714.531C1460.3 714.531 1477.08 710.779 1490.53 703.25C1503.98 695.721 1514.26 685.192 1521.38 671.656C1525.54 663.74 1528.33 654.366 1530.06 643.844C1506.88 602.125 1479.25 563.238 1447.81 527.781C1444.62 527.579 1441.37 527.438 1438 527.438ZM469.812 530.531C460.07 541.642 450.667 553.053 441.688 564.812L441.688 630.625L418.656 596.781C409.382 610.576 400.751 624.829 392.531 639.344L441.688 711.469L494.406 711.469L494.406 530.531L469.812 530.531ZM741.969 530.531L741.969 711.469L894.531 711.469L894.531 670.469L798 670.469L798 634.812L885.031 634.812L885.031 597.906L798 597.906L798 569.156L891.812 569.156L891.812 530.531L741.969 530.531ZM930.625 530.531L930.625 638.406C930.625 647.293 932.356 657.48 935.812 669C937.952 676.158 941.918 683.128 947.719 689.875C953.52 696.622 959.913 701.808 966.906 705.469C973.9 709.13 982.591 711.578 993 712.812C1003.41 714.047 1013.01 714.656 1021.81 714.656C1037.03 714.656 1050.08 712.656 1060.94 708.625C1068.75 705.745 1076.23 700.742 1083.34 693.625C1090.46 686.508 1095.7 678.191 1099.03 668.688C1102.36 659.184 1104.03 649.103 1104.03 638.406L1104.03 530.531L1048.25 530.531L1048.25 641C1048.25 651.038 1045.5 658.778 1040.03 664.25C1034.56 669.722 1027 672.469 1017.38 672.469C1007.67 672.469 1000.07 669.679 994.594 664.125C989.122 658.571 986.406 650.874 986.406 641L986.406 530.531L930.625 530.531ZM1141.41 530.531L1141.41 711.469L1194 711.469L1194 612.094L1261.75 711.469L1314.47 711.469L1314.47 530.531L1261.75 530.531L1261.75 630.625L1193.62 530.531L1141.41 530.531ZM617.812 569.781C629.579 569.781 638.911 573.705 645.781 581.562C652.652 589.42 656.094 601.874 656.094 618.906C656.094 639.148 652.802 653.152 646.219 660.969C639.636 668.786 630.326 672.719 618.312 672.719C606.628 672.719 597.382 668.7 590.594 660.719C583.805 652.737 580.406 639.642 580.406 621.375C580.406 602.944 583.827 589.731 590.656 581.75C597.486 573.769 606.54 569.781 617.812 569.781ZM1437.88 569.781C1449.64 569.781 1458.97 573.705 1465.84 581.562C1472.71 589.42 1476.16 601.874 1476.16 618.906C1476.16 639.148 1472.86 653.152 1466.28 660.969C1459.7 668.786 1450.39 672.719 1438.38 672.719C1426.69 672.719 1417.45 668.7 1410.66 660.719C1403.87 652.737 1400.5 639.642 1400.5 621.375C1400.5 602.944 1403.89 589.731 1410.72 581.75C1417.55 573.769 1426.6 569.781 1437.88 569.781ZM373.938 674.375C368.004 686.527 362.467 698.907 357.281 711.469L373.938 711.469L373.938 674.375ZM1562.03 709.75L1562.03 711.469L1562.72 711.469C1562.48 710.899 1562.27 710.318 1562.03 709.75ZM414.281 751.938C384.906 751.938 361.988 760.169 345.531 776.625C335.786 786.37 329.006 798.477 325.031 812.812C324.369 815.679 323.655 818.526 323.031 821.406C321.618 828.939 320.844 836.97 320.844 845.625C320.844 866.772 325.002 884.367 333.312 898.438C341.623 912.508 352.473 922.782 365.844 929.281C379.215 935.781 396.094 939.031 416.5 939.031C436.577 939.031 453.359 935.279 466.812 927.75C480.266 920.221 490.539 909.692 497.656 896.156C504.774 882.621 508.344 865.272 508.344 844.125C508.344 814.997 500.198 792.356 483.906 776.188C467.614 760.019 444.397 751.938 414.281 751.938ZM1234.34 751.938C1204.97 751.938 1182.08 760.169 1165.62 776.625C1149.17 793.081 1140.94 816.086 1140.94 845.625C1140.94 866.772 1145.1 884.367 1153.41 898.438C1161.72 912.508 1172.54 922.782 1185.91 929.281C1199.28 935.781 1216.16 939.031 1236.56 939.031C1256.64 939.031 1273.42 935.279 1286.88 927.75C1300.33 920.221 1310.6 909.692 1317.72 896.156C1324.84 882.621 1328.41 865.272 1328.41 844.125C1328.41 814.997 1320.26 792.356 1303.97 776.188C1287.68 760.019 1264.46 751.938 1234.34 751.938ZM538.344 755.031L538.344 935.969L690.875 935.969L690.875 895L594.375 895L594.375 859.312L681.375 859.312L681.375 822.406L594.375 822.406L594.375 793.656L688.156 793.656L688.156 755.031L538.344 755.031ZM726.969 755.031L726.969 862.906C726.969 871.793 728.7 881.981 732.156 893.5C734.295 900.658 738.262 907.628 744.063 914.375C749.864 921.122 756.256 926.308 763.25 929.969C770.244 933.63 778.935 936.078 789.344 937.312C799.752 938.547 809.383 939.156 818.188 939.156C833.41 939.156 846.451 937.156 857.312 933.125C865.129 930.245 872.571 925.242 879.688 918.125C886.805 911.008 892.043 902.691 895.375 893.188C898.707 883.684 900.375 873.603 900.375 862.906L900.375 755.031L844.594 755.031L844.594 865.5C844.594 875.538 841.847 883.278 836.375 888.75C830.903 894.222 823.345 896.969 813.719 896.969C804.01 896.969 796.441 894.179 790.969 888.625C785.497 883.071 782.75 875.374 782.75 865.5L782.75 755.031L726.969 755.031ZM937.781 755.031L937.781 935.969L990.344 935.969L990.344 836.594L1058.09 935.969L1110.81 935.969L1110.81 755.031L1058.09 755.031L1058.09 855.125L989.969 755.031L937.781 755.031ZM1358.41 755.031L1358.41 935.969L1510.94 935.969L1510.94 895L1414.44 895L1414.44 859.312L1501.44 859.312L1501.44 822.406L1414.44 822.406L1414.44 793.656L1508.22 793.656L1508.22 755.031L1358.41 755.031ZM1552 755.031L1552 862.906C1552 871.793 1553.73 881.981 1557.19 893.5C1559.33 900.658 1563.29 907.628 1569.09 914.375C1574.89 921.122 1581.29 926.307 1588.28 929.969C1594.55 933.249 1602.27 935.512 1611.28 936.844C1609.06 873.515 1597.82 812.516 1578.78 755.031L1552 755.031ZM414.156 794.281C425.923 794.281 435.254 798.204 442.125 806.062C448.996 813.921 452.438 826.374 452.438 843.406C452.438 863.648 449.145 877.652 442.562 885.469C435.98 893.286 426.67 897.219 414.656 897.219C402.972 897.219 393.726 893.2 386.938 885.219C380.149 877.237 376.781 864.141 376.781 845.875C376.781 827.444 380.17 814.231 387 806.25C393.829 798.269 402.884 794.281 414.156 794.281ZM1234.22 794.281C1245.99 794.281 1255.32 798.204 1262.19 806.062C1269.06 813.921 1272.5 826.374 1272.5 843.406C1272.5 863.648 1269.21 877.652 1262.62 885.469C1256.04 893.286 1246.73 897.219 1234.72 897.219C1223.03 897.219 1213.82 893.2 1207.03 885.219C1200.24 877.237 1196.84 864.141 1196.84 845.875C1196.84 827.444 1200.26 814.231 1207.09 806.25C1213.92 798.269 1222.95 794.281 1234.22 794.281ZM1027.5 978.094C998.125 978.094 975.206 986.325 958.75 1002.78C942.294 1019.24 934.062 1042.21 934.062 1071.75C934.062 1092.9 938.22 1110.52 946.531 1124.59C954.842 1138.66 965.692 1148.94 979.062 1155.44C992.434 1161.94 1009.31 1165.19 1029.72 1165.19C1049.8 1165.19 1066.58 1161.44 1080.03 1153.91C1093.48 1146.38 1103.76 1135.85 1110.88 1122.31C1117.99 1108.78 1121.56 1091.43 1121.56 1070.28C1121.56 1041.15 1113.42 1018.51 1097.12 1002.34C1080.83 986.175 1057.62 978.094 1027.5 978.094ZM331.469 981.156L331.469 1132.81C334.172 1142.67 337.07 1152.43 340.219 1162.09L484.031 1162.09L484.031 1121.12L387.5 1121.12L387.5 1085.47L474.531 1085.47L474.531 1048.56L387.5 1048.56L387.5 1019.81L481.312 1019.81L481.312 981.156L331.469 981.156ZM520.125 981.156L520.125 1089.03C520.125 1097.92 521.825 1108.14 525.281 1119.66C527.421 1126.81 531.418 1133.75 537.219 1140.5C543.02 1147.25 549.412 1152.46 556.406 1156.12C563.4 1159.79 572.091 1162.23 582.5 1163.47C592.909 1164.7 602.508 1165.31 611.312 1165.31C626.535 1165.31 639.576 1163.31 650.438 1159.28C658.254 1156.4 665.726 1151.4 672.844 1144.28C679.961 1137.16 685.199 1128.85 688.531 1119.34C691.864 1109.84 693.531 1099.73 693.531 1089.03L693.531 981.156L637.75 981.156L637.75 1091.62C637.75 1101.66 635.003 1109.43 629.531 1114.91C624.059 1120.38 616.502 1123.09 606.875 1123.09C597.166 1123.09 589.566 1120.34 584.094 1114.78C578.622 1109.23 575.906 1101.5 575.906 1091.62L575.906 981.156L520.125 981.156ZM730.906 981.156L730.906 1162.09L783.5 1162.09L783.5 1062.75L851.25 1162.09L903.969 1162.09L903.969 981.156L851.25 981.156L851.25 1081.25L783.125 981.156L730.906 981.156ZM1151.53 981.156L1151.53 1162.09L1304.09 1162.09L1304.09 1121.12L1207.59 1121.12L1207.59 1085.47L1294.59 1085.47L1294.59 1048.56L1207.59 1048.56L1207.59 1019.81L1301.38 1019.81L1301.38 981.156L1151.53 981.156ZM1347.72 981.156L1347.72 1089.03C1347.72 1097.92 1349.45 1108.14 1352.91 1119.66C1355.05 1126.81 1359.01 1133.75 1364.81 1140.5C1370.61 1147.25 1377.01 1152.46 1384 1156.12C1390.99 1159.79 1399.69 1162.23 1410.09 1163.47C1420.5 1164.7 1430.13 1165.31 1438.94 1165.31C1454.16 1165.31 1467.2 1163.28 1478.06 1159.25C1485.88 1156.37 1493.32 1151.4 1500.44 1144.28C1507.56 1137.16 1512.79 1128.85 1516.12 1119.34C1519.46 1109.84 1521.12 1099.73 1521.12 1089.03L1521.12 981.156L1465.34 981.156L1465.34 1091.62C1465.34 1101.66 1462.6 1109.43 1457.12 1114.91C1451.65 1120.38 1444.1 1123.09 1434.47 1123.09C1424.76 1123.09 1417.19 1120.34 1411.72 1114.78C1406.25 1109.23 1403.5 1101.5 1403.5 1091.62L1403.5 981.156L1347.72 981.156ZM1558.53 981.156L1558.53 1162.09L1579.78 1162.09C1598.35 1105.12 1609.23 1044.7 1611.31 982.031L1610.72 981.156L1558.53 981.156ZM1027.38 1020.41C1039.14 1020.41 1048.47 1024.36 1055.34 1032.22C1062.21 1040.08 1065.66 1052.5 1065.66 1069.53C1065.66 1089.77 1062.36 1103.81 1055.78 1111.62C1049.2 1119.44 1039.89 1123.34 1027.88 1123.34C1016.19 1123.34 1006.94 1119.36 1000.16 1111.38C993.368 1103.39 990 1090.27 990 1072C990 1053.57 993.389 1040.36 1000.22 1032.38C1007.05 1024.39 1016.1 1020.41 1027.38 1020.41ZM821.469 1202.59C792.094 1202.59 769.175 1210.82 752.719 1227.28C736.262 1243.74 728.031 1266.71 728.031 1296.25C728.031 1317.4 732.189 1335.02 740.5 1349.09C748.811 1363.16 759.66 1373.44 773.031 1379.94C786.402 1386.44 803.282 1389.69 823.688 1389.69C843.765 1389.69 860.547 1385.94 874 1378.41C887.453 1370.88 897.727 1360.35 904.844 1346.81C911.961 1333.28 915.531 1315.93 915.531 1294.78C915.531 1265.65 907.386 1243.01 891.094 1226.84C874.802 1210.68 851.585 1202.59 821.469 1202.59ZM356.156 1205.66C360.471 1216.25 365.028 1226.72 369.875 1237.03L369.875 1205.66L356.156 1205.66ZM431.719 1205.66L431.719 1316.12C431.719 1323.74 430.121 1330.04 426.969 1335.03C436.894 1349.11 447.236 1362.86 458.219 1376.09C461.13 1373.95 464.011 1371.58 466.812 1368.78C473.93 1361.66 479.168 1353.35 482.5 1343.84C485.832 1334.34 487.5 1324.23 487.5 1313.53L487.5 1205.66L431.719 1205.66ZM524.875 1205.66L524.875 1386.59L577.469 1386.59L577.469 1287.25L645.219 1386.59L697.938 1386.59L697.938 1205.66L645.219 1205.66L645.219 1305.78L577.094 1205.66L524.875 1205.66ZM945.5 1205.66L945.5 1386.59L1098.06 1386.59L1098.06 1345.62L1001.56 1345.62L1001.56 1309.97L1088.56 1309.97L1088.56 1273.06L1001.56 1273.06L1001.56 1244.31L1095.34 1244.31L1095.34 1205.66L945.5 1205.66ZM1136.03 1205.66L1136.03 1313.53C1136.03 1322.42 1137.73 1332.64 1141.19 1344.16C1143.33 1351.31 1147.32 1358.25 1153.12 1365C1158.93 1371.75 1165.32 1376.96 1172.31 1380.62C1179.31 1384.29 1188 1386.73 1198.41 1387.97C1208.81 1389.2 1218.41 1389.81 1227.22 1389.81C1242.44 1389.81 1255.48 1387.81 1266.34 1383.78C1274.16 1380.9 1281.63 1375.9 1288.75 1368.78C1295.87 1361.66 1301.11 1353.35 1304.44 1343.84C1307.77 1334.34 1309.44 1324.23 1309.44 1313.53L1309.44 1205.66L1253.62 1205.66L1253.62 1316.12C1253.63 1326.16 1250.91 1333.93 1245.44 1339.41C1239.97 1344.88 1232.41 1347.59 1222.78 1347.59C1213.07 1347.59 1205.47 1344.84 1200 1339.28C1194.53 1333.73 1191.81 1326 1191.81 1316.12L1191.81 1205.66L1136.03 1205.66ZM1346.81 1205.66L1346.81 1386.59L1399.41 1386.59L1399.41 1287.25L1460.78 1377.25C1482.58 1351.12 1502.33 1323.26 1519.88 1293.91L1519.88 1205.66L1467.16 1205.66L1467.16 1305.78L1399.03 1205.66L1346.81 1205.66ZM821.344 1244.91C833.11 1244.91 842.443 1248.86 849.312 1256.72C856.183 1264.58 859.625 1277 859.625 1294.03C859.625 1314.27 856.333 1328.31 849.75 1336.12C843.168 1343.94 833.857 1347.84 821.844 1347.84C810.16 1347.84 800.913 1343.86 794.125 1335.88C787.337 1327.89 783.969 1314.77 783.969 1296.5C783.969 1278.07 787.358 1264.89 794.188 1256.91C801.017 1248.92 810.071 1244.91 821.344 1244.91ZM621.156 1430.22C591.782 1430.22 568.863 1438.45 552.406 1454.91C549.851 1457.46 547.565 1460.22 545.406 1463.09C559.13 1474.42 573.43 1485.03 588.062 1495.22C589.625 1491.08 591.457 1487.36 593.875 1484.53C600.704 1476.55 609.759 1472.56 621.031 1472.56C632.798 1472.56 642.098 1476.49 648.969 1484.34C655.839 1492.2 659.281 1504.66 659.281 1521.69C659.281 1527.66 658.885 1532.92 658.313 1537.81C675.022 1546.55 692.103 1554.67 709.625 1561.97C713.284 1550.72 715.188 1537.61 715.188 1522.44C715.187 1493.31 707.042 1470.64 690.75 1454.47C674.458 1438.3 651.272 1430.22 621.156 1430.22ZM745.188 1433.31L745.188 1575.47C793.702 1592.4 844.775 1603.82 897.75 1608.84L897.75 1573.28L801.219 1573.28L801.219 1537.59L888.25 1537.59L888.25 1500.72L801.219 1500.72L801.219 1471.94L895.031 1471.94L895.031 1433.31L745.188 1433.31ZM933.812 1433.31L933.812 1541.19C933.812 1550.07 935.544 1560.26 939 1571.78C941.139 1578.94 945.105 1585.91 950.906 1592.66C956.707 1599.4 963.1 1604.62 970.094 1608.28C972.37 1609.47 974.891 1610.5 977.531 1611.44C1013.27 1610.49 1048.3 1606.73 1082.38 1600.25C1083.78 1599.03 1085.18 1597.79 1086.56 1596.41C1093.68 1589.29 1098.89 1581 1102.22 1571.5C1105.55 1562 1107.22 1551.88 1107.22 1541.19L1107.22 1433.31L1051.44 1433.31L1051.44 1543.78C1051.44 1553.82 1048.72 1561.56 1043.25 1567.03C1037.78 1572.5 1030.22 1575.25 1020.59 1575.25C1010.88 1575.25 1003.28 1572.46 997.812 1566.91C992.341 1561.35 989.594 1553.66 989.594 1543.78L989.594 1433.31L933.812 1433.31ZM1144.62 1433.31L1144.62 1585.19C1162.49 1579.92 1180.02 1573.88 1197.22 1567.16L1197.22 1514.91L1224.97 1555.59C1257.35 1541.17 1288.32 1524.2 1317.66 1504.91L1317.66 1433.31L1264.97 1433.31L1264.97 1533.41L1196.84 1433.31L1144.62 1433.31ZM1406 1435.19C1392.85 1439.25 1381.62 1445.75 1372.47 1454.91C1366.16 1461.22 1361.11 1468.52 1357.22 1476.75C1374.17 1463.7 1390.43 1449.81 1406 1435.19Z" fill="url(#LinearGradient_4)" fill-rule="nonzero" opacity="0.713262" stroke="none" vectornator:layerName="Curve 3"/>
</g>
</svg>
