<svg xmlns="http://www.w3.org/2000/svg" xml:space="preserve" stroke-miterlimit="10" style="fill-rule:nonzero;clip-rule:evenodd;stroke-linecap:round;stroke-linejoin:round" viewBox="0 0 1024 1024"><defs><linearGradient id="a" x1="193.859" x2="912.952" y1="787.458" y2="246.359" gradientUnits="userSpaceOnUse"><stop offset="0" stop-color="#ffa5d5"/><stop offset="1" stop-color="#ffcdfe"/></linearGradient></defs><path fill="url(#a)" d="M765.875 37.281c-37.435-1.88-71.855 52.609-103.5 131.469-81.01 201.882-145.395 640.446-213.344 422.938C381.082 374.179 223.67 321.436 147.312 401.5c-76.357 80.063-71.485 130.893-97.437 405.75-12.052 127.638 1036.375 425.68 914.469-228.375-74.29-398.562-140.07-538.661-198.469-541.594Zm-3.844 252.031c52.642 0 95.313 41.45 95.313 92.563s-42.671 92.531-95.313 92.531c-52.643 0-95.312-41.418-95.312-92.531 0-51.113 42.669-92.562 95.312-92.563Z"/></svg>