<svg stroke-miterlimit="10" style="fill-rule:nonzero;clip-rule:evenodd;stroke-linecap:round;stroke-linejoin:round" viewBox="0 0 1060.54 1060.54" xml:space="preserve" xmlns="http://www.w3.org/2000/svg" xmlns:vectornator="http://vectornator.io" xmlns:xlink="http://www.w3.org/1999/xlink"><defs><linearGradient gradientUnits="userSpaceOnUse" id="b" x1="166.229" x2="866.993" y1="801.982" y2="149.564"><stop offset="0" stop-color="#e24cff"/><stop offset="1" stop-color="#ff47a4"/></linearGradient><linearGradient gradientUnits="userSpaceOnUse" id="e" x1="6.456" x2="1054.08" y1="692.102" y2="692.102"><stop offset="0" stop-color="#e24cff"/><stop offset="1" stop-color="#ff47a4"/></linearGradient><linearGradient gradientUnits="userSpaceOnUse" id="f" x1="6.456" x2="1054.08" y1="692.102" y2="692.102"><stop offset="0" stop-color="#e24cff"/><stop offset="1" stop-color="#ff47a4"/></linearGradient><linearGradient gradientUnits="userSpaceOnUse" id="i" x1="5.314" x2="1052.94" y1="463.128" y2="463.128"><stop offset="0" stop-color="#e24cff"/><stop offset="1" stop-color="#ff47a4"/></linearGradient><linearGradient gradientUnits="userSpaceOnUse" id="j" x1="-276.928" x2="770.698" y1="988.178" y2="988.178"><stop offset="0" stop-color="#e24cff"/><stop offset="1" stop-color="#ff47a4"/></linearGradient><linearGradient gradientUnits="userSpaceOnUse" id="k" x1="261.96" x2="1309.59" y1="985.824" y2="985.824"><stop offset="0" stop-color="#e24cff"/><stop offset="1" stop-color="#ff47a4"/></linearGradient><path d="M18.27 530.27c0-282.77 229.23-512 512-512s512 229.23 512 512-229.23 512-512 512-512-229.23-512-512z" id="c"/><path d="M526.864-60.648c-221.687.967-410.475 139.524-486.099 334.39-19.317 73.683-31.003 150.47-33.72 229.561.473 6.147.894 12.312 1.572 18.399-.645.329-1.257.715-1.9 1.048-.091 5.718-.261 11.414-.261 17.154 0 381.386 203.984 714.856 508.623 898.076 1.047-.62 2.166-1.13 3.209-1.77 5.134 3.06 10.468 5.76 15.714 8.65 310.993-181.69 520.078-518.792 520.078-904.956 0-1.249-.06-2.484-.06-3.731-1.95-1.164-3.8-2.464-5.77-3.603 2.28-17.136 3.47-34.592 4.06-52.184-3.55-63.328-12.66-125.149-26.97-184.971C955.129 87.603 758.27-61.656 526.864-60.648z" id="g"/></defs><clipPath id="a"><path d="M0 0h1060.54v1060.54H0z"/></clipPath><g clip-path="url(#a)" vectornator:layerName="Layer 1"><g vectornator:layerName="Group 4"><use fill="url(#b)" stroke="#880098" stroke-width="40" vectornator:layerName="Oval 1" xlink:href="#c"/><clipPath clip-rule="nonzero" id="d"><use xlink:href="#c"/></clipPath><g vectornator:layerName="Group 3" clip-path="url(#d)"><path d="M526.864-60.648c-221.687.967-410.475 139.524-486.099 334.39-19.317 73.683-31.003 150.47-33.72 229.561.473 6.147.894 12.312 1.572 18.399-.645.329-1.257.715-1.9 1.048-.091 5.718-.261 11.414-.261 17.154 0 381.386 203.984 714.856 508.623 898.076 1.047-.62 2.166-1.13 3.209-1.77 5.134 3.06 10.468 5.76 15.714 8.65 310.993-181.69 520.078-518.792 520.078-904.956 0-1.249-.06-2.484-.06-3.731-1.95-1.164-3.8-2.464-5.77-3.603 2.28-17.136 3.47-34.592 4.06-52.184-3.55-63.328-12.66-125.149-26.97-184.971C955.129 87.603 758.27-61.656 526.864-60.648z" fill="url(#e)" opacity=".332" stroke="#880098" stroke-width="40" vectornator:layerName="path"/><g vectornator:layerName="path"><use fill="url(#f)" stroke="#880098" stroke-width="40" vectornator:layerName="path" xlink:href="#g"/><clipPath clip-rule="nonzero" id="h"><use xlink:href="#g"/></clipPath><g clip-path="url(#h)" stroke="#880098" stroke-width="40"><path d="M5.319 465.411C4.059 176.119 237.554-59.419 526.845-60.68c289.291-1.261 524.835 232.235 526.095 521.526 1.26 289.291-232.237 524.829-521.529 526.091-289.292 1.26-524.83-232.235-526.092-521.526z" fill="url(#i)" vectornator:layerName="Oval 1"/><path d="M-276.923 990.459c-1.261-289.291 232.234-524.83 521.525-526.091 289.292-1.26 524.831 232.235 526.091 521.526 1.262 289.296-232.235 524.836-521.526 526.096-289.291 1.26-524.83-232.24-526.09-521.531z" fill="url(#j)" vectornator:layerName="Oval 2"/><path d="M261.965 988.11c-1.26-289.291 232.235-524.829 521.526-526.091 289.289-1.26 524.839 232.235 526.099 521.526 1.26 289.295-232.24 524.825-521.532 526.085-289.293 1.27-524.831-232.23-526.093-521.52z" fill="url(#k)" vectornator:layerName="Oval 3"/></g></g></g></g><path d="M18.27 530.27c0-282.77 229.23-512 512-512s512 229.23 512 512-229.23 512-512 512-512-229.23-512-512z" fill="none" stroke="#880098" stroke-width="40" vectornator:layerName="Oval 1"/></g></svg>