<?xml version="1.0" encoding="UTF-8" standalone="no"?>
<!DOCTYPE svg PUBLIC "-//W3C//DTD SVG 1.1//EN" "http://www.w3.org/Graphics/SVG/1.1/DTD/svg11.dtd">
<!-- Created with Vectornator (http://vectornator.io/) -->
<svg height="100%" stroke-miterlimit="10" style="fill-rule:nonzero;clip-rule:evenodd;stroke-linecap:round;stroke-linejoin:round;" version="1.1" viewBox="0 0 1920 1920" width="100%" xml:space="preserve" xmlns="http://www.w3.org/2000/svg" xmlns:vectornator="http://vectornator.io" xmlns:xlink="http://www.w3.org/1999/xlink">
<defs>
<radialGradient cx="1007.26" cy="1042.86" gradientTransform="matrix(1.94904 0 0 1.94904 -1003.18 -1072.57)" gradientUnits="userSpaceOnUse" id="RadialGradient" r="460.534">
<stop offset="0.674951" stop-color="#d556ff"/>
<stop offset="1" stop-color="#ffb2d6" stop-opacity="0"/>
</radialGradient>
<linearGradient gradientTransform="matrix(0.703662 0 0 0.703662 284.485 284.485)" gradientUnits="userSpaceOnUse" id="LinearGradient" x1="604.662" x2="1278.87" y1="1302.5" y2="712.003">
<stop offset="0" stop-color="#fbf0ff"/>
<stop offset="0.995124" stop-color="#ffe1f5"/>
</linearGradient>
<linearGradient gradientTransform="matrix(1 0 0 1 3.19744e-13 3.19744e-13)" gradientUnits="userSpaceOnUse" id="LinearGradient_2" x1="397.312" x2="1538.5" y1="1052.98" y2="1052.98">
<stop offset="0" stop-color="#f2a2ff"/>
<stop offset="0.994425" stop-color="#ff90da"/>
</linearGradient>
<linearGradient gradientTransform="matrix(1 0 0 1 2.84217e-14 0)" gradientUnits="userSpaceOnUse" id="LinearGradient_3" x1="849.503" x2="1003.93" y1="1341.4" y2="544.143">
<stop offset="0" stop-color="#f2a2ff"/>
<stop offset="0.994425" stop-color="#ff90da"/>
</linearGradient>
<linearGradient gradientTransform="matrix(1 0 0 1 0 0)" gradientUnits="userSpaceOnUse" id="LinearGradient_4" x1="906.776" x2="1009.44" y1="1536.4" y2="582.736">
<stop offset="0" stop-color="#f2a2ff"/>
<stop offset="0.994425" stop-color="#ff90da"/>
</linearGradient>
<linearGradient gradientTransform="matrix(1 0 0 1 0 0)" gradientUnits="userSpaceOnUse" id="LinearGradient_5" x1="735.743" x2="838.405" y1="1474.12" y2="520.46">
<stop offset="0" stop-color="#f2a2ff"/>
<stop offset="0.994425" stop-color="#ff90da"/>
</linearGradient>
</defs>
<g id="Layer-2" vectornator:layerName="Layer 2">
<g opacity="0" vectornator:layerName="Group 1">
<path d="M3.19744e-13 960C3.19744e-13 429.807 429.807 3.19744e-13 960 3.19744e-13C1490.19 3.19744e-13 1920 429.807 1920 960C1920 1490.19 1490.19 1920 960 1920C429.807 1920 3.19744e-13 1490.19 3.19744e-13 960Z" fill="url(#RadialGradient)" fill-rule="nonzero" opacity="0.49681" stroke="none" vectornator:layerName="Oval 1"/>
<path d="M308.128 960C308.128 599.981 599.981 308.128 960 308.128C1320.02 308.128 1611.87 599.981 1611.87 960C1611.87 1320.02 1320.02 1611.87 960 1611.87C599.981 1611.87 308.128 1320.02 308.128 960Z" fill="url(#LinearGradient)" fill-rule="nonzero" opacity="0.901384" stroke="none" vectornator:layerName="Oval 2"/>
</g>
<path d="M1280.34 494.094C1246.85 493.887 1215.17 529.688 1185.19 586.781C1173.8 608.47 1162.65 633.255 1151.75 660.281C1049.06 914.968 965.87 1467.64 881.875 1194.09C797.88 920.552 600.809 855 504.625 956.25C428.286 1036.61 416.068 1095.83 397.313 1289C510.466 1482.11 720.017 1611.87 960 1611.87C1211.66 1611.88 1429.86 1469.18 1538.5 1260.37C1536.81 1233.43 1533.55 1205.13 1528.09 1175.06C1436.38 669.291 1354.03 494.548 1280.34 494.094ZM1274.19 799.656C1344.14 799.656 1400.84 856.362 1400.84 926.312C1400.84 996.263 1344.14 1052.97 1274.19 1052.97C1204.24 1052.97 1147.53 996.263 1147.53 926.312C1147.53 856.362 1204.24 799.656 1274.19 799.656Z" fill="url(#LinearGradient_2)" fill-rule="nonzero" opacity="0" stroke="none" vectornator:layerName="Curve 1"/>
<path d="M960 308.125C955.764 308.125 951.592 308.357 947.375 308.438L947.375 486.562L1099.94 486.562L1099.94 445.594L1003.41 445.594L1003.41 409.906L1090.44 409.906L1090.44 373L1003.41 373L1003.41 344.25L1097.22 344.25L1097.22 322.719C1052.96 313.234 1007.09 308.125 960 308.125ZM875.094 313.812C828.663 319.856 783.766 330.687 740.938 345.969C733.639 359.84 729.906 376.548 729.906 396.219C729.906 417.365 734.064 434.961 742.375 449.031C750.686 463.102 761.535 473.406 774.906 479.906C788.277 486.407 805.157 489.656 825.563 489.656C845.64 489.656 862.391 485.872 875.844 478.344C889.297 470.815 899.602 460.285 906.719 446.75C913.836 433.215 917.406 415.897 917.406 394.75C917.406 365.622 909.261 342.95 892.969 326.781C887.749 321.601 881.734 317.333 875.094 313.812ZM1136.03 332.375L1136.03 413.5C1136.03 422.386 1137.73 432.574 1141.19 444.094C1143.33 451.252 1147.32 458.222 1153.12 464.969C1158.93 471.716 1165.32 476.901 1172.31 480.562C1179.31 484.224 1188 486.672 1198.41 487.906C1208.81 489.141 1218.41 489.781 1227.22 489.781C1242.44 489.781 1255.48 487.751 1266.34 483.719C1274.16 480.839 1281.63 475.836 1288.75 468.719C1295.87 461.601 1301.11 453.285 1304.44 443.781C1307.77 434.278 1309.44 424.197 1309.44 413.5L1309.44 409.812C1291.41 398.342 1272.79 387.753 1253.62 378.062L1253.62 416.094C1253.63 426.132 1250.91 433.872 1245.44 439.344C1239.97 444.816 1232.41 447.562 1222.78 447.562C1213.07 447.562 1205.47 444.773 1200 439.219C1194.53 433.665 1191.81 425.967 1191.81 416.094L1191.81 350.719C1173.6 343.784 1154.99 337.681 1136.03 332.375ZM823.219 344.875C834.985 344.875 844.318 348.798 851.188 356.656C858.058 364.514 861.469 376.967 861.469 394C861.469 414.241 858.177 428.277 851.594 436.094C845.011 443.911 835.732 447.812 823.719 447.812C812.035 447.812 802.788 443.825 796 435.844C789.212 427.862 785.813 414.735 785.813 396.469C785.812 378.038 789.233 364.825 796.062 356.844C802.892 348.862 811.946 344.875 823.219 344.875ZM699.781 362.281C681.791 370.124 664.195 378.686 647.094 388.062L647.094 405.719L638.469 393.031C625.219 400.561 612.212 408.464 599.562 416.875L647.094 486.562L699.781 486.562L699.781 362.281ZM579.344 430.969C561.089 444.127 543.521 458.161 526.75 473.094L526.75 486.562L579.344 486.562L579.344 430.969ZM1346.81 435.344L1346.81 486.562L1399.41 486.562L1399.41 478.5C1382.66 463.213 1365.08 448.837 1346.81 435.344ZM617.938 527.438C588.563 527.438 565.644 535.669 549.188 552.125C532.731 568.581 524.5 591.586 524.5 621.125C524.5 642.272 528.658 659.867 536.969 673.938C545.279 688.008 556.129 698.281 569.5 704.781C582.871 711.281 599.75 714.531 620.156 714.531C640.233 714.531 657.016 710.779 670.469 703.25C683.922 695.721 694.196 685.192 701.313 671.656C708.43 658.121 712 640.772 712 619.625C712 590.497 703.854 567.856 687.563 551.688C671.271 535.519 648.053 527.438 617.938 527.438ZM1438 527.438C1408.63 527.438 1385.71 535.669 1369.25 552.125C1352.79 568.581 1344.56 591.586 1344.56 621.125C1344.56 642.272 1348.72 659.867 1357.03 673.938C1365.34 688.008 1376.19 698.281 1389.56 704.781C1402.93 711.281 1419.81 714.531 1440.22 714.531C1460.3 714.531 1477.08 710.779 1490.53 703.25C1503.98 695.721 1514.26 685.192 1521.38 671.656C1525.54 663.74 1528.33 654.366 1530.06 643.844C1506.88 602.125 1479.25 563.238 1447.81 527.781C1444.62 527.579 1441.37 527.438 1438 527.438ZM469.812 530.531C460.07 541.642 450.667 553.053 441.688 564.812L441.688 630.625L418.656 596.781C409.382 610.576 400.751 624.829 392.531 639.344L441.688 711.469L494.406 711.469L494.406 530.531L469.812 530.531ZM741.969 530.531L741.969 711.469L894.531 711.469L894.531 670.469L798 670.469L798 634.812L885.031 634.812L885.031 597.906L798 597.906L798 569.156L891.812 569.156L891.812 530.531L741.969 530.531ZM930.625 530.531L930.625 638.406C930.625 647.293 932.356 657.48 935.812 669C937.952 676.158 941.918 683.128 947.719 689.875C953.52 696.622 959.913 701.808 966.906 705.469C973.9 709.13 982.591 711.578 993 712.812C1003.41 714.047 1013.01 714.656 1021.81 714.656C1037.03 714.656 1050.08 712.656 1060.94 708.625C1068.75 705.745 1076.23 700.742 1083.34 693.625C1090.46 686.508 1095.7 678.191 1099.03 668.688C1102.36 659.184 1104.03 649.103 1104.03 638.406L1104.03 530.531L1048.25 530.531L1048.25 641C1048.25 651.038 1045.5 658.778 1040.03 664.25C1034.56 669.722 1027 672.469 1017.38 672.469C1007.67 672.469 1000.07 669.679 994.594 664.125C989.122 658.571 986.406 650.874 986.406 641L986.406 530.531L930.625 530.531ZM1141.41 530.531L1141.41 711.469L1194 711.469L1194 612.094L1261.75 711.469L1314.47 711.469L1314.47 530.531L1261.75 530.531L1261.75 630.625L1193.62 530.531L1141.41 530.531ZM617.812 569.781C629.579 569.781 638.911 573.705 645.781 581.562C652.652 589.42 656.094 601.874 656.094 618.906C656.094 639.148 652.802 653.152 646.219 660.969C639.636 668.786 630.326 672.719 618.312 672.719C606.628 672.719 597.382 668.7 590.594 660.719C583.805 652.737 580.406 639.642 580.406 621.375C580.406 602.944 583.827 589.731 590.656 581.75C597.486 573.769 606.54 569.781 617.812 569.781ZM1437.88 569.781C1449.64 569.781 1458.97 573.705 1465.84 581.562C1472.71 589.42 1476.16 601.874 1476.16 618.906C1476.16 639.148 1472.86 653.152 1466.28 660.969C1459.7 668.786 1450.39 672.719 1438.38 672.719C1426.69 672.719 1417.45 668.7 1410.66 660.719C1403.87 652.737 1400.5 639.642 1400.5 621.375C1400.5 602.944 1403.89 589.731 1410.72 581.75C1417.55 573.769 1426.6 569.781 1437.88 569.781ZM373.938 674.375C368.004 686.527 362.467 698.907 357.281 711.469L373.938 711.469L373.938 674.375ZM1562.03 709.75L1562.03 711.469L1562.72 711.469C1562.48 710.899 1562.27 710.318 1562.03 709.75ZM414.281 751.938C384.906 751.938 361.988 760.169 345.531 776.625C335.786 786.37 329.006 798.477 325.031 812.812C324.369 815.679 323.655 818.526 323.031 821.406C321.618 828.939 320.844 836.97 320.844 845.625C320.844 866.772 325.002 884.367 333.312 898.438C341.623 912.508 352.473 922.782 365.844 929.281C379.215 935.781 396.094 939.031 416.5 939.031C436.577 939.031 453.359 935.279 466.812 927.75C480.266 920.221 490.539 909.692 497.656 896.156C504.774 882.621 508.344 865.272 508.344 844.125C508.344 814.997 500.198 792.356 483.906 776.188C467.614 760.019 444.397 751.938 414.281 751.938ZM1234.34 751.938C1204.97 751.938 1182.08 760.169 1165.62 776.625C1149.17 793.081 1140.94 816.086 1140.94 845.625C1140.94 866.772 1145.1 884.367 1153.41 898.438C1161.72 912.508 1172.54 922.782 1185.91 929.281C1199.28 935.781 1216.16 939.031 1236.56 939.031C1256.64 939.031 1273.42 935.279 1286.88 927.75C1300.33 920.221 1310.6 909.692 1317.72 896.156C1324.84 882.621 1328.41 865.272 1328.41 844.125C1328.41 814.997 1320.26 792.356 1303.97 776.188C1287.68 760.019 1264.46 751.938 1234.34 751.938ZM538.344 755.031L538.344 935.969L690.875 935.969L690.875 895L594.375 895L594.375 859.312L681.375 859.312L681.375 822.406L594.375 822.406L594.375 793.656L688.156 793.656L688.156 755.031L538.344 755.031ZM726.969 755.031L726.969 862.906C726.969 871.793 728.7 881.981 732.156 893.5C734.295 900.658 738.262 907.628 744.063 914.375C749.864 921.122 756.256 926.308 763.25 929.969C770.244 933.63 778.935 936.078 789.344 937.312C799.752 938.547 809.383 939.156 818.188 939.156C833.41 939.156 846.451 937.156 857.312 933.125C865.129 930.245 872.571 925.242 879.688 918.125C886.805 911.008 892.043 902.691 895.375 893.188C898.707 883.684 900.375 873.603 900.375 862.906L900.375 755.031L844.594 755.031L844.594 865.5C844.594 875.538 841.847 883.278 836.375 888.75C830.903 894.222 823.345 896.969 813.719 896.969C804.01 896.969 796.441 894.179 790.969 888.625C785.497 883.071 782.75 875.374 782.75 865.5L782.75 755.031L726.969 755.031ZM937.781 755.031L937.781 935.969L990.344 935.969L990.344 836.594L1058.09 935.969L1110.81 935.969L1110.81 755.031L1058.09 755.031L1058.09 855.125L989.969 755.031L937.781 755.031ZM1358.41 755.031L1358.41 935.969L1510.94 935.969L1510.94 895L1414.44 895L1414.44 859.312L1501.44 859.312L1501.44 822.406L1414.44 822.406L1414.44 793.656L1508.22 793.656L1508.22 755.031L1358.41 755.031ZM1552 755.031L1552 862.906C1552 871.793 1553.73 881.981 1557.19 893.5C1559.33 900.658 1563.29 907.628 1569.09 914.375C1574.89 921.122 1581.29 926.307 1588.28 929.969C1594.55 933.249 1602.27 935.512 1611.28 936.844C1609.06 873.515 1597.82 812.516 1578.78 755.031L1552 755.031ZM414.156 794.281C425.923 794.281 435.254 798.204 442.125 806.062C448.996 813.921 452.438 826.374 452.438 843.406C452.438 863.648 449.145 877.652 442.562 885.469C435.98 893.286 426.67 897.219 414.656 897.219C402.972 897.219 393.726 893.2 386.938 885.219C380.149 877.237 376.781 864.141 376.781 845.875C376.781 827.444 380.17 814.231 387 806.25C393.829 798.269 402.884 794.281 414.156 794.281ZM1234.22 794.281C1245.99 794.281 1255.32 798.204 1262.19 806.062C1269.06 813.921 1272.5 826.374 1272.5 843.406C1272.5 863.648 1269.21 877.652 1262.62 885.469C1256.04 893.286 1246.73 897.219 1234.72 897.219C1223.03 897.219 1213.82 893.2 1207.03 885.219C1200.24 877.237 1196.84 864.141 1196.84 845.875C1196.84 827.444 1200.26 814.231 1207.09 806.25C1213.92 798.269 1222.95 794.281 1234.22 794.281ZM1027.5 978.094C998.125 978.094 975.206 986.325 958.75 1002.78C942.294 1019.24 934.062 1042.21 934.062 1071.75C934.062 1092.9 938.22 1110.52 946.531 1124.59C954.842 1138.66 965.692 1148.94 979.062 1155.44C992.434 1161.94 1009.31 1165.19 1029.72 1165.19C1049.8 1165.19 1066.58 1161.44 1080.03 1153.91C1093.48 1146.38 1103.76 1135.85 1110.88 1122.31C1117.99 1108.78 1121.56 1091.43 1121.56 1070.28C1121.56 1041.15 1113.42 1018.51 1097.12 1002.34C1080.83 986.175 1057.62 978.094 1027.5 978.094ZM331.469 981.156L331.469 1132.81C334.172 1142.67 337.07 1152.43 340.219 1162.09L484.031 1162.09L484.031 1121.12L387.5 1121.12L387.5 1085.47L474.531 1085.47L474.531 1048.56L387.5 1048.56L387.5 1019.81L481.312 1019.81L481.312 981.156L331.469 981.156ZM520.125 981.156L520.125 1089.03C520.125 1097.92 521.825 1108.14 525.281 1119.66C527.421 1126.81 531.418 1133.75 537.219 1140.5C543.02 1147.25 549.412 1152.46 556.406 1156.12C563.4 1159.79 572.091 1162.23 582.5 1163.47C592.909 1164.7 602.508 1165.31 611.312 1165.31C626.535 1165.31 639.576 1163.31 650.438 1159.28C658.254 1156.4 665.726 1151.4 672.844 1144.28C679.961 1137.16 685.199 1128.85 688.531 1119.34C691.864 1109.84 693.531 1099.73 693.531 1089.03L693.531 981.156L637.75 981.156L637.75 1091.62C637.75 1101.66 635.003 1109.43 629.531 1114.91C624.059 1120.38 616.502 1123.09 606.875 1123.09C597.166 1123.09 589.566 1120.34 584.094 1114.78C578.622 1109.23 575.906 1101.5 575.906 1091.62L575.906 981.156L520.125 981.156ZM730.906 981.156L730.906 1162.09L783.5 1162.09L783.5 1062.75L851.25 1162.09L903.969 1162.09L903.969 981.156L851.25 981.156L851.25 1081.25L783.125 981.156L730.906 981.156ZM1151.53 981.156L1151.53 1162.09L1304.09 1162.09L1304.09 1121.12L1207.59 1121.12L1207.59 1085.47L1294.59 1085.47L1294.59 1048.56L1207.59 1048.56L1207.59 1019.81L1301.38 1019.81L1301.38 981.156L1151.53 981.156ZM1347.72 981.156L1347.72 1089.03C1347.72 1097.92 1349.45 1108.14 1352.91 1119.66C1355.05 1126.81 1359.01 1133.75 1364.81 1140.5C1370.61 1147.25 1377.01 1152.46 1384 1156.12C1390.99 1159.79 1399.69 1162.23 1410.09 1163.47C1420.5 1164.7 1430.13 1165.31 1438.94 1165.31C1454.16 1165.31 1467.2 1163.28 1478.06 1159.25C1485.88 1156.37 1493.32 1151.4 1500.44 1144.28C1507.56 1137.16 1512.79 1128.85 1516.12 1119.34C1519.46 1109.84 1521.12 1099.73 1521.12 1089.03L1521.12 981.156L1465.34 981.156L1465.34 1091.62C1465.34 1101.66 1462.6 1109.43 1457.12 1114.91C1451.65 1120.38 1444.1 1123.09 1434.47 1123.09C1424.76 1123.09 1417.19 1120.34 1411.72 1114.78C1406.25 1109.23 1403.5 1101.5 1403.5 1091.62L1403.5 981.156L1347.72 981.156ZM1558.53 981.156L1558.53 1162.09L1579.78 1162.09C1598.35 1105.12 1609.23 1044.7 1611.31 982.031L1610.72 981.156L1558.53 981.156ZM1027.38 1020.41C1039.14 1020.41 1048.47 1024.36 1055.34 1032.22C1062.21 1040.08 1065.66 1052.5 1065.66 1069.53C1065.66 1089.77 1062.36 1103.81 1055.78 1111.62C1049.2 1119.44 1039.89 1123.34 1027.88 1123.34C1016.19 1123.34 1006.94 1119.36 1000.16 1111.38C993.368 1103.39 990 1090.27 990 1072C990 1053.57 993.389 1040.36 1000.22 1032.38C1007.05 1024.39 1016.1 1020.41 1027.38 1020.41ZM821.469 1202.59C792.094 1202.59 769.175 1210.82 752.719 1227.28C736.262 1243.74 728.031 1266.71 728.031 1296.25C728.031 1317.4 732.189 1335.02 740.5 1349.09C748.811 1363.16 759.66 1373.44 773.031 1379.94C786.402 1386.44 803.282 1389.69 823.688 1389.69C843.765 1389.69 860.547 1385.94 874 1378.41C887.453 1370.88 897.727 1360.35 904.844 1346.81C911.961 1333.28 915.531 1315.93 915.531 1294.78C915.531 1265.65 907.386 1243.01 891.094 1226.84C874.802 1210.68 851.585 1202.59 821.469 1202.59ZM356.156 1205.66C360.471 1216.25 365.028 1226.72 369.875 1237.03L369.875 1205.66L356.156 1205.66ZM431.719 1205.66L431.719 1316.12C431.719 1323.74 430.121 1330.04 426.969 1335.03C436.894 1349.11 447.236 1362.86 458.219 1376.09C461.13 1373.95 464.011 1371.58 466.812 1368.78C473.93 1361.66 479.168 1353.35 482.5 1343.84C485.832 1334.34 487.5 1324.23 487.5 1313.53L487.5 1205.66L431.719 1205.66ZM524.875 1205.66L524.875 1386.59L577.469 1386.59L577.469 1287.25L645.219 1386.59L697.938 1386.59L697.938 1205.66L645.219 1205.66L645.219 1305.78L577.094 1205.66L524.875 1205.66ZM945.5 1205.66L945.5 1386.59L1098.06 1386.59L1098.06 1345.62L1001.56 1345.62L1001.56 1309.97L1088.56 1309.97L1088.56 1273.06L1001.56 1273.06L1001.56 1244.31L1095.34 1244.31L1095.34 1205.66L945.5 1205.66ZM1136.03 1205.66L1136.03 1313.53C1136.03 1322.42 1137.73 1332.64 1141.19 1344.16C1143.33 1351.31 1147.32 1358.25 1153.12 1365C1158.93 1371.75 1165.32 1376.96 1172.31 1380.62C1179.31 1384.29 1188 1386.73 1198.41 1387.97C1208.81 1389.2 1218.41 1389.81 1227.22 1389.81C1242.44 1389.81 1255.48 1387.81 1266.34 1383.78C1274.16 1380.9 1281.63 1375.9 1288.75 1368.78C1295.87 1361.66 1301.11 1353.35 1304.44 1343.84C1307.77 1334.34 1309.44 1324.23 1309.44 1313.53L1309.44 1205.66L1253.62 1205.66L1253.62 1316.12C1253.63 1326.16 1250.91 1333.93 1245.44 1339.41C1239.97 1344.88 1232.41 1347.59 1222.78 1347.59C1213.07 1347.59 1205.47 1344.84 1200 1339.28C1194.53 1333.73 1191.81 1326 1191.81 1316.12L1191.81 1205.66L1136.03 1205.66ZM1346.81 1205.66L1346.81 1386.59L1399.41 1386.59L1399.41 1287.25L1460.78 1377.25C1482.58 1351.12 1502.33 1323.26 1519.88 1293.91L1519.88 1205.66L1467.16 1205.66L1467.16 1305.78L1399.03 1205.66L1346.81 1205.66ZM821.344 1244.91C833.11 1244.91 842.443 1248.86 849.312 1256.72C856.183 1264.58 859.625 1277 859.625 1294.03C859.625 1314.27 856.333 1328.31 849.75 1336.12C843.168 1343.94 833.857 1347.84 821.844 1347.84C810.16 1347.84 800.913 1343.86 794.125 1335.88C787.337 1327.89 783.969 1314.77 783.969 1296.5C783.969 1278.07 787.358 1264.89 794.188 1256.91C801.017 1248.92 810.071 1244.91 821.344 1244.91ZM621.156 1430.22C591.782 1430.22 568.863 1438.45 552.406 1454.91C549.851 1457.46 547.565 1460.22 545.406 1463.09C559.13 1474.42 573.43 1485.03 588.062 1495.22C589.625 1491.08 591.457 1487.36 593.875 1484.53C600.704 1476.55 609.759 1472.56 621.031 1472.56C632.798 1472.56 642.098 1476.49 648.969 1484.34C655.839 1492.2 659.281 1504.66 659.281 1521.69C659.281 1527.66 658.885 1532.92 658.313 1537.81C675.022 1546.55 692.103 1554.67 709.625 1561.97C713.284 1550.72 715.188 1537.61 715.188 1522.44C715.187 1493.31 707.042 1470.64 690.75 1454.47C674.458 1438.3 651.272 1430.22 621.156 1430.22ZM745.188 1433.31L745.188 1575.47C793.702 1592.4 844.775 1603.82 897.75 1608.84L897.75 1573.28L801.219 1573.28L801.219 1537.59L888.25 1537.59L888.25 1500.72L801.219 1500.72L801.219 1471.94L895.031 1471.94L895.031 1433.31L745.188 1433.31ZM933.812 1433.31L933.812 1541.19C933.812 1550.07 935.544 1560.26 939 1571.78C941.139 1578.94 945.105 1585.91 950.906 1592.66C956.707 1599.4 963.1 1604.62 970.094 1608.28C972.37 1609.47 974.891 1610.5 977.531 1611.44C1013.27 1610.49 1048.3 1606.73 1082.38 1600.25C1083.78 1599.03 1085.18 1597.79 1086.56 1596.41C1093.68 1589.29 1098.89 1581 1102.22 1571.5C1105.55 1562 1107.22 1551.88 1107.22 1541.19L1107.22 1433.31L1051.44 1433.31L1051.44 1543.78C1051.44 1553.82 1048.72 1561.56 1043.25 1567.03C1037.78 1572.5 1030.22 1575.25 1020.59 1575.25C1010.88 1575.25 1003.28 1572.46 997.812 1566.91C992.341 1561.35 989.594 1553.66 989.594 1543.78L989.594 1433.31L933.812 1433.31ZM1144.62 1433.31L1144.62 1585.19C1162.49 1579.92 1180.02 1573.88 1197.22 1567.16L1197.22 1514.91L1224.97 1555.59C1257.35 1541.17 1288.32 1524.2 1317.66 1504.91L1317.66 1433.31L1264.97 1433.31L1264.97 1533.41L1196.84 1433.31L1144.62 1433.31ZM1406 1435.19C1392.85 1439.25 1381.62 1445.75 1372.47 1454.91C1366.16 1461.22 1361.11 1468.52 1357.22 1476.75C1374.17 1463.7 1390.43 1449.81 1406 1435.19Z" fill="url(#LinearGradient_3)" fill-rule="nonzero" opacity="0.384732" stroke="none" vectornator:layerName="Curve 3"/>
<path d="M959.781 376.469C950.114 376.318 941.296 379.514 937.219 388.969C900.01 475.249 852.467 558.28 829.188 649.312C820.958 681.491 833.139 716.796 845.5 747.625C853.866 768.49 887.565 776.579 889.188 799C899.313 938.998 886.595 1079.81 879.656 1220C873.335 1347.71 859.836 1474.94 849.688 1602.41C885.562 1608.52 922.382 1611.88 960 1611.88C997.576 1611.88 1034.35 1608.51 1070.19 1602.41C1060.97 1486.26 1049.04 1370.29 1042.97 1253.94C1036.24 1125.06 1026.26 828.989 1030.66 806.344C1032.32 797.757 1071.96 753.929 1076.44 740.438C1085.93 711.815 1098.66 680.25 1090.84 651.125C1065.53 556.83 1024.27 475.772 982.219 387.656C979.311 381.563 966.531 376.574 959.781 376.469ZM957.875 599.969L962.125 599.969C979.116 599.969 992.906 613.728 992.906 630.719L992.906 729.062C992.906 746.053 979.116 759.812 962.125 759.812L957.875 759.812C940.884 759.812 927.094 746.053 927.094 729.062L927.094 630.719C927.094 613.728 940.884 599.969 957.875 599.969ZM957.875 834.312L962.125 834.312C979.116 834.313 992.906 848.103 992.906 865.094L992.906 963.406C992.906 980.397 979.116 994.156 962.125 994.156L957.875 994.156C940.884 994.156 927.094 980.397 927.094 963.406L927.094 865.094C927.094 848.103 940.884 834.312 957.875 834.312ZM957.875 1068.88L962.125 1068.88C979.116 1068.88 992.906 1082.63 992.906 1099.62L992.906 1197.94C992.906 1214.93 979.116 1228.72 962.125 1228.72L957.875 1228.72C940.884 1228.72 927.094 1214.93 927.094 1197.94L927.094 1099.62C927.094 1082.63 940.884 1068.87 957.875 1068.88Z" fill="url(#LinearGradient_4)" fill-rule="nonzero" opacity="0" stroke="none" vectornator:layerName="Curve 4"/>
<path d="M871.969 314.188C870.503 314.385 869.025 314.542 867.562 314.75L867.562 538.312L815.031 526.438C814.881 526.337 814.744 526.336 814.594 526.281L814.594 454.594C814.594 453.275 813.725 452.375 812.406 452.375C811.088 452.375 810.219 453.275 810.219 454.594L810.219 528.156L778.562 547.344L778.562 469.312C778.562 467.994 777.662 467.125 776.344 467.125C775.025 467.125 774.156 467.994 774.156 469.312L774.156 573.25L727.125 572.594C726.466 572.154 725.816 572.154 725.156 572.594L690.656 593.469L690.656 547.125C690.656 545.806 689.756 544.906 688.438 544.906C687.119 544.906 686.25 545.806 686.25 547.125L686.25 612.812C686.25 613.252 686.467 613.935 686.906 614.375L713.938 631.719L700.5 646.875L688.75 653.688L664.062 619.375L664.062 454.594C664.062 453.275 663.162 452.375 661.844 452.375C660.525 452.375 659.656 453.275 659.656 454.594L659.656 613.25C659.217 612.591 658.567 612.375 657.688 612.375C656.369 612.375 655.469 613.275 655.469 614.594L655.469 875.906C655.469 877.225 656.369 878.094 657.688 878.094C658.567 878.094 659.217 877.878 659.656 877.219L686.25 840.531L686.25 979.094L729.312 1005.34L729.312 1071.06C729.312 1071.5 729.56 1072.15 730 1072.59L763.156 1093.94L763.156 1145.56C763.156 1146.88 764.056 1147.78 765.375 1147.78C766.694 1147.78 767.563 1146.88 767.562 1145.56L767.562 1078.09L793.719 1094.81C794.378 1095.25 795.028 1095.25 795.688 1094.81L821.844 1078.09L821.844 1168.44C821.844 1169.76 822.744 1170.63 824.062 1170.62C824.155 1170.62 824.194 1170.54 824.281 1170.53L824.281 1213.91L798.125 1197.22C797.466 1196.78 796.784 1196.78 796.125 1197.22L775.906 1193.91C775.467 1194.13 775.25 1194.59 775.25 1195.03C775.25 1195.47 775.468 1195.91 775.688 1196.12L846.688 1238.31L846.688 1304.03C846.688 1304.47 846.904 1305.12 847.344 1305.56L880.531 1326.88L880.531 1378.53C880.531 1379.85 881.4 1380.72 882.719 1380.72C884.037 1380.72 884.938 1379.85 884.938 1378.53L884.938 1311.06L911.094 1327.78C911.753 1328.22 912.403 1328.22 913.062 1327.78L939.219 1311.06L939.219 1401.41C939.219 1402.72 940.088 1403.59 941.406 1403.59C942.725 1403.59 943.625 1402.72 943.625 1401.41L943.625 1291.94L972.625 1310.62C973.284 1311.06 973.934 1311.06 974.594 1310.62L1003.62 1291.94L1003.62 1312L1008 1291.03L1008 1272.59L1011.41 1274.75L1040.34 1136.12L1039 1135.25L1039 1099.44L1047.34 1102.56L1049.31 1093.09L1064.28 1094.59L1064.28 1108.91L1068.66 1110.56L1068.66 1100.06L1097.69 1118.75C1098.35 1119.19 1099 1119.19 1099.66 1118.75L1128.66 1100.06L1128.66 1133.06L1133.06 1134.72L1133.06 1074.16L1162.06 1092.81C1162.72 1093.25 1163.4 1093.25 1164.06 1092.81L1178.62 1083.44L1150.44 1065.34L1150.44 1013.25C1150.44 1011.93 1149.54 1011.06 1148.22 1011.06C1146.9 1011.06 1146.03 1011.93 1146.03 1013.25L1146.03 1080.75L1119.88 1064.03C1119.22 1063.59 1118.57 1063.59 1117.91 1064.03L1091.75 1080.75L1091.75 990.406C1091.75 989.088 1090.85 988.219 1089.53 988.219C1088.21 988.219 1087.34 989.088 1087.34 990.406L1087.34 1099.84L1058.34 1081.19C1057.68 1080.75 1057 1080.75 1056.34 1081.19L1051.12 1084.56L1185.16 442.5C1184.94 442.06 1184.28 441.844 1183.62 441.844C1183.19 441.844 1182.72 442.061 1182.5 442.281L1149.31 463.594L1149.31 411.938C1149.31 410.619 1148.44 409.75 1147.12 409.75C1145.81 409.75 1144.94 410.619 1144.94 411.938L1144.94 479.406L1118.78 462.719C1118.12 462.279 1117.47 462.279 1116.81 462.719L1111.75 496.562L1111.75 406.219C1111.75 404.9 1110.85 404.031 1109.53 404.031C1108.21 404.031 1107.34 404.9 1107.34 406.219L1107.34 515.688L1078.34 497C1077.68 496.56 1077 496.561 1076.34 497L1047.34 515.688L1047.34 354.375C1047.34 353.056 1046.47 352.156 1045.16 352.156C1043.84 352.156 1042.94 353.056 1042.94 354.375L1042.94 498.094L1016.81 481.406C1016.15 480.967 1015.47 480.967 1014.81 481.406L988.656 498.094L988.656 378.094C988.656 376.775 987.788 375.906 986.469 375.906C985.15 375.906 984.281 376.775 984.281 378.094L984.281 500.312L960.531 484.906C959.872 484.467 959.222 484.467 958.562 484.906L935.906 500.312L935.906 329.094C935.906 327.775 935.038 326.906 933.719 326.906C932.4 326.906 931.531 327.775 931.531 329.094L931.531 511.062L906.25 494.781L906.25 597.656L930 613.031C930.659 613.471 931.309 613.471 931.969 613.031L955.688 597.656L955.688 675.688C955.688 677.006 956.588 677.875 957.906 677.875C959.225 677.875 960.094 677.006 960.094 675.688L960.094 571.719L989.094 590.406C989.753 590.846 990.434 590.846 991.094 590.406L1020.09 571.719L1020.09 830.406L985.594 852.594C985.374 852.814 985.157 853.031 984.938 853.031C984.718 853.031 984.282 853.032 984.062 852.812L935.906 928L935.906 837.656C935.906 836.338 935.038 835.469 933.719 835.469C932.4 835.469 931.531 836.338 931.531 837.656L931.531 947.094L902.5 928.438C901.841 927.998 901.191 927.998 900.531 928.438L871.531 947.094L871.531 826.375L877.469 829.812L877.469 871.938C877.469 873.256 878.337 874.156 879.656 874.156C880.975 874.156 881.844 873.256 881.844 871.938L881.844 832.344L910.875 849.094L910.875 703.438L928.312 683.688L910.875 673.562L910.875 643.906L888.781 660.688L871.969 650.906L871.969 615.906C871.969 614.588 871.069 613.719 869.75 613.719C868.431 613.719 867.562 614.588 867.562 615.906L867.562 648.344L847.562 636.719L847.562 581.406L873.719 598.094C874.378 598.533 875.028 598.533 875.688 598.094L901.844 581.406L901.844 492.156C901.408 492.063 900.966 492.085 900.531 492.375L871.969 514.375L871.969 314.188ZM901.844 492.156C902.068 492.204 902.276 492.226 902.5 492.375L906.25 494.781L906.25 426.438C906.25 425.119 905.381 424.25 904.062 424.25C902.744 424.25 901.844 425.119 901.844 426.438L901.844 492.156ZM910.875 643.906L915.031 640.75C914.592 640.091 913.941 639.844 913.062 639.844C911.744 639.844 910.875 640.744 910.875 642.062L910.875 643.906ZM928.312 683.688L975.031 710.844L939.656 670.844L928.312 683.688ZM975.031 710.844L981.844 718.531C982.503 719.191 983.402 719.409 984.281 718.75C984.941 718.091 985.159 717.223 984.5 716.344L975.031 710.844ZM1178.62 1083.44L1183.62 1086.66C1184.06 1087.1 1184.28 1087.78 1184.28 1088.22L1184.28 1153.91L1133.06 1134.72L1133.06 1178.09C1133.06 1179.41 1132.19 1180.28 1130.88 1180.28C1129.56 1180.28 1128.66 1179.41 1128.66 1178.09L1128.66 1133.06L1068.66 1110.56L1068.66 1154.12C1069.1 1154.23 1069.53 1154.2 1069.97 1153.91L1104.16 1306.25L1097.69 1310.41C1097.03 1310.85 1096.35 1310.85 1095.69 1310.41L1069.75 1293.69L1069.75 1400.78L1065.38 1403.59L1065.38 1383.94C1065.09 1384.06 1064.86 1384.25 1064.5 1384.25C1063.18 1384.25 1062.28 1383.38 1062.28 1382.06L1062.28 1272.59L1036.12 1289.31C1035.47 1289.75 1034.82 1289.75 1034.16 1289.31L1011.41 1274.75L1008 1291.03L1008 1333.81C1008.29 1333.69 1008.51 1333.47 1008.88 1333.47C1010.19 1333.47 1011.09 1334.37 1011.09 1335.69L1011.09 1445.12L1020.75 1438.97L1020.75 1608.94C1030.56 1608.03 1040.29 1606.9 1049.97 1605.56L1049.97 1469.75C1049.97 1468.43 1050.87 1467.56 1052.19 1467.56C1053.51 1467.56 1054.38 1468.43 1054.38 1469.75L1054.38 1605C1058.35 1604.42 1062.3 1603.77 1066.25 1603.12L1066.25 1535.03C1066.25 1533.71 1067.12 1532.81 1068.44 1532.81C1069.76 1532.81 1070.66 1533.71 1070.66 1535.03L1070.66 1602.34C1096.02 1598 1120.88 1592.21 1145.16 1585.03L1145.16 1499.25L1130.66 1518.81L1130.66 1377.09L1126.69 1379.66L1126.69 1336.69L1130.66 1339.12L1130.66 1288.44C1130.66 1287.12 1131.53 1286.22 1132.84 1286.22C1134.16 1286.22 1135.03 1287.12 1135.03 1288.44L1135.03 1341.78L1157.03 1355.25C1157.25 1355.47 1157.69 1355.47 1157.91 1355.47C1158.13 1355.47 1158.34 1355.25 1158.56 1355.03L1193.06 1332.81L1193.06 1074.16L1178.62 1083.44ZM1135.03 1341.78L1130.66 1339.12L1130.66 1377.09L1135.03 1374.28L1135.03 1341.78ZM1135.03 1374.28L1135.03 1470.41L1145.16 1457.38L1145.16 1367.78L1135.03 1374.28ZM1145.16 1457.38L1145.16 1499.25L1173.25 1461.34L1153.72 1448.88C1153.06 1448.44 1152.41 1448.44 1151.75 1448.88L1145.16 1457.38ZM1173.25 1461.34L1179.88 1465.56L1179.88 1452.38L1173.25 1461.34ZM1179.88 1452.38L1184.28 1446.44L1184.28 1356.12C1184.28 1354.81 1183.38 1353.91 1182.06 1353.91C1180.74 1353.91 1179.87 1354.81 1179.88 1356.12L1179.88 1452.38ZM1008 1333.81C1007.24 1334.14 1006.69 1334.73 1006.69 1335.69L1006.69 1426L1003.62 1424.03L1003.62 1435.69C1003.62 1437.01 1004.49 1437.87 1005.81 1437.88C1007.13 1437.88 1008 1437.01 1008 1435.69L1008 1333.81ZM1003.62 1424.03L1003.62 1312L983 1410.75L1003.62 1424.03ZM983 1410.75L977.688 1407.31C977.028 1406.87 976.347 1406.87 975.688 1407.31L981.75 1416.72L983 1410.75ZM981.75 1416.72L941.125 1611.41C947.415 1611.59 953.667 1611.88 960 1611.88C970.506 1611.88 980.928 1611.59 991.312 1611.09L991.312 1542.5C991.312 1541.18 992.181 1540.28 993.5 1540.28C994.819 1540.28 995.688 1541.18 995.688 1542.5L995.688 1610.88C1002.61 1610.5 1009.48 1609.87 1016.34 1609.28L1016.34 1470.41L981.75 1416.72ZM1065.38 1383.94C1066.14 1383.61 1066.69 1383.02 1066.69 1382.06L1066.69 1291.72L1069.75 1293.69L1069.75 1282.06C1069.75 1280.74 1068.88 1279.84 1067.56 1279.84C1066.24 1279.84 1065.37 1280.74 1065.38 1282.06L1065.38 1383.94ZM1068.66 1154.12C1068.44 1154.08 1068.22 1154.05 1068 1153.91L1064.28 1151.5L1064.28 1276.56C1064.28 1277.88 1065.15 1278.75 1066.47 1278.75C1067.79 1278.75 1068.66 1277.88 1068.66 1276.56L1068.66 1154.12ZM1064.28 1151.5L1064.28 1108.91L1047.34 1102.56L1040.34 1136.12L1064.28 1151.5ZM686.25 979.094L660.094 963.156C659.874 962.937 659.656 962.502 659.656 962.062C659.656 961.623 659.873 961.188 660.312 960.969L658.125 964.25C658.784 963.81 659.434 963.81 660.094 964.25L686.25 980.969L686.25 979.094ZM843.156 600.75L843.156 634.156L815.875 618.312L843.156 600.75ZM867.125 823.844L867.562 824.094L867.562 874.594L867.125 874.375L867.125 966.438L840.969 949.75C840.309 949.31 839.659 949.31 839 949.75L828.656 956.344L828.656 951.5C828.656 950.181 827.788 949.312 826.469 949.312C825.15 949.312 824.281 950.181 824.281 951.5L824.281 959.125L812.844 966.438L812.844 878.5L810.219 880.531L810.219 847.594L812.844 844.625L812.844 878.5L837.25 859.625C837.909 859.185 838.559 859.185 839.219 859.625L867.125 874.375L867.125 823.844ZM691.531 833.25L737.688 885.406L737.688 988.656L708.656 969.969C707.997 969.529 707.347 969.529 706.688 969.969L690.656 931.938L690.656 834.469L691.531 833.25ZM805.812 852.594L805.812 995.031L778.906 883.125L805.812 852.594ZM742.062 890.344L748.438 897.562L742.062 901.188L742.062 890.344ZM890.656 1039.62L916.812 1056.34C917.472 1056.78 918.122 1056.78 918.781 1056.34L931.531 1048.19L931.531 1259.41L901.625 1120.97C900.966 1120.53 900.316 1120.53 899.656 1120.97L890.656 1126.59L890.656 1039.62ZM944.938 1039.62L944.938 1082.59L949.312 1083.03L949.312 1058.75L964.281 1068.38L964.281 1084.53L968.656 1084.97L968.656 1071.19L975.906 1075.88L975.906 1085.69L980.312 1086.16L980.312 1077.44L1012.06 1089.34L1022.94 1090.44L1022.94 1093.41L1027.34 1095.06L1027.34 1090.88L1034.59 1091.59L1034.59 1095.19L1032.03 1096.81L1034.59 1097.78L1034.59 1154.59L1008.44 1137.88C1007.78 1137.44 1007.13 1137.44 1006.47 1137.88L980.312 1154.59L980.312 1111.75L975.906 1114.56L975.906 1173.69L952.188 1158.31C951.528 1157.87 950.878 1157.87 950.219 1158.31L935.906 1182.72L935.906 1081.81L935.625 1081.66L935.906 1081.66L935.906 1045.41L944.938 1039.62ZM935.906 1081.66L935.906 1081.81L944.938 1087.62L944.938 1082.59L935.906 1081.66ZM944.938 1087.62L944.938 1149.09C944.938 1150.41 945.806 1151.28 947.125 1151.28C948.444 1151.28 949.313 1150.41 949.312 1149.09L949.312 1090.44L944.938 1087.62ZM949.312 1090.44L964.281 1100.06L964.281 1084.53L949.312 1083.03L949.312 1090.44ZM975.906 1114.56L975.906 1085.69L968.656 1084.97L968.656 1119.19L975.906 1114.56ZM980.312 1111.75L994.812 1102.5C995.472 1102.06 996.153 1102.06 996.812 1102.5L1022.94 1119.19L1022.94 1093.41L1012.06 1089.34L980.312 1086.16L980.312 1111.75ZM1032.03 1096.81L1027.34 1095.06L1027.34 1099.84L1032.03 1096.81ZM886.25 1058.97L886.25 1129.34L865.156 1142.5L865.156 1072.56L886.25 1058.97ZM828.656 1060.53L855.25 1077.66C855.909 1078.1 856.591 1078.1 857.25 1077.66L860.75 1075.41L860.75 1168.44L831.75 1149.75C831.091 1149.31 830.409 1149.31 829.75 1149.75L828.656 1164.91L828.656 1060.53ZM1116.34 1239.19C1117.66 1239.19 1118.56 1240.09 1118.56 1241.41L1118.56 1296.97L1114.16 1299.78L1114.16 1241.41C1114.16 1240.09 1115.03 1239.19 1116.34 1239.19ZM1085.16 1415.88L1085.16 1471.72C1085.16 1473.04 1084.26 1473.91 1082.94 1473.91C1081.62 1473.91 1080.75 1473.04 1080.75 1471.72L1080.75 1418.69L1085.16 1415.88ZM933.719 1474.81C932.4 1474.81 931.531 1475.68 931.531 1477L931.531 1611.16C932.984 1611.22 934.451 1611.23 935.906 1611.28L935.906 1477C935.906 1475.68 935.038 1474.81 933.719 1474.81ZM792.625 1497.22C791.306 1497.22 790.437 1498.09 790.438 1499.41L790.438 1566.88L764.281 1550.19C763.622 1549.75 762.941 1549.75 762.281 1550.19L766.875 1582.78C787.068 1589.04 807.676 1594.33 828.656 1598.62L828.656 1573.91C828.656 1573.47 828.44 1572.81 828 1572.38L794.812 1551.06L794.812 1499.41C794.812 1498.09 793.944 1497.22 792.625 1497.22ZM862.938 1537.44C861.619 1537.44 860.75 1538.31 860.75 1539.62L860.75 1604.38C862.207 1604.6 863.696 1604.72 865.156 1604.94L865.156 1539.62C865.156 1538.31 864.256 1537.44 862.938 1537.44ZM900.656 1597.97C900.329 1597.97 899.986 1598.09 899.656 1598.31L883.656 1607.28C890.415 1608.07 897.211 1608.73 904.031 1609.31L901.625 1598.31C901.295 1598.09 900.984 1597.97 900.656 1597.97Z" fill="url(#LinearGradient_5)" fill-rule="nonzero" opacity="0" stroke="none" vectornator:layerName="Curve 5"/>
</g>
</svg>
