<svg xmlns="http://www.w3.org/2000/svg" xml:space="preserve" stroke-miterlimit="10" style="fill-rule:nonzero;clip-rule:evenodd;stroke-linecap:round;stroke-linejoin:round" viewBox="0 0 1024 1024"><g fill="none" stroke="#000" stroke-linecap="butt" stroke-linejoin="miter" stroke-width="40"><path d="M194.37 336.542c99.993-47.108 176.529 33.251 245.988 255.591 69.458 222.339 135.297-225.978 218.106-432.345 82.81-206.367 184.048-249.357 308.669 419.224C1061.72 1086.46 490.277 1037 203.54 925.106 167.359 910.987 65.879 865.868 50.9 778.18 28.181 645.197 94.375 383.651 194.37 336.542Z"/><path d="M662.88 377.642c0-52.248 43.623-94.604 97.434-94.604 53.812 0 97.435 42.356 97.435 94.604s-43.623 94.604-97.435 94.604c-53.811 0-97.434-42.356-97.434-94.604Z"/></g></svg>