<?xml version="1.0" encoding="UTF-8" standalone="no"?>
<!DOCTYPE svg PUBLIC "-//W3C//DTD SVG 1.1//EN" "http://www.w3.org/Graphics/SVG/1.1/DTD/svg11.dtd">
<!-- Created with Vectornator (http://vectornator.io/) -->
<svg height="100%" stroke-miterlimit="10" style="fill-rule:nonzero;clip-rule:evenodd;stroke-linecap:round;stroke-linejoin:round;" version="1.1" viewBox="0 0 492 492" width="100%" xml:space="preserve" xmlns="http://www.w3.org/2000/svg" xmlns:vectornator="http://vectornator.io" xmlns:xlink="http://www.w3.org/1999/xlink">
<defs/>
<g id="Untitled" vectornator:layerName="Untitled">
<path d="M284.429 246L414.885 115.539C418.473 111.947 420.453 107.156 420.459 102.047C420.459 96.9355 418.479 92.1386 414.885 88.5529L403.453 77.1237C399.859 73.5239 395.067 71.5524 389.953 71.5524C384.847 71.5524 380.055 73.5239 376.461 77.1237L246.006 207.576L115.544 77.1237C111.956 73.5239 107.162 71.5524 102.05 71.5524C96.944 71.5524 92.1499 73.5239 88.5614 77.1237L77.1237 88.5529C69.6802 95.9965 69.6802 108.104 77.1237 115.539L207.582 246L77.1237 376.456C73.5324 380.053 71.5552 384.844 71.5552 389.953C71.5552 395.062 73.5324 399.853 77.1237 403.447L88.5586 414.876C92.1471 418.473 96.944 420.448 102.047 420.448C107.159 420.448 111.953 418.473 115.542 414.876L246.003 284.421L376.458 414.876C380.053 418.473 384.844 420.448 389.95 420.448L389.956 420.448C395.065 420.448 399.856 418.473 403.45 414.876L414.882 403.447C418.47 399.856 420.45 395.062 420.45 389.953C420.45 384.844 418.47 380.053 414.882 376.458L284.429 246Z" fill="#000000" fill-rule="nonzero" opacity="1" stroke="none" vectornator:layerName="path"/>
</g>
</svg>
