<?xml version="1.0" encoding="UTF-8" standalone="no"?>
<!DOCTYPE svg PUBLIC "-//W3C//DTD SVG 1.1//EN" "http://www.w3.org/Graphics/SVG/1.1/DTD/svg11.dtd">
<!-- Created with Vectornator (http://vectornator.io/) -->
<svg height="100%" stroke-miterlimit="10" style="fill-rule:nonzero;clip-rule:evenodd;stroke-linecap:round;stroke-linejoin:round;" version="1.1" viewBox="0 0 1024 1024" width="100%" xml:space="preserve" xmlns="http://www.w3.org/2000/svg" xmlns:vectornator="http://vectornator.io" xmlns:xlink="http://www.w3.org/1999/xlink">
<defs/>
<g id="Layer-1" vectornator:layerName="Layer 1">
<path d="M272.317 269.256C281.924 259.649 297.5 259.649 307.107 269.256L754.744 716.893C764.351 726.5 764.351 742.076 754.744 751.683L751.683 754.744C742.076 764.351 726.5 764.351 716.893 754.744L269.256 307.107C259.649 297.5 259.649 281.924 269.256 272.317L272.317 269.256Z" fill="#000000" fill-rule="nonzero" opacity="1" stroke="none" vectornator:layerName="Rectangle 3"/>
<path d="M269.256 751.683C259.649 742.076 259.649 726.5 269.256 716.893L716.893 269.256C726.5 259.649 742.076 259.649 751.683 269.256L754.744 272.317C764.351 281.924 764.351 297.5 754.744 307.107L307.107 754.744C297.5 764.351 281.924 764.351 272.317 754.744L269.256 751.683Z" fill="#000000" fill-rule="nonzero" opacity="1" stroke="none" vectornator:layerName="Rectangle 4"/>
</g>
</svg>
