<svg xmlns="http://www.w3.org/2000/svg" xmlns:vectornator="http://vectornator.io" xml:space="preserve" stroke-miterlimit="10" style="fill-rule:nonzero;clip-rule:evenodd;stroke-linecap:round;stroke-linejoin:round" viewBox="0 0 24 24"><g vectornator:layerName="Untitled"><path vectornator:layerName="path" fill="#efefef" d="M1.818 7.708a.985.985 0 0 0 1.97 0h-1.97Zm1.97-4.905a.985.985 0 1 0-1.97 0h1.97Zm-.985-.985a.985.985 0 0 0 0 1.97v-1.97Zm4.905 1.97a.985.985 0 0 0 0-1.97v1.97ZM3.5 2.106A.985.985 0 0 0 2.106 3.5L3.5 2.106Zm5.175 7.963a.985.985 0 0 0 1.394-1.394L8.675 10.07Zm7.617 10.143a.985.985 0 0 0 0 1.97v-1.97Zm4.905 1.97a.985.985 0 0 0 0-1.97v1.97Zm-.985-.985a.985.985 0 0 0 1.97 0h-1.97Zm1.97-4.905a.985.985 0 0 0-1.97 0h1.97ZM20.5 21.894a.985.985 0 0 0 1.394-1.394L20.5 21.894Zm-5.175-7.963a.985.985 0 0 0-1.394 1.394l1.394-1.394ZM3.787 16.292a.985.985 0 0 0-1.97 0h1.97Zm-1.97 4.905a.985.985 0 0 0 1.97 0h-1.97Zm.985-.985a.985.985 0 0 0 0 1.97v-1.97Zm4.905 1.97a.985.985 0 0 0 0-1.97v1.97ZM2.106 20.5A.985.985 0 1 0 3.5 21.894L2.106 20.5Zm7.963-5.175a.985.985 0 0 0-1.394-1.394l1.394 1.394Zm6.223-13.507a.985.985 0 0 0 0 1.97v-1.97Zm4.905 1.97a.985.985 0 0 0 0-1.97v1.97Zm.985-.985a.985.985 0 0 0-1.97 0h1.97Zm-1.97 4.905a.985.985 0 0 0 1.97 0h-1.97ZM21.894 3.5A.985.985 0 0 0 20.5 2.106L21.894 3.5ZM13.93 8.675a.985.985 0 0 0 1.394 1.394L13.93 8.675ZM3.788 7.708V2.803h-1.97v4.905h1.97Zm-.985-3.92h4.905v-1.97H2.803v1.97ZM2.106 3.5l6.57 6.569 1.393-1.394-6.57-6.569L2.107 3.5Zm14.186 18.682h4.905v-1.97h-4.905v1.97Zm5.89-.985v-4.905h-1.97v4.905h1.97Zm-.288-.697-6.57-6.569-1.393 1.394 6.57 6.569 1.393-1.394ZM1.818 16.292v4.905h1.97v-4.905h-1.97Zm.985 5.89h4.905v-1.97H2.803v1.97Zm.697-.288 6.569-6.57-1.394-1.393-6.569 6.57L3.5 21.893ZM16.292 3.788h4.905v-1.97h-4.905v1.97Zm3.92-.985v4.905h1.97V2.803h-1.97Zm.288-.697-6.569 6.57 1.394 1.393 6.569-6.57L20.5 2.107Z"/></g></svg>