<svg xmlns="http://www.w3.org/2000/svg" xmlns:xlink="http://www.w3.org/1999/xlink" xml:space="preserve" stroke-miterlimit="10" style="fill-rule:nonzero;clip-rule:evenodd;stroke-linecap:round;stroke-linejoin:round" viewBox="0 0 1060 1060"><defs><linearGradient id="c" x1="179" x2="845" y1="512" y2="512" gradientTransform="translate(-269.091 -108.523) scale(1.56072)" gradientUnits="userSpaceOnUse"><stop offset="0" stop-color="#ffbd59"/><stop offset="1" stop-color="#ff6b11"/></linearGradient><linearGradient id="f" x1="178.274" x2="844.274" y1="366.436" y2="366.436" gradientTransform="translate(-269.091 -108.523) scale(1.56072)" gradientUnits="userSpaceOnUse"><stop offset="0" stop-color="#ffbd59"/><stop offset="1" stop-color="#ff6b11"/></linearGradient><linearGradient id="g" x1="-1.154" x2="664.846" y1="700.221" y2="700.221" gradientTransform="translate(-269.091 -108.523) scale(1.56072)" gradientUnits="userSpaceOnUse"><stop offset="0" stop-color="#ff1148"/><stop offset="1" stop-color="#ee3cff"/></linearGradient><linearGradient id="h" x1="341.43" x2="1007.43" y1="698.728" y2="698.728" gradientTransform="translate(-269.091 -108.523) scale(1.56072)" gradientUnits="userSpaceOnUse"><stop offset="0" stop-color="#00d2ff"/><stop offset="1" stop-color="#2aff75"/></linearGradient><path id="a" d="M22 530C22 249.439 249.439 22 530 22c280.561 0 508 227.439 508 508 0 280.561-227.439 508-508 508-280.561 0-508-227.439-508-508Z"/><path id="d" d="M526.62-56.301c-219.954.959-407.267 138.433-482.3 331.777-19.166 73.108-30.761 149.295-33.456 227.768.468 6.099.886 12.216 1.559 18.256-.64.326-1.247.708-1.886 1.039-.09 5.673-.259 11.325-.259 17.02 0 378.406 202.39 709.271 504.649 891.061 1.04-.62 2.15-1.13 3.184-1.75 5.095 3.03 10.387 5.71 15.592 8.57 308.563-180.26 516.017-514.735 516.017-897.881 0-1.24-.06-2.465-.07-3.702-1.93-1.155-3.76-2.444-5.71-3.574 2.25-17.003 3.43-34.322 4.03-51.777-3.53-62.834-12.57-124.172-26.77-183.526C951.54 90.791 756.219-57.301 526.62-56.301Z"/></defs><use xlink:href="#a" fill="none" stroke="#310024" stroke-linecap="butt" stroke-linejoin="miter" stroke-width="40"/><clipPath id="b" clip-rule="nonzero"><use xlink:href="#a"/></clipPath><g clip-path="url(#b)"><path fill="url(#c)" stroke="#310024" stroke-linecap="butt" stroke-linejoin="miter" stroke-width="40" d="M526.62-56.301c-219.954.959-407.267 138.433-482.3 331.777-19.166 73.108-30.761 149.295-33.456 227.768.468 6.099.886 12.216 1.559 18.256-.64.326-1.247.708-1.886 1.039-.09 5.673-.259 11.325-.259 17.02 0 378.406 202.39 709.271 504.649 891.061 1.04-.62 2.15-1.13 3.184-1.75 5.095 3.03 10.387 5.71 15.592 8.57 308.563-180.26 516.017-514.735 516.017-897.881 0-1.24-.06-2.465-.07-3.702-1.93-1.155-3.76-2.444-5.71-3.574 2.25-17.003 3.43-34.322 4.03-51.777-3.53-62.834-12.57-124.172-26.77-183.526C951.54 90.791 756.219-57.301 526.62-56.301Z" opacity=".332"/><use xlink:href="#d" fill="none" stroke="#310024" stroke-linecap="butt" stroke-linejoin="miter" stroke-width="40"/><clipPath id="e" clip-rule="nonzero"><use xlink:href="#d"/></clipPath><g stroke="#310024" stroke-linecap="butt" stroke-linejoin="miter" stroke-width="40" clip-path="url(#e)"><path fill="url(#f)" d="M9.15 465.647C7.9 178.616 239.571-55.083 526.602-56.333c287.031-1.251 520.728 230.42 521.978 517.451 1.25 287.031-230.416 520.729-517.448 521.981C244.1 984.349 10.402 752.679 9.15 465.647Z"/><path fill="url(#g)" d="M-270.887 986.594c-1.251-287.032 230.42-520.73 517.451-521.981 287.031-1.25 520.731 230.42 521.981 517.451 1.252 287.036-230.42 520.736-517.452 521.986-287.03 1.25-520.729-230.43-521.98-517.456Z"/><path fill="url(#h)" d="M263.791 984.263c-1.25-287.031 230.421-520.729 517.452-521.98 287.027-1.251 520.737 230.42 521.987 517.451 1.25 287.036-230.42 520.726-517.456 521.976-287.033 1.26-520.731-230.42-521.983-517.447Z"/></g></g><path fill="none" stroke="#310024" stroke-linecap="butt" stroke-linejoin="miter" stroke-width="40" d="M22 530C22 249.439 249.439 22 530 22c280.561 0 508 227.439 508 508 0 280.561-227.439 508-508 508-280.561 0-508-227.439-508-508Z"/></svg>