<svg xmlns="http://www.w3.org/2000/svg" xml:space="preserve" stroke-miterlimit="10" style="fill-rule:nonzero;clip-rule:evenodd;stroke-linecap:round;stroke-linejoin:round" viewBox="0 0 1024 1024"><clipPath id="a"><path d="M0 0h1024v1024H0z"/></clipPath><g fill="#efefef" clip-path="url(#a)"><path d="M550 120C550 53.726 603.726 0 670 0h234c66.274 0 120 53.726 120 120v234c0 66.274-53.726 120-120 120H670c-66.274 0-120-53.726-120-120V120ZM550 670c0-66.274 53.726-120 120-120h234c66.274 0 120 53.726 120 120v234c0 66.274-53.726 120-120 120H670c-66.274 0-120-53.726-120-120V670ZM0 120C0 53.726 53.726 0 120 0h234c66.274 0 120 53.726 120 120v784c0 66.274-53.726 120-120 120H120C53.726 1024 0 970.274 0 904V120Z"/></g></svg>