<svg xmlns="http://www.w3.org/2000/svg" xmlns:vectornator="http://vectornator.io" xml:space="preserve" stroke-miterlimit="10" style="fill-rule:nonzero;clip-rule:evenodd;stroke-linecap:round;stroke-linejoin:round" viewBox="0 0 1024 1024"><g vectornator:layerName="Layer 1" fill="#efefef"><path vectornator:layerName="Rectangle 1" d="M91.972 931.032c-23.724-23.724-23.724-62.187 0-85.911L845.12 91.971c23.724-23.723 62.187-23.723 85.911 0l.996.997c23.724 23.724 23.724 62.187 0 85.911L178.879 932.028c-23.724 23.724-62.187 23.724-85.911 0l-.996-.996Z"/><path vectornator:layerName="Rectangle 2" d="M92.968 91.972c23.724-23.724 62.187-23.724 85.911 0L932.028 845.12c23.724 23.724 23.724 62.187 0 85.911l-.996.996c-23.724 23.724-62.187 23.724-85.911 0L91.971 178.879c-23.723-23.724-23.723-62.187 0-85.911l.997-.996Z"/></g></svg>