<?xml version="1.0" encoding="UTF-8" standalone="no"?>
<!DOCTYPE svg PUBLIC "-//W3C//DTD SVG 1.1//EN" "http://www.w3.org/Graphics/SVG/1.1/DTD/svg11.dtd">
<!-- Created with Vectornator (http://vectornator.io/) -->
<svg height="100%" stroke-miterlimit="10" style="fill-rule:nonzero;clip-rule:evenodd;stroke-linecap:round;stroke-linejoin:round;" version="1.1" viewBox="0 0 1024 1024" width="100%" xml:space="preserve" xmlns="http://www.w3.org/2000/svg" xmlns:vectornator="http://vectornator.io" xmlns:xlink="http://www.w3.org/1999/xlink">
<defs/>
<g id="Layer-1" vectornator:layerName="Layer 1">
<path d="M78.825 917.886C39.5648 878.625 39.5648 814.972 78.825 775.712L775.712 78.825C814.972 39.5648 878.625 39.5648 917.886 78.825L945.175 106.114C984.435 145.375 984.435 209.028 945.175 248.288L248.288 945.175C209.028 984.435 145.375 984.435 106.114 945.175L78.825 917.886Z" fill="#cbcbcb" fill-rule="nonzero" opacity="1" stroke="none" vectornator:layerName="Rectangle 1"/>
<path d="M106.114 78.825C145.375 39.5648 209.028 39.5648 248.288 78.825L945.175 775.712C984.435 814.972 984.435 878.625 945.175 917.886L917.886 945.175C878.625 984.435 814.972 984.435 775.712 945.175L78.825 248.288C39.5648 209.028 39.5648 145.375 78.825 106.114L106.114 78.825Z" fill="#cbcbcb" fill-rule="nonzero" opacity="1" stroke="none" vectornator:layerName="Rectangle 2"/>
</g>
</svg>
