<?xml version="1.0" encoding="UTF-8" standalone="no"?>
<!DOCTYPE svg PUBLIC "-//W3C//DTD SVG 1.1//EN" "http://www.w3.org/Graphics/SVG/1.1/DTD/svg11.dtd">
<!-- Created with Vectornator (http://vectornator.io/) -->
<svg height="100%" stroke-miterlimit="10" style="fill-rule:nonzero;clip-rule:evenodd;stroke-linecap:round;stroke-linejoin:round;" version="1.1" viewBox="0 0 1000 1000" width="100%" xml:space="preserve" xmlns="http://www.w3.org/2000/svg" xmlns:vectornator="http://vectornator.io" xmlns:xlink="http://www.w3.org/1999/xlink">
<defs/>
<clipPath id="ArtboardFrame">
<rect height="1000" width="1000" x="0" y="0"/>
</clipPath>
<g clip-path="url(#ArtboardFrame)" id="Untitled" vectornator:layerName="Untitled">
<path d="M292.92 3.5C239.72 6.01 203.39 14.5 171.63 26.98C138.76 39.79 110.9 56.98 83.18 84.8C55.46 112.62 38.39 140.5 25.67 173.42C13.36 205.25 5.02 241.61 2.67 294.84C0.32 348.07-0.2 365.18 0.06 500.96C0.32 636.74 0.92 653.76 3.5 707.1C6.04 760.29 14.5 796.61 26.98 828.38C39.81 861.25 56.98 889.1 84.81 916.83C112.64 944.56 140.5 961.59 173.5 974.33C205.3 986.62 241.67 995 294.89 997.33C348.11 999.66 365.24 1000.2 500.98 999.94C636.72 999.68 653.81 999.08 707.14 996.55C760.47 994.02 796.6 985.5 828.38 973.08C861.25 960.22 889.12 943.08 916.83 915.24C944.54 887.4 961.6 859.5 974.31 826.56C986.63 794.76 995 758.39 997.31 705.21C999.64 651.84 1000.19 634.8 999.93 499.04C999.67 363.28 999.06 346.26 996.53 292.94C994 239.62 985.53 203.41 973.06 171.62C960.21 138.75 943.06 110.92 915.24 83.17C887.42 55.42 859.5 38.37 826.57 25.69C794.75 13.38 758.4 4.99 705.18 2.69C651.96 0.39 634.83-0.2 499.04 0.06C363.25 0.32 346.25 0.9 292.92 3.5M298.76 907.38C250.01 905.26 223.54 897.16 205.9 890.38C182.54 881.38 165.9 870.5 148.32 853.09C130.74 835.68 119.94 818.98 110.82 795.67C103.97 778.03 95.72 751.59 93.44 702.84C90.96 650.15 90.44 634.33 90.15 500.84C89.86 367.35 90.37 351.55 92.68 298.84C94.76 250.13 102.91 223.63 109.68 206C118.68 182.61 129.52 166 146.97 148.43C164.42 130.86 181.07 120.04 204.4 110.92C222.02 104.04 248.46 95.86 297.19 93.54C349.92 91.04 365.72 90.54 499.19 90.25C632.66 89.96 648.5 90.46 701.25 92.78C749.96 94.9 776.47 102.97 794.08 109.78C817.45 118.78 834.08 129.59 851.65 147.07C869.22 164.55 880.05 181.14 889.17 204.52C896.06 222.09 904.24 248.52 906.54 297.28C909.05 350.01 909.62 365.82 909.86 499.28C910.1 632.74 909.63 648.59 907.32 701.28C905.19 750.03 897.11 776.51 890.32 794.17C881.32 817.52 870.47 834.17 853.01 851.73C835.55 869.29 818.92 880.11 795.58 889.23C777.98 896.1 751.51 904.3 702.82 906.62C650.09 909.1 634.29 909.62 500.77 909.91C367.25 910.2 351.5 909.66 298.77 907.38M706.37 232.77C706.425 265.91 733.337 292.729 766.477 292.67C799.616 292.611 826.432 265.696 826.37 232.557C826.307 199.417 799.39 172.604 766.25 172.67C733.121 172.736 706.315 199.641 706.37 232.77M243.27 500.5C243.55 642.3 358.71 756.99 500.48 756.72C642.25 756.45 757.02 641.3 756.75 499.5C756.48 357.7 641.29 242.98 499.5 243.26C357.71 243.54 243 358.72 243.27 500.5M333.33 500.32C333.148 408.271 407.621 333.503 499.67 333.321C591.719 333.138 666.487 407.611 666.669 499.66C666.852 591.709 592.379 666.478 500.33 666.66C408.276 666.853 333.501 592.374 333.33 500.32" fill="#7c2d12" fill-rule="nonzero" opacity="1" stroke="none" vectornator:layerName="path"/>
</g>
</svg>
