<svg xmlns="http://www.w3.org/2000/svg" xmlns:vectornator="http://vectornator.io" xml:space="preserve" stroke-miterlimit="10" style="fill-rule:nonzero;clip-rule:evenodd;stroke-linecap:round;stroke-linejoin:round" viewBox="0 0 1024 239.67"><clipPath id="a"><path d="M0 0h1024v239.67H0z"/></clipPath><g vectornator:layerName="Layer 1"><g vectornator:layerName="Group 1" clip-path="url(#a)"><path vectornator:layerName="Oval 1" fill="#ff5f58" d="M0 119.835C0 53.652 53.651 0 119.833 0c66.182 0 119.833 53.652 119.833 119.835 0 66.183-53.651 119.835-119.833 119.835C53.651 239.67 0 186.018 0 119.835Z"/><path vectornator:layerName="Oval 2" fill="#ffbd2e" d="M390.187 119.835C390.187 53.652 443.838 0 510.019 0c66.182 0 119.833 53.652 119.833 119.835 0 66.183-53.651 119.835-119.833 119.835-66.181 0-119.832-53.652-119.832-119.835Z"/><path vectornator:layerName="Oval 3" fill="#28c840" d="M784.334 119.835C784.334 53.652 837.985 0 904.167 0 970.349 0 1024 53.652 1024 119.835c0 66.183-53.651 119.835-119.833 119.835-66.182 0-119.833-53.652-119.833-119.835Z"/></g></g></svg>