<?xml version="1.0" encoding="UTF-8" standalone="no"?>
<!DOCTYPE svg PUBLIC "-//W3C//DTD SVG 1.1//EN" "http://www.w3.org/Graphics/SVG/1.1/DTD/svg11.dtd">
<!-- Created with Vectornator (http://vectornator.io/) -->
<svg height="100%" stroke-miterlimit="10" style="fill-rule:nonzero;clip-rule:evenodd;stroke-linecap:round;stroke-linejoin:round;" version="1.1" viewBox="0 0 1220 1280" width="100%" xml:space="preserve" xmlns="http://www.w3.org/2000/svg" xmlns:vectornator="http://vectornator.io" xmlns:xlink="http://www.w3.org/1999/xlink">
<defs/>
<clipPath id="ArtboardFrame">
<rect height="1280" width="1220" x="0" y="0"/>
</clipPath>
<g clip-path="url(#ArtboardFrame)" id="Untitled" vectornator:layerName="Untitled">
<path d="M609.656 0C605.131 0.1625 600.556 1.00625 597.406 2.40625C590.206 5.70625 584.306 11.4062 580.906 18.4062L578 24.4062L578 116.688C578 184.588 578.287 209.612 579.188 211.312C579.788 212.513 580.687 214.2 581.188 215C581.588 215.8 582.288 217.2 582.688 218C584.088 221 591.988 227.706 596.188 229.406C598.588 230.406 601.288 231.594 602.188 232.094C604.588 233.294 618 233.2 618 232C618 231.4 618.806 231 619.906 231C622.606 231 630.094 226.612 633.594 222.812C637.894 218.312 642 210.6 642 207C642 205.4 642.313 203.888 642.812 203.688C643.213 203.387 643.3 162.813 643 113.312L642.5 23.5L639.5 18.0938C635.2 10.2937 629.194 4.79375 621.594 1.59375C618.644 0.34375 614.181-0.1625 609.656 0ZM969 116.406C963.8 116.306 958.313 116.387 956.812 116.688C955.212 116.888 954 117.594 954 118.094C954 118.594 953.506 119 952.906 119C950.006 119 941.9 127.2 934.5 137.5C933.4 139.1 931.312 141.906 929.812 143.906C928.312 145.906 926.712 147.9 926.312 148.5C925.812 149 924.2 151.5 922.5 154C920.9 156.5 919.212 158.612 918.812 158.812C918.312 159.013 918 159.588 918 160.188C918 160.788 916.9 162.606 915.5 164.406C914.1 166.106 912.594 167.994 912.094 168.594C911.594 169.194 909.506 172.094 907.406 175.094C905.306 178.094 903.3 180.7 903 181C902.7 181.3 900.7 184 898.5 187C896.3 190 894.213 192.612 893.812 192.812C893.312 193.013 893 193.794 893 194.594C893 195.394 892.594 196 892.094 196C891.594 196 890.894 196.787 890.594 197.688C890.294 198.688 888.7 201.1 887 203C885.4 204.9 884 206.788 884 207.188C884 207.488 882.088 210.187 879.688 213.188C875.287 218.688 874.588 219.7 868.188 229C866.187 232 864.012 235.1 863.312 236C855.412 245.9 842.006 264.813 839.406 269.812C836.406 275.413 836 277.094 836 283.594C836 287.694 836.406 291.812 836.906 292.812C837.406 293.712 838.394 295.8 839.094 297.5C840.994 301.5 841.7 302.487 847 307.688C854.2 314.788 858.406 316.212 870.406 315.812C880.406 315.512 880.594 315.513 886.594 311.312C890.594 308.612 894.494 304.712 897.594 300.312C900.194 296.612 902.788 293.287 903.188 293.188C903.588 292.987 904 292.294 904 291.594C904 290.894 905.1 289.3 906.5 288C907.9 286.7 909 285.113 909 284.312C909 283.612 909.313 283 909.812 283C910.213 282.9 912.1 280.613 914 277.812C915.9 275.012 921.712 267.213 926.812 260.312C931.812 253.413 936 247.606 936 247.406C936 246.806 941.094 239.9 942.094 239C942.394 238.7 944.113 236.413 945.812 233.812C947.613 231.312 949.613 228.612 950.312 227.812C951.013 227.112 952.587 224.9 953.688 223C954.888 221 956.712 218.413 957.812 217.312C958.813 216.112 960.413 214.112 961.312 212.812C962.213 211.512 966.687 205.388 971.188 199.188C975.788 192.987 982.113 184.194 985.312 179.594C988.513 174.994 991.912 170.413 992.812 169.312C993.713 168.312 995.306 165.7 996.406 163.5C997.406 161.3 998.594 158.712 999.094 157.812C1000.39 155.312 1000.21 142.612 998.906 139.312C995.806 131.812 994.812 130.106 991.812 126.906C990.012 125.006 986.3 121.9 983.5 120C978.7 116.7 978 116.506 969 116.406ZM255.594 116.5C251.094 116.3 246.6 116.294 245.5 116.594C238.3 118.494 228.5 125.894 225.5 131.594C224.4 133.694 223.206 135.7 222.906 136C220.806 137.7 219.4 152.113 221 156.312C223.8 163.613 225.406 166.8 228.906 171.5C231.006 174.2 233.9 178.3 235.5 180.5C237.1 182.7 238.787 184.613 239.188 184.812C239.588 185.013 240 185.706 240 186.406C240 187.106 240.812 188.613 241.812 189.812C246.113 194.913 246.987 195.987 248.688 198.688C250.387 201.287 258.513 212.5 261.312 216C262.012 216.8 265.4 221.5 269 226.5C272.5 231.4 275.787 235.613 276.188 235.812C276.588 236.013 277 236.8 277 237.5C277 238.2 277.313 238.987 277.812 239.188C278.213 239.288 280.3 242 282.5 245C284.7 248 286.788 250.612 287.188 250.812C287.688 251.013 288 251.594 288 252.094C288 253.094 298.7 268.087 307 278.688C309.2 281.487 311 284.312 311 284.812C311 285.313 311.694 286.294 312.594 287.094C313.494 287.794 317.088 292.587 320.688 297.688C328.088 308.388 335.894 314.887 342.094 315.688C344.294 315.988 346.294 316.694 346.594 317.094C347.294 318.294 355.706 318.294 356.406 317.094C356.706 316.694 358.688 316.012 360.688 315.812C364.688 315.212 371.887 310.913 375.688 306.812C376.888 305.612 379.294 301.8 381.094 298.5C383.894 293.1 384.313 291.6 384.312 284C384.312 273.9 383.194 271.5 370.594 254.5C366.094 248.4 361.5 242.1 360.5 240.5C359.5 238.8 358.012 236.894 357.312 236.094C356.012 234.794 349.794 226.194 345.094 219.094C343.794 217.094 342.394 215.3 342.094 215C341.694 214.7 339.7 212 337.5 209C335.3 206 332.713 202.594 331.812 201.594C330.813 200.494 329.806 198.813 329.406 197.812C329.106 196.812 328.406 196 327.906 196C327.406 196 327 195.6 327 195C327 194.5 326.3 193.213 325.5 192.312C324.7 191.312 320.606 185.8 316.406 180C312.106 174.2 308.394 169.3 308.094 169C307.794 168.7 307.1 167.813 306.5 166.812C305.2 164.712 294.913 149.8 293.812 148.5C293.312 148 289.806 143.2 285.906 138C273.106 120.8 267.894 117.1 255.594 116.5ZM609.625 304.438C597.238 304.325 585.8 304.456 585 304.906C584.2 305.306 577.812 306.006 570.812 306.406C557.812 307.006 549 308.306 545.5 309.906C544.4 310.406 540.4 311.4 536.5 312C524.2 313.9 523.006 314.194 522.406 315.094C522.106 315.594 521 316 520 316C517.8 316 498.313 322.294 493.312 324.594C491.612 325.294 489.694 326 489.094 326C488.494 326 487.188 326.406 486.188 326.906C485.287 327.406 482.7 328.6 480.5 329.5C463.6 336.7 446.087 345.506 443.688 347.906C443.087 348.506 442.013 349 441.312 349C440.512 349 439.1 349.813 438 350.812C437 351.813 433.794 353.812 431.094 355.312C428.294 356.813 423.994 359.487 421.594 361.188C419.194 362.988 414.112 366.7 410.312 369.5C406.612 372.2 403.006 374.9 402.406 375.5C401.706 376 398.806 378.3 395.906 380.5C393.006 382.7 383.8 391.2 375.5 399.5C354.7 420.1 342.094 435 331.594 451.5C329.494 454.7 327.206 457.987 326.406 458.688C325.606 459.488 325 460.794 325 461.594C325 462.394 324.6 463 324 463C323.5 463 323 463.494 323 464.094C323 464.694 321.688 467.012 320.188 469.312C318.587 471.613 315.806 476.6 313.906 480.5C312.006 484.3 310.3 487.7 310 488C308.8 489.2 302 503.906 302 505.406C302 506.306 301.6 507 301 507C300.5 507 300 507.906 300 508.906C300 510.006 299.5 511.2 299 511.5C298.4 511.8 298 512.8 298 513.5C298 514.3 296.9 517.406 295.5 520.406C294.1 523.406 293 526.506 293 527.406C293 528.206 292.6 529.2 292 529.5C291.5 529.8 291 531.2 291 532.5C291 533.8 290.594 535.106 290.094 535.406C289.594 535.706 288.894 538.006 288.594 540.406C288.194 542.906 287.213 546.3 286.312 548C285.512 549.7 284.613 553.012 284.312 555.312C284.012 557.613 283.313 559.987 282.812 560.688C282.312 561.388 282.1 562.4 282.5 563C282.8 563.6 282.394 565.394 281.594 567.094C280.694 568.894 279.706 573.788 279.406 578.188C279.006 582.488 278.306 586.294 277.906 586.594C277.406 586.894 277 589.506 277 592.406C277 595.206 276.413 598.213 275.812 598.812C274.812 599.813 274.5 609.4 274.5 640C274.5 670.6 274.813 680.194 275.812 681.094C276.413 681.794 277 684.794 277 687.594C277 690.494 277.406 693.106 277.906 693.406C278.306 693.706 279.006 697.513 279.406 701.812C279.706 706.213 280.694 711.106 281.594 712.906C282.394 714.606 282.8 716.4 282.5 717C282.1 717.6 282.312 718.613 282.812 719.312C283.313 720.013 284.012 722.387 284.312 724.688C284.613 726.988 285.512 730.3 286.312 732C287.213 733.7 288.194 737.094 288.594 739.594C288.894 741.994 289.594 744.293 290.094 744.594C290.594 744.894 291 746.2 291 747.5C291 748.8 291.5 750.2 292 750.5C292.6 750.8 293 751.794 293 752.594C293 753.494 294.1 756.594 295.5 759.594C296.9 762.594 298 765.7 298 766.5C298 767.2 298.5 768.2 299 768.5C299.6 768.8 300 769.994 300 771.094C300 772.094 300.5 773 301 773C301.6 773 302 773.788 302 774.688C302 776.388 308.894 791.1 310.094 792C310.394 792.3 311.1 793.6 311.5 795C311.9 796.4 313.094 798.687 314.094 800.188C315.194 801.588 316 803.094 316 803.594C316 803.994 317.6 806.694 319.5 809.594C321.4 812.494 323 815.306 323 815.906C323 816.506 323.5 817 324 817C324.6 817 325 817.606 325 818.406C325 819.206 325.606 820.513 326.406 821.312C327.206 822.013 329.494 825.3 331.594 828.5C334.694 833.4 338.113 838.3 342.812 844.5C345.813 848.5 351.687 855.7 352.688 856.5C353.288 857 355.5 859.5 357.5 862C369.6 876.9 390.9 896.306 412 911.906C415 914.106 418 916.287 418.5 916.688C420.6 918.488 430.9 925 431.5 925C432 925 437.9 928.9 439 930C439.3 930.3 441.713 931.6 444.312 933C453.713 937.8 454.494 938.288 455.094 939.188C455.394 939.788 456.006 940.1 456.406 940C456.706 940 460.113 941.3 463.812 943C467.512 944.7 472.5 947.087 475 948.188C477.5 949.288 481.213 951.094 483.312 952.094C485.313 953.094 488.6 954.194 490.5 954.594C492.4 954.894 494.294 955.594 494.594 956.094C494.894 956.594 495.994 957 497.094 957C498.094 957 499 957.4 499 958C499 958.5 499.813 959 500.812 959C501.813 959 505.912 960.1 509.812 961.5C513.713 962.9 518.1 964 519.5 964C520.9 964 522 964.406 522 964.906C522 965.406 523.713 966.006 525.812 966.406C537.313 968.106 544.7 969.687 546.5 970.688C548.8 971.988 567.194 974 576.594 974C580.094 974 583.106 974.406 583.406 974.906C584.306 976.206 612.5 977 625 976C631.3 975.5 642.1 974.594 649 974.094C663.2 972.994 674.8 971.2 675.5 970C675.8 969.6 678.988 968.9 682.688 968.5C686.288 968.1 690.306 967.4 691.406 967C692.606 966.6 695.3 965.688 697.5 965.188C704.9 963.287 725.5 956.613 728 955.312C729.4 954.612 730.987 954 731.688 954C732.388 954 734.387 953.187 736.188 952.188C737.988 951.187 741.413 949.8 743.812 949C746.113 948.3 748 947.313 748 946.812C748 946.412 748.613 946 749.312 946C749.912 946 753.2 944.6 756.5 943C759.8 941.4 762.813 940 763.312 940C763.713 940 767.406 938 771.406 935.5C775.506 933 779.1 931 779.5 931C779.8 931 785.588 927.4 792.188 923C798.888 918.6 804.787 915 805.188 915C805.588 915 806 914.6 806 914C806 913.5 807.212 912.394 808.812 911.594C810.313 910.794 812.694 909.112 814.094 907.812C815.594 906.513 818.294 904.312 820.094 902.812C821.994 901.312 824.806 899.113 826.406 897.812C834.406 891.412 852.3 873.9 861 864C864 860.6 867 857.294 867.5 856.594C869.8 854.194 878.7 842.913 882 838.312C883.9 835.712 885.912 833.1 886.312 832.5C887.113 831.4 894.213 820.6 899.312 812.5C901.013 809.7 904.3 803.9 906.5 799.5C908.8 795.1 911.088 790.6 911.688 789.5C912.388 788.4 913.488 785.987 914.188 784.188C914.888 782.487 915.787 781 916.188 781C916.588 781 917.194 779.4 917.594 777.5C917.894 775.6 918.594 773.706 919.094 773.406C919.594 773.106 920 772.006 920 770.906C920 769.906 920.5 769 921 769C921.6 769 922 768.3 922 767.5C922 766.7 922.406 765.187 922.906 764.188C925.006 760.287 927 755.088 927 753.688C927 752.787 927.5 751.8 928 751.5C928.6 751.2 929 749.8 929 748.5C929 747.2 929.406 745.894 929.906 745.594C930.406 745.294 931.1 742.912 931.5 740.312C931.9 737.812 932.8 734.694 933.5 733.594C934.3 732.394 935.606 727.9 936.406 723.5C937.206 719.1 938.606 713 939.406 710C940.306 707 941 702.7 941 700.5C941 698.2 941.406 696.006 941.906 695.406C943.006 694.306 943.588 689.412 945.688 661.812C947.188 641.512 947.188 638.512 945.688 618.312C943.587 590.612 943.006 585.694 941.906 584.594C941.406 583.994 941 581.8 941 579.5C941 577.3 940.306 573 939.406 570C938.606 567 937.206 560.9 936.406 556.5C935.506 552.1 934.3 547.606 933.5 546.406C932.8 545.306 931.9 542.188 931.5 539.688C931.1 537.087 930.406 534.706 929.906 534.406C929.406 534.106 929 532.8 929 531.5C929 530.2 928.6 528.8 928 528.5C927.5 528.2 927 527.206 927 526.406C927 525.506 925.9 522.406 924.5 519.406C923.1 516.406 922 513.3 922 512.5C922 511.7 921.6 511 921 511C920.5 511 920 509.9 920 508.5C920 507.1 919.6 506 919 506C918.5 506 918 505.306 918 504.406C918 503.606 916.9 500.906 915.5 498.406C914.1 495.906 913 493.3 913 492.5C913 491.8 912.713 491.013 912.312 490.812C911.812 490.612 909.5 486.5 907 481.5C904.5 476.6 900.794 469.8 898.594 466.5C888.894 451.4 887.012 448.4 886.312 447.5C885.812 446.9 883.7 444 881.5 441C879.3 438 877.1 435.006 876.5 434.406C876 433.806 874.2 431.6 872.5 429.5C870.9 427.4 869.1 425.194 868.5 424.594C868 423.994 864.6 420.194 861 416.094C850.6 404.194 839.1 393 826.5 382.5C823.2 379.8 820.006 377.1 819.406 376.5C818.806 376 816.687 374.4 814.688 373C812.687 371.6 811 370.187 811 369.688C811 369.287 810.3 369 809.5 369C808.7 369 807.512 368.1 806.812 367C806.112 365.9 805.213 365 804.812 365C804.313 365 801.187 363.088 797.688 360.688C794.288 358.288 789.3 355.1 786.5 353.5C783.8 352 781.3 350.4 781 350C780.7 349.6 779.512 348.994 778.312 348.594C777.012 348.194 776 347.494 776 347.094C776 346.694 773.5 345.3 770.5 344C767.5 342.7 765 341.212 765 340.812C765 340.412 764.506 340 763.906 340C763.306 340 759.794 338.606 756.094 336.906C752.494 335.206 747.5 332.912 745 331.812C742.5 330.712 738.788 328.906 736.688 327.906C734.687 326.906 731.4 325.806 729.5 325.406C727.6 325.106 725.706 324.406 725.406 323.906C725.106 323.406 724.006 323 722.906 323C721.906 323 721 322.587 721 322.188C721 321.787 718.3 320.794 715 320.094C711.7 319.294 708.706 318.406 708.406 317.906C708.206 317.406 705.7 316.806 703 316.406C700.2 316.006 698 315.4 698 315C698 314.6 696.313 313.994 694.312 313.594C684.412 312.094 675.213 310.287 672.812 309.188C671.412 308.587 664.612 307.594 657.812 307.094C651.012 306.494 643 305.706 640 305.406C635.35 304.906 622.012 304.55 609.625 304.438ZM610 376.594C755.468 376.594 873.406 494.532 873.406 640C873.406 785.468 755.468 903.406 610 903.406C464.532 903.406 346.594 785.468 346.594 640C346.594 494.532 464.532 376.594 610 376.594ZM1184.5 419.531C1182.64 419.619 1181.05 419.794 1180 420.094C1178.1 420.694 1175.01 421.387 1173.31 421.688C1171.51 421.988 1170 422.594 1170 423.094C1170 423.594 1168.89 424 1167.59 424C1166.19 424 1164.89 424.406 1164.59 424.906C1164.29 425.406 1162.31 426.1 1160.31 426.5C1158.21 426.8 1155.6 427.706 1154.5 428.406C1153.4 429.106 1150.7 430.006 1148.5 430.406C1144.4 431.206 1137 433.5 1133.5 435C1132.4 435.5 1129.7 436.394 1127.5 437.094C1125.3 437.694 1121.79 438.894 1119.69 439.594C1117.69 440.394 1114.8 441 1113.5 441C1112.1 441 1111 441.412 1111 441.812C1111 442.213 1108.91 443.113 1106.31 443.812C1103.61 444.613 1100.71 445.594 1099.81 446.094C1098.81 446.594 1097.09 447 1096.09 447C1094.99 447 1093.89 447.406 1093.59 447.906C1093.19 448.406 1091.11 449.1 1088.81 449.5C1086.51 449.9 1083.81 450.594 1082.81 451.094C1081.81 451.594 1080.1 452.4 1079 453C1077.9 453.5 1076.3 454 1075.5 454C1074.7 454 1073.19 454.406 1072.19 454.906C1071.29 455.406 1067.8 456.6 1064.5 457.5C1061.2 458.5 1057.6 459.594 1056.5 460.094C1051.5 462.094 1044.7 464 1042.5 464C1041.1 464 1040 464.287 1040 464.688C1040 465.188 1036.49 466.606 1032.19 467.906C1027.99 469.206 1024.1 470.6 1023.5 471C1023 471.4 1020.79 472.006 1018.69 472.406C1014.69 473.106 1013.61 473.906 1006.31 480.406C1001.91 484.406 998 491.106 998 494.906C998 496.006 997.6 497.2 997 497.5C995.7 498.3 995.706 507.513 996.906 509.812C997.506 510.712 998.2 513.187 998.5 515.188C998.8 517.288 999.5 519 1000 519C1000.6 519 1001 519.606 1001 520.406C1001 522.106 1011.01 532 1012.81 532C1013.41 532 1014 532.413 1014 532.812C1014 535.613 1036.81 537.594 1039.31 535.094C1039.91 534.494 1041.39 534 1042.59 534C1043.89 534 1045.2 533.5 1045.5 533C1045.8 532.4 1047.19 532 1048.59 532C1049.89 532 1051 531.5 1051 531C1051 530.4 1051.79 530 1052.69 530C1053.69 530 1057.8 528.894 1062 527.594C1066.1 526.194 1074.9 523.506 1081.5 521.406C1088.1 519.306 1094 517.306 1094.5 516.906C1095.1 516.506 1097.61 515.9 1100.31 515.5C1102.91 515.1 1105 514.494 1105 514.094C1105 513.694 1107.11 512.894 1109.81 512.094C1112.41 511.394 1115.4 510.4 1116.5 510C1117.6 509.5 1122.6 507.906 1127.5 506.406C1132.5 504.906 1136.91 503.312 1137.41 502.812C1138.01 502.412 1139.39 502 1140.59 502C1141.89 502 1143.11 501.594 1143.41 501.094C1143.81 500.594 1145.71 499.9 1147.81 499.5C1152.21 498.8 1158.59 496.688 1159.59 495.688C1159.99 495.287 1161.39 495 1162.59 495C1163.89 495 1165.11 494.594 1165.41 494.094C1165.71 493.694 1167.89 492.994 1170.19 492.594C1172.49 492.194 1174.9 491.5 1175.5 491C1176.1 490.5 1179.21 489.394 1182.41 488.594C1185.61 487.694 1189.49 486.394 1191.19 485.594C1192.79 484.694 1195.81 483.806 1197.91 483.406C1202.51 482.506 1206.21 479.994 1212.31 473.594C1219.11 466.494 1220.01 463.694 1219.91 451.094C1219.91 439.994 1219.89 440.206 1214.09 431.906C1211.89 428.706 1205.61 423.794 1200.31 421.094C1197.99 419.894 1190.07 419.269 1184.5 419.531ZM28.4688 420.5C25.8578 420.587 23.675 420.862 22.5 421.312C20.9 421.913 19.3 422.7 19 423C18.7 423.3 17.1937 424.2 15.5938 425C12.1937 426.8 4.99375 434.594 3.09375 438.594C2.39375 440.194 1.40625 442.287 0.90625 443.188C0.40625 444.188-1.19209e-07 448.506 0 452.906C0 459.806 0.39375 461.494 3.09375 466.594C4.79375 469.894 7.1125 473.606 8.3125 474.906C11.6125 478.406 18.2938 482.794 21.5938 483.594C23.1938 483.994 24.9938 484.594 25.5938 485.094C26.0938 485.594 29.2062 486.606 32.4062 487.406C35.6063 488.306 39.4937 489.606 41.0938 490.406C42.7938 491.206 46.1 492.194 48.5 492.594C51 492.894 53 493.594 53 494.094C53 494.594 54.0125 495 55.3125 495C56.6125 495 58 495.412 58.5 495.812C59.1 496.313 61.3 497.213 63.5 497.812C77.1 501.613 79.6063 502.388 80.4062 503.188C81.0063 503.588 82.3875 504 83.6875 504C84.9875 504 86 504.4 86 505C86 505.5 86.9 506 88 506C90.2 506 110.288 512.4 113.188 514C114.088 514.5 116.7 515.294 119 515.594C121.2 515.994 123.294 516.694 123.594 517.094C123.894 517.594 124.994 518 126.094 518C127.094 518 128.812 518.4 129.812 519C132.413 520.5 146.806 525 148.906 525C149.906 525 151.006 525.287 151.406 525.688C151.806 526.088 152.712 526.5 153.312 526.5C154.013 526.6 155.6 527.087 157 527.688C158.4 528.288 162.2 529.594 165.5 530.594C168.8 531.594 172.2 532.694 173 533.094C181.7 536.894 194.113 537.994 202.312 535.594C205.413 534.694 208 533.5 208 533C208 532.4 208.606 532 209.406 532C211.006 532 221 521.387 221 519.688C221.1 518.987 221.9 516.7 223 514.5C225.3 509.8 225.594 499.806 223.594 495.906C222.894 494.506 221.987 492.212 221.688 490.812C220.687 487.012 211.912 477.906 206.812 475.406C204.513 474.206 200 472.494 197 471.594C194 470.694 190.6 469.494 189.5 469.094C188.4 468.594 185.5 467.606 183 466.906C180.5 466.206 178.1 465.306 177.5 464.906C177 464.506 174.9 463.894 173 463.594C171.1 463.194 168.6 462.5 167.5 462C164.3 460.6 149.712 456 148.312 456C147.612 456 146.1 455.5 145 455C143.9 454.4 142.1 453.5 141 453C139.9 452.4 138.1 452 137 452C135.9 452 135 451.594 135 451.094C135 450.594 132.8 449.994 130 449.594C127.3 449.194 124.8 448.5 124.5 448C124.2 447.4 123.006 447 121.906 447C120.906 447 119.188 446.594 118.188 446.094C117.287 445.594 114.5 444.606 112 443.906C109.5 443.206 107.1 442.306 106.5 441.906C106 441.506 103.788 440.9 101.688 440.5C99.6875 440.1 97.7062 439.406 97.4062 438.906C97.1062 438.406 95.7938 438 94.5938 438C92.5937 438 86.2 435.906 79.5 432.906C78.4 432.406 75.4125 431.6 72.8125 431C67.3125 429.8 54.2125 425.494 53.3125 424.594C52.9125 424.294 51.6125 424 50.3125 424C49.1125 424 48 423.594 48 423.094C48 421.444 36.3016 420.237 28.4688 420.5ZM1022.5 743.406C1022 743.606 1019.61 744.3 1017.31 745C1014.91 745.7 1013 746.687 1013 747.188C1013 747.588 1012.51 748 1011.81 748C1010.01 748 1001.69 757.088 999.688 761.188C998.787 763.188 998 765.913 998 767.312C998 768.713 997.6 770.2 997 770.5C996.5 770.8 996 773.1 996 775.5C996 777.9 996.5 780.2 997 780.5C997.6 780.8 998 782.288 998 783.688C998 785.088 998.788 787.812 999.688 789.812C1001.89 794.413 1012.11 805 1014.41 805C1015.31 805 1016 805.4 1016 806C1016 806.5 1016.9 807 1018 807C1019.9 807 1027.5 809.2 1031.5 811C1032.6 811.4 1035.61 812.394 1038.31 813.094C1040.91 813.894 1043 814.694 1043 815.094C1043 815.494 1045.2 816.1 1048 816.5C1050.7 816.9 1053.19 817.594 1053.59 818.094C1053.89 818.594 1055.2 819 1056.5 819C1057.8 819 1059.11 819.406 1059.41 819.906C1059.71 820.306 1061.39 821.1 1063.19 821.5C1064.99 821.9 1066.7 822.4 1067 822.5C1067.3 822.6 1068.9 823.006 1070.5 823.406C1072.2 823.806 1074.29 824.494 1075.19 825.094C1076.19 825.594 1077.7 826 1078.5 826C1079.3 826 1081.01 826.488 1082.31 827.188C1086.91 829.588 1088 830 1089.5 830C1091 830 1099 832.5 1102.5 834C1103.6 834.5 1106.3 835.394 1108.5 836.094C1110.7 836.794 1113 837.694 1113.5 838.094C1114.1 838.394 1116.21 839.106 1118.41 839.406C1120.51 839.806 1123.01 840.5 1123.91 841C1124.81 841.4 1130.9 843.494 1137.5 845.594C1144.1 847.594 1150.2 849.613 1151 849.812C1151.8 850.113 1153.2 850.494 1154 850.594C1156.4 851.094 1165.29 854.094 1167.19 855.094C1168.19 855.594 1169.81 856 1170.81 856C1171.81 856 1173.01 856.288 1173.41 856.688C1175.11 858.488 1182.19 860 1188.69 860C1197.39 860 1204.4 857.212 1210.5 851.312C1219.2 842.912 1220 841 1220 827.5C1220 817.7 1219.71 815.512 1217.91 812.312C1214.41 806.112 1204.81 797.406 1200.31 796.406C1198.71 796.106 1195.61 795.006 1193.31 793.906C1190.91 792.906 1188.1 792 1187 792C1185.9 792 1184.1 791.5 1183 791C1181.9 790.4 1180.19 789.594 1179.19 789.094C1178.19 788.594 1175.4 787.9 1173 787.5C1170.5 787.1 1168.1 786.494 1167.5 786.094C1167 785.694 1162.5 784.094 1157.5 782.594C1152.6 781.094 1147.71 779.406 1146.81 778.906C1145.81 778.406 1144.3 778 1143.5 778C1142.7 778 1141.19 777.6 1140.19 777C1137.49 775.5 1123.2 771 1121 771C1119.9 771 1119 770.5 1119 770C1119 769.4 1117.9 769 1116.5 769C1115.1 769 1113.1 768.5 1112 768C1110.9 767.4 1109.1 766.5 1108 766C1106.9 765.4 1105.4 765 1104.5 765C1103.1 765 1089.6 760.794 1085.5 759.094C1084.4 758.594 1080.8 757.4 1077.5 756.5C1068.1 753.7 1056.71 749.906 1054.81 748.906C1053.81 748.406 1052.3 748 1051.5 748C1050.7 748 1049.19 747.594 1048.19 747.094C1043.79 744.894 1038.9 743.806 1031.5 743.406C1027.1 743.206 1023.1 743.206 1022.5 743.406ZM191.5 744.094C184.7 744.194 181.6 744.887 171 748.688C164.1 751.088 157.712 753.094 156.812 753.094C155.812 753.094 154.8 753.494 154.5 754.094C154.1 754.594 153 755 152 755C150.1 755 142.3 757.3 138.5 759C137.4 759.5 134.7 760.394 132.5 761.094C130.3 761.694 127.8 762.6 127 763C126.1 763.4 123.9 764.106 122 764.406C118.6 765.106 115.513 766.194 111.812 768.094C110.812 768.594 109.3 769 108.5 769C107.7 769 106.188 769.406 105.188 769.906C104.287 770.506 100.8 771.6 97.5 772.5C91.5 774.2 88.1125 775.394 84.8125 777.094C83.8125 777.594 82.0938 778 81.0938 778C79.9937 778 78.8 778.4 78.5 779C78.2 779.5 77 780 76 780C74.1 780 60.5 784.2 56.5 786C55.4 786.5 52.9 787.194 51 787.594C49.1 787.894 47.1 788.506 46.5 788.906C44.9 789.906 38.5875 792 37.1875 792C36.4875 792 34.1125 792.9 31.8125 794C29.5125 795.1 26.0937 796.294 24.0938 796.594C19.7937 797.394 14.8 800.394 10 805.094C6.3 808.694 5.0125 810.788 0.8125 819.188C-0.2875 821.588-0.19375 834.612 0.90625 836.812C1.40625 837.713 2.4875 839.987 3.1875 841.688C3.8875 843.488 4.7875 845 5.1875 845C5.6875 845 6 845.606 6 846.406C6 848.206 12.5937 854.094 18.5938 857.594C22.8938 860.094 24.4 860.5 32 860.5C39.6 860.5 45.7 859.406 51.5 856.906C52.6 856.506 56.7 855.106 60.5 853.906C64.4 852.706 68 851.4 68.5 851C69.1 850.6 71.1 849.9 73 849.5C74.9 849.1 83.2062 846.606 91.4062 843.906C99.6062 841.206 106.806 839 107.406 839C108.106 839 110.513 838.1 112.812 837C115.013 835.9 117.8 835 119 835C120.1 835 121.813 834.6 122.812 834C125.113 832.7 133.7 830 135.5 830C136.4 830 137.9 829.5 139 829C140.1 828.4 141.9 827.5 143 827C144.1 826.4 145.7 826 146.5 826C147.3 826 148.812 825.6 149.812 825C150.712 824.5 155.6 822.906 160.5 821.406C165.5 819.906 170 818.306 170.5 817.906C171.1 817.506 173.5 816.9 176 816.5C180.4 815.8 181.288 815.388 185.688 813.188C186.988 812.487 188.906 812 189.906 812C191.006 812 192.2 811.5 192.5 811C192.8 810.4 194.2 810 195.5 810C196.8 810 198.2 809.5 198.5 809C198.8 808.4 199.987 808 201.188 808C204.788 808 210.094 804.813 215.594 799.312C218.594 796.312 221 793.406 221 792.906C221 792.306 221.987 789.787 223.188 787.188C226.588 779.787 226.213 772.207 221.812 762.906C219.312 757.506 217.106 754.406 214.406 752.406C212.306 750.806 209.806 748.894 208.906 748.094C205.706 745.394 199.5 743.994 191.5 744.094ZM870.281 962.062C868.756 962.037 867.05 962.306 866 962.906C865.2 963.406 862.5 964.006 860 964.406C856.6 964.906 854.1 966.294 849.5 970.094C846.2 972.894 843.1 976.206 842.5 977.406C842 978.506 841.3 979.7 841 980C839.6 981.4 838 985.206 838 987.406C838 988.806 837.6 990.2 837 990.5C836.5 990.8 836 993.3 836 996C836 998.7 836.5 1001.2 837 1001.5C837.6 1001.8 838 1003.2 838 1004.5C838 1005.8 838.5 1007.2 839 1007.5C839.6 1007.8 840 1008.99 840 1010.09C840 1011.09 840.5 1012 841 1012C841.6 1012 842 1012.49 842 1013.09C842 1013.79 843.512 1016.11 845.312 1018.41C847.113 1020.71 849.406 1023.81 850.406 1025.31C851.306 1026.91 852.8 1028.91 853.5 1029.81C854.3 1030.71 857.406 1034.9 860.406 1039C863.406 1043.1 866.287 1046.9 866.688 1047.5C867.187 1048 868.7 1050.1 870 1052C871.3 1053.9 872.988 1056.11 873.688 1056.81C874.387 1057.51 875 1058.59 875 1059.09C875 1059.59 875.813 1060.89 876.812 1062.09C877.713 1063.19 879.487 1065.41 880.688 1066.81C881.988 1068.31 883 1069.79 883 1070.19C883 1070.59 883.613 1071.49 884.312 1072.19C885.012 1072.89 887.8 1076.6 890.5 1080.5C893.2 1084.3 895.7 1087.7 896 1088C896.4 1088.3 900 1093.2 904 1099C908.1 1104.8 911.994 1110.09 912.594 1110.69C913.294 1111.39 914.794 1113.59 916.094 1115.69C917.394 1117.79 918.7 1119.7 919 1120C919.6 1120.4 933.813 1139.9 938.812 1147C941.913 1151.4 949.4 1158.6 953.5 1161C957 1163.1 958.8 1163.41 968 1163.41C978.5 1163.51 978.5 1163.51 984 1159.81C987 1157.81 990.687 1154.91 992.188 1153.31C995.688 1149.61 1000 1141.5 1000 1138.5C1000 1137.2 1000.5 1135.8 1001 1135.5C1001.6 1135.2 1002 1133.1 1002 1131C1002 1128.9 1001.6 1126.8 1001 1126.5C1000.5 1126.2 1000 1124.8 1000 1123.5C1000 1120.1 995.5 1112.1 989 1104C987 1101.5 984.5 1098.19 983.5 1096.59C982.4 1094.99 980.6 1092.5 979.5 1091C978.4 1089.5 975.7 1085.61 973.5 1082.41C971.3 1079.21 968.713 1075.81 967.812 1074.91C966.812 1074.01 966 1072.89 966 1072.59C966 1072.19 965.412 1071.2 964.812 1070.5C961.812 1067.2 961 1065.99 961 1065.09C961 1064.59 960.588 1064.01 960.188 1063.81C959.788 1063.61 957.2 1060.3 954.5 1056.5C949 1048.7 948.988 1048.7 945.688 1044.5C944.387 1042.8 940 1036.8 936 1031C931.9 1025.2 928.312 1020.29 927.812 1020.19C927.413 1019.99 927 1019.21 927 1018.41C927 1017.61 926.712 1017 926.312 1017C925.812 1017 924.2 1015 922.5 1012.5C920.9 1010.1 919.212 1008 918.812 1008C918.312 1008 918 1007.5 918 1007C918 1006.1 905.488 988.4 901.688 984C900.987 983.2 899.194 980.612 897.594 978.312C892.594 970.812 882.794 964 877.094 964C875.494 964 873.8 963.5 873.5 963C873.15 962.4 871.806 962.087 870.281 962.062ZM353.5 964.188C344.4 963.887 343.088 964.106 338.688 966.406C330.087 970.906 327.412 973.7 314.312 993C312.212 996 309.713 999.194 308.812 1000.09C307.812 1000.99 307 1002.1 307 1002.5C307 1002.9 305.9 1004.61 304.5 1006.41C301.3 1010.31 301.294 1010.4 296.594 1017C294.394 1020 292.313 1022.61 291.812 1022.81C291.413 1023.01 291 1023.79 291 1024.59C291 1025.39 290.594 1026 290.094 1026C289.594 1026 288.894 1026.81 288.594 1027.81C288.194 1028.81 287.187 1030.49 286.188 1031.59C285.187 1032.59 281.094 1038.2 277.094 1044C272.994 1049.8 269.306 1054.61 268.906 1054.81C268.406 1055.01 268 1055.79 268 1056.59C268 1057.39 267.588 1058 267.188 1058C266.787 1058 265.6 1059.49 264.5 1061.19C263.5 1062.99 262.094 1064.99 261.594 1065.59C260.994 1066.19 259.6 1067.9 258.5 1069.5C252.8 1077.5 248.812 1083 245.812 1087C244.012 1089.5 242.213 1091.9 241.812 1092.5C241.412 1093 239.987 1094.8 238.688 1096.5C233.587 1103.1 225.206 1115.7 223.406 1119.5C221.306 1124.1 220.813 1140.19 222.812 1142.19C223.513 1142.89 224 1144.1 224 1145C224 1146 224.994 1147.79 226.094 1149.09C227.294 1150.39 228.888 1152.49 229.688 1153.69C230.488 1154.89 233.712 1157.59 236.812 1159.69L242.5 1163.5L254 1163.5L265.5 1163.5L271.312 1159.59C276.413 1156.19 280.9 1151 290.5 1137.5C291.3 1136.4 294.087 1132.6 296.688 1129C299.388 1125.4 302.8 1120.4 304.5 1118C306.1 1115.5 308.2 1112.8 309 1112C309.9 1111.2 311.9 1108.41 313.5 1105.81C315.2 1103.11 316.813 1101 317.312 1101C317.713 1101 318 1100.39 318 1099.59C318 1098.79 318.413 1098.01 318.812 1097.81C319.213 1097.61 322.5 1093.4 326 1088.5C329.5 1083.5 332.988 1078.89 333.688 1078.19C334.388 1077.39 335.488 1075.89 336.188 1074.69C337.588 1071.89 343.313 1064.59 344.312 1064.19C344.713 1063.99 345 1063.41 345 1062.91C345 1061.71 352.012 1052 352.812 1052C353.213 1052 354.8 1049.7 356.5 1047C358.1 1044.2 359.787 1042 360.188 1042C360.588 1042 361 1041.51 361 1040.91C361 1040.21 362.512 1037.89 364.312 1035.59C366.113 1033.29 369.113 1029.41 370.812 1026.81C372.613 1024.31 374.588 1021.61 375.188 1020.81C375.888 1020.11 378.3 1016.8 380.5 1013.5L384.5 1007.5L384.5 996.188C384.5 989.787 384.1 984.588 383.5 984.188C382.9 983.787 381.8 982.2 381 980.5C378.7 975.9 375.194 972.287 369.094 968.188C363.694 964.687 363.1 964.488 353.5 964.188ZM610.406 1047C606.806 1047 604 1047.4 604 1048C604 1048.5 602.9 1049 601.5 1049C598.7 1049 589.5 1054.59 586.5 1058.19C583.7 1061.59 580 1068.8 580 1071C580 1072 579.6 1073.2 579 1073.5C578.3 1073.9 578 1105.19 578 1164.09C578 1223.39 578.3 1254 579 1254C579.6 1254 580 1254.81 580 1255.91C580 1262.31 589.5 1273.71 598.5 1277.91C603.9 1280.41 616.794 1280.79 622.094 1278.59C629.294 1275.59 636.787 1269.09 639.188 1263.69C639.888 1262.19 640.787 1261 641.188 1261C641.688 1261 642 1259.89 642 1258.59C642 1257.19 642.5 1255.8 643 1255.5C643.7 1255.1 644 1223.3 644 1163.5C644 1103.7 643.7 1071.9 643 1071.5C642.5 1071.2 642 1070.01 642 1068.91C642 1067.91 641.6 1067 641 1067C640.5 1067 640 1066.1 640 1065C640 1060.6 625.994 1049 620.594 1049C619.194 1049 617.8 1048.5 617.5 1048C617.2 1047.4 614.006 1047 610.406 1047Z" fill="#000000" fill-rule="nonzero" opacity="1" stroke="none" vectornator:layerName="Curve 1"/>
</g>
</svg>
