<?xml version="1.0" encoding="UTF-8" standalone="no"?>
<!DOCTYPE svg PUBLIC "-//W3C//DTD SVG 1.1//EN" "http://www.w3.org/Graphics/SVG/1.1/DTD/svg11.dtd">
<!-- Created with Vectornator (http://vectornator.io/) -->
<svg height="100%" stroke-miterlimit="10" style="fill-rule:nonzero;clip-rule:evenodd;stroke-linecap:round;stroke-linejoin:round;" version="1.1" viewBox="0 0 1024 1024" width="100%" xml:space="preserve" xmlns="http://www.w3.org/2000/svg" xmlns:vectornator="http://vectornator.io" xmlns:xlink="http://www.w3.org/1999/xlink">
<defs/>
<g id="Layer-1" vectornator:layerName="Layer 1">
<path d="M170.873 647.717C170.873 633.697 182.238 622.331 196.259 622.331L827.741 622.331C841.762 622.331 853.127 633.697 853.127 647.717L853.127 650.475C853.127 664.496 841.762 675.861 827.741 675.861L196.259 675.861C182.238 675.861 170.873 664.496 170.873 650.475L170.873 647.717Z" fill="#000000" fill-rule="nonzero" opacity="1" stroke="none" vectornator:layerName="Rectangle 2"/>
<path d="M170.873 372.739C170.873 359.153 181.886 348.139 195.473 348.139L828.527 348.139C842.114 348.139 853.127 359.153 853.127 372.739L853.127 377.069C853.127 390.655 842.114 401.669 828.527 401.669L195.473 401.669C181.886 401.669 170.873 390.655 170.873 377.069L170.873 372.739Z" fill="#000000" fill-rule="nonzero" opacity="1" stroke="none" vectornator:layerName="Rectangle 6"/>
</g>
</svg>
