<svg xmlns="http://www.w3.org/2000/svg" xmlns:vectornator="http://vectornator.io" xml:space="preserve" stroke-miterlimit="10" style="fill-rule:nonzero;clip-rule:evenodd;stroke-linecap:round;stroke-linejoin:round" viewBox="0 0 42.246 10.181"><defs><linearGradient id="a" x1="0" x2="44.594" y1="3.829" y2="3.829" gradientUnits="userSpaceOnUse"><stop offset="0" stop-color="#ffcbcb"/><stop offset="1" stop-color="#ffd39b"/></linearGradient></defs><g vectornator:layerName="Layer 1"><g vectornator:layerName="Group 5"><g vectornator:layerName="Text 1" fill="url(#a)"><path d="M2.257.174h8.588v1.963L5.338 7.884h5.708v2.11H1.728V7.958l5.446-5.687H2.257V.174ZM12.533.174h3.041v9.82h-3.041V.174ZM17.718.174h3.992l1.54 5.975L24.786.174h3.979v9.82h-2.479V2.505l-1.922 7.49h-2.244l-1.916-7.49v7.49h-2.485V.174ZM30.318 5.09c0-1.602.447-2.85 1.34-3.744.893-.893 2.137-1.34 3.73-1.34 1.635 0 2.895.44 3.779 1.317.884.877 1.326 2.107 1.326 3.688 0 1.147-.193 2.088-.58 2.823A4.13 4.13 0 0 1 38.24 9.55c-.73.409-1.64.613-2.73.613-1.107 0-2.024-.177-2.75-.53-.725-.352-1.314-.91-1.765-1.674-.45-.764-.676-1.72-.676-2.867Zm3.034.014c0 .992.185 1.704.553 2.137.368.433.87.65 1.504.65.652 0 1.157-.212 1.514-.636.357-.425.536-1.186.536-2.285 0-.924-.187-1.6-.56-2.026-.373-.427-.878-.64-1.517-.64-.612 0-1.103.217-1.474.65-.37.433-.556 1.15-.556 2.15Z"/></g></g></g></svg>