<svg xmlns="http://www.w3.org/2000/svg" xmlns:vectornator="http://vectornator.io" xml:space="preserve" stroke-miterlimit="10" style="fill-rule:nonzero;clip-rule:evenodd;stroke-linecap:round;stroke-linejoin:round" viewBox="0 0 1024 1024"><defs><linearGradient id="b" x1="200.954" x2="810.903" y1="318.391" y2="318.391" gradientTransform="matrix(1.84924 0 0 .31128 -452.414 -55.699)" gradientUnits="userSpaceOnUse"><stop offset=".001" stop-color="#ffaf65"/><stop offset="1" stop-color="#ffcb4c"/></linearGradient><linearGradient id="c" x1="200.954" x2="810.903" y1="318.391" y2="318.391" gradientTransform="matrix(2.20243 0 0 .2936 -602.272 33.056)" gradientUnits="userSpaceOnUse"><stop offset=".001" stop-color="#ffaf65"/><stop offset="1" stop-color="#ffcb4c"/></linearGradient><linearGradient id="d" x1="200.954" x2="810.903" y1="318.391" y2="318.391" gradientTransform="matrix(1.84924 0 0 .31128 -452.414 116.432)" gradientUnits="userSpaceOnUse"><stop offset=".001" stop-color="#ffaf65"/><stop offset="1" stop-color="#ffcb4c"/></linearGradient><linearGradient id="e" x1="200.954" x2="810.903" y1="318.391" y2="318.391" gradientTransform="matrix(2.20243 0 0 .2936 -602.272 205.187)" gradientUnits="userSpaceOnUse"><stop offset=".001" stop-color="#ffaf65"/><stop offset="1" stop-color="#ffcb4c"/></linearGradient><linearGradient id="f" x1="200.954" x2="810.903" y1="318.391" y2="318.391" gradientTransform="matrix(1.84924 0 0 .31128 -452.414 285.93)" gradientUnits="userSpaceOnUse"><stop offset=".001" stop-color="#ffaf65"/><stop offset="1" stop-color="#ffcb4c"/></linearGradient><linearGradient id="g" x1="200.954" x2="810.903" y1="318.391" y2="318.391" gradientTransform="matrix(2.20243 0 0 .2936 -602.272 374.685)" gradientUnits="userSpaceOnUse"><stop offset=".001" stop-color="#ffaf65"/><stop offset="1" stop-color="#ffcb4c"/></linearGradient><linearGradient id="h" x1="200.954" x2="810.903" y1="318.391" y2="318.391" gradientTransform="matrix(1.84924 0 0 .31128 -452.414 458.061)" gradientUnits="userSpaceOnUse"><stop offset=".001" stop-color="#ffaf65"/><stop offset="1" stop-color="#ffcb4c"/></linearGradient><linearGradient id="i" x1="200.954" x2="810.903" y1="318.391" y2="318.391" gradientTransform="matrix(2.20243 0 0 .2936 -602.272 546.816)" gradientUnits="userSpaceOnUse"><stop offset=".001" stop-color="#ffaf65"/><stop offset="1" stop-color="#ffcb4c"/></linearGradient><linearGradient id="j" x1="200.954" x2="810.903" y1="318.391" y2="318.391" gradientTransform="matrix(1.84924 0 0 .31128 -452.414 627.839)" gradientUnits="userSpaceOnUse"><stop offset=".001" stop-color="#ffaf65"/><stop offset="1" stop-color="#ffcb4c"/></linearGradient><linearGradient id="k" x1="200.954" x2="810.903" y1="318.391" y2="318.391" gradientTransform="matrix(2.20243 0 0 .2936 -602.272 716.594)" gradientUnits="userSpaceOnUse"><stop offset=".001" stop-color="#ffaf65"/><stop offset="1" stop-color="#ffcb4c"/></linearGradient><linearGradient id="l" x1="200.954" x2="810.903" y1="318.391" y2="318.391" gradientTransform="matrix(1.84924 0 0 .31128 -452.414 799.97)" gradientUnits="userSpaceOnUse"><stop offset=".001" stop-color="#ffaf65"/><stop offset="1" stop-color="#ffcb4c"/></linearGradient><linearGradient id="m" x1="200.954" x2="810.903" y1="318.391" y2="318.391" gradientTransform="matrix(2.20243 0 0 .2936 -602.272 888.725)" gradientUnits="userSpaceOnUse"><stop offset=".001" stop-color="#ffaf65"/><stop offset="1" stop-color="#ffcb4c"/></linearGradient></defs><clipPath id="a"><path d="M0 0h1024v1024H0z"/></clipPath><g vectornator:layerName="Layer 1"><g vectornator:layerName="Group 1" clip-path="url(#a)"><g vectornator:layerName="Text 1" fill="url(#b)"><path d="M-77.282 28.831h22.9v5.234l-14.684 15.327h15.22v5.627h-24.848v-5.43l14.523-15.166h-13.111V28.83ZM-49.88 28.831h8.11V55.02h-8.11V28.83ZM-36.054 28.831h10.646l4.109 15.934 4.09-15.934h10.611V55.02h-6.61V35.048l-5.126 19.97h-5.984l-5.11-19.97v19.97h-6.626V28.832ZM-2.454 41.943c0-4.275 1.191-7.604 3.573-9.986 2.382-2.381 5.698-3.572 9.95-3.572 4.358 0 7.717 1.17 10.075 3.51 2.358 2.34 3.537 5.618 3.537 9.834 0 3.06-.515 5.57-1.546 7.529-1.03 1.959-2.518 3.483-4.465 4.573-1.948 1.09-4.374 1.634-7.28 1.634-2.953 0-5.397-.47-7.333-1.41-1.935-.942-3.504-2.43-4.706-4.467-1.203-2.036-1.805-4.584-1.805-7.645Zm8.092.036c0 2.643.492 4.543 1.474 5.698.983 1.155 2.32 1.733 4.01 1.733 1.74 0 3.085-.566 4.037-1.697.953-1.132 1.43-3.162 1.43-6.092 0-2.465-.498-4.266-1.492-5.403-.994-1.138-2.343-1.706-4.046-1.706-1.632 0-2.942.577-3.93 1.733-.988 1.155-1.483 3.066-1.483 5.734ZM89.381 28.831h22.901v5.234L97.598 49.392h15.219v5.627H87.97v-5.43l14.523-15.166H89.381V28.83ZM116.783 28.831h8.11V55.02h-8.11V28.83ZM130.609 28.831h10.647l4.108 15.934 4.091-15.934h10.611V55.02h-6.61V35.048l-5.126 19.97h-5.985l-5.109-19.97v19.97h-6.627V28.832ZM164.21 41.943c0-4.275 1.191-7.604 3.573-9.986 2.381-2.381 5.698-3.572 9.949-3.572 4.359 0 7.717 1.17 10.075 3.51 2.358 2.34 3.537 5.618 3.537 9.834 0 3.06-.515 5.57-1.545 7.529-1.03 1.959-2.519 3.483-4.466 4.573-1.947 1.09-4.373 1.634-7.279 1.634-2.954 0-5.398-.47-7.333-1.41-1.935-.942-3.504-2.43-4.707-4.467-1.203-2.036-1.804-4.584-1.804-7.645Zm8.092.036c0 2.643.491 4.543 1.474 5.698.982 1.155 2.319 1.733 4.01 1.733 1.739 0 3.084-.566 4.037-1.697.953-1.132 1.429-3.162 1.429-6.092 0-2.465-.497-4.266-1.492-5.403-.994-1.138-2.343-1.706-4.046-1.706-1.631 0-2.941.577-3.929 1.733-.989 1.155-1.483 3.066-1.483 5.734ZM256.045 28.831h22.9v5.234l-14.683 15.327h15.219v5.627h-24.848v-5.43l14.523-15.166h-13.111V28.83ZM283.447 28.831h8.11V55.02h-8.11V28.83ZM297.273 28.831h10.646l4.109 15.934 4.09-15.934h10.611V55.02h-6.609V35.048l-5.127 19.97h-5.984l-5.109-19.97v19.97h-6.627V28.832ZM330.873 41.943c0-4.275 1.191-7.604 3.573-9.986 2.382-2.381 5.698-3.572 9.95-3.572 4.358 0 7.717 1.17 10.075 3.51 2.358 2.34 3.537 5.618 3.537 9.834 0 3.06-.515 5.57-1.546 7.529-1.03 1.959-2.518 3.483-4.465 4.573-1.947 1.09-4.374 1.634-7.28 1.634-2.953 0-5.397-.47-7.332-1.41-1.936-.942-3.505-2.43-4.707-4.467-1.203-2.036-1.805-4.584-1.805-7.645Zm8.092.036c0 2.643.492 4.543 1.474 5.698.983 1.155 2.319 1.733 4.01 1.733 1.739 0 3.085-.566 4.037-1.697.953-1.132 1.43-3.162 1.43-6.092 0-2.465-.498-4.266-1.492-5.403-.994-1.138-2.343-1.706-4.046-1.706-1.632 0-2.942.577-3.93 1.733-.988 1.155-1.483 3.066-1.483 5.734ZM422.708 28.831h22.901v5.234l-14.684 15.327h15.22v5.627h-24.848v-5.43l14.523-15.166h-13.112V28.83ZM450.11 28.831h8.11V55.02h-8.11V28.83ZM463.936 28.831h10.647l4.108 15.934 4.091-15.934h10.611V55.02h-6.61V35.048l-5.126 19.97h-5.985l-5.109-19.97v19.97h-6.627V28.832ZM497.537 41.943c0-4.275 1.191-7.604 3.573-9.986 2.381-2.381 5.698-3.572 9.949-3.572 4.359 0 7.717 1.17 10.075 3.51 2.358 2.34 3.537 5.618 3.537 9.834 0 3.06-.515 5.57-1.545 7.529-1.03 1.959-2.519 3.483-4.466 4.573-1.947 1.09-4.373 1.634-7.279 1.634-2.954 0-5.398-.47-7.333-1.41-1.935-.942-3.504-2.43-4.707-4.467-1.203-2.036-1.804-4.584-1.804-7.645Zm8.092.036c0 2.643.491 4.543 1.474 5.698.982 1.155 2.319 1.733 4.01 1.733 1.739 0 3.084-.566 4.037-1.697.953-1.132 1.429-3.162 1.429-6.092 0-2.465-.497-4.266-1.492-5.403-.994-1.138-2.343-1.706-4.046-1.706-1.631 0-2.941.577-3.929 1.733-.989 1.155-1.483 3.066-1.483 5.734ZM589.372 28.831h22.9v5.234l-14.683 15.327h15.219v5.627H587.96v-5.43l14.523-15.166h-13.111V28.83ZM616.774 28.831h8.11V55.02h-8.11V28.83ZM630.6 28.831h10.646l4.109 15.934 4.09-15.934h10.611V55.02h-6.609V35.048l-5.127 19.97h-5.984l-5.109-19.97v19.97H630.6V28.832ZM664.2 41.943c0-4.275 1.191-7.604 3.573-9.986 2.382-2.381 5.698-3.572 9.95-3.572 4.358 0 7.717 1.17 10.075 3.51 2.358 2.34 3.537 5.618 3.537 9.834 0 3.06-.515 5.57-1.546 7.529-1.03 1.959-2.518 3.483-4.465 4.573-1.947 1.09-4.374 1.634-7.28 1.634-2.953 0-5.397-.47-7.332-1.41-1.936-.942-3.505-2.43-4.707-4.467-1.203-2.036-1.805-4.584-1.805-7.645Zm8.092.036c0 2.643.492 4.543 1.474 5.698.983 1.155 2.319 1.733 4.01 1.733 1.739 0 3.085-.566 4.038-1.697.952-1.132 1.429-3.162 1.429-6.092 0-2.465-.498-4.266-1.492-5.403-.994-1.138-2.343-1.706-4.046-1.706-1.632 0-2.941.577-3.93 1.733-.988 1.155-1.483 3.066-1.483 5.734ZM756.035 28.831h22.901v5.234l-14.684 15.327h15.22v5.627h-24.848v-5.43l14.523-15.166h-13.112V28.83ZM783.437 28.831h8.11V55.02h-8.11V28.83ZM797.263 28.831h10.647l4.108 15.934 4.091-15.934h10.611V55.02h-6.61V35.048l-5.126 19.97h-5.985l-5.108-19.97v19.97h-6.628V28.832ZM830.864 41.943c0-4.275 1.191-7.604 3.573-9.986 2.381-2.381 5.698-3.572 9.949-3.572 4.359 0 7.717 1.17 10.075 3.51 2.358 2.34 3.537 5.618 3.537 9.834 0 3.06-.515 5.57-1.545 7.529-1.03 1.959-2.519 3.483-4.466 4.573-1.947 1.09-4.373 1.634-7.279 1.634-2.953 0-5.398-.47-7.333-1.41-1.935-.942-3.504-2.43-4.707-4.467-1.203-2.036-1.804-4.584-1.804-7.645Zm8.092.036c0 2.643.491 4.543 1.474 5.698.982 1.155 2.319 1.733 4.01 1.733 1.739 0 3.084-.566 4.037-1.697.953-1.132 1.429-3.162 1.429-6.092 0-2.465-.497-4.266-1.491-5.403-.995-1.138-2.344-1.706-4.047-1.706-1.631 0-2.941.577-3.929 1.733-.989 1.155-1.483 3.066-1.483 5.734ZM922.699 28.831h22.9v5.234l-14.683 15.327h15.219v5.627h-24.848v-5.43l14.523-15.166h-13.111V28.83ZM950.101 28.831h8.11V55.02h-8.11V28.83ZM963.927 28.831h10.646l4.109 15.934 4.09-15.934h10.611V55.02h-6.609V35.048l-5.127 19.97h-5.984l-5.109-19.97v19.97h-6.627V28.832ZM997.527 41.943c0-4.275 1.191-7.604 3.573-9.986 2.38-2.381 5.7-3.572 9.95-3.572 4.36 0 7.72 1.17 10.07 3.51 2.36 2.34 3.54 5.618 3.54 9.834 0 3.06-.51 5.57-1.54 7.529-1.03 1.959-2.52 3.483-4.47 4.573-1.95 1.09-4.37 1.634-7.28 1.634-2.95 0-5.4-.47-7.33-1.41-1.94-.942-3.51-2.43-4.708-4.467-1.203-2.036-1.805-4.584-1.805-7.645Zm8.093.036c0 2.643.49 4.543 1.47 5.698.99 1.155 2.32 1.733 4.01 1.733 1.74 0 3.09-.566 4.04-1.697.95-1.132 1.43-3.162 1.43-6.092 0-2.465-.5-4.266-1.49-5.403-1-1.138-2.35-1.706-4.05-1.706-1.63 0-2.94.577-3.93 1.733-.99 1.155-1.48 3.066-1.48 5.734Z"/></g><g vectornator:layerName="Text 2" fill="url(#c)"><path d="M-156.165 113.569h22.9v5.234l-14.683 15.326h15.219v5.627h-24.847v-5.43l14.522-15.166h-13.111v-5.591ZM-128.763 113.569h8.11v26.187h-8.11v-26.187ZM-114.937 113.569h10.646l4.109 15.934 4.09-15.934h10.611v26.187h-6.609v-19.971l-5.127 19.971h-5.984l-5.109-19.971v19.971h-6.627v-26.187ZM-81.336 126.68c0-4.275 1.19-7.604 3.572-9.985 2.382-2.382 5.699-3.573 9.95-3.573 4.359 0 7.717 1.17 10.075 3.51 2.358 2.34 3.537 5.618 3.537 9.834 0 3.06-.515 5.57-1.545 7.529-1.03 1.959-2.52 3.483-4.466 4.573-1.947 1.09-4.374 1.635-7.28 1.635-2.953 0-5.397-.471-7.332-1.412-1.935-.94-3.504-2.429-4.707-4.465-1.203-2.037-1.804-4.585-1.804-7.646Zm8.092.036c0 2.644.49 4.543 1.473 5.698.983 1.155 2.32 1.733 4.01 1.733 1.74 0 3.085-.566 4.038-1.697.952-1.131 1.429-3.162 1.429-6.091 0-2.465-.497-4.267-1.492-5.404-.994-1.137-2.343-1.706-4.046-1.706-1.631 0-2.941.578-3.93 1.733-.988 1.155-1.482 3.066-1.482 5.734ZM10.498 113.569h22.9v5.234l-14.683 15.326h15.22v5.627H9.087v-5.43L23.61 119.16H10.498v-5.591ZM37.9 113.569h8.11v26.187H37.9v-26.187ZM51.727 113.569h10.646l4.108 15.934 4.091-15.934h10.61v26.187h-6.609v-19.971l-5.126 19.971h-5.984l-5.11-19.971v19.971h-6.627v-26.187ZM85.327 126.68c0-4.275 1.191-7.604 3.573-9.985 2.381-2.382 5.698-3.573 9.95-3.573 4.358 0 7.716 1.17 10.074 3.51 2.358 2.34 3.537 5.618 3.537 9.834 0 3.06-.515 5.57-1.545 7.529-1.03 1.959-2.519 3.483-4.466 4.573-1.947 1.09-4.373 1.635-7.279 1.635-2.953 0-5.398-.471-7.333-1.412-1.935-.94-3.504-2.429-4.707-4.465-1.203-2.037-1.804-4.585-1.804-7.646Zm8.092.036c0 2.644.491 4.543 1.474 5.698.982 1.155 2.32 1.733 4.01 1.733 1.739 0 3.085-.566 4.037-1.697.953-1.131 1.429-3.162 1.429-6.091 0-2.465-.497-4.267-1.491-5.404-.995-1.137-2.343-1.706-4.046-1.706-1.632 0-2.942.578-3.93 1.733-.989 1.155-1.483 3.066-1.483 5.734ZM177.162 113.569h22.9v5.234l-14.683 15.326h15.219v5.627h-24.847v-5.43l14.522-15.166h-13.111v-5.591ZM204.564 113.569h8.11v26.187h-8.11v-26.187ZM218.39 113.569h10.646l4.109 15.934 4.091-15.934h10.61v26.187h-6.609v-19.971l-5.127 19.971h-5.984l-5.109-19.971v19.971h-6.627v-26.187ZM251.991 126.68c0-4.275 1.191-7.604 3.572-9.985 2.382-2.382 5.699-3.573 9.95-3.573 4.359 0 7.717 1.17 10.075 3.51 2.358 2.34 3.537 5.618 3.537 9.834 0 3.06-.515 5.57-1.545 7.529-1.03 1.959-2.519 3.483-4.466 4.573-1.947 1.09-4.374 1.635-7.279 1.635-2.954 0-5.398-.471-7.333-1.412-1.935-.94-3.504-2.429-4.707-4.465-1.203-2.037-1.804-4.585-1.804-7.646Zm8.092.036c0 2.644.491 4.543 1.473 5.698.983 1.155 2.32 1.733 4.011 1.733 1.738 0 3.084-.566 4.037-1.697.952-1.131 1.429-3.162 1.429-6.091 0-2.465-.497-4.267-1.492-5.404-.994-1.137-2.343-1.706-4.046-1.706-1.631 0-2.941.578-3.93 1.733-.988 1.155-1.482 3.066-1.482 5.734ZM343.825 113.569h22.901v5.234l-14.684 15.326h15.22v5.627h-24.848v-5.43l14.523-15.166h-13.112v-5.591ZM371.227 113.569h8.11v26.187h-8.11v-26.187ZM385.054 113.569H395.7l4.109 15.934 4.09-15.934h10.611v26.187h-6.609v-19.971l-5.127 19.971h-5.984l-5.109-19.971v19.971h-6.627v-26.187ZM418.654 126.68c0-4.275 1.191-7.604 3.573-9.985 2.382-2.382 5.698-3.573 9.95-3.573 4.358 0 7.717 1.17 10.074 3.51 2.358 2.34 3.537 5.618 3.537 9.834 0 3.06-.515 5.57-1.545 7.529-1.03 1.959-2.519 3.483-4.466 4.573-1.947 1.09-4.373 1.635-7.279 1.635-2.953 0-5.398-.471-7.333-1.412-1.935-.94-3.504-2.429-4.707-4.465-1.202-2.037-1.804-4.585-1.804-7.646Zm8.092.036c0 2.644.491 4.543 1.474 5.698.982 1.155 2.319 1.733 4.01 1.733 1.739 0 3.085-.566 4.037-1.697.953-1.131 1.429-3.162 1.429-6.091 0-2.465-.497-4.267-1.491-5.404-.995-1.137-2.343-1.706-4.046-1.706-1.632 0-2.942.578-3.93 1.733-.989 1.155-1.483 3.066-1.483 5.734ZM510.489 113.569h22.9v5.234l-14.683 15.326h15.219v5.627h-24.847v-5.43L523.6 119.16h-13.111v-5.591ZM537.891 113.569h8.11v26.187h-8.11v-26.187ZM551.717 113.569h10.647l4.108 15.934 4.091-15.934h10.61v26.187h-6.609v-19.971l-5.127 19.971h-5.984l-5.109-19.971v19.971h-6.627v-26.187ZM585.318 126.68c0-4.275 1.191-7.604 3.572-9.985 2.382-2.382 5.699-3.573 9.95-3.573 4.359 0 7.717 1.17 10.075 3.51 2.358 2.34 3.537 5.618 3.537 9.834 0 3.06-.515 5.57-1.545 7.529-1.03 1.959-2.519 3.483-4.466 4.573-1.947 1.09-4.374 1.635-7.279 1.635-2.954 0-5.398-.471-7.333-1.412-1.935-.94-3.504-2.429-4.707-4.465-1.203-2.037-1.804-4.585-1.804-7.646Zm8.092.036c0 2.644.491 4.543 1.473 5.698.983 1.155 2.32 1.733 4.011 1.733 1.738 0 3.084-.566 4.037-1.697.953-1.131 1.429-3.162 1.429-6.091 0-2.465-.497-4.267-1.492-5.404-.994-1.137-2.343-1.706-4.046-1.706-1.631 0-2.941.578-3.93 1.733-.988 1.155-1.482 3.066-1.482 5.734ZM677.152 113.569h22.901v5.234l-14.684 15.326h15.22v5.627h-24.848v-5.43l14.523-15.166h-13.112v-5.591ZM704.554 113.569h8.11v26.187h-8.11v-26.187ZM718.381 113.569h10.646l4.109 15.934 4.09-15.934h10.611v26.187h-6.609v-19.971l-5.127 19.971h-5.984l-5.109-19.971v19.971h-6.627v-26.187ZM751.981 126.68c0-4.275 1.191-7.604 3.573-9.985 2.382-2.382 5.698-3.573 9.95-3.573 4.358 0 7.717 1.17 10.074 3.51 2.358 2.34 3.537 5.618 3.537 9.834 0 3.06-.515 5.57-1.545 7.529-1.03 1.959-2.518 3.483-4.466 4.573-1.947 1.09-4.373 1.635-7.279 1.635-2.953 0-5.397-.471-7.333-1.412-1.935-.94-3.504-2.429-4.707-4.465-1.202-2.037-1.804-4.585-1.804-7.646Zm8.092.036c0 2.644.491 4.543 1.474 5.698.982 1.155 2.319 1.733 4.01 1.733 1.739 0 3.085-.566 4.037-1.697.953-1.131 1.429-3.162 1.429-6.091 0-2.465-.497-4.267-1.491-5.404-.995-1.137-2.343-1.706-4.046-1.706-1.632 0-2.942.578-3.93 1.733-.989 1.155-1.483 3.066-1.483 5.734ZM843.816 113.569h22.9v5.234l-14.683 15.326h15.219v5.627h-24.847v-5.43l14.522-15.166h-13.111v-5.591ZM871.218 113.569h8.11v26.187h-8.11v-26.187ZM885.044 113.569h10.647l4.108 15.934 4.091-15.934h10.61v26.187h-6.609v-19.971l-5.127 19.971h-5.984l-5.109-19.971v19.971h-6.627v-26.187ZM918.645 126.68c0-4.275 1.191-7.604 3.572-9.985 2.382-2.382 5.699-3.573 9.95-3.573 4.359 0 7.717 1.17 10.075 3.51 2.358 2.34 3.537 5.618 3.537 9.834 0 3.06-.515 5.57-1.545 7.529-1.03 1.959-2.519 3.483-4.466 4.573-1.947 1.09-4.374 1.635-7.279 1.635-2.954 0-5.398-.471-7.333-1.412-1.935-.94-3.504-2.429-4.707-4.465-1.203-2.037-1.804-4.585-1.804-7.646Zm8.092.036c0 2.644.491 4.543 1.473 5.698.983 1.155 2.32 1.733 4.011 1.733 1.738 0 3.084-.566 4.037-1.697.953-1.131 1.429-3.162 1.429-6.091 0-2.465-.497-4.267-1.492-5.404-.994-1.137-2.343-1.706-4.046-1.706-1.631 0-2.941.578-3.93 1.733-.988 1.155-1.482 3.066-1.482 5.734ZM1010.48 113.569h22.9v5.234l-14.68 15.326h15.22v5.627h-24.85v-5.43l14.52-15.166h-13.11v-5.591ZM1037.88 113.569h8.11v26.187h-8.11v-26.187ZM1051.71 113.569h10.64l4.11 15.934 4.09-15.934h10.61v26.187h-6.61v-19.971l-5.12 19.971h-5.99l-5.11-19.971v19.971h-6.62v-26.187ZM1085.31 126.68c0-4.275 1.19-7.604 3.57-9.985 2.38-2.382 5.7-3.573 9.95-3.573 4.36 0 7.72 1.17 10.08 3.51 2.35 2.34 3.53 5.618 3.53 9.834 0 3.06-.51 5.57-1.54 7.529-1.03 1.959-2.52 3.483-4.47 4.573-1.95 1.09-4.37 1.635-7.28 1.635-2.95 0-5.4-.471-7.33-1.412-1.94-.94-3.5-2.429-4.71-4.465-1.2-2.037-1.8-4.585-1.8-7.646Zm8.09.036c0 2.644.49 4.543 1.47 5.698.99 1.155 2.32 1.733 4.01 1.733 1.74 0 3.09-.566 4.04-1.697.95-1.131 1.43-3.162 1.43-6.091 0-2.465-.5-4.267-1.49-5.404-1-1.137-2.34-1.706-4.05-1.706-1.63 0-2.94.578-3.93 1.733-.99 1.155-1.48 3.066-1.48 5.734Z"/></g><g vectornator:layerName="Text 3" fill="url(#d)"><path d="M-77.282 200.962h22.9v5.234l-14.684 15.327h15.22v5.627h-24.848v-5.431l14.523-15.166h-13.111v-5.591ZM-49.88 200.962h8.11v26.188h-8.11v-26.188ZM-36.054 200.962h10.646l4.109 15.934 4.09-15.934h10.611v26.188h-6.61v-19.971l-5.126 19.971h-5.984l-5.11-19.971v19.971h-6.626v-26.188ZM-2.454 214.074c0-4.276 1.191-7.604 3.573-9.986 2.382-2.382 5.698-3.572 9.95-3.572 4.358 0 7.717 1.17 10.075 3.51 2.358 2.34 3.537 5.618 3.537 9.833 0 3.061-.515 5.571-1.546 7.53-1.03 1.959-2.518 3.483-4.465 4.573-1.948 1.089-4.374 1.634-7.28 1.634-2.953 0-5.397-.47-7.333-1.411-1.935-.941-3.504-2.429-4.706-4.466-1.203-2.036-1.805-4.585-1.805-7.645Zm8.092.035c0 2.644.492 4.544 1.474 5.699.983 1.155 2.32 1.733 4.01 1.733 1.74 0 3.085-.566 4.037-1.697.953-1.132 1.43-3.162 1.43-6.092 0-2.465-.498-4.266-1.492-5.403-.994-1.138-2.343-1.706-4.046-1.706-1.632 0-2.942.577-3.93 1.732-.988 1.156-1.483 3.067-1.483 5.734ZM89.381 200.962h22.901v5.234l-14.684 15.327h15.219v5.627H87.97v-5.431l14.523-15.166H89.381v-5.591ZM116.783 200.962h8.11v26.188h-8.11v-26.188ZM130.609 200.962h10.647l4.108 15.934 4.091-15.934h10.611v26.188h-6.61v-19.971l-5.126 19.971h-5.985l-5.109-19.971v19.971h-6.627v-26.188ZM164.21 214.074c0-4.276 1.191-7.604 3.573-9.986 2.381-2.382 5.698-3.572 9.949-3.572 4.359 0 7.717 1.17 10.075 3.51 2.358 2.34 3.537 5.618 3.537 9.833 0 3.061-.515 5.571-1.545 7.53-1.03 1.959-2.519 3.483-4.466 4.573-1.947 1.089-4.373 1.634-7.279 1.634-2.954 0-5.398-.47-7.333-1.411-1.935-.941-3.504-2.429-4.707-4.466-1.203-2.036-1.804-4.585-1.804-7.645Zm8.092.035c0 2.644.491 4.544 1.474 5.699.982 1.155 2.319 1.733 4.01 1.733 1.739 0 3.084-.566 4.037-1.697.953-1.132 1.429-3.162 1.429-6.092 0-2.465-.497-4.266-1.492-5.403-.994-1.138-2.343-1.706-4.046-1.706-1.631 0-2.941.577-3.929 1.732-.989 1.156-1.483 3.067-1.483 5.734ZM256.045 200.962h22.9v5.234l-14.683 15.327h15.219v5.627h-24.848v-5.431l14.523-15.166h-13.111v-5.591ZM283.447 200.962h8.11v26.188h-8.11v-26.188ZM297.273 200.962h10.646l4.109 15.934 4.09-15.934h10.611v26.188h-6.609v-19.971l-5.127 19.971h-5.984l-5.109-19.971v19.971h-6.627v-26.188ZM330.873 214.074c0-4.276 1.191-7.604 3.573-9.986 2.382-2.382 5.698-3.572 9.95-3.572 4.358 0 7.717 1.17 10.075 3.51 2.358 2.34 3.537 5.618 3.537 9.833 0 3.061-.515 5.571-1.546 7.53-1.03 1.959-2.518 3.483-4.465 4.573-1.947 1.089-4.374 1.634-7.28 1.634-2.953 0-5.397-.47-7.332-1.411-1.936-.941-3.505-2.429-4.707-4.466-1.203-2.036-1.805-4.585-1.805-7.645Zm8.092.035c0 2.644.492 4.544 1.474 5.699.983 1.155 2.319 1.733 4.01 1.733 1.739 0 3.085-.566 4.037-1.697.953-1.132 1.43-3.162 1.43-6.092 0-2.465-.498-4.266-1.492-5.403-.994-1.138-2.343-1.706-4.046-1.706-1.632 0-2.942.577-3.93 1.732-.988 1.156-1.483 3.067-1.483 5.734ZM422.708 200.962h22.901v5.234l-14.684 15.327h15.22v5.627h-24.848v-5.431l14.523-15.166h-13.112v-5.591ZM450.11 200.962h8.11v26.188h-8.11v-26.188ZM463.936 200.962h10.647l4.108 15.934 4.091-15.934h10.611v26.188h-6.61v-19.971l-5.126 19.971h-5.985l-5.109-19.971v19.971h-6.627v-26.188ZM497.537 214.074c0-4.276 1.191-7.604 3.573-9.986 2.381-2.382 5.698-3.572 9.949-3.572 4.359 0 7.717 1.17 10.075 3.51 2.358 2.34 3.537 5.618 3.537 9.833 0 3.061-.515 5.571-1.545 7.53-1.03 1.959-2.519 3.483-4.466 4.573-1.947 1.089-4.373 1.634-7.279 1.634-2.954 0-5.398-.47-7.333-1.411-1.935-.941-3.504-2.429-4.707-4.466-1.203-2.036-1.804-4.585-1.804-7.645Zm8.092.035c0 2.644.491 4.544 1.474 5.699.982 1.155 2.319 1.733 4.01 1.733 1.739 0 3.084-.566 4.037-1.697.953-1.132 1.429-3.162 1.429-6.092 0-2.465-.497-4.266-1.492-5.403-.994-1.138-2.343-1.706-4.046-1.706-1.631 0-2.941.577-3.929 1.732-.989 1.156-1.483 3.067-1.483 5.734ZM589.372 200.962h22.9v5.234l-14.683 15.327h15.219v5.627H587.96v-5.431l14.523-15.166h-13.111v-5.591ZM616.774 200.962h8.11v26.188h-8.11v-26.188ZM630.6 200.962h10.646l4.109 15.934 4.09-15.934h10.611v26.188h-6.609v-19.971l-5.127 19.971h-5.984l-5.109-19.971v19.971H630.6v-26.188ZM664.2 214.074c0-4.276 1.191-7.604 3.573-9.986 2.382-2.382 5.698-3.572 9.95-3.572 4.358 0 7.717 1.17 10.075 3.51 2.358 2.34 3.537 5.618 3.537 9.833 0 3.061-.515 5.571-1.546 7.53-1.03 1.959-2.518 3.483-4.465 4.573-1.947 1.089-4.374 1.634-7.28 1.634-2.953 0-5.397-.47-7.332-1.411-1.936-.941-3.505-2.429-4.707-4.466-1.203-2.036-1.805-4.585-1.805-7.645Zm8.092.035c0 2.644.492 4.544 1.474 5.699.983 1.155 2.319 1.733 4.01 1.733 1.739 0 3.085-.566 4.038-1.697.952-1.132 1.429-3.162 1.429-6.092 0-2.465-.498-4.266-1.492-5.403-.994-1.138-2.343-1.706-4.046-1.706-1.632 0-2.941.577-3.93 1.732-.988 1.156-1.483 3.067-1.483 5.734ZM756.035 200.962h22.901v5.234l-14.684 15.327h15.22v5.627h-24.848v-5.431l14.523-15.166h-13.112v-5.591ZM783.437 200.962h8.11v26.188h-8.11v-26.188ZM797.263 200.962h10.647l4.108 15.934 4.091-15.934h10.611v26.188h-6.61v-19.971l-5.126 19.971h-5.985l-5.108-19.971v19.971h-6.628v-26.188ZM830.864 214.074c0-4.276 1.191-7.604 3.573-9.986 2.381-2.382 5.698-3.572 9.949-3.572 4.359 0 7.717 1.17 10.075 3.51 2.358 2.34 3.537 5.618 3.537 9.833 0 3.061-.515 5.571-1.545 7.53-1.03 1.959-2.519 3.483-4.466 4.573-1.947 1.089-4.373 1.634-7.279 1.634-2.953 0-5.398-.47-7.333-1.411-1.935-.941-3.504-2.429-4.707-4.466-1.203-2.036-1.804-4.585-1.804-7.645Zm8.092.035c0 2.644.491 4.544 1.474 5.699.982 1.155 2.319 1.733 4.01 1.733 1.739 0 3.084-.566 4.037-1.697.953-1.132 1.429-3.162 1.429-6.092 0-2.465-.497-4.266-1.491-5.403-.995-1.138-2.344-1.706-4.047-1.706-1.631 0-2.941.577-3.929 1.732-.989 1.156-1.483 3.067-1.483 5.734ZM922.699 200.962h22.9v5.234l-14.683 15.327h15.219v5.627h-24.848v-5.431l14.523-15.166h-13.111v-5.591ZM950.101 200.962h8.11v26.188h-8.11v-26.188ZM963.927 200.962h10.646l4.109 15.934 4.09-15.934h10.611v26.188h-6.609v-19.971l-5.127 19.971h-5.984l-5.109-19.971v19.971h-6.627v-26.188ZM997.527 214.074c0-4.276 1.191-7.604 3.573-9.986 2.38-2.382 5.7-3.572 9.95-3.572 4.36 0 7.72 1.17 10.07 3.51 2.36 2.34 3.54 5.618 3.54 9.833 0 3.061-.51 5.571-1.54 7.53-1.03 1.959-2.52 3.483-4.47 4.573-1.95 1.089-4.37 1.634-7.28 1.634-2.95 0-5.4-.47-7.33-1.411-1.94-.941-3.51-2.429-4.708-4.466-1.203-2.036-1.805-4.585-1.805-7.645Zm8.093.035c0 2.644.49 4.544 1.47 5.699.99 1.155 2.32 1.733 4.01 1.733 1.74 0 3.09-.566 4.04-1.697.95-1.132 1.43-3.162 1.43-6.092 0-2.465-.5-4.266-1.49-5.403-1-1.138-2.35-1.706-4.05-1.706-1.63 0-2.94.577-3.93 1.732-.99 1.156-1.48 3.067-1.48 5.734Z"/></g><g vectornator:layerName="Text 4" fill="url(#e)"><path d="M-156.165 285.699h22.9v5.234l-14.683 15.327h15.219v5.627h-24.847v-5.431l14.522-15.165h-13.111v-5.592ZM-128.763 285.699h8.11v26.188h-8.11v-26.188ZM-114.937 285.699h10.646l4.109 15.934 4.09-15.934h10.611v26.188h-6.609v-19.971l-5.127 19.971h-5.984l-5.109-19.971v19.971h-6.627v-26.188ZM-81.336 298.811c0-4.275 1.19-7.604 3.572-9.986 2.382-2.381 5.699-3.572 9.95-3.572 4.359 0 7.717 1.17 10.075 3.51 2.358 2.34 3.537 5.618 3.537 9.834 0 3.06-.515 5.57-1.545 7.529-1.03 1.959-2.52 3.483-4.466 4.573-1.947 1.09-4.374 1.634-7.28 1.634-2.953 0-5.397-.47-7.332-1.411-1.935-.941-3.504-2.429-4.707-4.466-1.203-2.036-1.804-4.584-1.804-7.645Zm8.092.036c0 2.643.49 4.543 1.473 5.698.983 1.155 2.32 1.733 4.01 1.733 1.74 0 3.085-.566 4.038-1.697.952-1.132 1.429-3.162 1.429-6.092 0-2.465-.497-4.266-1.492-5.403-.994-1.137-2.343-1.706-4.046-1.706-1.631 0-2.941.578-3.93 1.733-.988 1.155-1.482 3.066-1.482 5.734ZM10.498 285.699h22.9v5.234L18.716 306.26h15.22v5.627H9.087v-5.431l14.523-15.165H10.498v-5.592ZM37.9 285.699h8.11v26.188H37.9v-26.188ZM51.727 285.699h10.646l4.108 15.934 4.091-15.934h10.61v26.188h-6.609v-19.971l-5.126 19.971h-5.984l-5.11-19.971v19.971h-6.627v-26.188ZM85.327 298.811c0-4.275 1.191-7.604 3.573-9.986 2.381-2.381 5.698-3.572 9.95-3.572 4.358 0 7.716 1.17 10.074 3.51 2.358 2.34 3.537 5.618 3.537 9.834 0 3.06-.515 5.57-1.545 7.529-1.03 1.959-2.519 3.483-4.466 4.573-1.947 1.09-4.373 1.634-7.279 1.634-2.953 0-5.398-.47-7.333-1.411-1.935-.941-3.504-2.429-4.707-4.466-1.203-2.036-1.804-4.584-1.804-7.645Zm8.092.036c0 2.643.491 4.543 1.474 5.698.982 1.155 2.32 1.733 4.01 1.733 1.739 0 3.085-.566 4.037-1.697.953-1.132 1.429-3.162 1.429-6.092 0-2.465-.497-4.266-1.491-5.403-.995-1.137-2.343-1.706-4.046-1.706-1.632 0-2.942.578-3.93 1.733-.989 1.155-1.483 3.066-1.483 5.734ZM177.162 285.699h22.9v5.234l-14.683 15.327h15.219v5.627h-24.847v-5.431l14.522-15.165h-13.111v-5.592ZM204.564 285.699h8.11v26.188h-8.11v-26.188ZM218.39 285.699h10.646l4.109 15.934 4.091-15.934h10.61v26.188h-6.609v-19.971l-5.127 19.971h-5.984l-5.109-19.971v19.971h-6.627v-26.188ZM251.991 298.811c0-4.275 1.191-7.604 3.572-9.986 2.382-2.381 5.699-3.572 9.95-3.572 4.359 0 7.717 1.17 10.075 3.51 2.358 2.34 3.537 5.618 3.537 9.834 0 3.06-.515 5.57-1.545 7.529-1.03 1.959-2.519 3.483-4.466 4.573-1.947 1.09-4.374 1.634-7.279 1.634-2.954 0-5.398-.47-7.333-1.411-1.935-.941-3.504-2.429-4.707-4.466-1.203-2.036-1.804-4.584-1.804-7.645Zm8.092.036c0 2.643.491 4.543 1.473 5.698.983 1.155 2.32 1.733 4.011 1.733 1.738 0 3.084-.566 4.037-1.697.952-1.132 1.429-3.162 1.429-6.092 0-2.465-.497-4.266-1.492-5.403-.994-1.137-2.343-1.706-4.046-1.706-1.631 0-2.941.578-3.93 1.733-.988 1.155-1.482 3.066-1.482 5.734ZM343.825 285.699h22.901v5.234l-14.684 15.327h15.22v5.627h-24.848v-5.431l14.523-15.165h-13.112v-5.592ZM371.227 285.699h8.11v26.188h-8.11v-26.188ZM385.054 285.699H395.7l4.109 15.934 4.09-15.934h10.611v26.188h-6.609v-19.971l-5.127 19.971h-5.984l-5.109-19.971v19.971h-6.627v-26.188ZM418.654 298.811c0-4.275 1.191-7.604 3.573-9.986 2.382-2.381 5.698-3.572 9.95-3.572 4.358 0 7.717 1.17 10.074 3.51 2.358 2.34 3.537 5.618 3.537 9.834 0 3.06-.515 5.57-1.545 7.529-1.03 1.959-2.519 3.483-4.466 4.573-1.947 1.09-4.373 1.634-7.279 1.634-2.953 0-5.398-.47-7.333-1.411-1.935-.941-3.504-2.429-4.707-4.466-1.202-2.036-1.804-4.584-1.804-7.645Zm8.092.036c0 2.643.491 4.543 1.474 5.698.982 1.155 2.319 1.733 4.01 1.733 1.739 0 3.085-.566 4.037-1.697.953-1.132 1.429-3.162 1.429-6.092 0-2.465-.497-4.266-1.491-5.403-.995-1.137-2.343-1.706-4.046-1.706-1.632 0-2.942.578-3.93 1.733-.989 1.155-1.483 3.066-1.483 5.734ZM510.489 285.699h22.9v5.234l-14.683 15.327h15.219v5.627h-24.847v-5.431l14.522-15.165h-13.111v-5.592ZM537.891 285.699h8.11v26.188h-8.11v-26.188ZM551.717 285.699h10.647l4.108 15.934 4.091-15.934h10.61v26.188h-6.609v-19.971l-5.127 19.971h-5.984l-5.109-19.971v19.971h-6.627v-26.188ZM585.318 298.811c0-4.275 1.191-7.604 3.572-9.986 2.382-2.381 5.699-3.572 9.95-3.572 4.359 0 7.717 1.17 10.075 3.51 2.358 2.34 3.537 5.618 3.537 9.834 0 3.06-.515 5.57-1.545 7.529-1.03 1.959-2.519 3.483-4.466 4.573-1.947 1.09-4.374 1.634-7.279 1.634-2.954 0-5.398-.47-7.333-1.411-1.935-.941-3.504-2.429-4.707-4.466-1.203-2.036-1.804-4.584-1.804-7.645Zm8.092.036c0 2.643.491 4.543 1.473 5.698.983 1.155 2.32 1.733 4.011 1.733 1.738 0 3.084-.566 4.037-1.697.953-1.132 1.429-3.162 1.429-6.092 0-2.465-.497-4.266-1.492-5.403-.994-1.137-2.343-1.706-4.046-1.706-1.631 0-2.941.578-3.93 1.733-.988 1.155-1.482 3.066-1.482 5.734ZM677.152 285.699h22.901v5.234l-14.684 15.327h15.22v5.627h-24.848v-5.431l14.523-15.165h-13.112v-5.592ZM704.554 285.699h8.11v26.188h-8.11v-26.188ZM718.381 285.699h10.646l4.109 15.934 4.09-15.934h10.611v26.188h-6.609v-19.971l-5.127 19.971h-5.984l-5.109-19.971v19.971h-6.627v-26.188ZM751.981 298.811c0-4.275 1.191-7.604 3.573-9.986 2.382-2.381 5.698-3.572 9.95-3.572 4.358 0 7.717 1.17 10.074 3.51 2.358 2.34 3.537 5.618 3.537 9.834 0 3.06-.515 5.57-1.545 7.529-1.03 1.959-2.518 3.483-4.466 4.573-1.947 1.09-4.373 1.634-7.279 1.634-2.953 0-5.397-.47-7.333-1.411-1.935-.941-3.504-2.429-4.707-4.466-1.202-2.036-1.804-4.584-1.804-7.645Zm8.092.036c0 2.643.491 4.543 1.474 5.698.982 1.155 2.319 1.733 4.01 1.733 1.739 0 3.085-.566 4.037-1.697.953-1.132 1.429-3.162 1.429-6.092 0-2.465-.497-4.266-1.491-5.403-.995-1.137-2.343-1.706-4.046-1.706-1.632 0-2.942.578-3.93 1.733-.989 1.155-1.483 3.066-1.483 5.734ZM843.816 285.699h22.9v5.234l-14.683 15.327h15.219v5.627h-24.847v-5.431l14.522-15.165h-13.111v-5.592ZM871.218 285.699h8.11v26.188h-8.11v-26.188ZM885.044 285.699h10.647l4.108 15.934 4.091-15.934h10.61v26.188h-6.609v-19.971l-5.127 19.971h-5.984l-5.109-19.971v19.971h-6.627v-26.188ZM918.645 298.811c0-4.275 1.191-7.604 3.572-9.986 2.382-2.381 5.699-3.572 9.95-3.572 4.359 0 7.717 1.17 10.075 3.51 2.358 2.34 3.537 5.618 3.537 9.834 0 3.06-.515 5.57-1.545 7.529-1.03 1.959-2.519 3.483-4.466 4.573-1.947 1.09-4.374 1.634-7.279 1.634-2.954 0-5.398-.47-7.333-1.411-1.935-.941-3.504-2.429-4.707-4.466-1.203-2.036-1.804-4.584-1.804-7.645Zm8.092.036c0 2.643.491 4.543 1.473 5.698.983 1.155 2.32 1.733 4.011 1.733 1.738 0 3.084-.566 4.037-1.697.953-1.132 1.429-3.162 1.429-6.092 0-2.465-.497-4.266-1.492-5.403-.994-1.137-2.343-1.706-4.046-1.706-1.631 0-2.941.578-3.93 1.733-.988 1.155-1.482 3.066-1.482 5.734ZM1010.48 285.699h22.9v5.234l-14.68 15.327h15.22v5.627h-24.85v-5.431l14.52-15.165h-13.11v-5.592ZM1037.88 285.699h8.11v26.188h-8.11v-26.188ZM1051.71 285.699h10.64l4.11 15.934 4.09-15.934h10.61v26.188h-6.61v-19.971l-5.12 19.971h-5.99l-5.11-19.971v19.971h-6.62v-26.188ZM1085.31 298.811c0-4.275 1.19-7.604 3.57-9.986 2.38-2.381 5.7-3.572 9.95-3.572 4.36 0 7.72 1.17 10.08 3.51 2.35 2.34 3.53 5.618 3.53 9.834 0 3.06-.51 5.57-1.54 7.529-1.03 1.959-2.52 3.483-4.47 4.573-1.95 1.09-4.37 1.634-7.28 1.634-2.95 0-5.4-.47-7.33-1.411-1.94-.941-3.5-2.429-4.71-4.466-1.2-2.036-1.8-4.584-1.8-7.645Zm8.09.036c0 2.643.49 4.543 1.47 5.698.99 1.155 2.32 1.733 4.01 1.733 1.74 0 3.09-.566 4.04-1.697.95-1.132 1.43-3.162 1.43-6.092 0-2.465-.5-4.266-1.49-5.403-1-1.137-2.34-1.706-4.05-1.706-1.63 0-2.94.578-3.93 1.733-.99 1.155-1.48 3.066-1.48 5.734Z"/></g><g vectornator:layerName="Text 5" fill="url(#f)"><path d="M-77.282 370.46h22.9v5.234l-14.684 15.327h15.22v5.627h-24.848v-5.431l14.523-15.165h-13.111v-5.592ZM-49.88 370.46h8.11v26.188h-8.11V370.46ZM-36.054 370.46h10.646l4.109 15.934 4.09-15.934h10.611v26.188h-6.61v-19.971l-5.126 19.971h-5.984l-5.11-19.971v19.971h-6.626V370.46ZM-2.454 383.572c0-4.275 1.191-7.604 3.573-9.986 2.382-2.381 5.698-3.572 9.95-3.572 4.358 0 7.717 1.17 10.075 3.51 2.358 2.34 3.537 5.618 3.537 9.834 0 3.06-.515 5.57-1.546 7.529-1.03 1.959-2.518 3.483-4.465 4.573-1.948 1.09-4.374 1.634-7.28 1.634-2.953 0-5.397-.47-7.333-1.411-1.935-.941-3.504-2.429-4.706-4.466-1.203-2.036-1.805-4.585-1.805-7.645Zm8.092.036c0 2.643.492 4.543 1.474 5.698.983 1.155 2.32 1.733 4.01 1.733 1.74 0 3.085-.566 4.037-1.697.953-1.132 1.43-3.162 1.43-6.092 0-2.465-.498-4.266-1.492-5.403-.994-1.138-2.343-1.706-4.046-1.706-1.632 0-2.942.577-3.93 1.733-.988 1.155-1.483 3.066-1.483 5.734ZM89.381 370.46h22.901v5.234l-14.684 15.327h15.219v5.627H87.97v-5.431l14.523-15.165H89.381v-5.592ZM116.783 370.46h8.11v26.188h-8.11V370.46ZM130.609 370.46h10.647l4.108 15.934 4.091-15.934h10.611v26.188h-6.61v-19.971l-5.126 19.971h-5.985l-5.109-19.971v19.971h-6.627V370.46ZM164.21 383.572c0-4.275 1.191-7.604 3.573-9.986 2.381-2.381 5.698-3.572 9.949-3.572 4.359 0 7.717 1.17 10.075 3.51 2.358 2.34 3.537 5.618 3.537 9.834 0 3.06-.515 5.57-1.545 7.529-1.03 1.959-2.519 3.483-4.466 4.573-1.947 1.09-4.373 1.634-7.279 1.634-2.954 0-5.398-.47-7.333-1.411-1.935-.941-3.504-2.429-4.707-4.466-1.203-2.036-1.804-4.585-1.804-7.645Zm8.092.036c0 2.643.491 4.543 1.474 5.698.982 1.155 2.319 1.733 4.01 1.733 1.739 0 3.084-.566 4.037-1.697.953-1.132 1.429-3.162 1.429-6.092 0-2.465-.497-4.266-1.492-5.403-.994-1.138-2.343-1.706-4.046-1.706-1.631 0-2.941.577-3.929 1.733-.989 1.155-1.483 3.066-1.483 5.734ZM256.045 370.46h22.9v5.234l-14.683 15.327h15.219v5.627h-24.848v-5.431l14.523-15.165h-13.111v-5.592ZM283.447 370.46h8.11v26.188h-8.11V370.46ZM297.273 370.46h10.646l4.109 15.934 4.09-15.934h10.611v26.188h-6.609v-19.971l-5.127 19.971h-5.984l-5.109-19.971v19.971h-6.627V370.46ZM330.873 383.572c0-4.275 1.191-7.604 3.573-9.986 2.382-2.381 5.698-3.572 9.95-3.572 4.358 0 7.717 1.17 10.075 3.51 2.358 2.34 3.537 5.618 3.537 9.834 0 3.06-.515 5.57-1.546 7.529-1.03 1.959-2.518 3.483-4.465 4.573-1.947 1.09-4.374 1.634-7.28 1.634-2.953 0-5.397-.47-7.332-1.411-1.936-.941-3.505-2.429-4.707-4.466-1.203-2.036-1.805-4.585-1.805-7.645Zm8.092.036c0 2.643.492 4.543 1.474 5.698.983 1.155 2.319 1.733 4.01 1.733 1.739 0 3.085-.566 4.037-1.697.953-1.132 1.43-3.162 1.43-6.092 0-2.465-.498-4.266-1.492-5.403-.994-1.138-2.343-1.706-4.046-1.706-1.632 0-2.942.577-3.93 1.733-.988 1.155-1.483 3.066-1.483 5.734ZM422.708 370.46h22.901v5.234l-14.684 15.327h15.22v5.627h-24.848v-5.431l14.523-15.165h-13.112v-5.592ZM450.11 370.46h8.11v26.188h-8.11V370.46ZM463.936 370.46h10.647l4.108 15.934 4.091-15.934h10.611v26.188h-6.61v-19.971l-5.126 19.971h-5.985l-5.109-19.971v19.971h-6.627V370.46ZM497.537 383.572c0-4.275 1.191-7.604 3.573-9.986 2.381-2.381 5.698-3.572 9.949-3.572 4.359 0 7.717 1.17 10.075 3.51 2.358 2.34 3.537 5.618 3.537 9.834 0 3.06-.515 5.57-1.545 7.529-1.03 1.959-2.519 3.483-4.466 4.573-1.947 1.09-4.373 1.634-7.279 1.634-2.954 0-5.398-.47-7.333-1.411-1.935-.941-3.504-2.429-4.707-4.466-1.203-2.036-1.804-4.585-1.804-7.645Zm8.092.036c0 2.643.491 4.543 1.474 5.698.982 1.155 2.319 1.733 4.01 1.733 1.739 0 3.084-.566 4.037-1.697.953-1.132 1.429-3.162 1.429-6.092 0-2.465-.497-4.266-1.492-5.403-.994-1.138-2.343-1.706-4.046-1.706-1.631 0-2.941.577-3.929 1.733-.989 1.155-1.483 3.066-1.483 5.734ZM589.372 370.46h22.9v5.234l-14.683 15.327h15.219v5.627H587.96v-5.431l14.523-15.165h-13.111v-5.592ZM616.774 370.46h8.11v26.188h-8.11V370.46ZM630.6 370.46h10.646l4.109 15.934 4.09-15.934h10.611v26.188h-6.609v-19.971l-5.127 19.971h-5.984l-5.109-19.971v19.971H630.6V370.46ZM664.2 383.572c0-4.275 1.191-7.604 3.573-9.986 2.382-2.381 5.698-3.572 9.95-3.572 4.358 0 7.717 1.17 10.075 3.51 2.358 2.34 3.537 5.618 3.537 9.834 0 3.06-.515 5.57-1.546 7.529-1.03 1.959-2.518 3.483-4.465 4.573-1.947 1.09-4.374 1.634-7.28 1.634-2.953 0-5.397-.47-7.332-1.411-1.936-.941-3.505-2.429-4.707-4.466-1.203-2.036-1.805-4.585-1.805-7.645Zm8.092.036c0 2.643.492 4.543 1.474 5.698.983 1.155 2.319 1.733 4.01 1.733 1.739 0 3.085-.566 4.038-1.697.952-1.132 1.429-3.162 1.429-6.092 0-2.465-.498-4.266-1.492-5.403-.994-1.138-2.343-1.706-4.046-1.706-1.632 0-2.941.577-3.93 1.733-.988 1.155-1.483 3.066-1.483 5.734ZM756.035 370.46h22.901v5.234l-14.684 15.327h15.22v5.627h-24.848v-5.431l14.523-15.165h-13.112v-5.592ZM783.437 370.46h8.11v26.188h-8.11V370.46ZM797.263 370.46h10.647l4.108 15.934 4.091-15.934h10.611v26.188h-6.61v-19.971l-5.126 19.971h-5.985l-5.108-19.971v19.971h-6.628V370.46ZM830.864 383.572c0-4.275 1.191-7.604 3.573-9.986 2.381-2.381 5.698-3.572 9.949-3.572 4.359 0 7.717 1.17 10.075 3.51 2.358 2.34 3.537 5.618 3.537 9.834 0 3.06-.515 5.57-1.545 7.529-1.03 1.959-2.519 3.483-4.466 4.573-1.947 1.09-4.373 1.634-7.279 1.634-2.953 0-5.398-.47-7.333-1.411-1.935-.941-3.504-2.429-4.707-4.466-1.203-2.036-1.804-4.585-1.804-7.645Zm8.092.036c0 2.643.491 4.543 1.474 5.698.982 1.155 2.319 1.733 4.01 1.733 1.739 0 3.084-.566 4.037-1.697.953-1.132 1.429-3.162 1.429-6.092 0-2.465-.497-4.266-1.491-5.403-.995-1.138-2.344-1.706-4.047-1.706-1.631 0-2.941.577-3.929 1.733-.989 1.155-1.483 3.066-1.483 5.734ZM922.699 370.46h22.9v5.234l-14.683 15.327h15.219v5.627h-24.848v-5.431l14.523-15.165h-13.111v-5.592ZM950.101 370.46h8.11v26.188h-8.11V370.46ZM963.927 370.46h10.646l4.109 15.934 4.09-15.934h10.611v26.188h-6.609v-19.971l-5.127 19.971h-5.984l-5.109-19.971v19.971h-6.627V370.46ZM997.527 383.572c0-4.275 1.191-7.604 3.573-9.986 2.38-2.381 5.7-3.572 9.95-3.572 4.36 0 7.72 1.17 10.07 3.51 2.36 2.34 3.54 5.618 3.54 9.834 0 3.06-.51 5.57-1.54 7.529-1.03 1.959-2.52 3.483-4.47 4.573-1.95 1.09-4.37 1.634-7.28 1.634-2.95 0-5.4-.47-7.33-1.411-1.94-.941-3.51-2.429-4.708-4.466-1.203-2.036-1.805-4.585-1.805-7.645Zm8.093.036c0 2.643.49 4.543 1.47 5.698.99 1.155 2.32 1.733 4.01 1.733 1.74 0 3.09-.566 4.04-1.697.95-1.132 1.43-3.162 1.43-6.092 0-2.465-.5-4.266-1.49-5.403-1-1.138-2.35-1.706-4.05-1.706-1.63 0-2.94.577-3.93 1.733-.99 1.155-1.48 3.066-1.48 5.734Z"/></g><g vectornator:layerName="Text 6" fill="url(#g)"><path d="M-156.165 455.198h22.9v5.234l-14.683 15.326h15.219v5.627h-24.847v-5.43l14.522-15.166h-13.111v-5.591ZM-128.763 455.198h8.11v26.187h-8.11v-26.187ZM-114.937 455.198h10.646l4.109 15.934 4.09-15.934h10.611v26.187h-6.609v-19.971l-5.127 19.971h-5.984l-5.109-19.971v19.971h-6.627v-26.187ZM-81.336 468.309c0-4.275 1.19-7.604 3.572-9.985 2.382-2.382 5.699-3.573 9.95-3.573 4.359 0 7.717 1.17 10.075 3.51 2.358 2.34 3.537 5.618 3.537 9.834 0 3.06-.515 5.57-1.545 7.529-1.03 1.959-2.52 3.483-4.466 4.573-1.947 1.09-4.374 1.635-7.28 1.635-2.953 0-5.397-.471-7.332-1.412-1.935-.94-3.504-2.429-4.707-4.465-1.203-2.037-1.804-4.585-1.804-7.646Zm8.092.036c0 2.644.49 4.543 1.473 5.698.983 1.155 2.32 1.733 4.01 1.733 1.74 0 3.085-.566 4.038-1.697.952-1.131 1.429-3.162 1.429-6.091 0-2.465-.497-4.267-1.492-5.404-.994-1.137-2.343-1.706-4.046-1.706-1.631 0-2.941.578-3.93 1.733-.988 1.155-1.482 3.066-1.482 5.734ZM10.498 455.198h22.9v5.234l-14.683 15.326h15.22v5.627H9.087v-5.43l14.523-15.166H10.498v-5.591ZM37.9 455.198h8.11v26.187H37.9v-26.187ZM51.727 455.198h10.646l4.108 15.934 4.091-15.934h10.61v26.187h-6.609v-19.971l-5.126 19.971h-5.984l-5.11-19.971v19.971h-6.627v-26.187ZM85.327 468.309c0-4.275 1.191-7.604 3.573-9.985 2.381-2.382 5.698-3.573 9.95-3.573 4.358 0 7.716 1.17 10.074 3.51 2.358 2.34 3.537 5.618 3.537 9.834 0 3.06-.515 5.57-1.545 7.529-1.03 1.959-2.519 3.483-4.466 4.573-1.947 1.09-4.373 1.635-7.279 1.635-2.953 0-5.398-.471-7.333-1.412-1.935-.94-3.504-2.429-4.707-4.465-1.203-2.037-1.804-4.585-1.804-7.646Zm8.092.036c0 2.644.491 4.543 1.474 5.698.982 1.155 2.32 1.733 4.01 1.733 1.739 0 3.085-.566 4.037-1.697.953-1.131 1.429-3.162 1.429-6.091 0-2.465-.497-4.267-1.491-5.404-.995-1.137-2.343-1.706-4.046-1.706-1.632 0-2.942.578-3.93 1.733-.989 1.155-1.483 3.066-1.483 5.734ZM177.162 455.198h22.9v5.234l-14.683 15.326h15.219v5.627h-24.847v-5.43l14.522-15.166h-13.111v-5.591ZM204.564 455.198h8.11v26.187h-8.11v-26.187ZM218.39 455.198h10.646l4.109 15.934 4.091-15.934h10.61v26.187h-6.609v-19.971l-5.127 19.971h-5.984l-5.109-19.971v19.971h-6.627v-26.187ZM251.991 468.309c0-4.275 1.191-7.604 3.572-9.985 2.382-2.382 5.699-3.573 9.95-3.573 4.359 0 7.717 1.17 10.075 3.51 2.358 2.34 3.537 5.618 3.537 9.834 0 3.06-.515 5.57-1.545 7.529-1.03 1.959-2.519 3.483-4.466 4.573-1.947 1.09-4.374 1.635-7.279 1.635-2.954 0-5.398-.471-7.333-1.412-1.935-.94-3.504-2.429-4.707-4.465-1.203-2.037-1.804-4.585-1.804-7.646Zm8.092.036c0 2.644.491 4.543 1.473 5.698.983 1.155 2.32 1.733 4.011 1.733 1.738 0 3.084-.566 4.037-1.697.952-1.131 1.429-3.162 1.429-6.091 0-2.465-.497-4.267-1.492-5.404-.994-1.137-2.343-1.706-4.046-1.706-1.631 0-2.941.578-3.93 1.733-.988 1.155-1.482 3.066-1.482 5.734ZM343.825 455.198h22.901v5.234l-14.684 15.326h15.22v5.627h-24.848v-5.43l14.523-15.166h-13.112v-5.591ZM371.227 455.198h8.11v26.187h-8.11v-26.187ZM385.054 455.198H395.7l4.109 15.934 4.09-15.934h10.611v26.187h-6.609v-19.971l-5.127 19.971h-5.984l-5.109-19.971v19.971h-6.627v-26.187ZM418.654 468.309c0-4.275 1.191-7.604 3.573-9.985 2.382-2.382 5.698-3.573 9.95-3.573 4.358 0 7.717 1.17 10.074 3.51 2.358 2.34 3.537 5.618 3.537 9.834 0 3.06-.515 5.57-1.545 7.529-1.03 1.959-2.519 3.483-4.466 4.573-1.947 1.09-4.373 1.635-7.279 1.635-2.953 0-5.398-.471-7.333-1.412-1.935-.94-3.504-2.429-4.707-4.465-1.202-2.037-1.804-4.585-1.804-7.646Zm8.092.036c0 2.644.491 4.543 1.474 5.698.982 1.155 2.319 1.733 4.01 1.733 1.739 0 3.085-.566 4.037-1.697.953-1.131 1.429-3.162 1.429-6.091 0-2.465-.497-4.267-1.491-5.404-.995-1.137-2.343-1.706-4.046-1.706-1.632 0-2.942.578-3.93 1.733-.989 1.155-1.483 3.066-1.483 5.734ZM510.489 455.198h22.9v5.234l-14.683 15.326h15.219v5.627h-24.847v-5.43l14.522-15.166h-13.111v-5.591ZM537.891 455.198h8.11v26.187h-8.11v-26.187ZM551.717 455.198h10.647l4.108 15.934 4.091-15.934h10.61v26.187h-6.609v-19.971l-5.127 19.971h-5.984l-5.109-19.971v19.971h-6.627v-26.187ZM585.318 468.309c0-4.275 1.191-7.604 3.572-9.985 2.382-2.382 5.699-3.573 9.95-3.573 4.359 0 7.717 1.17 10.075 3.51 2.358 2.34 3.537 5.618 3.537 9.834 0 3.06-.515 5.57-1.545 7.529-1.03 1.959-2.519 3.483-4.466 4.573-1.947 1.09-4.374 1.635-7.279 1.635-2.954 0-5.398-.471-7.333-1.412-1.935-.94-3.504-2.429-4.707-4.465-1.203-2.037-1.804-4.585-1.804-7.646Zm8.092.036c0 2.644.491 4.543 1.473 5.698.983 1.155 2.32 1.733 4.011 1.733 1.738 0 3.084-.566 4.037-1.697.953-1.131 1.429-3.162 1.429-6.091 0-2.465-.497-4.267-1.492-5.404-.994-1.137-2.343-1.706-4.046-1.706-1.631 0-2.941.578-3.93 1.733-.988 1.155-1.482 3.066-1.482 5.734ZM677.152 455.198h22.901v5.234l-14.684 15.326h15.22v5.627h-24.848v-5.43l14.523-15.166h-13.112v-5.591ZM704.554 455.198h8.11v26.187h-8.11v-26.187ZM718.381 455.198h10.646l4.109 15.934 4.09-15.934h10.611v26.187h-6.609v-19.971l-5.127 19.971h-5.984l-5.109-19.971v19.971h-6.627v-26.187ZM751.981 468.309c0-4.275 1.191-7.604 3.573-9.985 2.382-2.382 5.698-3.573 9.95-3.573 4.358 0 7.717 1.17 10.074 3.51 2.358 2.34 3.537 5.618 3.537 9.834 0 3.06-.515 5.57-1.545 7.529-1.03 1.959-2.518 3.483-4.466 4.573-1.947 1.09-4.373 1.635-7.279 1.635-2.953 0-5.397-.471-7.333-1.412-1.935-.94-3.504-2.429-4.707-4.465-1.202-2.037-1.804-4.585-1.804-7.646Zm8.092.036c0 2.644.491 4.543 1.474 5.698.982 1.155 2.319 1.733 4.01 1.733 1.739 0 3.085-.566 4.037-1.697.953-1.131 1.429-3.162 1.429-6.091 0-2.465-.497-4.267-1.491-5.404-.995-1.137-2.343-1.706-4.046-1.706-1.632 0-2.942.578-3.93 1.733-.989 1.155-1.483 3.066-1.483 5.734ZM843.816 455.198h22.9v5.234l-14.683 15.326h15.219v5.627h-24.847v-5.43l14.522-15.166h-13.111v-5.591ZM871.218 455.198h8.11v26.187h-8.11v-26.187ZM885.044 455.198h10.647l4.108 15.934 4.091-15.934h10.61v26.187h-6.609v-19.971l-5.127 19.971h-5.984l-5.109-19.971v19.971h-6.627v-26.187ZM918.645 468.309c0-4.275 1.191-7.604 3.572-9.985 2.382-2.382 5.699-3.573 9.95-3.573 4.359 0 7.717 1.17 10.075 3.51 2.358 2.34 3.537 5.618 3.537 9.834 0 3.06-.515 5.57-1.545 7.529-1.03 1.959-2.519 3.483-4.466 4.573-1.947 1.09-4.374 1.635-7.279 1.635-2.954 0-5.398-.471-7.333-1.412-1.935-.94-3.504-2.429-4.707-4.465-1.203-2.037-1.804-4.585-1.804-7.646Zm8.092.036c0 2.644.491 4.543 1.473 5.698.983 1.155 2.32 1.733 4.011 1.733 1.738 0 3.084-.566 4.037-1.697.953-1.131 1.429-3.162 1.429-6.091 0-2.465-.497-4.267-1.492-5.404-.994-1.137-2.343-1.706-4.046-1.706-1.631 0-2.941.578-3.93 1.733-.988 1.155-1.482 3.066-1.482 5.734ZM1010.48 455.198h22.9v5.234l-14.68 15.326h15.22v5.627h-24.85v-5.43l14.52-15.166h-13.11v-5.591ZM1037.88 455.198h8.11v26.187h-8.11v-26.187ZM1051.71 455.198h10.64l4.11 15.934 4.09-15.934h10.61v26.187h-6.61v-19.971l-5.12 19.971h-5.99l-5.11-19.971v19.971h-6.62v-26.187ZM1085.31 468.309c0-4.275 1.19-7.604 3.57-9.985 2.38-2.382 5.7-3.573 9.95-3.573 4.36 0 7.72 1.17 10.08 3.51 2.35 2.34 3.53 5.618 3.53 9.834 0 3.06-.51 5.57-1.54 7.529-1.03 1.959-2.52 3.483-4.47 4.573-1.95 1.09-4.37 1.635-7.28 1.635-2.95 0-5.4-.471-7.33-1.412-1.94-.94-3.5-2.429-4.71-4.465-1.2-2.037-1.8-4.585-1.8-7.646Zm8.09.036c0 2.644.49 4.543 1.47 5.698.99 1.155 2.32 1.733 4.01 1.733 1.74 0 3.09-.566 4.04-1.697.95-1.131 1.43-3.162 1.43-6.091 0-2.465-.5-4.267-1.49-5.404-1-1.137-2.34-1.706-4.05-1.706-1.63 0-2.94.578-3.93 1.733-.99 1.155-1.48 3.066-1.48 5.734Z"/></g><g vectornator:layerName="Text 7" fill="url(#h)"><path d="M-77.282 542.591h22.9v5.234l-14.684 15.327h15.22v5.627h-24.848v-5.431l14.523-15.166h-13.111v-5.591ZM-49.88 542.591h8.11v26.188h-8.11v-26.188ZM-36.054 542.591h10.646l4.109 15.934 4.09-15.934h10.611v26.188h-6.61v-19.971l-5.126 19.971h-5.984l-5.11-19.971v19.971h-6.626v-26.188ZM-2.454 555.703c0-4.276 1.191-7.604 3.573-9.986 2.382-2.382 5.698-3.572 9.95-3.572 4.358 0 7.717 1.17 10.075 3.51 2.358 2.34 3.537 5.618 3.537 9.833 0 3.061-.515 5.571-1.546 7.53-1.03 1.959-2.518 3.483-4.465 4.573-1.948 1.089-4.374 1.634-7.28 1.634-2.953 0-5.397-.47-7.333-1.411-1.935-.941-3.504-2.429-4.706-4.466-1.203-2.036-1.805-4.585-1.805-7.645Zm8.092.035c0 2.644.492 4.544 1.474 5.699.983 1.155 2.32 1.733 4.01 1.733 1.74 0 3.085-.566 4.037-1.697.953-1.132 1.43-3.162 1.43-6.092 0-2.465-.498-4.266-1.492-5.403-.994-1.138-2.343-1.706-4.046-1.706-1.632 0-2.942.577-3.93 1.732-.988 1.156-1.483 3.067-1.483 5.734ZM89.381 542.591h22.901v5.234l-14.684 15.327h15.219v5.627H87.97v-5.431l14.523-15.166H89.381v-5.591ZM116.783 542.591h8.11v26.188h-8.11v-26.188ZM130.609 542.591h10.647l4.108 15.934 4.091-15.934h10.611v26.188h-6.61v-19.971l-5.126 19.971h-5.985l-5.109-19.971v19.971h-6.627v-26.188ZM164.21 555.703c0-4.276 1.191-7.604 3.573-9.986 2.381-2.382 5.698-3.572 9.949-3.572 4.359 0 7.717 1.17 10.075 3.51 2.358 2.34 3.537 5.618 3.537 9.833 0 3.061-.515 5.571-1.545 7.53-1.03 1.959-2.519 3.483-4.466 4.573-1.947 1.089-4.373 1.634-7.279 1.634-2.954 0-5.398-.47-7.333-1.411-1.935-.941-3.504-2.429-4.707-4.466-1.203-2.036-1.804-4.585-1.804-7.645Zm8.092.035c0 2.644.491 4.544 1.474 5.699.982 1.155 2.319 1.733 4.01 1.733 1.739 0 3.084-.566 4.037-1.697.953-1.132 1.429-3.162 1.429-6.092 0-2.465-.497-4.266-1.492-5.403-.994-1.138-2.343-1.706-4.046-1.706-1.631 0-2.941.577-3.929 1.732-.989 1.156-1.483 3.067-1.483 5.734ZM256.045 542.591h22.9v5.234l-14.683 15.327h15.219v5.627h-24.848v-5.431l14.523-15.166h-13.111v-5.591ZM283.447 542.591h8.11v26.188h-8.11v-26.188ZM297.273 542.591h10.646l4.109 15.934 4.09-15.934h10.611v26.188h-6.609v-19.971l-5.127 19.971h-5.984l-5.109-19.971v19.971h-6.627v-26.188ZM330.873 555.703c0-4.276 1.191-7.604 3.573-9.986 2.382-2.382 5.698-3.572 9.95-3.572 4.358 0 7.717 1.17 10.075 3.51 2.358 2.34 3.537 5.618 3.537 9.833 0 3.061-.515 5.571-1.546 7.53-1.03 1.959-2.518 3.483-4.465 4.573-1.947 1.089-4.374 1.634-7.28 1.634-2.953 0-5.397-.47-7.332-1.411-1.936-.941-3.505-2.429-4.707-4.466-1.203-2.036-1.805-4.585-1.805-7.645Zm8.092.035c0 2.644.492 4.544 1.474 5.699.983 1.155 2.319 1.733 4.01 1.733 1.739 0 3.085-.566 4.037-1.697.953-1.132 1.43-3.162 1.43-6.092 0-2.465-.498-4.266-1.492-5.403-.994-1.138-2.343-1.706-4.046-1.706-1.632 0-2.942.577-3.93 1.732-.988 1.156-1.483 3.067-1.483 5.734ZM422.708 542.591h22.901v5.234l-14.684 15.327h15.22v5.627h-24.848v-5.431l14.523-15.166h-13.112v-5.591ZM450.11 542.591h8.11v26.188h-8.11v-26.188ZM463.936 542.591h10.647l4.108 15.934 4.091-15.934h10.611v26.188h-6.61v-19.971l-5.126 19.971h-5.985l-5.109-19.971v19.971h-6.627v-26.188ZM497.537 555.703c0-4.276 1.191-7.604 3.573-9.986 2.381-2.382 5.698-3.572 9.949-3.572 4.359 0 7.717 1.17 10.075 3.51 2.358 2.34 3.537 5.618 3.537 9.833 0 3.061-.515 5.571-1.545 7.53-1.03 1.959-2.519 3.483-4.466 4.573-1.947 1.089-4.373 1.634-7.279 1.634-2.954 0-5.398-.47-7.333-1.411-1.935-.941-3.504-2.429-4.707-4.466-1.203-2.036-1.804-4.585-1.804-7.645Zm8.092.035c0 2.644.491 4.544 1.474 5.699.982 1.155 2.319 1.733 4.01 1.733 1.739 0 3.084-.566 4.037-1.697.953-1.132 1.429-3.162 1.429-6.092 0-2.465-.497-4.266-1.492-5.403-.994-1.138-2.343-1.706-4.046-1.706-1.631 0-2.941.577-3.929 1.732-.989 1.156-1.483 3.067-1.483 5.734ZM589.372 542.591h22.9v5.234l-14.683 15.327h15.219v5.627H587.96v-5.431l14.523-15.166h-13.111v-5.591ZM616.774 542.591h8.11v26.188h-8.11v-26.188ZM630.6 542.591h10.646l4.109 15.934 4.09-15.934h10.611v26.188h-6.609v-19.971l-5.127 19.971h-5.984l-5.109-19.971v19.971H630.6v-26.188ZM664.2 555.703c0-4.276 1.191-7.604 3.573-9.986 2.382-2.382 5.698-3.572 9.95-3.572 4.358 0 7.717 1.17 10.075 3.51 2.358 2.34 3.537 5.618 3.537 9.833 0 3.061-.515 5.571-1.546 7.53-1.03 1.959-2.518 3.483-4.465 4.573-1.947 1.089-4.374 1.634-7.28 1.634-2.953 0-5.397-.47-7.332-1.411-1.936-.941-3.505-2.429-4.707-4.466-1.203-2.036-1.805-4.585-1.805-7.645Zm8.092.035c0 2.644.492 4.544 1.474 5.699.983 1.155 2.319 1.733 4.01 1.733 1.739 0 3.085-.566 4.038-1.697.952-1.132 1.429-3.162 1.429-6.092 0-2.465-.498-4.266-1.492-5.403-.994-1.138-2.343-1.706-4.046-1.706-1.632 0-2.941.577-3.93 1.732-.988 1.156-1.483 3.067-1.483 5.734ZM756.035 542.591h22.901v5.234l-14.684 15.327h15.22v5.627h-24.848v-5.431l14.523-15.166h-13.112v-5.591ZM783.437 542.591h8.11v26.188h-8.11v-26.188ZM797.263 542.591h10.647l4.108 15.934 4.091-15.934h10.611v26.188h-6.61v-19.971l-5.126 19.971h-5.985l-5.108-19.971v19.971h-6.628v-26.188ZM830.864 555.703c0-4.276 1.191-7.604 3.573-9.986 2.381-2.382 5.698-3.572 9.949-3.572 4.359 0 7.717 1.17 10.075 3.51 2.358 2.34 3.537 5.618 3.537 9.833 0 3.061-.515 5.571-1.545 7.53-1.03 1.959-2.519 3.483-4.466 4.573-1.947 1.089-4.373 1.634-7.279 1.634-2.953 0-5.398-.47-7.333-1.411-1.935-.941-3.504-2.429-4.707-4.466-1.203-2.036-1.804-4.585-1.804-7.645Zm8.092.035c0 2.644.491 4.544 1.474 5.699.982 1.155 2.319 1.733 4.01 1.733 1.739 0 3.084-.566 4.037-1.697.953-1.132 1.429-3.162 1.429-6.092 0-2.465-.497-4.266-1.491-5.403-.995-1.138-2.344-1.706-4.047-1.706-1.631 0-2.941.577-3.929 1.732-.989 1.156-1.483 3.067-1.483 5.734ZM922.699 542.591h22.9v5.234l-14.683 15.327h15.219v5.627h-24.848v-5.431l14.523-15.166h-13.111v-5.591ZM950.101 542.591h8.11v26.188h-8.11v-26.188ZM963.927 542.591h10.646l4.109 15.934 4.09-15.934h10.611v26.188h-6.609v-19.971l-5.127 19.971h-5.984l-5.109-19.971v19.971h-6.627v-26.188ZM997.527 555.703c0-4.276 1.191-7.604 3.573-9.986 2.38-2.382 5.7-3.572 9.95-3.572 4.36 0 7.72 1.17 10.07 3.51 2.36 2.34 3.54 5.618 3.54 9.833 0 3.061-.51 5.571-1.54 7.53-1.03 1.959-2.52 3.483-4.47 4.573-1.95 1.089-4.37 1.634-7.28 1.634-2.95 0-5.4-.47-7.33-1.411-1.94-.941-3.51-2.429-4.708-4.466-1.203-2.036-1.805-4.585-1.805-7.645Zm8.093.035c0 2.644.49 4.544 1.47 5.699.99 1.155 2.32 1.733 4.01 1.733 1.74 0 3.09-.566 4.04-1.697.95-1.132 1.43-3.162 1.43-6.092 0-2.465-.5-4.266-1.49-5.403-1-1.138-2.35-1.706-4.05-1.706-1.63 0-2.94.577-3.93 1.732-.99 1.156-1.48 3.067-1.48 5.734Z"/></g><g vectornator:layerName="Text 8" fill="url(#i)"><path d="M-156.165 627.328h22.9v5.234l-14.683 15.327h15.219v5.627h-24.847v-5.431l14.522-15.165h-13.111v-5.592ZM-128.763 627.328h8.11v26.188h-8.11v-26.188ZM-114.937 627.328h10.646l4.109 15.934 4.09-15.934h10.611v26.188h-6.609v-19.971l-5.127 19.971h-5.984l-5.109-19.971v19.971h-6.627v-26.188ZM-81.336 640.44c0-4.275 1.19-7.604 3.572-9.986 2.382-2.381 5.699-3.572 9.95-3.572 4.359 0 7.717 1.17 10.075 3.51 2.358 2.34 3.537 5.618 3.537 9.834 0 3.06-.515 5.57-1.545 7.529-1.03 1.959-2.52 3.483-4.466 4.573-1.947 1.09-4.374 1.634-7.28 1.634-2.953 0-5.397-.47-7.332-1.411-1.935-.941-3.504-2.429-4.707-4.466-1.203-2.036-1.804-4.584-1.804-7.645Zm8.092.036c0 2.643.49 4.543 1.473 5.698.983 1.155 2.32 1.733 4.01 1.733 1.74 0 3.085-.566 4.038-1.697.952-1.132 1.429-3.162 1.429-6.092 0-2.465-.497-4.266-1.492-5.403-.994-1.137-2.343-1.706-4.046-1.706-1.631 0-2.941.578-3.93 1.733-.988 1.155-1.482 3.066-1.482 5.734ZM10.498 627.328h22.9v5.234l-14.683 15.327h15.22v5.627H9.087v-5.431L23.61 632.92H10.498v-5.592ZM37.9 627.328h8.11v26.188H37.9v-26.188ZM51.727 627.328h10.646l4.108 15.934 4.091-15.934h10.61v26.188h-6.609v-19.971l-5.126 19.971h-5.984l-5.11-19.971v19.971h-6.627v-26.188ZM85.327 640.44c0-4.275 1.191-7.604 3.573-9.986 2.381-2.381 5.698-3.572 9.95-3.572 4.358 0 7.716 1.17 10.074 3.51 2.358 2.34 3.537 5.618 3.537 9.834 0 3.06-.515 5.57-1.545 7.529-1.03 1.959-2.519 3.483-4.466 4.573-1.947 1.09-4.373 1.634-7.279 1.634-2.953 0-5.398-.47-7.333-1.411-1.935-.941-3.504-2.429-4.707-4.466-1.203-2.036-1.804-4.584-1.804-7.645Zm8.092.036c0 2.643.491 4.543 1.474 5.698.982 1.155 2.32 1.733 4.01 1.733 1.739 0 3.085-.566 4.037-1.697.953-1.132 1.429-3.162 1.429-6.092 0-2.465-.497-4.266-1.491-5.403-.995-1.137-2.343-1.706-4.046-1.706-1.632 0-2.942.578-3.93 1.733-.989 1.155-1.483 3.066-1.483 5.734ZM177.162 627.328h22.9v5.234l-14.683 15.327h15.219v5.627h-24.847v-5.431l14.522-15.165h-13.111v-5.592ZM204.564 627.328h8.11v26.188h-8.11v-26.188ZM218.39 627.328h10.646l4.109 15.934 4.091-15.934h10.61v26.188h-6.609v-19.971l-5.127 19.971h-5.984l-5.109-19.971v19.971h-6.627v-26.188ZM251.991 640.44c0-4.275 1.191-7.604 3.572-9.986 2.382-2.381 5.699-3.572 9.95-3.572 4.359 0 7.717 1.17 10.075 3.51 2.358 2.34 3.537 5.618 3.537 9.834 0 3.06-.515 5.57-1.545 7.529-1.03 1.959-2.519 3.483-4.466 4.573-1.947 1.09-4.374 1.634-7.279 1.634-2.954 0-5.398-.47-7.333-1.411-1.935-.941-3.504-2.429-4.707-4.466-1.203-2.036-1.804-4.584-1.804-7.645Zm8.092.036c0 2.643.491 4.543 1.473 5.698.983 1.155 2.32 1.733 4.011 1.733 1.738 0 3.084-.566 4.037-1.697.952-1.132 1.429-3.162 1.429-6.092 0-2.465-.497-4.266-1.492-5.403-.994-1.137-2.343-1.706-4.046-1.706-1.631 0-2.941.578-3.93 1.733-.988 1.155-1.482 3.066-1.482 5.734ZM343.825 627.328h22.901v5.234l-14.684 15.327h15.22v5.627h-24.848v-5.431l14.523-15.165h-13.112v-5.592ZM371.227 627.328h8.11v26.188h-8.11v-26.188ZM385.054 627.328H395.7l4.109 15.934 4.09-15.934h10.611v26.188h-6.609v-19.971l-5.127 19.971h-5.984l-5.109-19.971v19.971h-6.627v-26.188ZM418.654 640.44c0-4.275 1.191-7.604 3.573-9.986 2.382-2.381 5.698-3.572 9.95-3.572 4.358 0 7.717 1.17 10.074 3.51 2.358 2.34 3.537 5.618 3.537 9.834 0 3.06-.515 5.57-1.545 7.529-1.03 1.959-2.519 3.483-4.466 4.573-1.947 1.09-4.373 1.634-7.279 1.634-2.953 0-5.398-.47-7.333-1.411-1.935-.941-3.504-2.429-4.707-4.466-1.202-2.036-1.804-4.584-1.804-7.645Zm8.092.036c0 2.643.491 4.543 1.474 5.698.982 1.155 2.319 1.733 4.01 1.733 1.739 0 3.085-.566 4.037-1.697.953-1.132 1.429-3.162 1.429-6.092 0-2.465-.497-4.266-1.491-5.403-.995-1.137-2.343-1.706-4.046-1.706-1.632 0-2.942.578-3.93 1.733-.989 1.155-1.483 3.066-1.483 5.734ZM510.489 627.328h22.9v5.234l-14.683 15.327h15.219v5.627h-24.847v-5.431L523.6 632.92h-13.111v-5.592ZM537.891 627.328h8.11v26.188h-8.11v-26.188ZM551.717 627.328h10.647l4.108 15.934 4.091-15.934h10.61v26.188h-6.609v-19.971l-5.127 19.971h-5.984l-5.109-19.971v19.971h-6.627v-26.188ZM585.318 640.44c0-4.275 1.191-7.604 3.572-9.986 2.382-2.381 5.699-3.572 9.95-3.572 4.359 0 7.717 1.17 10.075 3.51 2.358 2.34 3.537 5.618 3.537 9.834 0 3.06-.515 5.57-1.545 7.529-1.03 1.959-2.519 3.483-4.466 4.573-1.947 1.09-4.374 1.634-7.279 1.634-2.954 0-5.398-.47-7.333-1.411-1.935-.941-3.504-2.429-4.707-4.466-1.203-2.036-1.804-4.584-1.804-7.645Zm8.092.036c0 2.643.491 4.543 1.473 5.698.983 1.155 2.32 1.733 4.011 1.733 1.738 0 3.084-.566 4.037-1.697.953-1.132 1.429-3.162 1.429-6.092 0-2.465-.497-4.266-1.492-5.403-.994-1.137-2.343-1.706-4.046-1.706-1.631 0-2.941.578-3.93 1.733-.988 1.155-1.482 3.066-1.482 5.734ZM677.152 627.328h22.901v5.234l-14.684 15.327h15.22v5.627h-24.848v-5.431l14.523-15.165h-13.112v-5.592ZM704.554 627.328h8.11v26.188h-8.11v-26.188ZM718.381 627.328h10.646l4.109 15.934 4.09-15.934h10.611v26.188h-6.609v-19.971l-5.127 19.971h-5.984l-5.109-19.971v19.971h-6.627v-26.188ZM751.981 640.44c0-4.275 1.191-7.604 3.573-9.986 2.382-2.381 5.698-3.572 9.95-3.572 4.358 0 7.717 1.17 10.074 3.51 2.358 2.34 3.537 5.618 3.537 9.834 0 3.06-.515 5.57-1.545 7.529-1.03 1.959-2.518 3.483-4.466 4.573-1.947 1.09-4.373 1.634-7.279 1.634-2.953 0-5.397-.47-7.333-1.411-1.935-.941-3.504-2.429-4.707-4.466-1.202-2.036-1.804-4.584-1.804-7.645Zm8.092.036c0 2.643.491 4.543 1.474 5.698.982 1.155 2.319 1.733 4.01 1.733 1.739 0 3.085-.566 4.037-1.697.953-1.132 1.429-3.162 1.429-6.092 0-2.465-.497-4.266-1.491-5.403-.995-1.137-2.343-1.706-4.046-1.706-1.632 0-2.942.578-3.93 1.733-.989 1.155-1.483 3.066-1.483 5.734ZM843.816 627.328h22.9v5.234l-14.683 15.327h15.219v5.627h-24.847v-5.431l14.522-15.165h-13.111v-5.592ZM871.218 627.328h8.11v26.188h-8.11v-26.188ZM885.044 627.328h10.647l4.108 15.934 4.091-15.934h10.61v26.188h-6.609v-19.971l-5.127 19.971h-5.984l-5.109-19.971v19.971h-6.627v-26.188ZM918.645 640.44c0-4.275 1.191-7.604 3.572-9.986 2.382-2.381 5.699-3.572 9.95-3.572 4.359 0 7.717 1.17 10.075 3.51 2.358 2.34 3.537 5.618 3.537 9.834 0 3.06-.515 5.57-1.545 7.529-1.03 1.959-2.519 3.483-4.466 4.573-1.947 1.09-4.374 1.634-7.279 1.634-2.954 0-5.398-.47-7.333-1.411-1.935-.941-3.504-2.429-4.707-4.466-1.203-2.036-1.804-4.584-1.804-7.645Zm8.092.036c0 2.643.491 4.543 1.473 5.698.983 1.155 2.32 1.733 4.011 1.733 1.738 0 3.084-.566 4.037-1.697.953-1.132 1.429-3.162 1.429-6.092 0-2.465-.497-4.266-1.492-5.403-.994-1.137-2.343-1.706-4.046-1.706-1.631 0-2.941.578-3.93 1.733-.988 1.155-1.482 3.066-1.482 5.734ZM1010.48 627.328h22.9v5.234l-14.68 15.327h15.22v5.627h-24.85v-5.431l14.52-15.165h-13.11v-5.592ZM1037.88 627.328h8.11v26.188h-8.11v-26.188ZM1051.71 627.328h10.64l4.11 15.934 4.09-15.934h10.61v26.188h-6.61v-19.971l-5.12 19.971h-5.99l-5.11-19.971v19.971h-6.62v-26.188ZM1085.31 640.44c0-4.275 1.19-7.604 3.57-9.986 2.38-2.381 5.7-3.572 9.95-3.572 4.36 0 7.72 1.17 10.08 3.51 2.35 2.34 3.53 5.618 3.53 9.834 0 3.06-.51 5.57-1.54 7.529-1.03 1.959-2.52 3.483-4.47 4.573-1.95 1.09-4.37 1.634-7.28 1.634-2.95 0-5.4-.47-7.33-1.411-1.94-.941-3.5-2.429-4.71-4.466-1.2-2.036-1.8-4.584-1.8-7.645Zm8.09.036c0 2.643.49 4.543 1.47 5.698.99 1.155 2.32 1.733 4.01 1.733 1.74 0 3.09-.566 4.04-1.697.95-1.132 1.43-3.162 1.43-6.092 0-2.465-.5-4.266-1.49-5.403-1-1.137-2.34-1.706-4.05-1.706-1.63 0-2.94.578-3.93 1.733-.99 1.155-1.48 3.066-1.48 5.734Z"/></g><g vectornator:layerName="Text 9" fill="url(#j)"><path d="M-77.282 712.369h22.9v5.234l-14.684 15.327h15.22v5.627h-24.848v-5.431l14.523-15.165h-13.111v-5.592ZM-49.88 712.369h8.11v26.188h-8.11v-26.188ZM-36.054 712.369h10.646l4.109 15.934 4.09-15.934h10.611v26.188h-6.61v-19.971l-5.126 19.971h-5.984l-5.11-19.971v19.971h-6.626v-26.188ZM-2.454 725.481c0-4.275 1.191-7.604 3.573-9.986 2.382-2.381 5.698-3.572 9.95-3.572 4.358 0 7.717 1.17 10.075 3.51 2.358 2.34 3.537 5.618 3.537 9.834 0 3.06-.515 5.57-1.546 7.529-1.03 1.959-2.518 3.483-4.465 4.573-1.948 1.09-4.374 1.634-7.28 1.634-2.953 0-5.397-.47-7.333-1.411-1.935-.941-3.504-2.429-4.706-4.466-1.203-2.036-1.805-4.584-1.805-7.645Zm8.092.036c0 2.643.492 4.543 1.474 5.698.983 1.155 2.32 1.733 4.01 1.733 1.74 0 3.085-.566 4.037-1.697.953-1.132 1.43-3.162 1.43-6.092 0-2.465-.498-4.266-1.492-5.403-.994-1.137-2.343-1.706-4.046-1.706-1.632 0-2.942.577-3.93 1.733-.988 1.155-1.483 3.066-1.483 5.734ZM89.381 712.369h22.901v5.234L97.598 732.93h15.219v5.627H87.97v-5.431l14.523-15.165H89.381v-5.592ZM116.783 712.369h8.11v26.188h-8.11v-26.188ZM130.609 712.369h10.647l4.108 15.934 4.091-15.934h10.611v26.188h-6.61v-19.971l-5.126 19.971h-5.985l-5.109-19.971v19.971h-6.627v-26.188ZM164.21 725.481c0-4.275 1.191-7.604 3.573-9.986 2.381-2.381 5.698-3.572 9.949-3.572 4.359 0 7.717 1.17 10.075 3.51 2.358 2.34 3.537 5.618 3.537 9.834 0 3.06-.515 5.57-1.545 7.529-1.03 1.959-2.519 3.483-4.466 4.573-1.947 1.09-4.373 1.634-7.279 1.634-2.954 0-5.398-.47-7.333-1.411-1.935-.941-3.504-2.429-4.707-4.466-1.203-2.036-1.804-4.584-1.804-7.645Zm8.092.036c0 2.643.491 4.543 1.474 5.698.982 1.155 2.319 1.733 4.01 1.733 1.739 0 3.084-.566 4.037-1.697.953-1.132 1.429-3.162 1.429-6.092 0-2.465-.497-4.266-1.492-5.403-.994-1.137-2.343-1.706-4.046-1.706-1.631 0-2.941.577-3.929 1.733-.989 1.155-1.483 3.066-1.483 5.734ZM256.045 712.369h22.9v5.234l-14.683 15.327h15.219v5.627h-24.848v-5.431l14.523-15.165h-13.111v-5.592ZM283.447 712.369h8.11v26.188h-8.11v-26.188ZM297.273 712.369h10.646l4.109 15.934 4.09-15.934h10.611v26.188h-6.609v-19.971l-5.127 19.971h-5.984l-5.109-19.971v19.971h-6.627v-26.188ZM330.873 725.481c0-4.275 1.191-7.604 3.573-9.986 2.382-2.381 5.698-3.572 9.95-3.572 4.358 0 7.717 1.17 10.075 3.51 2.358 2.34 3.537 5.618 3.537 9.834 0 3.06-.515 5.57-1.546 7.529-1.03 1.959-2.518 3.483-4.465 4.573-1.947 1.09-4.374 1.634-7.28 1.634-2.953 0-5.397-.47-7.332-1.411-1.936-.941-3.505-2.429-4.707-4.466-1.203-2.036-1.805-4.584-1.805-7.645Zm8.092.036c0 2.643.492 4.543 1.474 5.698.983 1.155 2.319 1.733 4.01 1.733 1.739 0 3.085-.566 4.037-1.697.953-1.132 1.43-3.162 1.43-6.092 0-2.465-.498-4.266-1.492-5.403-.994-1.137-2.343-1.706-4.046-1.706-1.632 0-2.942.577-3.93 1.733-.988 1.155-1.483 3.066-1.483 5.734ZM422.708 712.369h22.901v5.234l-14.684 15.327h15.22v5.627h-24.848v-5.431l14.523-15.165h-13.112v-5.592ZM450.11 712.369h8.11v26.188h-8.11v-26.188ZM463.936 712.369h10.647l4.108 15.934 4.091-15.934h10.611v26.188h-6.61v-19.971l-5.126 19.971h-5.985l-5.109-19.971v19.971h-6.627v-26.188ZM497.537 725.481c0-4.275 1.191-7.604 3.573-9.986 2.381-2.381 5.698-3.572 9.949-3.572 4.359 0 7.717 1.17 10.075 3.51 2.358 2.34 3.537 5.618 3.537 9.834 0 3.06-.515 5.57-1.545 7.529-1.03 1.959-2.519 3.483-4.466 4.573-1.947 1.09-4.373 1.634-7.279 1.634-2.954 0-5.398-.47-7.333-1.411-1.935-.941-3.504-2.429-4.707-4.466-1.203-2.036-1.804-4.584-1.804-7.645Zm8.092.036c0 2.643.491 4.543 1.474 5.698.982 1.155 2.319 1.733 4.01 1.733 1.739 0 3.084-.566 4.037-1.697.953-1.132 1.429-3.162 1.429-6.092 0-2.465-.497-4.266-1.492-5.403-.994-1.137-2.343-1.706-4.046-1.706-1.631 0-2.941.577-3.929 1.733-.989 1.155-1.483 3.066-1.483 5.734ZM589.372 712.369h22.9v5.234l-14.683 15.327h15.219v5.627H587.96v-5.431l14.523-15.165h-13.111v-5.592ZM616.774 712.369h8.11v26.188h-8.11v-26.188ZM630.6 712.369h10.646l4.109 15.934 4.09-15.934h10.611v26.188h-6.609v-19.971l-5.127 19.971h-5.984l-5.109-19.971v19.971H630.6v-26.188ZM664.2 725.481c0-4.275 1.191-7.604 3.573-9.986 2.382-2.381 5.698-3.572 9.95-3.572 4.358 0 7.717 1.17 10.075 3.51 2.358 2.34 3.537 5.618 3.537 9.834 0 3.06-.515 5.57-1.546 7.529-1.03 1.959-2.518 3.483-4.465 4.573-1.947 1.09-4.374 1.634-7.28 1.634-2.953 0-5.397-.47-7.332-1.411-1.936-.941-3.505-2.429-4.707-4.466-1.203-2.036-1.805-4.584-1.805-7.645Zm8.092.036c0 2.643.492 4.543 1.474 5.698.983 1.155 2.319 1.733 4.01 1.733 1.739 0 3.085-.566 4.038-1.697.952-1.132 1.429-3.162 1.429-6.092 0-2.465-.498-4.266-1.492-5.403-.994-1.137-2.343-1.706-4.046-1.706-1.632 0-2.941.577-3.93 1.733-.988 1.155-1.483 3.066-1.483 5.734ZM756.035 712.369h22.901v5.234l-14.684 15.327h15.22v5.627h-24.848v-5.431l14.523-15.165h-13.112v-5.592ZM783.437 712.369h8.11v26.188h-8.11v-26.188ZM797.263 712.369h10.647l4.108 15.934 4.091-15.934h10.611v26.188h-6.61v-19.971l-5.126 19.971h-5.985l-5.108-19.971v19.971h-6.628v-26.188ZM830.864 725.481c0-4.275 1.191-7.604 3.573-9.986 2.381-2.381 5.698-3.572 9.949-3.572 4.359 0 7.717 1.17 10.075 3.51 2.358 2.34 3.537 5.618 3.537 9.834 0 3.06-.515 5.57-1.545 7.529-1.03 1.959-2.519 3.483-4.466 4.573-1.947 1.09-4.373 1.634-7.279 1.634-2.953 0-5.398-.47-7.333-1.411-1.935-.941-3.504-2.429-4.707-4.466-1.203-2.036-1.804-4.584-1.804-7.645Zm8.092.036c0 2.643.491 4.543 1.474 5.698.982 1.155 2.319 1.733 4.01 1.733 1.739 0 3.084-.566 4.037-1.697.953-1.132 1.429-3.162 1.429-6.092 0-2.465-.497-4.266-1.491-5.403-.995-1.137-2.344-1.706-4.047-1.706-1.631 0-2.941.577-3.929 1.733-.989 1.155-1.483 3.066-1.483 5.734ZM922.699 712.369h22.9v5.234l-14.683 15.327h15.219v5.627h-24.848v-5.431l14.523-15.165h-13.111v-5.592ZM950.101 712.369h8.11v26.188h-8.11v-26.188ZM963.927 712.369h10.646l4.109 15.934 4.09-15.934h10.611v26.188h-6.609v-19.971l-5.127 19.971h-5.984l-5.109-19.971v19.971h-6.627v-26.188ZM997.527 725.481c0-4.275 1.191-7.604 3.573-9.986 2.38-2.381 5.7-3.572 9.95-3.572 4.36 0 7.72 1.17 10.07 3.51 2.36 2.34 3.54 5.618 3.54 9.834 0 3.06-.51 5.57-1.54 7.529-1.03 1.959-2.52 3.483-4.47 4.573-1.95 1.09-4.37 1.634-7.28 1.634-2.95 0-5.4-.47-7.33-1.411-1.94-.941-3.51-2.429-4.708-4.466-1.203-2.036-1.805-4.584-1.805-7.645Zm8.093.036c0 2.643.49 4.543 1.47 5.698.99 1.155 2.32 1.733 4.01 1.733 1.74 0 3.09-.566 4.04-1.697.95-1.132 1.43-3.162 1.43-6.092 0-2.465-.5-4.266-1.49-5.403-1-1.137-2.35-1.706-4.05-1.706-1.63 0-2.94.577-3.93 1.733-.99 1.155-1.48 3.066-1.48 5.734Z"/></g><g vectornator:layerName="Text 10" fill="url(#k)"><path d="M-156.165 797.107h22.9v5.234l-14.683 15.326h15.219v5.627h-24.847v-5.43l14.522-15.166h-13.111v-5.591ZM-128.763 797.107h8.11v26.187h-8.11v-26.187ZM-114.937 797.107h10.646l4.109 15.934 4.09-15.934h10.611v26.187h-6.609v-19.971l-5.127 19.971h-5.984l-5.109-19.971v19.971h-6.627v-26.187ZM-81.336 810.218c0-4.275 1.19-7.604 3.572-9.985 2.382-2.382 5.699-3.573 9.95-3.573 4.359 0 7.717 1.17 10.075 3.51 2.358 2.34 3.537 5.618 3.537 9.834 0 3.06-.515 5.57-1.545 7.529-1.03 1.959-2.52 3.484-4.466 4.573-1.947 1.09-4.374 1.635-7.28 1.635-2.953 0-5.397-.471-7.332-1.412-1.935-.94-3.504-2.429-4.707-4.465-1.203-2.037-1.804-4.585-1.804-7.646Zm8.092.036c0 2.644.49 4.543 1.473 5.698.983 1.155 2.32 1.733 4.01 1.733 1.74 0 3.085-.566 4.038-1.697.952-1.131 1.429-3.162 1.429-6.091 0-2.465-.497-4.267-1.492-5.404-.994-1.137-2.343-1.706-4.046-1.706-1.631 0-2.941.578-3.93 1.733-.988 1.155-1.482 3.066-1.482 5.734ZM10.498 797.107h22.9v5.234l-14.683 15.326h15.22v5.627H9.087v-5.43l14.523-15.166H10.498v-5.591ZM37.9 797.107h8.11v26.187H37.9v-26.187ZM51.727 797.107h10.646l4.108 15.934 4.091-15.934h10.61v26.187h-6.609v-19.971l-5.126 19.971h-5.984l-5.11-19.971v19.971h-6.627v-26.187ZM85.327 810.218c0-4.275 1.191-7.604 3.573-9.985 2.381-2.382 5.698-3.573 9.95-3.573 4.358 0 7.716 1.17 10.074 3.51 2.358 2.34 3.537 5.618 3.537 9.834 0 3.06-.515 5.57-1.545 7.529-1.03 1.959-2.519 3.484-4.466 4.573-1.947 1.09-4.373 1.635-7.279 1.635-2.953 0-5.398-.471-7.333-1.412-1.935-.94-3.504-2.429-4.707-4.465-1.203-2.037-1.804-4.585-1.804-7.646Zm8.092.036c0 2.644.491 4.543 1.474 5.698.982 1.155 2.32 1.733 4.01 1.733 1.739 0 3.085-.566 4.037-1.697.953-1.131 1.429-3.162 1.429-6.091 0-2.465-.497-4.267-1.491-5.404-.995-1.137-2.343-1.706-4.046-1.706-1.632 0-2.942.578-3.93 1.733-.989 1.155-1.483 3.066-1.483 5.734ZM177.162 797.107h22.9v5.234l-14.683 15.326h15.219v5.627h-24.847v-5.43l14.522-15.166h-13.111v-5.591ZM204.564 797.107h8.11v26.187h-8.11v-26.187ZM218.39 797.107h10.646l4.109 15.934 4.091-15.934h10.61v26.187h-6.609v-19.971l-5.127 19.971h-5.984l-5.109-19.971v19.971h-6.627v-26.187ZM251.991 810.218c0-4.275 1.191-7.604 3.572-9.985 2.382-2.382 5.699-3.573 9.95-3.573 4.359 0 7.717 1.17 10.075 3.51 2.358 2.34 3.537 5.618 3.537 9.834 0 3.06-.515 5.57-1.545 7.529-1.03 1.959-2.519 3.484-4.466 4.573-1.947 1.09-4.374 1.635-7.279 1.635-2.954 0-5.398-.471-7.333-1.412-1.935-.94-3.504-2.429-4.707-4.465-1.203-2.037-1.804-4.585-1.804-7.646Zm8.092.036c0 2.644.491 4.543 1.473 5.698.983 1.155 2.32 1.733 4.011 1.733 1.738 0 3.084-.566 4.037-1.697.952-1.131 1.429-3.162 1.429-6.091 0-2.465-.497-4.267-1.492-5.404-.994-1.137-2.343-1.706-4.046-1.706-1.631 0-2.941.578-3.93 1.733-.988 1.155-1.482 3.066-1.482 5.734ZM343.825 797.107h22.901v5.234l-14.684 15.326h15.22v5.627h-24.848v-5.43l14.523-15.166h-13.112v-5.591ZM371.227 797.107h8.11v26.187h-8.11v-26.187ZM385.054 797.107H395.7l4.109 15.934 4.09-15.934h10.611v26.187h-6.609v-19.971l-5.127 19.971h-5.984l-5.109-19.971v19.971h-6.627v-26.187ZM418.654 810.218c0-4.275 1.191-7.604 3.573-9.985 2.382-2.382 5.698-3.573 9.95-3.573 4.358 0 7.717 1.17 10.074 3.51 2.358 2.34 3.537 5.618 3.537 9.834 0 3.06-.515 5.57-1.545 7.529-1.03 1.959-2.519 3.484-4.466 4.573-1.947 1.09-4.373 1.635-7.279 1.635-2.953 0-5.398-.471-7.333-1.412-1.935-.94-3.504-2.429-4.707-4.465-1.202-2.037-1.804-4.585-1.804-7.646Zm8.092.036c0 2.644.491 4.543 1.474 5.698.982 1.155 2.319 1.733 4.01 1.733 1.739 0 3.085-.566 4.037-1.697.953-1.131 1.429-3.162 1.429-6.091 0-2.465-.497-4.267-1.491-5.404-.995-1.137-2.343-1.706-4.046-1.706-1.632 0-2.942.578-3.93 1.733-.989 1.155-1.483 3.066-1.483 5.734ZM510.489 797.107h22.9v5.234l-14.683 15.326h15.219v5.627h-24.847v-5.43l14.522-15.166h-13.111v-5.591ZM537.891 797.107h8.11v26.187h-8.11v-26.187ZM551.717 797.107h10.647l4.108 15.934 4.091-15.934h10.61v26.187h-6.609v-19.971l-5.127 19.971h-5.984l-5.109-19.971v19.971h-6.627v-26.187ZM585.318 810.218c0-4.275 1.191-7.604 3.572-9.985 2.382-2.382 5.699-3.573 9.95-3.573 4.359 0 7.717 1.17 10.075 3.51 2.358 2.34 3.537 5.618 3.537 9.834 0 3.06-.515 5.57-1.545 7.529-1.03 1.959-2.519 3.484-4.466 4.573-1.947 1.09-4.374 1.635-7.279 1.635-2.954 0-5.398-.471-7.333-1.412-1.935-.94-3.504-2.429-4.707-4.465-1.203-2.037-1.804-4.585-1.804-7.646Zm8.092.036c0 2.644.491 4.543 1.473 5.698.983 1.155 2.32 1.733 4.011 1.733 1.738 0 3.084-.566 4.037-1.697.953-1.131 1.429-3.162 1.429-6.091 0-2.465-.497-4.267-1.492-5.404-.994-1.137-2.343-1.706-4.046-1.706-1.631 0-2.941.578-3.93 1.733-.988 1.155-1.482 3.066-1.482 5.734ZM677.152 797.107h22.901v5.234l-14.684 15.326h15.22v5.627h-24.848v-5.43l14.523-15.166h-13.112v-5.591ZM704.554 797.107h8.11v26.187h-8.11v-26.187ZM718.381 797.107h10.646l4.109 15.934 4.09-15.934h10.611v26.187h-6.609v-19.971l-5.127 19.971h-5.984l-5.109-19.971v19.971h-6.627v-26.187ZM751.981 810.218c0-4.275 1.191-7.604 3.573-9.985 2.382-2.382 5.698-3.573 9.95-3.573 4.358 0 7.717 1.17 10.074 3.51 2.358 2.34 3.537 5.618 3.537 9.834 0 3.06-.515 5.57-1.545 7.529-1.03 1.959-2.518 3.484-4.466 4.573-1.947 1.09-4.373 1.635-7.279 1.635-2.953 0-5.397-.471-7.333-1.412-1.935-.94-3.504-2.429-4.707-4.465-1.202-2.037-1.804-4.585-1.804-7.646Zm8.092.036c0 2.644.491 4.543 1.474 5.698.982 1.155 2.319 1.733 4.01 1.733 1.739 0 3.085-.566 4.037-1.697.953-1.131 1.429-3.162 1.429-6.091 0-2.465-.497-4.267-1.491-5.404-.995-1.137-2.343-1.706-4.046-1.706-1.632 0-2.942.578-3.93 1.733-.989 1.155-1.483 3.066-1.483 5.734ZM843.816 797.107h22.9v5.234l-14.683 15.326h15.219v5.627h-24.847v-5.43l14.522-15.166h-13.111v-5.591ZM871.218 797.107h8.11v26.187h-8.11v-26.187ZM885.044 797.107h10.647l4.108 15.934 4.091-15.934h10.61v26.187h-6.609v-19.971l-5.127 19.971h-5.984l-5.109-19.971v19.971h-6.627v-26.187ZM918.645 810.218c0-4.275 1.191-7.604 3.572-9.985 2.382-2.382 5.699-3.573 9.95-3.573 4.359 0 7.717 1.17 10.075 3.51 2.358 2.34 3.537 5.618 3.537 9.834 0 3.06-.515 5.57-1.545 7.529-1.03 1.959-2.519 3.484-4.466 4.573-1.947 1.09-4.374 1.635-7.279 1.635-2.954 0-5.398-.471-7.333-1.412-1.935-.94-3.504-2.429-4.707-4.465-1.203-2.037-1.804-4.585-1.804-7.646Zm8.092.036c0 2.644.491 4.543 1.473 5.698.983 1.155 2.32 1.733 4.011 1.733 1.738 0 3.084-.566 4.037-1.697.953-1.131 1.429-3.162 1.429-6.091 0-2.465-.497-4.267-1.492-5.404-.994-1.137-2.343-1.706-4.046-1.706-1.631 0-2.941.578-3.93 1.733-.988 1.155-1.482 3.066-1.482 5.734ZM1010.48 797.107h22.9v5.234l-14.68 15.326h15.22v5.627h-24.85v-5.43l14.52-15.166h-13.11v-5.591ZM1037.88 797.107h8.11v26.187h-8.11v-26.187ZM1051.71 797.107h10.64l4.11 15.934 4.09-15.934h10.61v26.187h-6.61v-19.971l-5.12 19.971h-5.99l-5.11-19.971v19.971h-6.62v-26.187ZM1085.31 810.218c0-4.275 1.19-7.604 3.57-9.985 2.38-2.382 5.7-3.573 9.95-3.573 4.36 0 7.72 1.17 10.08 3.51 2.35 2.34 3.53 5.618 3.53 9.834 0 3.06-.51 5.57-1.54 7.529-1.03 1.959-2.52 3.484-4.47 4.573-1.95 1.09-4.37 1.635-7.28 1.635-2.95 0-5.4-.471-7.33-1.412-1.94-.94-3.5-2.429-4.71-4.465-1.2-2.037-1.8-4.585-1.8-7.646Zm8.09.036c0 2.644.49 4.543 1.47 5.698.99 1.155 2.32 1.733 4.01 1.733 1.74 0 3.09-.566 4.04-1.697.95-1.131 1.43-3.162 1.43-6.091 0-2.465-.5-4.267-1.49-5.404-1-1.137-2.34-1.706-4.05-1.706-1.63 0-2.94.578-3.93 1.733-.99 1.155-1.48 3.066-1.48 5.734Z"/></g><g vectornator:layerName="Text 11" fill="url(#l)"><path d="M-77.282 884.5h22.9v5.234l-14.684 15.327h15.22v5.627h-24.848v-5.431l14.523-15.166h-13.111V884.5ZM-49.88 884.5h8.11v26.188h-8.11V884.5ZM-36.054 884.5h10.646l4.109 15.934 4.09-15.934h10.611v26.188h-6.61v-19.971l-5.126 19.971h-5.984l-5.11-19.971v19.971h-6.626V884.5ZM-2.454 897.612c0-4.275 1.191-7.604 3.573-9.986 2.382-2.381 5.698-3.572 9.95-3.572 4.358 0 7.717 1.17 10.075 3.51 2.358 2.34 3.537 5.618 3.537 9.833 0 3.061-.515 5.571-1.546 7.53-1.03 1.959-2.518 3.483-4.465 4.573-1.948 1.089-4.374 1.634-7.28 1.634-2.953 0-5.397-.47-7.333-1.411-1.935-.941-3.504-2.429-4.706-4.466-1.203-2.036-1.805-4.585-1.805-7.645Zm8.092.036c0 2.643.492 4.543 1.474 5.698.983 1.155 2.32 1.733 4.01 1.733 1.74 0 3.085-.566 4.037-1.697.953-1.132 1.43-3.162 1.43-6.092 0-2.465-.498-4.266-1.492-5.403-.994-1.138-2.343-1.706-4.046-1.706-1.632 0-2.942.577-3.93 1.732-.988 1.156-1.483 3.067-1.483 5.735ZM89.381 884.5h22.901v5.234l-14.684 15.327h15.219v5.627H87.97v-5.431l14.523-15.166H89.381V884.5ZM116.783 884.5h8.11v26.188h-8.11V884.5ZM130.609 884.5h10.647l4.108 15.934 4.091-15.934h10.611v26.188h-6.61v-19.971l-5.126 19.971h-5.985l-5.109-19.971v19.971h-6.627V884.5ZM164.21 897.612c0-4.275 1.191-7.604 3.573-9.986 2.381-2.381 5.698-3.572 9.949-3.572 4.359 0 7.717 1.17 10.075 3.51 2.358 2.34 3.537 5.618 3.537 9.833 0 3.061-.515 5.571-1.545 7.53-1.03 1.959-2.519 3.483-4.466 4.573-1.947 1.089-4.373 1.634-7.279 1.634-2.954 0-5.398-.47-7.333-1.411-1.935-.941-3.504-2.429-4.707-4.466-1.203-2.036-1.804-4.585-1.804-7.645Zm8.092.036c0 2.643.491 4.543 1.474 5.698.982 1.155 2.319 1.733 4.01 1.733 1.739 0 3.084-.566 4.037-1.697.953-1.132 1.429-3.162 1.429-6.092 0-2.465-.497-4.266-1.492-5.403-.994-1.138-2.343-1.706-4.046-1.706-1.631 0-2.941.577-3.929 1.732-.989 1.156-1.483 3.067-1.483 5.735ZM256.045 884.5h22.9v5.234l-14.683 15.327h15.219v5.627h-24.848v-5.431l14.523-15.166h-13.111V884.5ZM283.447 884.5h8.11v26.188h-8.11V884.5ZM297.273 884.5h10.646l4.109 15.934 4.09-15.934h10.611v26.188h-6.609v-19.971l-5.127 19.971h-5.984l-5.109-19.971v19.971h-6.627V884.5ZM330.873 897.612c0-4.275 1.191-7.604 3.573-9.986 2.382-2.381 5.698-3.572 9.95-3.572 4.358 0 7.717 1.17 10.075 3.51 2.358 2.34 3.537 5.618 3.537 9.833 0 3.061-.515 5.571-1.546 7.53-1.03 1.959-2.518 3.483-4.465 4.573-1.947 1.089-4.374 1.634-7.28 1.634-2.953 0-5.397-.47-7.332-1.411-1.936-.941-3.505-2.429-4.707-4.466-1.203-2.036-1.805-4.585-1.805-7.645Zm8.092.036c0 2.643.492 4.543 1.474 5.698.983 1.155 2.319 1.733 4.01 1.733 1.739 0 3.085-.566 4.037-1.697.953-1.132 1.43-3.162 1.43-6.092 0-2.465-.498-4.266-1.492-5.403-.994-1.138-2.343-1.706-4.046-1.706-1.632 0-2.942.577-3.93 1.732-.988 1.156-1.483 3.067-1.483 5.735ZM422.708 884.5h22.901v5.234l-14.684 15.327h15.22v5.627h-24.848v-5.431l14.523-15.166h-13.112V884.5ZM450.11 884.5h8.11v26.188h-8.11V884.5ZM463.936 884.5h10.647l4.108 15.934 4.091-15.934h10.611v26.188h-6.61v-19.971l-5.126 19.971h-5.985l-5.109-19.971v19.971h-6.627V884.5ZM497.537 897.612c0-4.275 1.191-7.604 3.573-9.986 2.381-2.381 5.698-3.572 9.949-3.572 4.359 0 7.717 1.17 10.075 3.51 2.358 2.34 3.537 5.618 3.537 9.833 0 3.061-.515 5.571-1.545 7.53-1.03 1.959-2.519 3.483-4.466 4.573-1.947 1.089-4.373 1.634-7.279 1.634-2.954 0-5.398-.47-7.333-1.411-1.935-.941-3.504-2.429-4.707-4.466-1.203-2.036-1.804-4.585-1.804-7.645Zm8.092.036c0 2.643.491 4.543 1.474 5.698.982 1.155 2.319 1.733 4.01 1.733 1.739 0 3.084-.566 4.037-1.697.953-1.132 1.429-3.162 1.429-6.092 0-2.465-.497-4.266-1.492-5.403-.994-1.138-2.343-1.706-4.046-1.706-1.631 0-2.941.577-3.929 1.732-.989 1.156-1.483 3.067-1.483 5.735ZM589.372 884.5h22.9v5.234l-14.683 15.327h15.219v5.627H587.96v-5.431l14.523-15.166h-13.111V884.5ZM616.774 884.5h8.11v26.188h-8.11V884.5ZM630.6 884.5h10.646l4.109 15.934 4.09-15.934h10.611v26.188h-6.609v-19.971l-5.127 19.971h-5.984l-5.109-19.971v19.971H630.6V884.5ZM664.2 897.612c0-4.275 1.191-7.604 3.573-9.986 2.382-2.381 5.698-3.572 9.95-3.572 4.358 0 7.717 1.17 10.075 3.51 2.358 2.34 3.537 5.618 3.537 9.833 0 3.061-.515 5.571-1.546 7.53-1.03 1.959-2.518 3.483-4.465 4.573-1.947 1.089-4.374 1.634-7.28 1.634-2.953 0-5.397-.47-7.332-1.411-1.936-.941-3.505-2.429-4.707-4.466-1.203-2.036-1.805-4.585-1.805-7.645Zm8.092.036c0 2.643.492 4.543 1.474 5.698.983 1.155 2.319 1.733 4.01 1.733 1.739 0 3.085-.566 4.038-1.697.952-1.132 1.429-3.162 1.429-6.092 0-2.465-.498-4.266-1.492-5.403-.994-1.138-2.343-1.706-4.046-1.706-1.632 0-2.941.577-3.93 1.732-.988 1.156-1.483 3.067-1.483 5.735ZM756.035 884.5h22.901v5.234l-14.684 15.327h15.22v5.627h-24.848v-5.431l14.523-15.166h-13.112V884.5ZM783.437 884.5h8.11v26.188h-8.11V884.5ZM797.263 884.5h10.647l4.108 15.934 4.091-15.934h10.611v26.188h-6.61v-19.971l-5.126 19.971h-5.985l-5.108-19.971v19.971h-6.628V884.5ZM830.864 897.612c0-4.275 1.191-7.604 3.573-9.986 2.381-2.381 5.698-3.572 9.949-3.572 4.359 0 7.717 1.17 10.075 3.51 2.358 2.34 3.537 5.618 3.537 9.833 0 3.061-.515 5.571-1.545 7.53-1.03 1.959-2.519 3.483-4.466 4.573-1.947 1.089-4.373 1.634-7.279 1.634-2.953 0-5.398-.47-7.333-1.411-1.935-.941-3.504-2.429-4.707-4.466-1.203-2.036-1.804-4.585-1.804-7.645Zm8.092.036c0 2.643.491 4.543 1.474 5.698.982 1.155 2.319 1.733 4.01 1.733 1.739 0 3.084-.566 4.037-1.697.953-1.132 1.429-3.162 1.429-6.092 0-2.465-.497-4.266-1.491-5.403-.995-1.138-2.344-1.706-4.047-1.706-1.631 0-2.941.577-3.929 1.732-.989 1.156-1.483 3.067-1.483 5.735ZM922.699 884.5h22.9v5.234l-14.683 15.327h15.219v5.627h-24.848v-5.431l14.523-15.166h-13.111V884.5ZM950.101 884.5h8.11v26.188h-8.11V884.5ZM963.927 884.5h10.646l4.109 15.934 4.09-15.934h10.611v26.188h-6.609v-19.971l-5.127 19.971h-5.984l-5.109-19.971v19.971h-6.627V884.5ZM997.527 897.612c0-4.275 1.191-7.604 3.573-9.986 2.38-2.381 5.7-3.572 9.95-3.572 4.36 0 7.72 1.17 10.07 3.51 2.36 2.34 3.54 5.618 3.54 9.833 0 3.061-.51 5.571-1.54 7.53-1.03 1.959-2.52 3.483-4.47 4.573-1.95 1.089-4.37 1.634-7.28 1.634-2.95 0-5.4-.47-7.33-1.411-1.94-.941-3.51-2.429-4.708-4.466-1.203-2.036-1.805-4.585-1.805-7.645Zm8.093.036c0 2.643.49 4.543 1.47 5.698.99 1.155 2.32 1.733 4.01 1.733 1.74 0 3.09-.566 4.04-1.697.95-1.132 1.43-3.162 1.43-6.092 0-2.465-.5-4.266-1.49-5.403-1-1.138-2.35-1.706-4.05-1.706-1.63 0-2.94.577-3.93 1.732-.99 1.156-1.48 3.067-1.48 5.735Z"/></g><g vectornator:layerName="Text 12" fill="url(#m)"><path d="M-156.165 969.237h22.9v5.234l-14.683 15.327h15.219v5.627h-24.847v-5.43l14.522-15.166h-13.111v-5.592ZM-128.763 969.237h8.11v26.188h-8.11v-26.188ZM-114.937 969.237h10.646l4.109 15.934 4.09-15.934h10.611v26.188h-6.609v-19.971l-5.127 19.971h-5.984l-5.109-19.971v19.971h-6.627v-26.188ZM-81.336 982.349c0-4.275 1.19-7.604 3.572-9.985 2.382-2.382 5.699-3.573 9.95-3.573 4.359 0 7.717 1.17 10.075 3.51 2.358 2.34 3.537 5.618 3.537 9.834 0 3.06-.515 5.57-1.545 7.529-1.03 1.959-2.52 3.483-4.466 4.573-1.947 1.09-4.374 1.634-7.28 1.634-2.953 0-5.397-.47-7.332-1.411-1.935-.94-3.504-2.429-4.707-4.465-1.203-2.037-1.804-4.585-1.804-7.646Zm8.092.036c0 2.644.49 4.543 1.473 5.698.983 1.155 2.32 1.733 4.01 1.733 1.74 0 3.085-.566 4.038-1.697.952-1.131 1.429-3.162 1.429-6.091 0-2.466-.497-4.267-1.492-5.404-.994-1.137-2.343-1.706-4.046-1.706-1.631 0-2.941.578-3.93 1.733-.988 1.155-1.482 3.066-1.482 5.734ZM10.498 969.237h22.9v5.234l-14.683 15.327h15.22v5.627H9.087v-5.43l14.523-15.166H10.498v-5.592ZM37.9 969.237h8.11v26.188H37.9v-26.188ZM51.727 969.237h10.646l4.108 15.934 4.091-15.934h10.61v26.188h-6.609v-19.971l-5.126 19.971h-5.984l-5.11-19.971v19.971h-6.627v-26.188ZM85.327 982.349c0-4.275 1.191-7.604 3.573-9.985 2.381-2.382 5.698-3.573 9.95-3.573 4.358 0 7.716 1.17 10.074 3.51 2.358 2.34 3.537 5.618 3.537 9.834 0 3.06-.515 5.57-1.545 7.529-1.03 1.959-2.519 3.483-4.466 4.573-1.947 1.09-4.373 1.634-7.279 1.634-2.953 0-5.398-.47-7.333-1.411-1.935-.94-3.504-2.429-4.707-4.465-1.203-2.037-1.804-4.585-1.804-7.646Zm8.092.036c0 2.644.491 4.543 1.474 5.698.982 1.155 2.32 1.733 4.01 1.733 1.739 0 3.085-.566 4.037-1.697.953-1.131 1.429-3.162 1.429-6.091 0-2.466-.497-4.267-1.491-5.404-.995-1.137-2.343-1.706-4.046-1.706-1.632 0-2.942.578-3.93 1.733-.989 1.155-1.483 3.066-1.483 5.734ZM177.162 969.237h22.9v5.234l-14.683 15.327h15.219v5.627h-24.847v-5.43l14.522-15.166h-13.111v-5.592ZM204.564 969.237h8.11v26.188h-8.11v-26.188ZM218.39 969.237h10.646l4.109 15.934 4.091-15.934h10.61v26.188h-6.609v-19.971l-5.127 19.971h-5.984l-5.109-19.971v19.971h-6.627v-26.188ZM251.991 982.349c0-4.275 1.191-7.604 3.572-9.985 2.382-2.382 5.699-3.573 9.95-3.573 4.359 0 7.717 1.17 10.075 3.51 2.358 2.34 3.537 5.618 3.537 9.834 0 3.06-.515 5.57-1.545 7.529-1.03 1.959-2.519 3.483-4.466 4.573-1.947 1.09-4.374 1.634-7.279 1.634-2.954 0-5.398-.47-7.333-1.411-1.935-.94-3.504-2.429-4.707-4.465-1.203-2.037-1.804-4.585-1.804-7.646Zm8.092.036c0 2.644.491 4.543 1.473 5.698.983 1.155 2.32 1.733 4.011 1.733 1.738 0 3.084-.566 4.037-1.697.952-1.131 1.429-3.162 1.429-6.091 0-2.466-.497-4.267-1.492-5.404-.994-1.137-2.343-1.706-4.046-1.706-1.631 0-2.941.578-3.93 1.733-.988 1.155-1.482 3.066-1.482 5.734ZM343.825 969.237h22.901v5.234l-14.684 15.327h15.22v5.627h-24.848v-5.43l14.523-15.166h-13.112v-5.592ZM371.227 969.237h8.11v26.188h-8.11v-26.188ZM385.054 969.237H395.7l4.109 15.934 4.09-15.934h10.611v26.188h-6.609v-19.971l-5.127 19.971h-5.984l-5.109-19.971v19.971h-6.627v-26.188ZM418.654 982.349c0-4.275 1.191-7.604 3.573-9.985 2.382-2.382 5.698-3.573 9.95-3.573 4.358 0 7.717 1.17 10.074 3.51 2.358 2.34 3.537 5.618 3.537 9.834 0 3.06-.515 5.57-1.545 7.529-1.03 1.959-2.519 3.483-4.466 4.573-1.947 1.09-4.373 1.634-7.279 1.634-2.953 0-5.398-.47-7.333-1.411-1.935-.94-3.504-2.429-4.707-4.465-1.202-2.037-1.804-4.585-1.804-7.646Zm8.092.036c0 2.644.491 4.543 1.474 5.698.982 1.155 2.319 1.733 4.01 1.733 1.739 0 3.085-.566 4.037-1.697.953-1.131 1.429-3.162 1.429-6.091 0-2.466-.497-4.267-1.491-5.404-.995-1.137-2.343-1.706-4.046-1.706-1.632 0-2.942.578-3.93 1.733-.989 1.155-1.483 3.066-1.483 5.734ZM510.489 969.237h22.9v5.234l-14.683 15.327h15.219v5.627h-24.847v-5.43l14.522-15.166h-13.111v-5.592ZM537.891 969.237h8.11v26.188h-8.11v-26.188ZM551.717 969.237h10.647l4.108 15.934 4.091-15.934h10.61v26.188h-6.609v-19.971l-5.127 19.971h-5.984l-5.109-19.971v19.971h-6.627v-26.188ZM585.318 982.349c0-4.275 1.191-7.604 3.572-9.985 2.382-2.382 5.699-3.573 9.95-3.573 4.359 0 7.717 1.17 10.075 3.51 2.358 2.34 3.537 5.618 3.537 9.834 0 3.06-.515 5.57-1.545 7.529-1.03 1.959-2.519 3.483-4.466 4.573-1.947 1.09-4.374 1.634-7.279 1.634-2.954 0-5.398-.47-7.333-1.411-1.935-.94-3.504-2.429-4.707-4.465-1.203-2.037-1.804-4.585-1.804-7.646Zm8.092.036c0 2.644.491 4.543 1.473 5.698.983 1.155 2.32 1.733 4.011 1.733 1.738 0 3.084-.566 4.037-1.697.953-1.131 1.429-3.162 1.429-6.091 0-2.466-.497-4.267-1.492-5.404-.994-1.137-2.343-1.706-4.046-1.706-1.631 0-2.941.578-3.93 1.733-.988 1.155-1.482 3.066-1.482 5.734ZM677.152 969.237h22.901v5.234l-14.684 15.327h15.22v5.627h-24.848v-5.43l14.523-15.166h-13.112v-5.592ZM704.554 969.237h8.11v26.188h-8.11v-26.188ZM718.381 969.237h10.646l4.109 15.934 4.09-15.934h10.611v26.188h-6.609v-19.971l-5.127 19.971h-5.984l-5.109-19.971v19.971h-6.627v-26.188ZM751.981 982.349c0-4.275 1.191-7.604 3.573-9.985 2.382-2.382 5.698-3.573 9.95-3.573 4.358 0 7.717 1.17 10.074 3.51 2.358 2.34 3.537 5.618 3.537 9.834 0 3.06-.515 5.57-1.545 7.529-1.03 1.959-2.518 3.483-4.466 4.573-1.947 1.09-4.373 1.634-7.279 1.634-2.953 0-5.397-.47-7.333-1.411-1.935-.94-3.504-2.429-4.707-4.465-1.202-2.037-1.804-4.585-1.804-7.646Zm8.092.036c0 2.644.491 4.543 1.474 5.698.982 1.155 2.319 1.733 4.01 1.733 1.739 0 3.085-.566 4.037-1.697.953-1.131 1.429-3.162 1.429-6.091 0-2.466-.497-4.267-1.491-5.404-.995-1.137-2.343-1.706-4.046-1.706-1.632 0-2.942.578-3.93 1.733-.989 1.155-1.483 3.066-1.483 5.734ZM843.816 969.237h22.9v5.234l-14.683 15.327h15.219v5.627h-24.847v-5.43l14.522-15.166h-13.111v-5.592ZM871.218 969.237h8.11v26.188h-8.11v-26.188ZM885.044 969.237h10.647l4.108 15.934 4.091-15.934h10.61v26.188h-6.609v-19.971l-5.127 19.971h-5.984l-5.109-19.971v19.971h-6.627v-26.188ZM918.645 982.349c0-4.275 1.191-7.604 3.572-9.985 2.382-2.382 5.699-3.573 9.95-3.573 4.359 0 7.717 1.17 10.075 3.51 2.358 2.34 3.537 5.618 3.537 9.834 0 3.06-.515 5.57-1.545 7.529-1.03 1.959-2.519 3.483-4.466 4.573-1.947 1.09-4.374 1.634-7.279 1.634-2.954 0-5.398-.47-7.333-1.411-1.935-.94-3.504-2.429-4.707-4.465-1.203-2.037-1.804-4.585-1.804-7.646Zm8.092.036c0 2.644.491 4.543 1.473 5.698.983 1.155 2.32 1.733 4.011 1.733 1.738 0 3.084-.566 4.037-1.697.953-1.131 1.429-3.162 1.429-6.091 0-2.466-.497-4.267-1.492-5.404-.994-1.137-2.343-1.706-4.046-1.706-1.631 0-2.941.578-3.93 1.733-.988 1.155-1.482 3.066-1.482 5.734ZM1010.48 969.237h22.9v5.234l-14.68 15.327h15.22v5.627h-24.85v-5.43l14.52-15.166h-13.11v-5.592ZM1037.88 969.237h8.11v26.188h-8.11v-26.188ZM1051.71 969.237h10.64l4.11 15.934 4.09-15.934h10.61v26.188h-6.61v-19.971l-5.12 19.971h-5.99l-5.11-19.971v19.971h-6.62v-26.188ZM1085.31 982.349c0-4.275 1.19-7.604 3.57-9.985 2.38-2.382 5.7-3.573 9.95-3.573 4.36 0 7.72 1.17 10.08 3.51 2.35 2.34 3.53 5.618 3.53 9.834 0 3.06-.51 5.57-1.54 7.529-1.03 1.959-2.52 3.483-4.47 4.573-1.95 1.09-4.37 1.634-7.28 1.634-2.95 0-5.4-.47-7.33-1.411-1.94-.94-3.5-2.429-4.71-4.465-1.2-2.037-1.8-4.585-1.8-7.646Zm8.09.036c0 2.644.49 4.543 1.47 5.698.99 1.155 2.32 1.733 4.01 1.733 1.74 0 3.09-.566 4.04-1.697.95-1.131 1.43-3.162 1.43-6.091 0-2.466-.5-4.267-1.49-5.404-1-1.137-2.34-1.706-4.05-1.706-1.63 0-2.94.578-3.93 1.733-.99 1.155-1.48 3.066-1.48 5.734Z"/></g></g></g></svg>