<svg xmlns="http://www.w3.org/2000/svg" xmlns:vectornator="http://vectornator.io" xmlns:xlink="http://www.w3.org/1999/xlink" xml:space="preserve" stroke-miterlimit="10" style="fill-rule:nonzero;clip-rule:evenodd;stroke-linecap:round;stroke-linejoin:round" viewBox="0 0 1060 1060"><defs><linearGradient id="c" x1="179" x2="845" y1="512" y2="512" gradientTransform="translate(261.542 315.485) scale(.52433)" gradientUnits="userSpaceOnUse"><stop offset="0" stop-color="#ffbd59"/><stop offset="1" stop-color="#ff6b11"/></linearGradient><linearGradient id="f" x1="178.274" x2="844.274" y1="366.436" y2="366.436" gradientTransform="translate(261.542 315.485) scale(.52433)" gradientUnits="userSpaceOnUse"><stop offset="0" stop-color="#ffbd59"/><stop offset="1" stop-color="#ff6b11"/></linearGradient><linearGradient id="g" x1="-1.154" x2="664.846" y1="700.221" y2="700.221" gradientTransform="translate(261.542 315.485) scale(.52433)" gradientUnits="userSpaceOnUse"><stop offset="0" stop-color="#ff1148"/><stop offset="1" stop-color="#ee3cff"/></linearGradient><linearGradient id="h" x1="341.43" x2="1007.43" y1="698.728" y2="698.728" gradientTransform="translate(261.542 315.485) scale(.52433)" gradientUnits="userSpaceOnUse"><stop offset="0" stop-color="#00d2ff"/><stop offset="1" stop-color="#2aff75"/></linearGradient><path id="a" d="M359.335 530c0-94.256 76.409-170.665 170.665-170.665 94.256 0 170.665 76.409 170.665 170.665 0 94.256-76.409 170.665-170.665 170.665-94.256 0-170.665-76.409-170.665-170.665Z"/><path id="d" d="M528.865 333.029c-73.895.322-136.824 46.508-162.032 111.463-6.438 24.56-10.334 50.156-11.239 76.519.157 2.049.297 4.104.523 6.133-.215.11-.418.238-.633.349-.03 1.906-.087 3.805-.087 5.718 0 127.128 67.994 238.283 169.539 299.356.349-.207.722-.377 1.07-.59 1.711 1.02 3.489 1.92 5.238 2.883 103.663-60.562 173.358-172.929 173.358-301.649 0-.416-.02-.828-.02-1.243-.65-.388-1.267-.822-1.924-1.201.76-5.712 1.157-11.531 1.354-17.395-1.184-21.109-4.22-41.716-8.99-61.656-23.404-69.27-89.023-119.022-166.157-118.687Z"/></defs><g vectornator:layerName="Layer 1"><g vectornator:layerName="Group 5"><g vectornator:layerName="Group 4"><path vectornator:layerName="path" fill="none" stroke="#310024" stroke-width="13.333" d="M359.335 530c0-94.256 76.409-170.665 170.665-170.665 94.256 0 170.665 76.409 170.665 170.665 0 94.256-76.409 170.665-170.665 170.665-94.256 0-170.665-76.409-170.665-170.665Z"/><g vectornator:layerName="path"><use vectornator:layerName="path" xlink:href="#a" fill="none" stroke="#310024" stroke-width="13.333"/><clipPath id="b" clip-rule="nonzero"><use xlink:href="#a"/></clipPath><g clip-path="url(#b)"><path vectornator:layerName="path" fill="url(#c)" stroke="#310024" stroke-width="13.333" d="M528.865 333.029c-73.895.322-136.824 46.508-162.032 111.463-6.438 24.56-10.334 50.156-11.239 76.519.157 2.049.297 4.104.523 6.133-.215.11-.418.238-.633.349-.03 1.906-.087 3.805-.087 5.718 0 127.128 67.994 238.283 169.539 299.356.349-.207.722-.377 1.07-.59 1.711 1.02 3.489 1.92 5.238 2.883 103.663-60.562 173.358-172.929 173.358-301.649 0-.416-.02-.828-.02-1.243-.65-.388-1.267-.822-1.924-1.201.76-5.712 1.157-11.531 1.354-17.395-1.184-21.109-4.22-41.716-8.99-61.656-23.404-69.27-89.023-119.022-166.157-118.687Z" opacity=".332"/><g vectornator:layerName="path"><path vectornator:layerName="path" fill="none" stroke="#310024" stroke-width="13.333" d="M528.865 333.029c-73.895.322-136.824 46.508-162.032 111.463-6.438 24.56-10.334 50.156-11.239 76.519.157 2.049.297 4.104.523 6.133-.215.11-.418.238-.633.349-.03 1.906-.087 3.805-.087 5.718 0 127.128 67.994 238.283 169.539 299.356.349-.207.722-.377 1.07-.59 1.711 1.02 3.489 1.92 5.238 2.883 103.663-60.562 173.358-172.929 173.358-301.649 0-.416-.02-.828-.02-1.243-.65-.388-1.267-.822-1.924-1.201.76-5.712 1.157-11.531 1.354-17.395-1.184-21.109-4.22-41.716-8.99-61.656-23.404-69.27-89.023-119.022-166.157-118.687Z"/><g vectornator:layerName="path"><use vectornator:layerName="path" xlink:href="#d" fill="none" stroke="#310024" stroke-width="13.333"/><clipPath id="e" clip-rule="nonzero"><use xlink:href="#d"/></clipPath><g stroke="#310024" stroke-width="13.333" clip-path="url(#e)"><path vectornator:layerName="Oval 1" fill="url(#f)" d="M355.018 508.381c-.42-96.43 77.411-174.942 173.84-175.362 96.43-.42 174.944 77.411 175.364 173.84.42 96.429-77.412 174.941-173.842 175.362-96.429.42-174.941-77.411-175.362-173.84Z"/><path vectornator:layerName="Oval 2" fill="url(#g)" d="M260.938 683.395c-.42-96.43 77.411-174.942 173.84-175.362 96.43-.42 174.942 77.411 175.362 173.84.421 96.431-77.41 174.944-173.84 175.364-96.429.42-174.941-77.413-175.362-173.842Z"/><path vectornator:layerName="Oval 3" fill="url(#h)" d="M440.566 682.612c-.42-96.43 77.411-174.941 173.84-175.362 96.429-.42 174.945 77.411 175.365 173.84.42 96.431-77.413 174.94-173.843 175.36-96.43.423-174.941-77.409-175.362-173.838Z"/></g></g></g></g></g></g><path vectornator:layerName="Oval 1" fill="none" stroke="#310024" stroke-width="13.333" d="M359.335 530c0-94.256 76.409-170.665 170.665-170.665 94.256 0 170.665 76.409 170.665 170.665 0 94.256-76.409 170.665-170.665 170.665-94.256 0-170.665-76.409-170.665-170.665Z"/></g><path vectornator:layerName="Rectangle 1" fill="none" stroke="#fff" stroke-linecap="butt" stroke-opacity=".8" stroke-width="18" d="M320 521.56C320 410.242 410.242 320 521.56 320h16.88C649.758 320 740 410.242 740 521.56v16.88C740 649.758 649.758 740 538.44 740h-16.88C410.242 740 320 649.758 320 538.44v-16.88Z"/><path vectornator:layerName="Rectangle 2" fill="none" stroke="#fff" stroke-linecap="butt" stroke-opacity=".7" stroke-width="18" d="M270 517.482C270 380.802 380.802 270 517.482 270h25.036C679.198 270 790 380.802 790 517.482v25.036C790 679.198 679.198 790 542.518 790h-25.036C380.802 790 270 679.198 270 542.518v-25.036Z"/><path vectornator:layerName="Rectangle 3" fill="none" stroke="#fff" stroke-linecap="butt" stroke-opacity=".6" stroke-width="18" d="M220 511.786C220 350.637 350.637 220 511.786 220h36.428C709.363 220 840 350.637 840 511.786v36.428C840 709.363 709.363 840 548.214 840h-36.428C350.637 840 220 709.363 220 548.214v-36.428Z"/><path vectornator:layerName="Rectangle 4" fill="none" stroke="#fff" stroke-linecap="butt" stroke-opacity=".5" stroke-width="18" d="M170 511.759C170 323.011 323.011 170 511.759 170h36.482C736.989 170 890 323.011 890 511.759v36.482C890 736.989 736.989 890 548.241 890h-36.482C323.011 890 170 736.989 170 548.241v-36.482Z"/><path vectornator:layerName="Rectangle 5" fill="none" stroke="#fff" stroke-linecap="butt" stroke-opacity=".4" stroke-width="18" d="M120 520c0-220.914 179.086-400 400-400h20c220.914 0 400 179.086 400 400v20c0 220.914-179.086 400-400 400h-20c-220.914 0-400-179.086-400-400v-20Z"/><path vectornator:layerName="Rectangle 8" fill="none" stroke="#fff" stroke-linecap="butt" stroke-opacity=".3" stroke-width="18" d="M70 528.537C70 275.294 275.294 70 528.537 70h2.926C784.706 70 990 275.294 990 528.537v2.926C990 784.706 784.706 990 531.463 990h-2.926C275.294 990 70 784.706 70 531.463v-2.926Z"/><path vectornator:layerName="Rectangle 7" fill="none" stroke="#fff" stroke-linecap="butt" stroke-opacity=".2" stroke-width="18" d="M20 528.378C20 247.608 247.608 20 528.378 20h3.244C812.392 20 1040 247.608 1040 528.378v3.244C1040 812.392 812.392 1040 531.622 1040h-3.244C247.608 1040 20 812.392 20 531.622v-3.244Z"/></g></svg>