<svg xmlns="http://www.w3.org/2000/svg" xmlns:vectornator="http://vectornator.io" xmlns:xlink="http://www.w3.org/1999/xlink" xml:space="preserve" stroke-miterlimit="10" style="fill-rule:nonzero;clip-rule:evenodd;stroke-linecap:round;stroke-linejoin:round" viewBox="0 0 1060.54 1060.54"><defs><linearGradient id="b" x1="166.229" x2="866.993" y1="801.982" y2="149.564" gradientTransform="translate(4.143 4.143) scale(.99219)" gradientUnits="userSpaceOnUse"><stop offset=".001" stop-color="#36d2ff"/><stop offset="1" stop-color="#38ff58"/></linearGradient><linearGradient id="d" x1="6.456" x2="1054.08" y1="692.102" y2="692.102" gradientTransform="translate(4.143 4.143) scale(.99219)" gradientUnits="userSpaceOnUse"><stop offset=".001" stop-color="#36d2ff"/><stop offset="1" stop-color="#38ff58"/></linearGradient><linearGradient id="f" x1="6.456" x2="1054.08" y1="692.102" y2="692.102" gradientTransform="translate(4.143 4.143) scale(.99219)" gradientUnits="userSpaceOnUse"><stop offset=".001" stop-color="#36d2ff"/><stop offset="1" stop-color="#38ff58"/></linearGradient><linearGradient id="h" x1="5.314" x2="1052.94" y1="463.128" y2="463.128" gradientTransform="translate(4.143 4.143) scale(.99219)" gradientUnits="userSpaceOnUse"><stop offset=".001" stop-color="#36d2ff"/><stop offset="1" stop-color="#38ff58"/></linearGradient><linearGradient id="i" x1="-276.928" x2="770.698" y1="988.178" y2="988.178" gradientTransform="translate(4.143 4.143) scale(.99219)" gradientUnits="userSpaceOnUse"><stop offset=".001" stop-color="#36d2ff"/><stop offset="1" stop-color="#38ff58"/></linearGradient><linearGradient id="j" x1="261.96" x2="1309.59" y1="985.824" y2="985.824" gradientTransform="translate(4.143 4.143) scale(.99219)" gradientUnits="userSpaceOnUse"><stop offset=".001" stop-color="#36d2ff"/><stop offset="1" stop-color="#38ff58"/></linearGradient><path id="a" d="M22.27 530.27c0-280.561 227.439-508 508-508 280.561 0 508 227.439 508 508 0 280.561-227.439 508-508 508-280.561 0-508-227.439-508-508Z"/><path id="e" d="M526.89-56.031c-219.954.959-407.267 138.433-482.3 331.777-19.167 73.108-30.761 149.294-33.456 227.768.468 6.099.886 12.215 1.559 18.255-.64.327-1.247.709-1.886 1.04-.09 5.673-.259 11.324-.259 17.02 0 378.406 202.39 709.271 504.649 891.061 1.04-.62 2.15-1.13 3.184-1.75 5.094 3.03 10.387 5.71 15.592 8.57 308.563-180.26 516.017-514.735 516.017-897.881 0-1.24-.06-2.465-.07-3.702-1.93-1.155-3.76-2.445-5.71-3.575 2.25-17.002 3.43-34.321 4.03-51.777-3.53-62.833-12.57-124.171-26.77-183.525C951.81 91.061 756.488-57.032 526.89-56.031Z"/></defs><g vectornator:layerName="Layer 1"><g vectornator:layerName="Group 4"><use vectornator:layerName="Oval 1" xlink:href="#a" fill="url(#b)" stroke="#007063" stroke-linecap="butt" stroke-linejoin="miter" stroke-width="40"/><clipPath id="c" clip-rule="nonzero"><use xlink:href="#a"/></clipPath><g vectornator:layerName="Group 3" clip-path="url(#c)"><path vectornator:layerName="path" fill="url(#d)" stroke="#007063" stroke-linecap="butt" stroke-linejoin="miter" stroke-width="40" d="M526.89-56.031c-219.954.959-407.267 138.433-482.3 331.777-19.167 73.108-30.761 149.294-33.456 227.768.468 6.099.886 12.215 1.559 18.255-.64.327-1.247.709-1.886 1.04-.09 5.673-.259 11.324-.259 17.02 0 378.406 202.39 709.271 504.649 891.061 1.04-.62 2.15-1.13 3.184-1.75 5.094 3.03 10.387 5.71 15.592 8.57 308.563-180.26 516.017-514.735 516.017-897.881 0-1.24-.06-2.465-.07-3.702-1.93-1.155-3.76-2.445-5.71-3.575 2.25-17.002 3.43-34.321 4.03-51.777-3.53-62.833-12.57-124.171-26.77-183.525C951.81 91.061 756.488-57.032 526.89-56.031Z" opacity=".332"/><g vectornator:layerName="path"><use vectornator:layerName="path" xlink:href="#e" fill="url(#f)" stroke="#007063" stroke-linecap="butt" stroke-linejoin="miter" stroke-width="40"/><clipPath id="g" clip-rule="nonzero"><use xlink:href="#e"/></clipPath><g stroke="#007063" stroke-linecap="butt" stroke-linejoin="miter" stroke-width="40" clip-path="url(#g)"><path vectornator:layerName="Oval 1" fill="url(#h)" d="M9.42 465.917C8.17 178.886 239.84-54.813 526.872-56.063c287.031-1.251 520.728 230.42 521.978 517.451 1.25 287.031-230.416 520.729-517.448 521.981-287.032 1.25-520.73-230.42-521.982-517.452Z"/><path vectornator:layerName="Oval 2" fill="url(#i)" d="M-270.617 986.864c-1.251-287.032 230.42-520.73 517.451-521.981 287.031-1.251 520.731 230.42 521.981 517.451 1.252 287.036-230.421 520.736-517.452 521.986-287.03 1.25-520.729-230.43-521.98-517.456Z"/><path vectornator:layerName="Oval 3" fill="url(#j)" d="M264.061 984.533c-1.25-287.031 230.421-520.729 517.452-521.981 287.027-1.25 520.737 230.421 521.987 517.452 1.25 287.036-230.42 520.726-517.456 521.976-287.033 1.26-520.731-230.42-521.983-517.447Z"/></g></g></g></g><path vectornator:layerName="Oval 1" fill="none" stroke="#007063" stroke-linecap="butt" stroke-linejoin="miter" stroke-width="40" d="M22.27 530.27c0-280.561 227.439-508 508-508 280.561 0 508 227.439 508 508 0 280.561-227.439 508-508 508-280.561 0-508-227.439-508-508Z"/></g></svg>