<svg xmlns="http://www.w3.org/2000/svg" xmlns:xlink="http://www.w3.org/1999/xlink" xml:space="preserve" stroke-miterlimit="10" style="fill-rule:nonzero;clip-rule:evenodd;stroke-linecap:round;stroke-linejoin:round" viewBox="0 0 1024 1024"><defs><linearGradient id="c" x1="0" x2="1024" y1="512" y2="512" gradientUnits="userSpaceOnUse"><stop offset="0" stop-color="#4aff75"/><stop offset="1" stop-color="#55e6ff"/></linearGradient><linearGradient id="e" x1="517.664" x2="1349.06" y1="1445.43" y2="535.877" gradientTransform="scale(.53333)" gradientUnits="userSpaceOnUse"><stop offset="0" stop-color="#eafaff"/><stop offset="1" stop-color="#ebffee"/></linearGradient><linearGradient id="f" x1="110.66" x2="1004.79" y1="886.748" y2="126.875" gradientUnits="userSpaceOnUse"><stop offset="0" stop-color="#4aff75"/><stop offset="1" stop-color="#55e6ff"/></linearGradient><linearGradient id="h" x1="346.052" x2="695.167" y1="731.6" y2="331.603" gradientUnits="userSpaceOnUse"><stop offset="0" stop-color="#4aff75"/><stop offset="1" stop-color="#55e6ff"/></linearGradient><filter id="g" width="1063" height="1063" x="-19.501" y="-19.501" color-interpolation-filters="sRGB" filterUnits="userSpaceOnUse"><feDropShadow dx="0" dy="0" flood-color="#486855" flood-opacity="1" in="SourceGraphic" result="Shadow" stdDeviation="7.8"/></filter><filter id="i" width="518.071" height="518.071" x="252.964" y="252.964" color-interpolation-filters="sRGB" filterUnits="userSpaceOnUse"><feDropShadow dx="0" dy="0" flood-color="#486855" flood-opacity="1" in="SourceGraphic" result="Shadow" stdDeviation="7.8"/></filter><path id="b" d="m512 0-65.844 242.594c21.108-5.141 43.154-7.938 65.844-7.938 22.69 0 44.736 2.797 65.844 7.938L512 0ZM149.969 149.969l124.969 218a278.806 278.806 0 0 1 93.031-93.031l-218-124.969Zm724.062 0-218 124.969a278.806 278.806 0 0 1 93.031 93.031l124.969-218ZM512 272.469c-132.291 0-239.531 107.24-239.531 239.531S379.709 751.531 512 751.531 751.531 644.291 751.531 512 644.291 272.469 512 272.469ZM242.594 446.156 0 512l242.594 65.844c-5.141-21.108-7.938-43.154-7.938-65.844 0-22.69 2.797-44.736 7.938-65.844Zm538.812 0c5.141 21.108 7.938 43.154 7.938 65.844 0 22.69-2.798 44.736-7.938 65.844L1024 512l-242.594-65.844ZM274.938 656.031l-124.969 218 218-124.969a278.806 278.806 0 0 1-93.031-93.031Zm474.124 0a278.806 278.806 0 0 1-93.031 93.031l218 124.969-124.969-218ZM446.156 781.406 512 1024l65.844-242.594c-21.108 5.141-43.154 7.938-65.844 7.938-22.69 0-44.736-2.798-65.844-7.938Z"/></defs><clipPath id="a"><path d="M0 0h1024v1024H0z"/></clipPath><g clip-path="url(#a)"><use xlink:href="#b" fill="url(#c)"/><clipPath id="d" clip-rule="nonzero"><use xlink:href="#b"/></clipPath><g clip-path="url(#d)"><path fill="url(#e)" d="M0 0h1024v1024H0V0Z"/></g><g opacity=".4"><path fill="url(#f)" d="m512 0-65.836 242.585c21.108-5.14 43.146-7.938 65.836-7.938 22.69 0 44.728 2.798 65.836 7.938L512 0ZM149.954 149.954l124.992 218.018a278.795 278.795 0 0 1 93.026-93.026L149.954 149.954Zm724.092 0L656.028 274.946a278.795 278.795 0 0 1 93.026 93.026l124.992-218.018Zm-631.461 296.21L0 512l242.585 65.836c-5.14-21.108-7.938-43.146-7.938-65.836 0-22.69 2.798-44.728 7.938-65.836Zm538.83 0c5.14 21.108 7.938 43.146 7.938 65.836 0 22.69-2.798 44.728-7.938 65.836L1024 512l-242.585-65.836ZM274.946 656.028 149.954 874.046l218.018-124.992a278.795 278.795 0 0 1-93.026-93.026Zm474.108 0a278.795 278.795 0 0 1-93.026 93.026l218.018 124.992-124.992-218.018Zm-302.89 125.387L512 1024l65.836-242.585c-21.108 5.14-43.146 7.938-65.836 7.938-22.69 0-44.728-2.798-65.836-7.938Z" filter="url(#g)"/><path fill="url(#h)" d="M272.465 512c0-132.291 107.244-239.535 239.535-239.535S751.535 379.709 751.535 512 644.291 751.535 512 751.535 272.465 644.291 272.465 512Z" filter="url(#i)"/></g></g></svg>