<svg xmlns="http://www.w3.org/2000/svg" xmlns:vectornator="http://vectornator.io" xml:space="preserve" stroke-miterlimit="10" style="fill-rule:nonzero;clip-rule:evenodd;stroke-linecap:round;stroke-linejoin:round" viewBox="0 0 24 24"><g vectornator:layerName="Untitled" stroke="#000" stroke-width="1.5"><path vectornator:layerName="path" d="M17.56 12.556a.556.556 0 1 0 0-1.112.556.556 0 0 0 0 1.112ZM12 12.556a.556.556 0 1 0 0-1.112.556.556 0 0 0 0 1.112ZM6.44 12.556a.556.556 0 1 0 0-1.112.556.556 0 0 0 0 1.112Z"/><path vectornator:layerName="path" fill="none" d="M12 23.119c6.14 0 11.119-4.978 11.119-11.119C23.119 5.86 18.14.881 12 .881 5.86.881.881 5.86.881 12c0 2.025.542 3.924 1.488 5.56l-.932 5.003 5.004-.932A11.068 11.068 0 0 0 12 23.12Z"/></g></svg>