<svg xmlns="http://www.w3.org/2000/svg" xmlns:vectornator="http://vectornator.io" xml:space="preserve" stroke-miterlimit="10" style="fill-rule:nonzero;clip-rule:evenodd;stroke-linecap:round;stroke-linejoin:round" viewBox="0 0 1024 1024"><g vectornator:layerName="Layer 1"><path vectornator:layerName="Curve 1" fill="#fafafa" d="M512 49C256.299 49 49 256.299 49 512s207.299 463 463 463 463-207.299 463-463S767.701 49 512 49ZM274.719 237.219c55.164.228 139.054 94.143 163.219 123.093 1.138 1.139 2.035 2.508 2.718 3.876 5.929 10.941 1.827 24.855-9.344 30.781-1.823.913-44.688 23.486-117.406 24.625h-2.031c-39.664 0-71.113-18.915-86.844-51.969-17.097-36.929-11.196-85.271 14.563-114.906 8.89-10.258 20.764-14.588 35.125-15.5Zm473.906 0h.437c13.226-.229 26 5.471 34.657 15.5 25.76 29.862 31.922 78.206 14.593 114.906-15.499 33.054-46.961 51.969-86.624 51.969h-1.126c-70.874-1.095-113.811-22.325-118.781-24.844h.688c-1.37-.684-2.731-1.611-3.875-2.75-9.568-8.207-10.924-22.553-2.719-32.125 24.164-28.722 107.813-122.428 162.75-122.656Zm-2.281 45.219c-16.72 1.491-61.622 37.382-103.938 82.687 22.109 5.7 44.918 8.865 67.938 9.094 23.253 1.141 38.513-8.424 46.718-25.75 9.576-20.744 6.154-49.691-7.75-65.875-.854-.214-1.854-.256-2.968-.156Zm-470.719.156c-.684 0-1.379-.01-2.063.218-13.221 15.959-16.637 44.92-7.062 65.438 8.206 17.553 23.727 26.889 46.75 25.75 23.024-.229 45.794-3.425 67.906-9.125-43.083-46.047-89.118-82.281-105.531-82.281Zm236.156 114.437c6.725 0 13.451 2.717 17.781 8.188l91.188 114c3.192 4.102 5 9.104 5 14.343 0 12.542-10.24 22.813-22.781 22.813H420.594c-8.662 0-16.626-5.028-20.5-13-3.877-7.753-2.75-17.086 2.718-24.156l91.188-114c4.331-5.471 11.056-8.188 17.781-8.188Zm0 59.031-43.75 54.719h87.531l-43.781-54.719Zm-354.156 11.563a22.787 22.787 0 0 1 19.063 9.625c41.944 59.727 95.512 105.57 158.656 136.344 9.802 4.787 14.807 15.944 11.844 26.656l-3.876 13.688 44.469 12.531 2.031-7.531c3.42-11.857 15.521-18.904 27.376-15.938 62.231 15.041 127.174 15.033 189.406.219 12.082-2.733 24.416 4.574 27.375 16.656l1.593 6.375L680 654.844l-3.844-14.813c-2.74-10.493 2.495-21.431 12.063-26.219 63.376-30.773 116.954-76.59 159.125-136.312 6.157-8.664 17.761-12.082 27.562-7.75 9.809 4.33 15.291 14.818 13.469 25.531-.685 3.193-63.83 306.376-328.031 337.375-6.384.685-12.994-1.383-17.782-5.718-5.015-4.329-7.75-10.485-7.75-17.094v-25.532h-45.593v25.532c0 12.541-10.275 22.812-22.813 22.812-.91 0-1.587-.25-2.5-.25-288.135-30.999-328.013-335.996-328.468-339.187-.913-8.435 2.724-16.65 9.562-21.438a22.473 22.473 0 0 1 12.625-4.156Zm48 112.219c30.774 77.046 97.361 178.706 237.781 203.781v-22.094c0-12.533 10.243-22.812 22.782-22.812h91.187c12.534 0 22.781 10.278 22.781 22.812v21.438c120.135-24.616 188.757-117.189 225.906-192.188-25.067 21.432-52.197 40.344-81.374 55.844l5 19.375c3.192 12.315-4.325 24.621-16.407 27.812l-88.656 22.594c-12.308 3.185-24.621-4.122-27.813-16.437L595 692.688c-55.394 10.486-112.18 10.267-167.344-.219l-2.5 8.875c-3.648 12.082-16.168 19.143-28.25 15.718l-88-25.062h-.218c-12.081-3.651-18.92-16.199-15.5-28.281l5-17.75c-33.51-18.014-64.524-40.365-92.563-66.125Z"/></g></svg>