<?xml version="1.0" encoding="UTF-8" standalone="no"?>
<!DOCTYPE svg PUBLIC "-//W3C//DTD SVG 1.1//EN" "http://www.w3.org/Graphics/SVG/1.1/DTD/svg11.dtd">
<!-- Created with Vectornator (http://vectornator.io/) -->
<svg height="100%" stroke-miterlimit="10" style="fill-rule:nonzero;clip-rule:evenodd;stroke-linecap:round;stroke-linejoin:round;" version="1.1" viewBox="0 0 127.275 60.9839" width="100%" xml:space="preserve" xmlns="http://www.w3.org/2000/svg" xmlns:vectornator="http://vectornator.io" xmlns:xlink="http://www.w3.org/1999/xlink">
<defs>
<linearGradient gradientTransform="matrix(1 0 0 1 -0.159375 -2.5)" gradientUnits="userSpaceOnUse" id="LinearGradient" x1="63.6232" x2="63.8456" y1="2.88299" y2="61.7373">
<stop offset="0" stop-color="#e7e7e7"/>
<stop offset="1" stop-color="#ededed" stop-opacity="0"/>
</linearGradient>
</defs>
<g id="Layer-1" vectornator:layerName="Layer 1">
<path d="M35.7156 0C34.1213 0 32.89 0.45059 31.9968 1.34375C31.1037 2.23691 30.6531 3.49052 30.6531 5.09375C30.6531 6.24146 30.8896 7.2051 31.3406 7.9688C31.7916 8.7324 32.3649 9.2722 33.0906 9.625C33.8163 9.9778 34.7331 10.1562 35.8406 10.1562C36.9303 10.1562 37.8604 9.9711 38.5906 9.5625C39.3208 9.1539 39.8606 8.5784 40.2468 7.8438C40.6331 7.10912 40.8406 6.17897 40.8406 5.03125C40.8406 3.45035 40.3811 2.22128 39.4968 1.34375C38.6126 0.46622 37.3501 0 35.7156 0ZM77.7468 0C76.1525 0 74.9213 0.45059 74.0281 1.34375C73.1349 2.23691 72.6844 3.49052 72.6844 5.09375C72.6844 6.24146 72.8896 7.2051 73.3406 7.9688C73.7917 8.7324 74.3962 9.2722 75.1218 9.625C75.8475 9.9778 76.7643 10.1562 77.8718 10.1562C78.9615 10.1562 79.8604 9.9711 80.5906 9.5625C81.3208 9.1539 81.8918 8.5784 82.2781 7.8438C82.6644 7.10912 82.8406 6.17897 82.8406 5.03125C82.8406 3.45035 82.4123 2.22128 81.5281 1.34375C80.6439 0.46622 79.3813 0 77.7468 0ZM120.122 0C118.528 0 117.297 0.45059 116.403 1.34375C115.51 2.23691 115.06 3.49052 115.06 5.09375C115.06 6.24146 115.265 7.2051 115.716 7.9688C116.167 8.7324 116.772 9.2722 117.497 9.625C118.223 9.9778 119.14 10.1562 120.247 10.1562C121.337 10.1562 122.236 9.9711 122.966 9.5625C123.696 9.1539 124.267 8.5784 124.653 7.8438C125.04 7.10912 125.216 6.17897 125.216 5.03125C125.216 3.45035 124.788 2.22128 123.903 1.34375C123.019 0.46622 121.757 0 120.122 0ZM2.59063 0.1875L2.59063 2.28125L7.52813 2.28125L2.05938 7.9688L2.05938 10L11.3718 10L11.3718 7.875L5.68438 7.875L11.1844 2.15625L11.1844 0.1875L2.59063 0.1875ZM12.8718 0.1875L12.8718 10L15.9031 10L15.9031 0.1875L12.8718 0.1875ZM18.0594 0.1875L18.0594 10L20.5281 10L20.5281 2.5L22.4656 10L24.7156 10L26.6218 2.5L26.6218 10L29.0906 10L29.0906 0.1875L25.1218 0.1875L23.5906 6.15625L22.0594 0.1875L18.0594 0.1875ZM44.6218 0.1875L44.6218 2.28125L49.5281 2.28125L44.0906 7.9688L44.0906 10L53.4031 10L53.4031 7.875L47.6844 7.875L53.2156 2.15625L53.2156 0.1875L44.6218 0.1875ZM54.9031 0.1875L54.9031 10L57.9344 10L57.9344 0.1875L54.9031 0.1875ZM60.0906 0.1875L60.0906 10L62.5594 10L62.5594 2.5L64.4656 10L66.7156 10L68.6531 2.5L68.6531 10L71.1218 10L71.1218 0.1875L67.1531 0.1875L65.6218 6.15625L64.0594 0.1875L60.0906 0.1875ZM86.9968 0.1875L86.9968 2.28125L91.9031 2.28125L86.4656 7.9688L86.4656 10L95.7781 10L95.7781 7.875L90.0594 7.875L95.5594 2.15625L95.5594 0.1875L86.9968 0.1875ZM97.2781 0.1875L97.2781 10L100.31 10L100.31 0.1875L97.2781 0.1875ZM102.435 0.1875L102.435 10L104.935 10L104.935 2.5L106.841 10L109.091 10L111.029 2.5L111.029 10L113.497 10L113.497 0.1875L109.529 0.1875L107.966 6.15625L106.435 0.1875L102.435 0.1875ZM35.7156 2.3125C36.3542 2.3125 36.874 2.51101 37.2468 2.9375C37.6197 3.36399 37.8094 4.04433 37.8094 4.96875C37.8093 6.06734 37.6354 6.82575 37.2781 7.25C36.9208 7.6743 36.3989 7.9062 35.7468 7.9062C35.1127 7.9062 34.6153 7.6832 34.2468 7.25C33.8784 6.81682 33.6844 6.11641 33.6844 5.125C33.6844 4.12466 33.8762 3.40193 34.2468 2.96875C34.6175 2.53557 35.1038 2.3125 35.7156 2.3125ZM77.7468 2.3125C78.3855 2.3125 78.8739 2.51101 79.2468 2.9375C79.6197 3.36399 79.8094 4.04433 79.8094 4.96875C79.8093 6.06734 79.6354 6.82575 79.2781 7.25C78.9208 7.6743 78.4301 7.9062 77.7781 7.9062C77.144 7.9063 76.6465 7.6832 76.2781 7.25C75.9097 6.81682 75.7156 6.11641 75.7156 5.125C75.7156 4.12466 75.9074 3.40193 76.2781 2.96875C76.6488 2.53557 77.135 2.3125 77.7468 2.3125ZM120.122 2.3125C120.761 2.3125 121.249 2.51101 121.622 2.9375C121.995 3.36399 122.185 4.04433 122.185 4.96875C122.185 6.06734 122.011 6.82575 121.653 7.25C121.296 7.6743 120.806 7.9062 120.153 7.9062C119.519 7.9062 118.991 7.6832 118.622 7.25C118.254 6.81682 118.091 6.11641 118.091 5.125C118.091 4.12466 118.283 3.40193 118.653 2.96875C119.024 2.53557 119.51 2.3125 120.122 2.3125ZM35.7156 12.4688C34.1213 12.4687 32.89 12.9193 31.9968 13.8125C31.1037 14.7057 30.6531 15.9593 30.6531 17.5625C30.6531 18.7102 30.8896 19.6426 31.3406 20.4062C31.7916 21.1699 32.3649 21.7409 33.0906 22.0938C33.8163 22.4466 34.7331 22.625 35.8406 22.625C36.9303 22.625 37.8604 22.4086 38.5906 22C39.3208 21.5914 39.8606 21.0159 40.2468 20.2812C40.6331 19.5466 40.8406 18.6165 40.8406 17.4688C40.8406 15.8878 40.3811 14.6588 39.4968 13.7812C38.6126 12.9037 37.3501 12.4688 35.7156 12.4688ZM77.7468 12.4688C76.1525 12.4687 74.9213 12.9193 74.0281 13.8125C73.1349 14.7057 72.6844 15.9593 72.6844 17.5625C72.6844 18.7102 72.8896 19.6426 73.3406 20.4062C73.7917 21.1699 74.3962 21.7409 75.1218 22.0938C75.8475 22.4466 76.7643 22.625 77.8718 22.625C78.9615 22.625 79.8604 22.4086 80.5906 22C81.3208 21.5914 81.8918 21.0159 82.2781 20.2812C82.6644 19.5466 82.8406 18.6165 82.8406 17.4688C82.8406 15.8878 82.4123 14.6588 81.5281 13.7812C80.6439 12.9037 79.3813 12.4688 77.7468 12.4688ZM120.122 12.4688C118.528 12.4687 117.297 12.9193 116.403 13.8125C115.51 14.7057 115.06 15.9593 115.06 17.5625C115.06 18.7102 115.265 19.6426 115.716 20.4062C116.167 21.1699 116.772 21.7409 117.497 22.0938C118.223 22.4466 119.14 22.625 120.247 22.625C121.337 22.625 122.236 22.4086 122.966 22C123.696 21.5914 124.267 21.0159 124.653 20.2812C125.04 19.5466 125.216 18.6165 125.216 17.4688C125.216 15.8878 124.788 14.6588 123.903 13.7812C123.019 12.9037 121.757 12.4688 120.122 12.4688ZM2.59063 12.625L2.59063 14.7188L7.52813 14.7188L2.05938 20.4062L2.05938 22.4688L11.3718 22.4688L11.3718 20.3438L5.68438 20.3438L11.1844 14.5938L11.1844 12.625L2.59063 12.625ZM12.8718 12.625L12.8718 22.4688L15.9031 22.4688L15.9031 12.625L12.8718 12.625ZM18.0594 12.625L18.0594 22.4688L20.5281 22.4688L20.5281 14.9688L22.4656 22.4688L24.7156 22.4688L26.6218 14.9688L26.6218 22.4688L29.0906 22.4688L29.0906 12.625L25.1218 12.625L23.5906 18.5938L22.0594 12.625L18.0594 12.625ZM44.6218 12.625L44.6218 14.7188L49.5281 14.7188L44.0906 20.4062L44.0906 22.4688L53.4031 22.4688L53.4031 20.3438L47.6844 20.3438L53.2156 14.5938L53.2156 12.625L44.6218 12.625ZM54.9031 12.625L54.9031 22.4688L57.9344 22.4688L57.9344 12.625L54.9031 12.625ZM60.0906 12.625L60.0906 22.4688L62.5594 22.4688L62.5594 14.9688L64.4656 22.4688L66.7156 22.4688L68.6531 14.9688L68.6531 22.4688L71.1218 22.4688L71.1218 12.625L67.1531 12.625L65.6218 18.5938L64.0594 12.625L60.0906 12.625ZM86.9968 12.625L86.9968 14.7188L91.9031 14.7188L86.4656 20.4062L86.4656 22.4688L95.7781 22.4688L95.7781 20.3438L90.0594 20.3438L95.5594 14.5938L95.5594 12.625L86.9968 12.625ZM97.2781 12.625L97.2781 22.4688L100.31 22.4688L100.31 12.625L97.2781 12.625ZM102.435 12.625L102.435 22.4688L104.935 22.4688L104.935 14.9688L106.841 22.4688L109.091 22.4688L111.029 14.9688L111.029 22.4688L113.497 22.4688L113.497 12.625L109.529 12.625L107.966 18.5938L106.435 12.625L102.435 12.625ZM35.7156 14.75C36.3542 14.75 36.874 14.9798 37.2468 15.4062C37.6197 15.8327 37.8094 16.5131 37.8094 17.4375C37.8093 18.5361 37.6354 19.2945 37.2781 19.7188C36.9208 20.143 36.3989 20.3438 35.7468 20.3438C35.1127 20.3438 34.6153 20.1207 34.2468 19.6875C33.8784 19.2543 33.6844 18.5539 33.6844 17.5625C33.6844 16.5622 33.8762 15.8394 34.2468 15.4062C34.6175 14.9731 35.1038 14.75 35.7156 14.75ZM77.7468 14.75C78.3855 14.75 78.8739 14.9798 79.2468 15.4062C79.6197 15.8327 79.8094 16.5131 79.8094 17.4375C79.8093 18.5361 79.6354 19.2945 79.2781 19.7188C78.9208 20.143 78.4301 20.3438 77.7781 20.3438C77.144 20.3438 76.6465 20.1207 76.2781 19.6875C75.9097 19.2543 75.7156 18.5539 75.7156 17.5625C75.7156 16.5622 75.9074 15.8394 76.2781 15.4062C76.6488 14.9731 77.135 14.75 77.7468 14.75ZM120.122 14.75C120.761 14.75 121.249 14.9798 121.622 15.4062C121.995 15.8327 122.185 16.5131 122.185 17.4375C122.185 18.5361 122.011 19.2945 121.653 19.7188C121.296 20.143 120.806 20.3438 120.153 20.3438C119.519 20.3438 118.991 20.1207 118.622 19.6875C118.254 19.2543 118.091 18.5539 118.091 17.5625C118.091 16.5622 118.283 15.8394 118.653 15.4062C119.024 14.9731 119.51 14.75 120.122 14.75ZM35.7156 24.625C34.1213 24.625 32.89 25.0756 31.9968 25.9688C31.1037 26.8619 30.6531 28.1155 30.6531 29.7188C30.6531 30.8665 30.8896 31.7988 31.3406 32.5625C31.7916 33.3262 32.3649 33.8972 33.0906 34.25C33.8163 34.6028 34.7331 34.7812 35.8406 34.7812C36.9303 34.7812 37.8604 34.5649 38.5906 34.1562C39.3208 33.7476 39.8606 33.1721 40.2468 32.4375C40.6331 31.7029 40.8406 30.7727 40.8406 29.625C40.8406 28.0441 40.3811 26.815 39.4968 25.9375C38.6126 25.06 37.3501 24.625 35.7156 24.625ZM77.7468 24.625C76.1525 24.625 74.9213 25.0756 74.0281 25.9688C73.1349 26.8619 72.6844 28.1155 72.6844 29.7188C72.6844 30.8665 72.8896 31.7988 73.3406 32.5625C73.7917 33.3262 74.3962 33.8972 75.1218 34.25C75.8475 34.6028 76.7643 34.7812 77.8718 34.7812C78.9615 34.7812 79.8604 34.5649 80.5906 34.1562C81.3208 33.7476 81.8918 33.1721 82.2781 32.4375C82.6644 31.7029 82.8406 30.7727 82.8406 29.625C82.8406 28.0441 82.4123 26.815 81.5281 25.9375C80.6439 25.06 79.3813 24.625 77.7468 24.625ZM120.122 24.625C118.528 24.625 117.297 25.0756 116.403 25.9688C115.51 26.8619 115.06 28.1155 115.06 29.7188C115.06 30.8665 115.265 31.7988 115.716 32.5625C116.167 33.3262 116.772 33.8972 117.497 34.25C118.223 34.6028 119.14 34.7812 120.247 34.7812C121.337 34.7812 122.236 34.5649 122.966 34.1562C123.696 33.7476 124.267 33.1721 124.653 32.4375C125.04 31.7029 125.216 30.7727 125.216 29.625C125.216 28.0441 124.788 26.815 123.903 25.9375C123.019 25.06 121.757 24.625 120.122 24.625ZM2.59063 24.7812L2.59063 26.875L7.52813 26.875L2.05938 32.5625L2.05938 34.625L11.3718 34.625L11.3718 32.5L5.68438 32.5L11.1844 26.75L11.1844 24.7812L2.59063 24.7812ZM12.8718 24.7812L12.8718 34.625L15.9031 34.625L15.9031 24.7812L12.8718 24.7812ZM18.0594 24.7812L18.0594 34.625L20.5281 34.625L20.5281 27.125L22.4656 34.625L24.7156 34.625L26.6218 27.125L26.6218 34.625L29.0906 34.625L29.0906 24.7812L25.1218 24.7812L23.5906 30.7812L22.0594 24.7812L18.0594 24.7812ZM44.6218 24.7812L44.6218 26.875L49.5281 26.875L44.0906 32.5625L44.0906 34.625L53.4031 34.625L53.4031 32.5L47.6844 32.5L53.2156 26.75L53.2156 24.7812L44.6218 24.7812ZM54.9031 24.7812L54.9031 34.625L57.9344 34.625L57.9344 24.7812L54.9031 24.7812ZM60.0906 24.7812L60.0906 34.625L62.5594 34.625L62.5594 27.125L64.4656 34.625L66.7156 34.625L68.6531 27.125L68.6531 34.625L71.1218 34.625L71.1218 24.7812L67.1531 24.7812L65.6218 30.7812L64.0594 24.7812L60.0906 24.7812ZM86.9968 24.7812L86.9968 26.875L91.9031 26.875L86.4656 32.5625L86.4656 34.625L95.7781 34.625L95.7781 32.5L90.0594 32.5L95.5594 26.75L95.5594 24.7812L86.9968 24.7812ZM97.2781 24.7812L97.2781 34.625L100.31 34.625L100.31 24.7812L97.2781 24.7812ZM102.435 24.7812L102.435 34.625L104.935 34.625L104.935 27.125L106.841 34.625L109.091 34.625L111.029 27.125L111.029 34.625L113.497 34.625L113.497 24.7812L109.529 24.7812L107.966 30.7812L106.435 24.7812L102.435 24.7812ZM35.7156 26.9062C36.3542 26.9062 36.874 27.136 37.2468 27.5625C37.6197 27.989 37.8094 28.6693 37.8094 29.5938C37.8093 30.6923 37.6354 31.4507 37.2781 31.875C36.9208 32.2993 36.3989 32.5 35.7468 32.5C35.1127 32.5 34.6153 32.2769 34.2468 31.8438C33.8784 31.4106 33.6844 30.7102 33.6844 29.7188C33.6844 28.7184 33.8762 27.9957 34.2468 27.5625C34.6175 27.1293 35.1038 26.9062 35.7156 26.9062ZM77.7468 26.9062C78.3855 26.9062 78.8739 27.136 79.2468 27.5625C79.6197 27.989 79.8094 28.6693 79.8094 29.5938C79.8093 30.6923 79.6354 31.4507 79.2781 31.875C78.9208 32.2993 78.4301 32.5 77.7781 32.5C77.144 32.5 76.6465 32.2769 76.2781 31.8438C75.9097 31.4106 75.7156 30.7102 75.7156 29.7188C75.7156 28.7184 75.9074 27.9957 76.2781 27.5625C76.6488 27.1293 77.135 26.9062 77.7468 26.9062ZM120.122 26.9062C120.761 26.9062 121.249 27.136 121.622 27.5625C121.995 27.989 122.185 28.6693 122.185 29.5938C122.185 30.6923 122.011 31.4507 121.653 31.875C121.296 32.2993 120.806 32.5 120.153 32.5C119.519 32.5 118.991 32.2769 118.622 31.8438C118.254 31.4106 118.091 30.7102 118.091 29.7188C118.091 28.7184 118.283 27.9957 118.653 27.5625C119.024 27.1293 119.51 26.9062 120.122 26.9062ZM35.7156 37.0625C34.1213 37.0625 32.89 37.5131 31.9968 38.4062C31.1037 39.2994 30.6531 40.553 30.6531 42.1562C30.6531 43.304 30.8896 44.2676 31.3406 45.0312C31.7916 45.7949 32.3649 46.3347 33.0906 46.6875C33.8163 47.0403 34.7331 47.2188 35.8406 47.2188C36.9303 47.2187 37.8604 47.0336 38.5906 46.625C39.3208 46.2164 39.8606 45.6409 40.2468 44.9062C40.6331 44.1716 40.8406 43.2415 40.8406 42.0938C40.8406 40.5128 40.3811 39.2838 39.4968 38.4062C38.6126 37.5287 37.3501 37.0625 35.7156 37.0625ZM77.7468 37.0625C76.1525 37.0625 74.9213 37.5131 74.0281 38.4062C73.1349 39.2994 72.6844 40.553 72.6844 42.1562C72.6844 43.304 72.8896 44.2676 73.3406 45.0312C73.7917 45.7949 74.3962 46.3347 75.1218 46.6875C75.8475 47.0403 76.7643 47.2188 77.8718 47.2188C78.9615 47.2187 79.8604 47.0336 80.5906 46.625C81.3208 46.2164 81.8918 45.6409 82.2781 44.9062C82.6644 44.1716 82.8406 43.2415 82.8406 42.0938C82.8406 40.5128 82.4123 39.2838 81.5281 38.4062C80.6439 37.5287 79.3813 37.0625 77.7468 37.0625ZM120.122 37.0625C118.528 37.0625 117.297 37.5131 116.403 38.4062C115.51 39.2994 115.06 40.553 115.06 42.1562C115.06 43.304 115.265 44.2676 115.716 45.0312C116.167 45.7949 116.772 46.3347 117.497 46.6875C118.223 47.0403 119.14 47.2188 120.247 47.2188C121.337 47.2187 122.236 47.0336 122.966 46.625C123.696 46.2164 124.267 45.6409 124.653 44.9062C125.04 44.1716 125.216 43.2415 125.216 42.0938C125.216 40.5128 124.788 39.2838 123.903 38.4062C123.019 37.5287 121.757 37.0625 120.122 37.0625ZM2.59063 37.25L2.59063 39.3438L7.52813 39.3438L2.05938 45.0312L2.05938 47.0625L11.3718 47.0625L11.3718 44.9688L5.68438 44.9688L11.1844 39.2188L11.1844 37.25L2.59063 37.25ZM12.8718 37.25L12.8718 47.0625L15.9031 47.0625L15.9031 37.25L12.8718 37.25ZM18.0594 37.25L18.0594 47.0625L20.5281 47.0625L20.5281 39.5625L22.4656 47.0625L24.7156 47.0625L26.6218 39.5625L26.6218 47.0625L29.0906 47.0625L29.0906 37.25L25.1218 37.25L23.5906 43.2188L22.0594 37.25L18.0594 37.25ZM44.6218 37.25L44.6218 39.3438L49.5281 39.3438L44.0906 45.0312L44.0906 47.0625L53.4031 47.0625L53.4031 44.9688L47.6844 44.9688L53.2156 39.2188L53.2156 37.25L44.6218 37.25ZM54.9031 37.25L54.9031 47.0625L57.9344 47.0625L57.9344 37.25L54.9031 37.25ZM60.0906 37.25L60.0906 47.0625L62.5594 47.0625L62.5594 39.5625L64.4656 47.0625L66.7156 47.0625L68.6531 39.5625L68.6531 47.0625L71.1218 47.0625L71.1218 37.25L67.1531 37.25L65.6218 43.2188L64.0594 37.25L60.0906 37.25ZM86.9968 37.25L86.9968 39.3438L91.9031 39.3438L86.4656 45.0312L86.4656 47.0625L95.7781 47.0625L95.7781 44.9688L90.0594 44.9688L95.5594 39.2188L95.5594 37.25L86.9968 37.25ZM97.2781 37.25L97.2781 47.0625L100.31 47.0625L100.31 37.25L97.2781 37.25ZM102.435 37.25L102.435 47.0625L104.935 47.0625L104.935 39.5625L106.841 47.0625L109.091 47.0625L111.029 39.5625L111.029 47.0625L113.497 47.0625L113.497 37.25L109.529 37.25L107.966 43.2188L106.435 37.25L102.435 37.25ZM35.7156 39.375C36.3542 39.375 36.874 39.5735 37.2468 40C37.6197 40.4265 37.8094 41.1068 37.8094 42.0312C37.8093 43.1298 37.6354 43.8882 37.2781 44.3125C36.9208 44.7368 36.3989 44.9688 35.7468 44.9688C35.1127 44.9688 34.6153 44.7457 34.2468 44.3125C33.8784 43.8793 33.6844 43.1789 33.6844 42.1875C33.6844 41.1871 33.8762 40.4644 34.2468 40.0312C34.6175 39.5981 35.1038 39.375 35.7156 39.375ZM77.7468 39.375C78.3855 39.375 78.8739 39.5735 79.2468 40C79.6197 40.4265 79.8094 41.1068 79.8094 42.0312C79.8093 43.1298 79.6354 43.8882 79.2781 44.3125C78.9208 44.7368 78.4301 44.9688 77.7781 44.9688C77.144 44.9688 76.6465 44.7457 76.2781 44.3125C75.9097 43.8793 75.7156 43.1789 75.7156 42.1875C75.7156 41.1871 75.9074 40.4644 76.2781 40.0312C76.6488 39.5981 77.135 39.375 77.7468 39.375ZM120.122 39.375C120.761 39.375 121.249 39.5735 121.622 40C121.995 40.4265 122.185 41.1068 122.185 42.0312C122.185 43.1298 122.011 43.8882 121.653 44.3125C121.296 44.7368 120.806 44.9688 120.153 44.9688C119.519 44.9688 118.991 44.7457 118.622 44.3125C118.254 43.8793 118.091 43.1789 118.091 42.1875C118.091 41.1871 118.283 40.4644 118.653 40.0312C119.024 39.5981 119.51 39.375 120.122 39.375ZM35.7156 49.125C34.1213 49.125 32.89 49.5443 31.9968 50.4375C31.1037 51.3307 30.6531 52.5843 30.6531 54.1875C30.6531 55.3352 30.8896 56.2988 31.3406 57.0625C31.7916 57.8262 32.3649 58.3972 33.0906 58.75C33.8163 59.1028 34.7331 59.2812 35.8406 59.2812C36.9303 59.2812 37.8604 59.0649 38.5906 58.6562C39.3208 58.2476 39.8606 57.6721 40.2468 56.9375C40.6331 56.2029 40.8406 55.2727 40.8406 54.125C40.8406 52.5441 40.3811 51.315 39.4968 50.4375C38.6126 49.56 37.3501 49.125 35.7156 49.125ZM77.7468 49.125C76.1525 49.125 74.9213 49.5443 74.0281 50.4375C73.1349 51.3307 72.6844 52.5843 72.6844 54.1875C72.6844 55.3352 72.8896 56.2988 73.3406 57.0625C73.7917 57.8262 74.3962 58.3972 75.1218 58.75C75.8475 59.1028 76.7643 59.2812 77.8718 59.2812C78.9615 59.2812 79.8604 59.0649 80.5906 58.6562C81.3208 58.2476 81.8918 57.6721 82.2781 56.9375C82.6644 56.2029 82.8406 55.2727 82.8406 54.125C82.8406 52.5441 82.4123 51.315 81.5281 50.4375C80.6439 49.56 79.3813 49.125 77.7468 49.125ZM120.122 49.125C118.528 49.125 117.297 49.5443 116.403 50.4375C115.51 51.3307 115.06 52.5843 115.06 54.1875C115.06 55.3352 115.265 56.2988 115.716 57.0625C116.167 57.8262 116.772 58.3972 117.497 58.75C118.223 59.1028 119.14 59.2812 120.247 59.2812C121.337 59.2812 122.236 59.0649 122.966 58.6562C123.696 58.2476 124.267 57.6721 124.653 56.9375C125.04 56.2029 125.216 55.2727 125.216 54.125C125.216 52.5441 124.788 51.315 123.903 50.4375C123.019 49.56 121.757 49.125 120.122 49.125ZM2.59063 49.2812L2.59063 51.375L7.52813 51.375L2.05938 57.0625L2.05938 59.0938L11.3718 59.0938L11.3718 57L5.68438 57L11.1844 51.25L11.1844 49.2812L2.59063 49.2812ZM12.8718 49.2812L12.8718 59.0938L15.9031 59.0938L15.9031 49.2812L12.8718 49.2812ZM18.0594 49.2812L18.0594 59.0938L20.5281 59.0938L20.5281 51.625L22.4656 59.0938L24.7156 59.0938L26.6218 51.625L26.6218 59.0938L29.0906 59.0938L29.0906 49.2812L25.1218 49.2812L23.5906 55.25L22.0594 49.2812L18.0594 49.2812ZM44.6218 49.2812L44.6218 51.375L49.5281 51.375L44.0906 57.0625L44.0906 59.0938L53.4031 59.0938L53.4031 57L47.6844 57L53.2156 51.25L53.2156 49.2812L44.6218 49.2812ZM54.9031 49.2812L54.9031 59.0938L57.9344 59.0938L57.9344 49.2812L54.9031 49.2812ZM60.0906 49.2812L60.0906 59.0938L62.5594 59.0938L62.5594 51.625L64.4656 59.0938L66.7156 59.0938L68.6531 51.625L68.6531 59.0938L71.1218 59.0938L71.1218 49.2812L67.1531 49.2812L65.6218 55.25L64.0594 49.2812L60.0906 49.2812ZM86.9968 49.2812L86.9968 51.375L91.9031 51.375L86.4656 57.0625L86.4656 59.0938L95.7781 59.0938L95.7781 57L90.0594 57L95.5594 51.25L95.5594 49.2812L86.9968 49.2812ZM97.2781 49.2812L97.2781 59.0938L100.31 59.0938L100.31 49.2812L97.2781 49.2812ZM102.435 49.2812L102.435 59.0938L104.935 59.0938L104.935 51.625L106.841 59.0938L109.091 59.0938L111.029 51.625L111.029 59.0938L113.497 59.0938L113.497 49.2812L109.529 49.2812L107.966 55.25L106.435 49.2812L102.435 49.2812ZM35.7156 51.4062C36.3542 51.4063 36.874 51.636 37.2468 52.0625C37.6197 52.489 37.8094 53.1381 37.8094 54.0625C37.8093 55.1611 37.6354 55.9507 37.2781 56.375C36.9208 56.7993 36.3989 57 35.7468 57C35.1127 57 34.6153 56.7769 34.2468 56.3438C33.8784 55.9106 33.6844 55.2102 33.6844 54.2188C33.6844 53.2184 33.8762 52.4957 34.2468 52.0625C34.6175 51.6293 35.1038 51.4062 35.7156 51.4062ZM77.7468 51.4062C78.3855 51.4063 78.8739 51.636 79.2468 52.0625C79.6197 52.489 79.8094 53.1381 79.8094 54.0625C79.8093 55.1611 79.6354 55.9507 79.2781 56.375C78.9208 56.7993 78.4301 57 77.7781 57C77.144 57 76.6465 56.7769 76.2781 56.3438C75.9097 55.9106 75.7156 55.2102 75.7156 54.2188C75.7156 53.2184 75.9074 52.4957 76.2781 52.0625C76.6488 51.6293 77.135 51.4062 77.7468 51.4062ZM120.122 51.4062C120.761 51.4063 121.249 51.636 121.622 52.0625C121.995 52.489 122.185 53.1381 122.185 54.0625C122.185 55.1611 122.011 55.9507 121.653 56.375C121.296 56.7993 120.806 57 120.153 57C119.519 57 118.991 56.7769 118.622 56.3438C118.254 55.9106 118.091 55.2102 118.091 54.2188C118.091 53.2184 118.283 52.4957 118.653 52.0625C119.024 51.6293 119.51 51.4062 120.122 51.4062Z" fill="url(#LinearGradient)" fill-rule="nonzero" opacity="1" stroke="none" vectornator:layerName="Curve 1"/>
</g>
</svg>
