<svg xmlns="http://www.w3.org/2000/svg" xml:space="preserve" stroke-miterlimit="10" style="fill-rule:nonzero;clip-rule:evenodd;stroke-linecap:round;stroke-linejoin:round" viewBox="0 0 55.115 39.178"><defs><linearGradient id="a" x1="-8.596" x2="62.098" y1="45.297" y2="-5.395" gradientUnits="userSpaceOnUse"><stop offset="0" stop-color="#fbceff"/><stop offset=".487" stop-color="#ffe1e1"/><stop offset="1" stop-color="#d0fff9"/></linearGradient></defs><path fill="url(#a)" d="M5 .219c-1.58 0-2.81.428-3.688 1.312C.435 2.415 0 3.678 0 5.313 0 6.907.45 8.137 1.344 9.03c.893.893 2.147 1.344 3.75 1.344 1.147 0 2.08-.205 2.843-.656.764-.451 1.335-1.056 1.688-1.781.353-.726.531-1.643.531-2.75 0-1.09-.216-1.99-.625-2.72A4.17 4.17 0 0 0 7.812.782C7.079.395 6.149.22 5 .22Zm11.156 0c-1.58 0-2.81.428-3.687 1.312-.878.884-1.313 2.147-1.313 3.782 0 1.594.45 2.825 1.344 3.718.893.893 2.147 1.344 3.75 1.344 1.148 0 2.08-.205 2.844-.656.763-.451 1.334-1.056 1.687-1.781.353-.726.532-1.643.532-2.75 0-1.09-.217-1.99-.625-2.72a4.17 4.17 0 0 0-1.72-1.687C18.235.395 17.305.22 16.157.22Zm11.157 0c-1.581 0-2.81.428-3.688 1.312-.878.884-1.313 2.147-1.313 3.782 0 1.594.451 2.825 1.344 3.718.893.893 2.147 1.344 3.75 1.344 1.148 0 2.08-.205 2.844-.656.764-.451 1.335-1.056 1.688-1.781.352-.726.53-1.643.53-2.75 0-1.09-.216-1.99-.624-2.72A4.172 4.172 0 0 0 30.125.782C29.39.395 28.46.22 27.312.22Zm11.156 0c-1.581 0-2.81.428-3.688 1.312-.877.884-1.312 2.147-1.312 3.782 0 1.594.45 2.825 1.343 3.718.894.893 2.147 1.344 3.75 1.344 1.148 0 2.08-.205 2.844-.656.764-.451 1.335-1.056 1.688-1.781.352-.726.531-1.643.531-2.75 0-1.09-.216-1.99-.625-2.72A4.17 4.17 0 0 0 41.281.782C40.547.395 39.617.22 38.47.22Zm11.156 0c-1.58 0-2.81.428-3.688 1.312-.877.884-1.312 2.147-1.312 3.782 0 1.594.45 2.825 1.344 3.718.893.893 2.146 1.344 3.75 1.344 1.148 0 2.08-.205 2.843-.656.764-.451 1.335-1.056 1.688-1.781.353-.726.531-1.643.531-2.75 0-1.09-.216-1.99-.625-2.72A4.17 4.17 0 0 0 52.438.782C51.703.395 50.773.22 49.624.22ZM4.969 3.25c1.098 0 1.857.174 2.281.531.424.358.625.848.625 1.5 0 .634-.192 1.132-.625 1.5-.433.369-1.165.563-2.156.563-1 0-1.723-.192-2.157-.563-.433-.37-.624-.857-.624-1.468 0-.64.198-1.128.624-1.5.427-.373 1.107-.563 2.032-.563Zm11.156 0c1.099 0 1.857.174 2.281.531.425.358.625.848.625 1.5 0 .634-.223 1.132-.656 1.5-.433.369-1.134.563-2.125.563-1 0-1.723-.192-2.156-.563-.433-.37-.656-.857-.656-1.468 0-.64.23-1.128.656-1.5.426-.373 1.107-.563 2.031-.563Zm11.156 0c1.099 0 1.857.174 2.282.531.424.358.625.848.625 1.5 0 .634-.224 1.132-.657 1.5-.433.369-1.133.563-2.125.563-1 0-1.723-.192-2.156-.563-.433-.37-.656-.857-.656-1.468 0-.64.23-1.128.656-1.5.427-.373 1.107-.563 2.031-.563Zm11.157 0c1.098 0 1.856.174 2.28.531.425.358.626.848.626 1.5 0 .634-.223 1.132-.657 1.5-.433.369-1.133.563-2.124.563-1 0-1.724-.192-2.157-.563-.433-.37-.656-.857-.656-1.468 0-.64.23-1.128.656-1.5.427-.373 1.107-.563 2.032-.563Zm11.156 0c1.098 0 1.857.174 2.281.531.424.358.625.848.625 1.5 0 .634-.223 1.132-.656 1.5-.433.369-1.134.563-2.125.563-1 0-1.723-.192-2.157-.563-.433-.37-.656-.857-.656-1.468 0-.64.23-1.128.657-1.5.426-.373 1.106-.563 2.03-.563ZM.156 11.938v3.968l6 1.531-6 1.563v3.969H10V20.5H2.5l7.5-1.906v-2.25l-7.5-1.938H10v-2.469H.156Zm11.156 0v3.968l6 1.531-6 1.563v3.969h9.844V20.5h-7.5l7.5-1.906v-2.25l-7.5-1.938h7.5v-2.469h-9.843Zm11.157 0v3.968l6 1.531-6 1.563v3.969h9.843V20.5h-7.5l7.5-1.906v-2.25l-7.5-1.938h7.5v-2.469H22.47Zm11.156 0v3.968l5.969 1.531L33.625 19v3.969h9.844V20.5h-7.5l7.5-1.906v-2.25l-7.5-1.938h7.5v-2.469h-9.844Zm11.156 0v3.968l5.969 1.531L44.781 19v3.969h9.813V20.5h-7.469l7.469-1.906v-2.25l-7.469-1.938h7.469v-2.469H44.78ZM.156 25.124v3.031H10v-3.031H.156Zm11.156 0v3.031h9.844v-3.031h-9.843Zm11.157 0v3.031h9.843v-3.031H22.47Zm11.156 0v3.031h9.844v-3.031h-9.844Zm11.156 0v3.031h9.813v-3.031H44.78ZM7.875 29.656v5.719l-5.75-5.531H.156v8.593H2.25v-4.906l5.688 5.438H10v-9.313H7.875Zm11.156 0v5.719l-5.75-5.531h-1.969v8.593h2.094v-4.906l5.688 5.438h2.062v-9.313h-2.125Zm11.157 0v5.719l-5.75-5.531h-1.97v8.593h2.095v-4.906l5.687 5.438h2.063v-9.313h-2.126Zm11.156 0v5.719l-5.75-5.531h-1.969v8.593h2.094v-4.906l5.687 5.438h2.063v-9.313h-2.125Zm11.156 0v5.719l-5.75-5.531h-1.969v8.593h2.094v-4.906l5.688 5.438h2.03v-9.313H52.5Z"/></svg>