<svg xmlns="http://www.w3.org/2000/svg" xmlns:vectornator="http://vectornator.io" xml:space="preserve" stroke-miterlimit="10" style="fill-rule:nonzero;clip-rule:evenodd;stroke-linecap:round;stroke-linejoin:round" viewBox="0 0 84.258 60.984"><defs><linearGradient id="b" x1="63.623" x2="63.846" y1="2.883" y2="61.737" gradientTransform="translate(-.5 -2.5)" gradientUnits="userSpaceOnUse"><stop offset="0" stop-color="#e7e7e7"/><stop offset="1" stop-color="#ededed" stop-opacity="0"/></linearGradient></defs><clipPath id="a"><path d="M0 0h84.258v60.984H0z"/></clipPath><g vectornator:layerName="Layer 1" clip-path="url(#a)"><path vectornator:layerName="Curve 1" fill="url(#b)" d="M35.374 0c-1.594 0-2.825.45-3.718 1.344-.893.893-1.344 2.147-1.344 3.75 0 1.147.236 2.111.687 2.875.451.763 1.025 1.303 1.75 1.656.726.353 1.643.531 2.75.531 1.09 0 2.02-.185 2.75-.594a4.096 4.096 0 0 0 1.657-1.718c.386-.735.593-1.665.593-2.813 0-1.58-.46-2.81-1.343-3.687C38.27.466 37.009 0 35.374 0Zm42.032 0c-1.595 0-2.826.45-3.72 1.344-.892.893-1.343 2.147-1.343 3.75 0 1.147.205 2.111.656 2.875a4.132 4.132 0 0 0 1.782 1.656c.725.353 1.642.531 2.75.531 1.09 0 1.988-.185 2.718-.594a4.17 4.17 0 0 0 1.688-1.718c.386-.735.562-1.665.562-2.813 0-1.58-.428-2.81-1.312-3.687C80.303.466 79.04 0 77.406 0Zm42.375 0c-1.594 0-2.825.45-3.719 1.344-.893.893-1.343 2.147-1.343 3.75 0 1.147.205 2.111.656 2.875a4.134 4.134 0 0 0 1.781 1.656c.726.353 1.643.531 2.75.531 1.09 0 1.989-.185 2.719-.594a4.169 4.169 0 0 0 1.687-1.718c.387-.735.563-1.665.563-2.813 0-1.58-.428-2.81-1.313-3.687C122.678.466 121.416 0 119.781 0ZM2.249.188V2.28h4.938L1.718 7.97V10h9.313V7.875H5.343l5.5-5.719V.187H2.25Zm10.282 0V10h3.03V.187h-3.03Zm5.187 0V10h2.469V2.5l1.937 7.5h2.25l1.907-7.5V10h2.468V.187h-3.968l-1.532 5.97-1.53-5.97h-4Zm26.563 0V2.28h4.906l-5.438 5.69V10h9.313V7.875h-5.719l5.531-5.719V.187h-8.593Zm10.28 0V10h3.032V.187h-3.031Zm5.188 0V10h2.47V2.5l1.905 7.5h2.25l1.938-7.5V10h2.469V.187h-3.97l-1.53 5.97-1.563-5.97H59.75Zm26.907 0V2.28h4.906l-5.438 5.69V10h9.313V7.875h-5.719l5.5-5.719V.187h-8.562Zm10.28 0V10h3.033V.187h-3.032Zm5.158 0V10h2.5V2.5L106.5 10h2.25l1.938-7.5V10h2.468V.187h-3.968l-1.563 5.97-1.531-5.97h-4Zm-66.72 2.124c.639 0 1.159.199 1.532.626.373.426.562 1.106.562 2.03 0 1.1-.174 1.858-.531 2.282-.357.424-.88.656-1.531.656-.634 0-1.132-.223-1.5-.656-.369-.433-.563-1.134-.563-2.125 0-1 .192-1.723.563-2.156.37-.433.857-.656 1.468-.656Zm42.032 0c.638 0 1.127.199 1.5.626.372.426.562 1.106.562 2.03 0 1.1-.174 1.858-.531 2.282-.357.424-.848.656-1.5.656-.634 0-1.132-.223-1.5-.656-.368-.433-.563-1.134-.563-2.125 0-1 .192-1.723.563-2.156.37-.433.857-.656 1.469-.656Zm42.375 0c.639 0 1.127.199 1.5.626.373.426.563 1.106.563 2.03 0 1.1-.174 1.858-.532 2.282-.357.424-.847.656-1.5.656-.634 0-1.162-.223-1.531-.656-.368-.433-.531-1.134-.531-2.125 0-1 .192-1.723.562-2.156.371-.433.857-.656 1.469-.656ZM35.374 12.47c-1.594 0-2.825.45-3.718 1.344-.893.893-1.344 2.146-1.344 3.75 0 1.147.236 2.08.687 2.843.451.764 1.025 1.335 1.75 1.688.726.353 1.643.531 2.75.531 1.09 0 2.02-.216 2.75-.625a4.096 4.096 0 0 0 1.657-1.719c.386-.734.593-1.665.593-2.812 0-1.581-.46-2.81-1.343-3.688-.885-.877-2.147-1.312-3.782-1.312Zm42.032 0c-1.595 0-2.826.45-3.72 1.344-.892.893-1.343 2.146-1.343 3.75 0 1.147.205 2.08.656 2.843.452.764 1.056 1.335 1.782 1.688.725.353 1.642.531 2.75.531 1.09 0 1.988-.216 2.718-.625a4.17 4.17 0 0 0 1.688-1.719c.386-.734.562-1.665.562-2.812 0-1.581-.428-2.81-1.312-3.688-.884-.877-2.147-1.312-3.781-1.312Zm42.375 0c-1.594 0-2.825.45-3.719 1.344-.893.893-1.343 2.146-1.343 3.75 0 1.147.205 2.08.656 2.843.451.764 1.056 1.335 1.781 1.688.726.353 1.643.531 2.75.531 1.09 0 1.989-.216 2.719-.625a4.168 4.168 0 0 0 1.687-1.719c.387-.734.563-1.665.563-2.812 0-1.581-.428-2.81-1.313-3.688-.884-.877-2.146-1.312-3.781-1.312Zm-117.532.156v2.094h4.938l-5.469 5.687v2.063h9.313v-2.125H5.343l5.5-5.75v-1.969H2.25Zm10.282 0v9.844h3.03v-9.844h-3.03Zm5.187 0v9.844h2.469v-7.5l1.937 7.5h2.25l1.907-7.5v7.5h2.468v-9.844h-3.968l-1.532 5.969-1.53-5.969h-4Zm26.563 0v2.094h4.906l-5.438 5.687v2.063h9.313v-2.125h-5.719l5.531-5.75v-1.969h-8.593Zm10.28 0v9.844h3.032v-9.844h-3.031Zm5.188 0v9.844h2.47v-7.5l1.905 7.5h2.25l1.938-7.5v7.5h2.469v-9.844h-3.97l-1.53 5.969-1.563-5.969H59.75Zm26.907 0v2.094h4.906l-5.438 5.687v2.063h9.313v-2.125h-5.719l5.5-5.75v-1.969h-8.562Zm10.28 0v9.844h3.033v-9.844h-3.032Zm5.158 0v9.844h2.5v-7.5l1.906 7.5h2.25l1.938-7.5v7.5h2.468v-9.844h-3.968l-1.563 5.969-1.531-5.969h-4Zm-66.72 2.125c.639 0 1.159.23 1.532.656.373.427.562 1.107.562 2.031 0 1.1-.174 1.857-.531 2.282-.357.424-.88.625-1.531.625-.634 0-1.132-.223-1.5-.657-.369-.433-.563-1.133-.563-2.125 0-1 .192-1.723.563-2.156.37-.433.857-.656 1.468-.656Zm42.032 0c.638 0 1.127.23 1.5.656.372.427.562 1.107.562 2.031 0 1.1-.174 1.857-.531 2.282-.357.424-.848.625-1.5.625-.634 0-1.132-.223-1.5-.657-.368-.433-.563-1.133-.563-2.125 0-1 .192-1.723.563-2.156.37-.433.857-.656 1.469-.656Zm42.375 0c.639 0 1.127.23 1.5.656.373.427.563 1.107.563 2.031 0 1.1-.174 1.857-.532 2.282-.357.424-.847.625-1.5.625-.634 0-1.162-.223-1.531-.657-.368-.433-.531-1.133-.531-2.125 0-1 .192-1.723.562-2.156.371-.433.857-.656 1.469-.656Zm-84.407 9.875c-1.594 0-2.825.45-3.718 1.344-.893.893-1.344 2.146-1.344 3.75 0 1.147.236 2.08.687 2.843.451.764 1.025 1.335 1.75 1.688.726.353 1.643.531 2.75.531 1.09 0 2.02-.216 2.75-.625a4.096 4.096 0 0 0 1.657-1.718c.386-.735.593-1.665.593-2.813 0-1.58-.46-2.81-1.343-3.688-.885-.877-2.147-1.312-3.782-1.312Zm42.032 0c-1.595 0-2.826.45-3.72 1.344-.892.893-1.343 2.146-1.343 3.75 0 1.147.205 2.08.656 2.843.452.764 1.056 1.335 1.782 1.688.725.353 1.642.531 2.75.531 1.09 0 1.988-.216 2.718-.625a4.17 4.17 0 0 0 1.688-1.718c.386-.735.562-1.665.562-2.813 0-1.58-.428-2.81-1.312-3.688-.884-.877-2.147-1.312-3.781-1.312Zm42.375 0c-1.594 0-2.825.45-3.719 1.344-.893.893-1.343 2.146-1.343 3.75 0 1.147.205 2.08.656 2.843.451.764 1.056 1.335 1.781 1.688.726.353 1.643.531 2.75.531 1.09 0 1.989-.216 2.719-.625a4.169 4.169 0 0 0 1.687-1.718c.387-.735.563-1.665.563-2.813 0-1.58-.428-2.81-1.313-3.688-.884-.877-2.146-1.312-3.781-1.312Zm-117.532.156v2.094h4.938l-5.469 5.688v2.062h9.313V32.5H5.343l5.5-5.75v-1.969H2.25Zm10.282 0v9.844h3.03v-9.844h-3.03Zm5.187 0v9.844h2.469v-7.5l1.937 7.5h2.25l1.907-7.5v7.5h2.468v-9.844h-3.968l-1.532 6-1.53-6h-4Zm26.563 0v2.094h4.906l-5.438 5.688v2.062h9.313V32.5h-5.719l5.531-5.75v-1.969h-8.593Zm10.28 0v9.844h3.032v-9.844h-3.031Zm5.188 0v9.844h2.47v-7.5l1.905 7.5h2.25l1.938-7.5v7.5h2.469v-9.844h-3.97l-1.53 6-1.563-6H59.75Zm26.907 0v2.094h4.906l-5.438 5.688v2.062h9.313V32.5h-5.719l5.5-5.75v-1.969h-8.562Zm10.28 0v9.844h3.033v-9.844h-3.032Zm5.158 0v9.844h2.5v-7.5l1.906 7.5h2.25l1.938-7.5v7.5h2.468v-9.844h-3.968l-1.563 6-1.531-6h-4Zm-66.72 2.125c.639 0 1.159.23 1.532.657.373.426.562 1.106.562 2.03 0 1.1-.174 1.858-.531 2.282-.357.424-.88.625-1.531.625-.634 0-1.132-.223-1.5-.656-.369-.433-.563-1.134-.563-2.125 0-1 .192-1.723.563-2.157.37-.433.857-.656 1.468-.656Zm42.032 0c.638 0 1.127.23 1.5.657.372.426.562 1.106.562 2.03 0 1.1-.174 1.858-.531 2.282-.357.424-.848.625-1.5.625-.634 0-1.132-.223-1.5-.656-.368-.433-.563-1.134-.563-2.125 0-1 .192-1.723.563-2.157.37-.433.857-.656 1.469-.656Zm42.375 0c.639 0 1.127.23 1.5.657.373.426.563 1.106.563 2.03 0 1.1-.174 1.858-.532 2.282-.357.424-.847.625-1.5.625-.634 0-1.162-.223-1.531-.656-.368-.433-.531-1.134-.531-2.125 0-1 .192-1.723.562-2.157.371-.433.857-.656 1.469-.656ZM35.374 37.063c-1.594 0-2.825.45-3.718 1.343-.893.893-1.344 2.147-1.344 3.75 0 1.148.236 2.112.687 2.875.451.764 1.025 1.304 1.75 1.657.726.352 1.643.53 2.75.53 1.09 0 2.02-.184 2.75-.593a4.096 4.096 0 0 0 1.657-1.719c.386-.734.593-1.664.593-2.812 0-1.581-.46-2.81-1.343-3.688-.885-.877-2.147-1.343-3.782-1.343Zm42.032 0c-1.595 0-2.826.45-3.72 1.343-.892.893-1.343 2.147-1.343 3.75 0 1.148.205 2.112.656 2.875a4.132 4.132 0 0 0 1.782 1.657c.725.352 1.642.53 2.75.53 1.09 0 1.988-.184 2.718-.593a4.17 4.17 0 0 0 1.688-1.719c.386-.734.562-1.664.562-2.812 0-1.581-.428-2.81-1.312-3.688-.884-.877-2.147-1.343-3.781-1.343Zm42.375 0c-1.594 0-2.825.45-3.719 1.343-.893.893-1.343 2.147-1.343 3.75 0 1.148.205 2.112.656 2.875a4.134 4.134 0 0 0 1.781 1.657c.726.352 1.643.53 2.75.53 1.09 0 1.989-.184 2.719-.593a4.168 4.168 0 0 0 1.687-1.719c.387-.734.563-1.664.563-2.812 0-1.581-.428-2.81-1.313-3.688-.884-.877-2.146-1.343-3.781-1.343ZM2.249 37.25v2.094h4.938L1.718 45.03v2.032h9.313v-2.094H5.343l5.5-5.75V37.25H2.25Zm10.282 0v9.813h3.03V37.25h-3.03Zm5.187 0v9.813h2.469v-7.5l1.937 7.5h2.25l1.907-7.5v7.5h2.468V37.25h-3.968l-1.532 5.969-1.53-5.969h-4Zm26.563 0v2.094h4.906l-5.438 5.687v2.032h9.313v-2.094h-5.719l5.531-5.75V37.25h-8.593Zm10.28 0v9.813h3.032V37.25h-3.031Zm5.188 0v9.813h2.47v-7.5l1.905 7.5h2.25l1.938-7.5v7.5h2.469V37.25h-3.97l-1.53 5.969-1.563-5.969H59.75Zm26.907 0v2.094h4.906l-5.438 5.687v2.032h9.313v-2.094h-5.719l5.5-5.75V37.25h-8.562Zm10.28 0v9.813h3.033V37.25h-3.032Zm5.158 0v9.813h2.5v-7.5l1.906 7.5h2.25l1.938-7.5v7.5h2.468V37.25h-3.968l-1.563 5.969-1.531-5.969h-4Zm-66.72 2.125c.639 0 1.159.199 1.532.625s.562 1.107.562 2.031c0 1.099-.174 1.857-.531 2.282-.357.424-.88.656-1.531.656-.634 0-1.132-.223-1.5-.657-.369-.433-.563-1.133-.563-2.124 0-1 .192-1.724.563-2.157.37-.433.857-.656 1.468-.656Zm42.032 0c.638 0 1.127.199 1.5.625.372.426.562 1.107.562 2.031 0 1.099-.174 1.857-.531 2.282-.357.424-.848.656-1.5.656-.634 0-1.132-.223-1.5-.657-.368-.433-.563-1.133-.563-2.124 0-1 .192-1.724.563-2.157.37-.433.857-.656 1.469-.656Zm42.375 0c.639 0 1.127.199 1.5.625s.563 1.107.563 2.031c0 1.099-.174 1.857-.532 2.282-.357.424-.847.656-1.5.656-.634 0-1.162-.223-1.531-.657-.368-.433-.531-1.133-.531-2.124 0-1 .192-1.724.562-2.157.371-.433.857-.656 1.469-.656Zm-84.407 9.75c-1.594 0-2.825.42-3.718 1.313-.893.893-1.344 2.146-1.344 3.75 0 1.147.236 2.11.687 2.874.451.764 1.025 1.335 1.75 1.688.726.353 1.643.531 2.75.531 1.09 0 2.02-.216 2.75-.625a4.096 4.096 0 0 0 1.657-1.718c.386-.735.593-1.665.593-2.813 0-1.58-.46-2.81-1.343-3.688-.885-.877-2.147-1.312-3.782-1.312Zm42.032 0c-1.595 0-2.826.42-3.72 1.313-.892.893-1.343 2.146-1.343 3.75 0 1.147.205 2.11.656 2.874.452.764 1.056 1.335 1.782 1.688.725.353 1.642.531 2.75.531 1.09 0 1.988-.216 2.718-.625a4.17 4.17 0 0 0 1.688-1.718c.386-.735.562-1.665.562-2.813 0-1.58-.428-2.81-1.312-3.688-.884-.877-2.147-1.312-3.781-1.312Zm42.375 0c-1.594 0-2.825.42-3.719 1.313-.893.893-1.343 2.146-1.343 3.75 0 1.147.205 2.11.656 2.874.451.764 1.056 1.335 1.781 1.688.726.353 1.643.531 2.75.531 1.09 0 1.989-.216 2.719-.625a4.169 4.169 0 0 0 1.687-1.718c.387-.735.563-1.665.563-2.813 0-1.58-.428-2.81-1.313-3.688-.884-.877-2.146-1.312-3.781-1.312Zm-117.532.156v2.094h4.938l-5.469 5.688v2.03h9.313V57H5.343l5.5-5.75v-1.969H2.25Zm10.282 0v9.813h3.03V49.28h-3.03Zm5.187 0v9.813h2.469v-7.469l1.937 7.469h2.25l1.907-7.469v7.469h2.468V49.28h-3.968l-1.532 5.969-1.53-5.969h-4Zm26.563 0v2.094h4.906l-5.438 5.688v2.03h9.313V57h-5.719l5.531-5.75v-1.969h-8.593Zm10.28 0v9.813h3.032V49.28h-3.031Zm5.188 0v9.813h2.47v-7.469l1.905 7.469h2.25l1.938-7.469v7.469h2.469V49.28h-3.97l-1.53 5.969-1.563-5.969H59.75Zm26.907 0v2.094h4.906l-5.438 5.688v2.03h9.313V57h-5.719l5.5-5.75v-1.969h-8.562Zm10.28 0v9.813h3.033V49.28h-3.032Zm5.158 0v9.813h2.5v-7.469l1.906 7.469h2.25l1.938-7.469v7.469h2.468V49.28h-3.968l-1.563 5.969-1.531-5.969h-4Zm-66.72 2.125c.639 0 1.159.23 1.532.657.373.426.562 1.075.562 2 0 1.098-.174 1.888-.531 2.312-.357.424-.88.625-1.531.625-.634 0-1.132-.223-1.5-.656-.369-.433-.563-1.134-.563-2.125 0-1 .192-1.723.563-2.157.37-.433.857-.656 1.468-.656Zm42.032 0c.638 0 1.127.23 1.5.657.372.426.562 1.075.562 2 0 1.098-.174 1.888-.531 2.312-.357.424-.848.625-1.5.625-.634 0-1.132-.223-1.5-.656-.368-.433-.563-1.134-.563-2.125 0-1 .192-1.723.563-2.157.37-.433.857-.656 1.469-.656Zm42.375 0c.639 0 1.127.23 1.5.657.373.426.563 1.075.563 2 0 1.098-.174 1.888-.532 2.312-.357.424-.847.625-1.5.625-.634 0-1.162-.223-1.531-.656-.368-.433-.531-1.134-.531-2.125 0-1 .192-1.723.562-2.157.371-.433.857-.656 1.469-.656Z"/></g></svg>