<?xml version="1.0" encoding="UTF-8" standalone="no"?>
<!DOCTYPE svg PUBLIC "-//W3C//DTD SVG 1.1//EN" "http://www.w3.org/Graphics/SVG/1.1/DTD/svg11.dtd">
<!-- Created with Vectornator (http://vectornator.io/) -->
<svg height="100%" stroke-miterlimit="10" style="fill-rule:nonzero;clip-rule:evenodd;stroke-linecap:round;stroke-linejoin:round;" version="1.1" viewBox="0 0 84.2582 60.9839" width="100%" xml:space="preserve" xmlns="http://www.w3.org/2000/svg" xmlns:vectornator="http://vectornator.io" xmlns:xlink="http://www.w3.org/1999/xlink">
<defs>
<linearGradient gradientTransform="matrix(1 0 0 1 -0.50058 -2.5)" gradientUnits="userSpaceOnUse" id="LinearGradient" x1="63.6232" x2="63.8456" y1="2.88299" y2="61.7373">
<stop offset="0" stop-color="#e7e7e7"/>
<stop offset="1" stop-color="#ededed" stop-opacity="0"/>
</linearGradient>
</defs>
<clipPath id="ArtboardFrame">
<rect height="60.9839" width="84.2582" x="0" y="0"/>
</clipPath>
<g clip-path="url(#ArtboardFrame)" id="Layer-1" vectornator:layerName="Layer 1">
<path d="M35.3744 0C33.7801 0 32.5488 0.45059 31.6556 1.34375C30.7625 2.23691 30.3119 3.49052 30.3119 5.09375C30.3119 6.24146 30.5484 7.2051 30.9994 7.9688C31.4504 8.7324 32.0237 9.2722 32.7494 9.625C33.4751 9.9778 34.3919 10.1562 35.4994 10.1562C36.5891 10.1562 37.5192 9.9711 38.2494 9.5625C38.9796 9.1539 39.5194 8.5784 39.9056 7.8438C40.2919 7.10912 40.4994 6.17897 40.4994 5.03125C40.4994 3.45035 40.0399 2.22128 39.1556 1.34375C38.2714 0.46622 37.0089 0 35.3744 0ZM77.4056 0C75.8113 0 74.5801 0.45059 73.6869 1.34375C72.7937 2.23691 72.3432 3.49052 72.3432 5.09375C72.3432 6.24146 72.5484 7.2051 72.9994 7.9688C73.4505 8.7324 74.055 9.2722 74.7806 9.625C75.5063 9.9778 76.4231 10.1562 77.5306 10.1562C78.6203 10.1562 79.5192 9.9711 80.2494 9.5625C80.9796 9.1539 81.5506 8.5784 81.9369 7.8438C82.3232 7.10912 82.4994 6.17897 82.4994 5.03125C82.4994 3.45035 82.0711 2.22128 81.1869 1.34375C80.3027 0.46622 79.0401 0 77.4056 0ZM119.781 0C118.187 0 116.956 0.45059 116.062 1.34375C115.169 2.23691 114.719 3.49052 114.719 5.09375C114.719 6.24146 114.924 7.2051 115.375 7.9688C115.826 8.7324 116.431 9.2722 117.156 9.625C117.882 9.9778 118.799 10.1562 119.906 10.1562C120.996 10.1562 121.895 9.9711 122.625 9.5625C123.355 9.1539 123.926 8.5784 124.312 7.8438C124.699 7.10912 124.875 6.17897 124.875 5.03125C124.875 3.45035 124.447 2.22128 123.562 1.34375C122.678 0.46622 121.416 0 119.781 0ZM2.24942 0.1875L2.24942 2.28125L7.18692 2.28125L1.71817 7.9688L1.71817 10L11.0306 10L11.0306 7.875L5.34317 7.875L10.8432 2.15625L10.8432 0.1875L2.24942 0.1875ZM12.5306 0.1875L12.5306 10L15.5619 10L15.5619 0.1875L12.5306 0.1875ZM17.7182 0.1875L17.7182 10L20.1869 10L20.1869 2.5L22.1244 10L24.3744 10L26.2806 2.5L26.2806 10L28.7494 10L28.7494 0.1875L24.7806 0.1875L23.2494 6.15625L21.7182 0.1875L17.7182 0.1875ZM44.2806 0.1875L44.2806 2.28125L49.1869 2.28125L43.7494 7.9688L43.7494 10L53.0619 10L53.0619 7.875L47.3432 7.875L52.8744 2.15625L52.8744 0.1875L44.2806 0.1875ZM54.5619 0.1875L54.5619 10L57.5932 10L57.5932 0.1875L54.5619 0.1875ZM59.7494 0.1875L59.7494 10L62.2182 10L62.2182 2.5L64.1244 10L66.3744 10L68.3119 2.5L68.3119 10L70.7806 10L70.7806 0.1875L66.8119 0.1875L65.2806 6.15625L63.7182 0.1875L59.7494 0.1875ZM86.6556 0.1875L86.6556 2.28125L91.5619 2.28125L86.1244 7.9688L86.1244 10L95.4369 10L95.4369 7.875L89.7182 7.875L95.2182 2.15625L95.2182 0.1875L86.6556 0.1875ZM96.9369 0.1875L96.9369 10L99.9688 10L99.9688 0.1875L96.9369 0.1875ZM102.094 0.1875L102.094 10L104.594 10L104.594 2.5L106.5 10L108.75 10L110.688 2.5L110.688 10L113.156 10L113.156 0.1875L109.188 0.1875L107.625 6.15625L106.094 0.1875L102.094 0.1875ZM35.3744 2.3125C36.013 2.3125 36.5328 2.51101 36.9056 2.9375C37.2785 3.36399 37.4682 4.04433 37.4682 4.96875C37.4681 6.06734 37.2942 6.82575 36.9369 7.25C36.5796 7.6743 36.0577 7.9062 35.4056 7.9062C34.7715 7.9062 34.2741 7.6832 33.9056 7.25C33.5372 6.81682 33.3432 6.11641 33.3432 5.125C33.3432 4.12466 33.535 3.40193 33.9056 2.96875C34.2763 2.53557 34.7626 2.3125 35.3744 2.3125ZM77.4056 2.3125C78.0443 2.3125 78.5327 2.51101 78.9056 2.9375C79.2785 3.36399 79.4682 4.04433 79.4682 4.96875C79.4681 6.06734 79.2942 6.82575 78.9369 7.25C78.5796 7.6743 78.0889 7.9062 77.4369 7.9062C76.8028 7.9063 76.3053 7.6832 75.9369 7.25C75.5685 6.81682 75.3744 6.11641 75.3744 5.125C75.3744 4.12466 75.5662 3.40193 75.9369 2.96875C76.3076 2.53557 76.7938 2.3125 77.4056 2.3125ZM119.781 2.3125C120.42 2.3125 120.908 2.51101 121.281 2.9375C121.654 3.36399 121.844 4.04433 121.844 4.96875C121.844 6.06734 121.67 6.82575 121.312 7.25C120.955 7.6743 120.465 7.9062 119.812 7.9062C119.178 7.9062 118.65 7.6832 118.281 7.25C117.913 6.81682 117.75 6.11641 117.75 5.125C117.75 4.12466 117.942 3.40193 118.312 2.96875C118.683 2.53557 119.169 2.3125 119.781 2.3125ZM35.3744 12.4688C33.7801 12.4687 32.5488 12.9193 31.6556 13.8125C30.7625 14.7057 30.3119 15.9593 30.3119 17.5625C30.3119 18.7102 30.5484 19.6426 30.9994 20.4062C31.4504 21.1699 32.0237 21.7409 32.7494 22.0938C33.4751 22.4466 34.3919 22.625 35.4994 22.625C36.5891 22.625 37.5192 22.4086 38.2494 22C38.9796 21.5914 39.5194 21.0159 39.9056 20.2812C40.2919 19.5466 40.4994 18.6165 40.4994 17.4688C40.4994 15.8878 40.0399 14.6588 39.1556 13.7812C38.2714 12.9037 37.0089 12.4688 35.3744 12.4688ZM77.4056 12.4688C75.8113 12.4687 74.5801 12.9193 73.6869 13.8125C72.7937 14.7057 72.3432 15.9593 72.3432 17.5625C72.3432 18.7102 72.5484 19.6426 72.9994 20.4062C73.4505 21.1699 74.055 21.7409 74.7806 22.0938C75.5063 22.4466 76.4231 22.625 77.5306 22.625C78.6203 22.625 79.5192 22.4086 80.2494 22C80.9796 21.5914 81.5506 21.0159 81.9369 20.2812C82.3232 19.5466 82.4994 18.6165 82.4994 17.4688C82.4994 15.8878 82.0711 14.6588 81.1869 13.7812C80.3027 12.9037 79.0401 12.4688 77.4056 12.4688ZM119.781 12.4688C118.187 12.4687 116.956 12.9193 116.062 13.8125C115.169 14.7057 114.719 15.9593 114.719 17.5625C114.719 18.7102 114.924 19.6426 115.375 20.4062C115.826 21.1699 116.431 21.7409 117.156 22.0938C117.882 22.4466 118.799 22.625 119.906 22.625C120.996 22.625 121.895 22.4086 122.625 22C123.355 21.5914 123.926 21.0159 124.312 20.2812C124.699 19.5466 124.875 18.6165 124.875 17.4688C124.875 15.8878 124.447 14.6588 123.562 13.7812C122.678 12.9037 121.416 12.4688 119.781 12.4688ZM2.24942 12.625L2.24942 14.7188L7.18692 14.7188L1.71817 20.4062L1.71817 22.4688L11.0306 22.4688L11.0306 20.3438L5.34317 20.3438L10.8432 14.5938L10.8432 12.625L2.24942 12.625ZM12.5306 12.625L12.5306 22.4688L15.5619 22.4688L15.5619 12.625L12.5306 12.625ZM17.7182 12.625L17.7182 22.4688L20.1869 22.4688L20.1869 14.9688L22.1244 22.4688L24.3744 22.4688L26.2806 14.9688L26.2806 22.4688L28.7494 22.4688L28.7494 12.625L24.7806 12.625L23.2494 18.5938L21.7182 12.625L17.7182 12.625ZM44.2806 12.625L44.2806 14.7188L49.1869 14.7188L43.7494 20.4062L43.7494 22.4688L53.0619 22.4688L53.0619 20.3438L47.3432 20.3438L52.8744 14.5938L52.8744 12.625L44.2806 12.625ZM54.5619 12.625L54.5619 22.4688L57.5932 22.4688L57.5932 12.625L54.5619 12.625ZM59.7494 12.625L59.7494 22.4688L62.2182 22.4688L62.2182 14.9688L64.1244 22.4688L66.3744 22.4688L68.3119 14.9688L68.3119 22.4688L70.7806 22.4688L70.7806 12.625L66.8119 12.625L65.2806 18.5938L63.7182 12.625L59.7494 12.625ZM86.6556 12.625L86.6556 14.7188L91.5619 14.7188L86.1244 20.4062L86.1244 22.4688L95.4369 22.4688L95.4369 20.3438L89.7182 20.3438L95.2182 14.5938L95.2182 12.625L86.6556 12.625ZM96.9369 12.625L96.9369 22.4688L99.9688 22.4688L99.9688 12.625L96.9369 12.625ZM102.094 12.625L102.094 22.4688L104.594 22.4688L104.594 14.9688L106.5 22.4688L108.75 22.4688L110.688 14.9688L110.688 22.4688L113.156 22.4688L113.156 12.625L109.188 12.625L107.625 18.5938L106.094 12.625L102.094 12.625ZM35.3744 14.75C36.013 14.75 36.5328 14.9798 36.9056 15.4062C37.2785 15.8327 37.4682 16.5131 37.4682 17.4375C37.4681 18.5361 37.2942 19.2945 36.9369 19.7188C36.5796 20.143 36.0577 20.3438 35.4056 20.3438C34.7715 20.3438 34.2741 20.1207 33.9056 19.6875C33.5372 19.2543 33.3432 18.5539 33.3432 17.5625C33.3432 16.5622 33.535 15.8394 33.9056 15.4062C34.2763 14.9731 34.7626 14.75 35.3744 14.75ZM77.4056 14.75C78.0443 14.75 78.5327 14.9798 78.9056 15.4062C79.2785 15.8327 79.4682 16.5131 79.4682 17.4375C79.4681 18.5361 79.2942 19.2945 78.9369 19.7188C78.5796 20.143 78.0889 20.3438 77.4369 20.3438C76.8028 20.3438 76.3053 20.1207 75.9369 19.6875C75.5685 19.2543 75.3744 18.5539 75.3744 17.5625C75.3744 16.5622 75.5662 15.8394 75.9369 15.4062C76.3076 14.9731 76.7938 14.75 77.4056 14.75ZM119.781 14.75C120.42 14.75 120.908 14.9798 121.281 15.4062C121.654 15.8327 121.844 16.5131 121.844 17.4375C121.844 18.5361 121.67 19.2945 121.312 19.7188C120.955 20.143 120.465 20.3438 119.812 20.3438C119.178 20.3438 118.65 20.1207 118.281 19.6875C117.913 19.2543 117.75 18.5539 117.75 17.5625C117.75 16.5622 117.942 15.8394 118.312 15.4062C118.683 14.9731 119.169 14.75 119.781 14.75ZM35.3744 24.625C33.7801 24.625 32.5488 25.0756 31.6556 25.9688C30.7625 26.8619 30.3119 28.1155 30.3119 29.7188C30.3119 30.8665 30.5484 31.7988 30.9994 32.5625C31.4504 33.3262 32.0237 33.8972 32.7494 34.25C33.4751 34.6028 34.3919 34.7812 35.4994 34.7812C36.5891 34.7812 37.5192 34.5649 38.2494 34.1562C38.9796 33.7476 39.5194 33.1721 39.9056 32.4375C40.2919 31.7029 40.4994 30.7727 40.4994 29.625C40.4994 28.0441 40.0399 26.815 39.1556 25.9375C38.2714 25.06 37.0089 24.625 35.3744 24.625ZM77.4056 24.625C75.8113 24.625 74.5801 25.0756 73.6869 25.9688C72.7937 26.8619 72.3432 28.1155 72.3432 29.7188C72.3432 30.8665 72.5484 31.7988 72.9994 32.5625C73.4505 33.3262 74.055 33.8972 74.7806 34.25C75.5063 34.6028 76.4231 34.7812 77.5306 34.7812C78.6203 34.7812 79.5192 34.5649 80.2494 34.1562C80.9796 33.7476 81.5506 33.1721 81.9369 32.4375C82.3232 31.7029 82.4994 30.7727 82.4994 29.625C82.4994 28.0441 82.0711 26.815 81.1869 25.9375C80.3027 25.06 79.0401 24.625 77.4056 24.625ZM119.781 24.625C118.187 24.625 116.956 25.0756 116.062 25.9688C115.169 26.8619 114.719 28.1155 114.719 29.7188C114.719 30.8665 114.924 31.7988 115.375 32.5625C115.826 33.3262 116.431 33.8972 117.156 34.25C117.882 34.6028 118.799 34.7812 119.906 34.7812C120.996 34.7812 121.895 34.5649 122.625 34.1562C123.355 33.7476 123.926 33.1721 124.312 32.4375C124.699 31.7029 124.875 30.7727 124.875 29.625C124.875 28.0441 124.447 26.815 123.562 25.9375C122.678 25.06 121.416 24.625 119.781 24.625ZM2.24942 24.7812L2.24942 26.875L7.18692 26.875L1.71817 32.5625L1.71817 34.625L11.0306 34.625L11.0306 32.5L5.34317 32.5L10.8432 26.75L10.8432 24.7812L2.24942 24.7812ZM12.5306 24.7812L12.5306 34.625L15.5619 34.625L15.5619 24.7812L12.5306 24.7812ZM17.7182 24.7812L17.7182 34.625L20.1869 34.625L20.1869 27.125L22.1244 34.625L24.3744 34.625L26.2806 27.125L26.2806 34.625L28.7494 34.625L28.7494 24.7812L24.7806 24.7812L23.2494 30.7812L21.7182 24.7812L17.7182 24.7812ZM44.2806 24.7812L44.2806 26.875L49.1869 26.875L43.7494 32.5625L43.7494 34.625L53.0619 34.625L53.0619 32.5L47.3432 32.5L52.8744 26.75L52.8744 24.7812L44.2806 24.7812ZM54.5619 24.7812L54.5619 34.625L57.5932 34.625L57.5932 24.7812L54.5619 24.7812ZM59.7494 24.7812L59.7494 34.625L62.2182 34.625L62.2182 27.125L64.1244 34.625L66.3744 34.625L68.3119 27.125L68.3119 34.625L70.7806 34.625L70.7806 24.7812L66.8119 24.7812L65.2806 30.7812L63.7182 24.7812L59.7494 24.7812ZM86.6556 24.7812L86.6556 26.875L91.5619 26.875L86.1244 32.5625L86.1244 34.625L95.4369 34.625L95.4369 32.5L89.7182 32.5L95.2182 26.75L95.2182 24.7812L86.6556 24.7812ZM96.9369 24.7812L96.9369 34.625L99.9688 34.625L99.9688 24.7812L96.9369 24.7812ZM102.094 24.7812L102.094 34.625L104.594 34.625L104.594 27.125L106.5 34.625L108.75 34.625L110.688 27.125L110.688 34.625L113.156 34.625L113.156 24.7812L109.188 24.7812L107.625 30.7812L106.094 24.7812L102.094 24.7812ZM35.3744 26.9062C36.013 26.9062 36.5328 27.136 36.9056 27.5625C37.2785 27.989 37.4682 28.6693 37.4682 29.5938C37.4681 30.6923 37.2942 31.4507 36.9369 31.875C36.5796 32.2993 36.0577 32.5 35.4056 32.5C34.7715 32.5 34.2741 32.2769 33.9056 31.8438C33.5372 31.4106 33.3432 30.7102 33.3432 29.7188C33.3432 28.7184 33.535 27.9957 33.9056 27.5625C34.2763 27.1293 34.7626 26.9062 35.3744 26.9062ZM77.4056 26.9062C78.0443 26.9062 78.5327 27.136 78.9056 27.5625C79.2785 27.989 79.4682 28.6693 79.4682 29.5938C79.4681 30.6923 79.2942 31.4507 78.9369 31.875C78.5796 32.2993 78.0889 32.5 77.4369 32.5C76.8028 32.5 76.3053 32.2769 75.9369 31.8438C75.5685 31.4106 75.3744 30.7102 75.3744 29.7188C75.3744 28.7184 75.5662 27.9957 75.9369 27.5625C76.3076 27.1293 76.7938 26.9062 77.4056 26.9062ZM119.781 26.9062C120.42 26.9062 120.908 27.136 121.281 27.5625C121.654 27.989 121.844 28.6693 121.844 29.5938C121.844 30.6923 121.67 31.4507 121.312 31.875C120.955 32.2993 120.465 32.5 119.812 32.5C119.178 32.5 118.65 32.2769 118.281 31.8438C117.913 31.4106 117.75 30.7102 117.75 29.7188C117.75 28.7184 117.942 27.9957 118.312 27.5625C118.683 27.1293 119.169 26.9062 119.781 26.9062ZM35.3744 37.0625C33.7801 37.0625 32.5488 37.5131 31.6556 38.4062C30.7625 39.2994 30.3119 40.553 30.3119 42.1562C30.3119 43.304 30.5484 44.2676 30.9994 45.0312C31.4504 45.7949 32.0237 46.3347 32.7494 46.6875C33.4751 47.0403 34.3919 47.2188 35.4994 47.2188C36.5891 47.2187 37.5192 47.0336 38.2494 46.625C38.9796 46.2164 39.5194 45.6409 39.9056 44.9062C40.2919 44.1716 40.4994 43.2415 40.4994 42.0938C40.4994 40.5128 40.0399 39.2838 39.1556 38.4062C38.2714 37.5287 37.0089 37.0625 35.3744 37.0625ZM77.4056 37.0625C75.8113 37.0625 74.5801 37.5131 73.6869 38.4062C72.7937 39.2994 72.3432 40.553 72.3432 42.1562C72.3432 43.304 72.5484 44.2676 72.9994 45.0312C73.4505 45.7949 74.055 46.3347 74.7806 46.6875C75.5063 47.0403 76.4231 47.2188 77.5306 47.2188C78.6203 47.2187 79.5192 47.0336 80.2494 46.625C80.9796 46.2164 81.5506 45.6409 81.9369 44.9062C82.3232 44.1716 82.4994 43.2415 82.4994 42.0938C82.4994 40.5128 82.0711 39.2838 81.1869 38.4062C80.3027 37.5287 79.0401 37.0625 77.4056 37.0625ZM119.781 37.0625C118.187 37.0625 116.956 37.5131 116.062 38.4062C115.169 39.2994 114.719 40.553 114.719 42.1562C114.719 43.304 114.924 44.2676 115.375 45.0312C115.826 45.7949 116.431 46.3347 117.156 46.6875C117.882 47.0403 118.799 47.2188 119.906 47.2188C120.996 47.2187 121.895 47.0336 122.625 46.625C123.355 46.2164 123.926 45.6409 124.312 44.9062C124.699 44.1716 124.875 43.2415 124.875 42.0938C124.875 40.5128 124.447 39.2838 123.562 38.4062C122.678 37.5287 121.416 37.0625 119.781 37.0625ZM2.24942 37.25L2.24942 39.3438L7.18692 39.3438L1.71817 45.0312L1.71817 47.0625L11.0306 47.0625L11.0306 44.9688L5.34317 44.9688L10.8432 39.2188L10.8432 37.25L2.24942 37.25ZM12.5306 37.25L12.5306 47.0625L15.5619 47.0625L15.5619 37.25L12.5306 37.25ZM17.7182 37.25L17.7182 47.0625L20.1869 47.0625L20.1869 39.5625L22.1244 47.0625L24.3744 47.0625L26.2806 39.5625L26.2806 47.0625L28.7494 47.0625L28.7494 37.25L24.7806 37.25L23.2494 43.2188L21.7182 37.25L17.7182 37.25ZM44.2806 37.25L44.2806 39.3438L49.1869 39.3438L43.7494 45.0312L43.7494 47.0625L53.0619 47.0625L53.0619 44.9688L47.3432 44.9688L52.8744 39.2188L52.8744 37.25L44.2806 37.25ZM54.5619 37.25L54.5619 47.0625L57.5932 47.0625L57.5932 37.25L54.5619 37.25ZM59.7494 37.25L59.7494 47.0625L62.2182 47.0625L62.2182 39.5625L64.1244 47.0625L66.3744 47.0625L68.3119 39.5625L68.3119 47.0625L70.7806 47.0625L70.7806 37.25L66.8119 37.25L65.2806 43.2188L63.7182 37.25L59.7494 37.25ZM86.6556 37.25L86.6556 39.3438L91.5619 39.3438L86.1244 45.0312L86.1244 47.0625L95.4369 47.0625L95.4369 44.9688L89.7182 44.9688L95.2182 39.2188L95.2182 37.25L86.6556 37.25ZM96.9369 37.25L96.9369 47.0625L99.9688 47.0625L99.9688 37.25L96.9369 37.25ZM102.094 37.25L102.094 47.0625L104.594 47.0625L104.594 39.5625L106.5 47.0625L108.75 47.0625L110.688 39.5625L110.688 47.0625L113.156 47.0625L113.156 37.25L109.188 37.25L107.625 43.2188L106.094 37.25L102.094 37.25ZM35.3744 39.375C36.013 39.375 36.5328 39.5735 36.9056 40C37.2785 40.4265 37.4682 41.1068 37.4682 42.0312C37.4681 43.1298 37.2942 43.8882 36.9369 44.3125C36.5796 44.7368 36.0577 44.9688 35.4056 44.9688C34.7715 44.9688 34.2741 44.7457 33.9056 44.3125C33.5372 43.8793 33.3432 43.1789 33.3432 42.1875C33.3432 41.1871 33.535 40.4644 33.9056 40.0312C34.2763 39.5981 34.7626 39.375 35.3744 39.375ZM77.4056 39.375C78.0443 39.375 78.5327 39.5735 78.9056 40C79.2785 40.4265 79.4682 41.1068 79.4682 42.0312C79.4681 43.1298 79.2942 43.8882 78.9369 44.3125C78.5796 44.7368 78.0889 44.9688 77.4369 44.9688C76.8028 44.9688 76.3053 44.7457 75.9369 44.3125C75.5685 43.8793 75.3744 43.1789 75.3744 42.1875C75.3744 41.1871 75.5662 40.4644 75.9369 40.0312C76.3076 39.5981 76.7938 39.375 77.4056 39.375ZM119.781 39.375C120.42 39.375 120.908 39.5735 121.281 40C121.654 40.4265 121.844 41.1068 121.844 42.0312C121.844 43.1298 121.67 43.8882 121.312 44.3125C120.955 44.7368 120.465 44.9688 119.812 44.9688C119.178 44.9688 118.65 44.7457 118.281 44.3125C117.913 43.8793 117.75 43.1789 117.75 42.1875C117.75 41.1871 117.942 40.4644 118.312 40.0312C118.683 39.5981 119.169 39.375 119.781 39.375ZM35.3744 49.125C33.7801 49.125 32.5488 49.5443 31.6556 50.4375C30.7625 51.3307 30.3119 52.5843 30.3119 54.1875C30.3119 55.3352 30.5484 56.2988 30.9994 57.0625C31.4504 57.8262 32.0237 58.3972 32.7494 58.75C33.4751 59.1028 34.3919 59.2812 35.4994 59.2812C36.5891 59.2812 37.5192 59.0649 38.2494 58.6562C38.9796 58.2476 39.5194 57.6721 39.9056 56.9375C40.2919 56.2029 40.4994 55.2727 40.4994 54.125C40.4994 52.5441 40.0399 51.315 39.1556 50.4375C38.2714 49.56 37.0089 49.125 35.3744 49.125ZM77.4056 49.125C75.8113 49.125 74.5801 49.5443 73.6869 50.4375C72.7937 51.3307 72.3432 52.5843 72.3432 54.1875C72.3432 55.3352 72.5484 56.2988 72.9994 57.0625C73.4505 57.8262 74.055 58.3972 74.7806 58.75C75.5063 59.1028 76.4231 59.2812 77.5306 59.2812C78.6203 59.2812 79.5192 59.0649 80.2494 58.6562C80.9796 58.2476 81.5506 57.6721 81.9369 56.9375C82.3232 56.2029 82.4994 55.2727 82.4994 54.125C82.4994 52.5441 82.0711 51.315 81.1869 50.4375C80.3027 49.56 79.0401 49.125 77.4056 49.125ZM119.781 49.125C118.187 49.125 116.956 49.5443 116.062 50.4375C115.169 51.3307 114.719 52.5843 114.719 54.1875C114.719 55.3352 114.924 56.2988 115.375 57.0625C115.826 57.8262 116.431 58.3972 117.156 58.75C117.882 59.1028 118.799 59.2812 119.906 59.2812C120.996 59.2812 121.895 59.0649 122.625 58.6562C123.355 58.2476 123.926 57.6721 124.312 56.9375C124.699 56.2029 124.875 55.2727 124.875 54.125C124.875 52.5441 124.447 51.315 123.562 50.4375C122.678 49.56 121.416 49.125 119.781 49.125ZM2.24942 49.2812L2.24942 51.375L7.18692 51.375L1.71817 57.0625L1.71817 59.0938L11.0306 59.0938L11.0306 57L5.34317 57L10.8432 51.25L10.8432 49.2812L2.24942 49.2812ZM12.5306 49.2812L12.5306 59.0938L15.5619 59.0938L15.5619 49.2812L12.5306 49.2812ZM17.7182 49.2812L17.7182 59.0938L20.1869 59.0938L20.1869 51.625L22.1244 59.0938L24.3744 59.0938L26.2806 51.625L26.2806 59.0938L28.7494 59.0938L28.7494 49.2812L24.7806 49.2812L23.2494 55.25L21.7182 49.2812L17.7182 49.2812ZM44.2806 49.2812L44.2806 51.375L49.1869 51.375L43.7494 57.0625L43.7494 59.0938L53.0619 59.0938L53.0619 57L47.3432 57L52.8744 51.25L52.8744 49.2812L44.2806 49.2812ZM54.5619 49.2812L54.5619 59.0938L57.5932 59.0938L57.5932 49.2812L54.5619 49.2812ZM59.7494 49.2812L59.7494 59.0938L62.2182 59.0938L62.2182 51.625L64.1244 59.0938L66.3744 59.0938L68.3119 51.625L68.3119 59.0938L70.7806 59.0938L70.7806 49.2812L66.8119 49.2812L65.2806 55.25L63.7182 49.2812L59.7494 49.2812ZM86.6556 49.2812L86.6556 51.375L91.5619 51.375L86.1244 57.0625L86.1244 59.0938L95.4369 59.0938L95.4369 57L89.7182 57L95.2182 51.25L95.2182 49.2812L86.6556 49.2812ZM96.9369 49.2812L96.9369 59.0938L99.9688 59.0938L99.9688 49.2812L96.9369 49.2812ZM102.094 49.2812L102.094 59.0938L104.594 59.0938L104.594 51.625L106.5 59.0938L108.75 59.0938L110.688 51.625L110.688 59.0938L113.156 59.0938L113.156 49.2812L109.188 49.2812L107.625 55.25L106.094 49.2812L102.094 49.2812ZM35.3744 51.4062C36.013 51.4063 36.5328 51.636 36.9056 52.0625C37.2785 52.489 37.4682 53.1381 37.4682 54.0625C37.4681 55.1611 37.2942 55.9507 36.9369 56.375C36.5796 56.7993 36.0577 57 35.4056 57C34.7715 57 34.2741 56.7769 33.9056 56.3438C33.5372 55.9106 33.3432 55.2102 33.3432 54.2188C33.3432 53.2184 33.535 52.4957 33.9056 52.0625C34.2763 51.6293 34.7626 51.4062 35.3744 51.4062ZM77.4056 51.4062C78.0443 51.4063 78.5327 51.636 78.9056 52.0625C79.2785 52.489 79.4682 53.1381 79.4682 54.0625C79.4681 55.1611 79.2942 55.9507 78.9369 56.375C78.5796 56.7993 78.0889 57 77.4369 57C76.8028 57 76.3053 56.7769 75.9369 56.3438C75.5685 55.9106 75.3744 55.2102 75.3744 54.2188C75.3744 53.2184 75.5662 52.4957 75.9369 52.0625C76.3076 51.6293 76.7938 51.4062 77.4056 51.4062ZM119.781 51.4062C120.42 51.4063 120.908 51.636 121.281 52.0625C121.654 52.489 121.844 53.1381 121.844 54.0625C121.844 55.1611 121.67 55.9507 121.312 56.375C120.955 56.7993 120.465 57 119.812 57C119.178 57 118.65 56.7769 118.281 56.3438C117.913 55.9106 117.75 55.2102 117.75 54.2188C117.75 53.2184 117.942 52.4957 118.312 52.0625C118.683 51.6293 119.169 51.4062 119.781 51.4062Z" fill="url(#LinearGradient)" fill-rule="nonzero" opacity="1" stroke="none" vectornator:layerName="Curve 1"/>
</g>
</svg>
