<svg xmlns="http://www.w3.org/2000/svg" xmlns:vectornator="http://vectornator.io" xml:space="preserve" stroke-miterlimit="10" style="fill-rule:nonzero;clip-rule:evenodd;stroke-linecap:round;stroke-linejoin:round" viewBox="0 0 32.587 39.178"><defs><linearGradient id="a" x1="17.637" x2="58.861" y1="44.194" y2="-3.003" gradientTransform="translate(-22.313 -.004)" gradientUnits="userSpaceOnUse"><stop offset="0" stop-color="#fbceff"/><stop offset=".487" stop-color="#ffe1e1"/><stop offset="1" stop-color="#d0fff9"/></linearGradient></defs><g vectornator:layerName="Layer 1"><g vectornator:layerName="Group 10"><g vectornator:layerName="Group 9"><g vectornator:layerName="Group 1"><path vectornator:layerName="Curve 1" fill="url(#a)" d="M5 .214c-1.58 0-2.81.429-3.688 1.313C.435 2.41 0 3.674 0 5.308c0 1.594.45 2.826 1.344 3.719.893.893 2.147 1.344 3.75 1.344 1.147 0 2.08-.206 2.843-.657.764-.45 1.335-1.055 1.688-1.781s.531-1.642.531-2.75c0-1.09-.216-1.989-.625-2.719A4.17 4.17 0 0 0 7.812.777C7.079.39 6.149.214 5 .214Zm11.156 0c-1.58 0-2.81.429-3.687 1.313-.878.884-1.313 2.147-1.313 3.781 0 1.594.45 2.826 1.344 3.719.893.893 2.147 1.344 3.75 1.344 1.148 0 2.08-.206 2.844-.657.763-.45 1.334-1.055 1.687-1.781s.532-1.642.532-2.75c0-1.09-.217-1.989-.625-2.719a4.17 4.17 0 0 0-1.72-1.687C18.235.39 17.305.214 16.157.214Zm11.157 0c-1.581 0-2.81.429-3.688 1.313-.878.884-1.313 2.147-1.313 3.781 0 1.594.451 2.826 1.344 3.719.893.893 2.147 1.344 3.75 1.344 1.148 0 2.08-.206 2.844-.657.764-.45 1.335-1.055 1.688-1.781.352-.726.53-1.642.53-2.75 0-1.09-.216-1.989-.624-2.719A4.172 4.172 0 0 0 30.125.777C29.39.39 28.46.214 27.312.214ZM4.968 3.246c1.098 0 1.857.174 2.281.53.424.358.625.849.625 1.5 0 .635-.223 1.132-.656 1.5-.433.37-1.134.563-2.125.563-1 0-1.723-.192-2.157-.562-.433-.37-.656-.857-.656-1.469 0-.639.23-1.127.656-1.5.427-.373 1.107-.562 2.032-.562Zm11.156 0c1.099 0 1.857.174 2.281.53.425.358.625.849.625 1.5 0 .635-.223 1.132-.656 1.5-.433.37-1.134.563-2.125.563-1 0-1.723-.192-2.156-.562-.433-.37-.656-.857-.656-1.469 0-.639.23-1.127.656-1.5.426-.373 1.107-.562 2.031-.562Zm11.156 0c1.099 0 1.857.174 2.282.53.424.358.625.849.625 1.5 0 .635-.224 1.132-.657 1.5-.433.37-1.133.563-2.125.563-1 0-1.723-.192-2.156-.562-.433-.37-.656-.857-.656-1.469 0-.639.23-1.127.656-1.5.427-.373 1.107-.562 2.031-.562ZM.156 11.933v3.969l6 1.531-6 1.563v3.968H10v-2.468H2.5l7.5-1.907v-2.25l-7.5-1.937H10v-2.469H.156Zm11.156 0v3.969l5.97 1.531-5.97 1.563v3.968h9.844v-2.468h-7.5l7.5-1.907v-2.25l-7.5-1.937h7.5v-2.469h-9.843Zm11.157 0v3.969l5.968 1.531-5.968 1.563v3.968h9.812v-2.468h-7.468l7.468-1.907v-2.25l-7.468-1.937h7.468v-2.469H22.47ZM.156 25.121v3.03H10v-3.03H.156Zm11.156 0v3.03h9.844v-3.03h-9.843Zm11.157 0v3.03h9.812v-3.03H22.47ZM7.875 29.65v5.72l-5.75-5.532H.156v8.594H2.25v-4.906l5.688 5.437H10v-9.312H7.875Zm11.156 0v5.72l-5.75-5.532h-1.969v8.594h2.094v-4.906l5.688 5.437h2.062v-9.312h-2.125Zm11.157 0v5.72l-5.75-5.532h-1.97v8.594h2.095v-4.906l5.687 5.437h2.031v-9.312h-2.093Z"/></g></g></g></g></svg>