<svg xmlns="http://www.w3.org/2000/svg" xmlns:vectornator="http://vectornator.io" xml:space="preserve" stroke-miterlimit="10" style="fill-rule:nonzero;clip-rule:evenodd;stroke-linecap:round;stroke-linejoin:round" viewBox="0 0 127.275 60.984"><defs><linearGradient id="a" x1="63.623" x2="63.846" y1="2.883" y2="61.737" gradientTransform="translate(-.16 -2.5)" gradientUnits="userSpaceOnUse"><stop offset="0" stop-color="#e7e7e7"/><stop offset="1" stop-color="#ededed" stop-opacity="0"/></linearGradient></defs><g vectornator:layerName="Layer 1"><path vectornator:layerName="Curve 1" fill="url(#a)" d="M35.716 0c-1.595 0-2.826.45-3.72 1.344-.892.893-1.343 2.147-1.343 3.75 0 1.147.237 2.111.688 2.875.45.763 1.024 1.303 1.75 1.656.725.353 1.642.531 2.75.531 1.09 0 2.02-.185 2.75-.594a4.096 4.096 0 0 0 1.656-1.718c.386-.735.594-1.665.594-2.813 0-1.58-.46-2.81-1.344-3.687C38.613.466 37.35 0 35.716 0Zm42.03 0c-1.593 0-2.825.45-3.718 1.344-.893.893-1.344 2.147-1.344 3.75 0 1.147.206 2.111.657 2.875a4.132 4.132 0 0 0 1.78 1.656c.727.353 1.643.531 2.75.531 1.09 0 1.99-.185 2.72-.594a4.17 4.17 0 0 0 1.687-1.718c.386-.735.563-1.665.563-2.813 0-1.58-.429-2.81-1.313-3.687C80.644.466 79.381 0 77.747 0Zm42.376 0c-1.594 0-2.825.45-3.719 1.344-.893.893-1.343 2.147-1.343 3.75 0 1.147.205 2.111.656 2.875a4.134 4.134 0 0 0 1.781 1.656c.726.353 1.643.531 2.75.531 1.09 0 1.989-.185 2.719-.594a4.169 4.169 0 0 0 1.687-1.718c.387-.735.563-1.665.563-2.813 0-1.58-.428-2.81-1.313-3.687C123.019.466 121.757 0 120.122 0ZM2.591.188V2.28h4.937L2.06 7.97V10h9.313V7.875H5.684l5.5-5.719V.187H2.591Zm10.28 0V10h3.032V.187h-3.031Zm5.188 0V10h2.47V2.5l1.937 7.5h2.25l1.906-7.5V10h2.469V.187h-3.97l-1.53 5.97-1.532-5.97h-4Zm26.563 0V2.28h4.906L44.091 7.97V10h9.312V7.875h-5.719l5.532-5.719V.187h-8.594Zm10.281 0V10h3.031V.187h-3.03Zm5.188 0V10h2.468V2.5l1.907 7.5h2.25l1.937-7.5V10h2.469V.187h-3.969l-1.531 5.97-1.563-5.97h-3.968Zm26.906 0V2.28h4.906L86.466 7.97V10h9.312V7.875H90.06l5.5-5.719V.187h-8.562Zm10.281 0V10h3.032V.187h-3.032Zm5.157 0V10h2.5V2.5l1.906 7.5h2.25l1.938-7.5V10h2.468V.187h-3.968l-1.563 5.97-1.531-5.97h-4Zm-66.72 2.124c.64 0 1.159.199 1.532.626.373.426.562 1.106.562 2.03 0 1.1-.174 1.858-.53 2.282-.358.424-.88.656-1.532.656-.634 0-1.132-.223-1.5-.656-.369-.433-.563-1.134-.563-2.125 0-1 .192-1.723.563-2.156.37-.433.857-.656 1.469-.656Zm42.032 0c.638 0 1.127.199 1.5.626.373.426.562 1.106.562 2.03 0 1.1-.174 1.858-.53 2.282-.358.424-.849.656-1.5.656-.635 0-1.132-.223-1.5-.656-.37-.433-.563-1.134-.563-2.125 0-1 .191-1.723.562-2.156.37-.433.857-.656 1.469-.656Zm42.375 0c.639 0 1.127.199 1.5.626.373.426.563 1.106.563 2.03 0 1.1-.174 1.858-.532 2.282-.357.424-.847.656-1.5.656-.634 0-1.162-.223-1.531-.656-.368-.433-.531-1.134-.531-2.125 0-1 .192-1.723.562-2.156.371-.433.857-.656 1.469-.656ZM35.716 12.47c-1.595 0-2.826.45-3.72 1.344-.892.893-1.343 2.146-1.343 3.75 0 1.147.237 2.08.688 2.843.45.764 1.024 1.335 1.75 1.688.725.353 1.642.531 2.75.531 1.09 0 2.02-.216 2.75-.625a4.096 4.096 0 0 0 1.656-1.719c.386-.734.594-1.665.594-2.812 0-1.581-.46-2.81-1.344-3.688-.884-.877-2.147-1.312-3.781-1.312Zm42.03 0c-1.593 0-2.825.45-3.718 1.344-.893.893-1.344 2.146-1.344 3.75 0 1.147.206 2.08.657 2.843.45.764 1.055 1.335 1.78 1.688.727.353 1.643.531 2.75.531 1.09 0 1.99-.216 2.72-.625a4.17 4.17 0 0 0 1.687-1.719c.386-.734.563-1.665.563-2.812 0-1.581-.429-2.81-1.313-3.688-.884-.877-2.147-1.312-3.781-1.312Zm42.376 0c-1.594 0-2.825.45-3.719 1.344-.893.893-1.343 2.146-1.343 3.75 0 1.147.205 2.08.656 2.843.451.764 1.056 1.335 1.781 1.688.726.353 1.643.531 2.75.531 1.09 0 1.989-.216 2.719-.625a4.168 4.168 0 0 0 1.687-1.719c.387-.734.563-1.665.563-2.812 0-1.581-.428-2.81-1.313-3.688-.884-.877-2.146-1.312-3.781-1.312Zm-117.531.156v2.094h4.937L2.06 20.406v2.063h9.313v-2.125H5.684l5.5-5.75v-1.969H2.591Zm10.28 0v9.844h3.032v-9.844h-3.031Zm5.188 0v9.844h2.47v-7.5l1.937 7.5h2.25l1.906-7.5v7.5h2.469v-9.844h-3.97l-1.53 5.969-1.532-5.969h-4Zm26.563 0v2.094h4.906l-5.437 5.687v2.063h9.312v-2.125h-5.719l5.532-5.75v-1.969h-8.594Zm10.281 0v9.844h3.031v-9.844h-3.03Zm5.188 0v9.844h2.468v-7.5l1.907 7.5h2.25l1.937-7.5v7.5h2.469v-9.844h-3.969l-1.531 5.969-1.563-5.969h-3.968Zm26.906 0v2.094h4.906l-5.437 5.687v2.063h9.312v-2.125H90.06l5.5-5.75v-1.969h-8.562Zm10.281 0v9.844h3.032v-9.844h-3.032Zm5.157 0v9.844h2.5v-7.5l1.906 7.5h2.25l1.938-7.5v7.5h2.468v-9.844h-3.968l-1.563 5.969-1.531-5.969h-4Zm-66.72 2.125c.64 0 1.159.23 1.532.656.373.427.562 1.107.562 2.031 0 1.1-.174 1.857-.53 2.282-.358.424-.88.625-1.532.625-.634 0-1.132-.223-1.5-.657-.369-.433-.563-1.133-.563-2.125 0-1 .192-1.723.563-2.156.37-.433.857-.656 1.469-.656Zm42.032 0c.638 0 1.127.23 1.5.656.373.427.562 1.107.562 2.031 0 1.1-.174 1.857-.53 2.282-.358.424-.849.625-1.5.625-.635 0-1.132-.223-1.5-.657-.37-.433-.563-1.133-.563-2.125 0-1 .191-1.723.562-2.156.37-.433.857-.656 1.469-.656Zm42.375 0c.639 0 1.127.23 1.5.656.373.427.563 1.107.563 2.031 0 1.1-.174 1.857-.532 2.282-.357.424-.847.625-1.5.625-.634 0-1.162-.223-1.531-.657-.368-.433-.531-1.133-.531-2.125 0-1 .192-1.723.562-2.156.371-.433.857-.656 1.469-.656Zm-84.406 9.875c-1.595 0-2.826.45-3.72 1.344-.892.893-1.343 2.146-1.343 3.75 0 1.147.237 2.08.688 2.843.45.764 1.024 1.335 1.75 1.688.725.353 1.642.531 2.75.531 1.09 0 2.02-.216 2.75-.625a4.096 4.096 0 0 0 1.656-1.718c.386-.735.594-1.665.594-2.813 0-1.58-.46-2.81-1.344-3.688-.884-.877-2.147-1.312-3.781-1.312Zm42.03 0c-1.593 0-2.825.45-3.718 1.344-.893.893-1.344 2.146-1.344 3.75 0 1.147.206 2.08.657 2.843.45.764 1.055 1.335 1.78 1.688.727.353 1.643.531 2.75.531 1.09 0 1.99-.216 2.72-.625a4.17 4.17 0 0 0 1.687-1.718c.386-.735.563-1.665.563-2.813 0-1.58-.429-2.81-1.313-3.688-.884-.877-2.147-1.312-3.781-1.312Zm42.376 0c-1.594 0-2.825.45-3.719 1.344-.893.893-1.343 2.146-1.343 3.75 0 1.147.205 2.08.656 2.843.451.764 1.056 1.335 1.781 1.688.726.353 1.643.531 2.75.531 1.09 0 1.989-.216 2.719-.625a4.169 4.169 0 0 0 1.687-1.718c.387-.735.563-1.665.563-2.813 0-1.58-.428-2.81-1.313-3.688-.884-.877-2.146-1.312-3.781-1.312Zm-117.531.156v2.094h4.937L2.06 32.563v2.062h9.313V32.5H5.684l5.5-5.75v-1.969H2.591Zm10.28 0v9.844h3.032v-9.844h-3.031Zm5.188 0v9.844h2.47v-7.5l1.937 7.5h2.25l1.906-7.5v7.5h2.469v-9.844h-3.97l-1.53 6-1.532-6h-4Zm26.563 0v2.094h4.906l-5.437 5.688v2.062h9.312V32.5h-5.719l5.532-5.75v-1.969h-8.594Zm10.281 0v9.844h3.031v-9.844h-3.03Zm5.188 0v9.844h2.468v-7.5l1.907 7.5h2.25l1.937-7.5v7.5h2.469v-9.844h-3.969l-1.531 6-1.563-6h-3.968Zm26.906 0v2.094h4.906l-5.437 5.688v2.062h9.312V32.5H90.06l5.5-5.75v-1.969h-8.562Zm10.281 0v9.844h3.032v-9.844h-3.032Zm5.157 0v9.844h2.5v-7.5l1.906 7.5h2.25l1.938-7.5v7.5h2.468v-9.844h-3.968l-1.563 6-1.531-6h-4Zm-66.72 2.125c.64 0 1.159.23 1.532.657.373.426.562 1.106.562 2.03 0 1.1-.174 1.858-.53 2.282-.358.424-.88.625-1.532.625-.634 0-1.132-.223-1.5-.656-.369-.433-.563-1.134-.563-2.125 0-1 .192-1.723.563-2.157.37-.433.857-.656 1.469-.656Zm42.032 0c.638 0 1.127.23 1.5.657.373.426.562 1.106.562 2.03 0 1.1-.174 1.858-.53 2.282-.358.424-.849.625-1.5.625-.635 0-1.132-.223-1.5-.656-.37-.433-.563-1.134-.563-2.125 0-1 .191-1.723.562-2.157.37-.433.857-.656 1.469-.656Zm42.375 0c.639 0 1.127.23 1.5.657.373.426.563 1.106.563 2.03 0 1.1-.174 1.858-.532 2.282-.357.424-.847.625-1.5.625-.634 0-1.162-.223-1.531-.656-.368-.433-.531-1.134-.531-2.125 0-1 .192-1.723.562-2.157.371-.433.857-.656 1.469-.656ZM35.716 37.063c-1.595 0-2.826.45-3.72 1.343-.892.893-1.343 2.147-1.343 3.75 0 1.148.237 2.112.688 2.875.45.764 1.024 1.304 1.75 1.657.725.352 1.642.53 2.75.53 1.09 0 2.02-.184 2.75-.593a4.096 4.096 0 0 0 1.656-1.719c.386-.734.594-1.664.594-2.812 0-1.581-.46-2.81-1.344-3.688-.884-.877-2.147-1.343-3.781-1.343Zm42.03 0c-1.593 0-2.825.45-3.718 1.343-.893.893-1.344 2.147-1.344 3.75 0 1.148.206 2.112.657 2.875a4.132 4.132 0 0 0 1.78 1.657c.727.352 1.643.53 2.75.53 1.09 0 1.99-.184 2.72-.593a4.17 4.17 0 0 0 1.687-1.719c.386-.734.563-1.664.563-2.812 0-1.581-.429-2.81-1.313-3.688-.884-.877-2.147-1.343-3.781-1.343Zm42.376 0c-1.594 0-2.825.45-3.719 1.343-.893.893-1.343 2.147-1.343 3.75 0 1.148.205 2.112.656 2.875a4.134 4.134 0 0 0 1.781 1.657c.726.352 1.643.53 2.75.53 1.09 0 1.989-.184 2.719-.593a4.168 4.168 0 0 0 1.687-1.719c.387-.734.563-1.664.563-2.812 0-1.581-.428-2.81-1.313-3.688-.884-.877-2.146-1.343-3.781-1.343ZM2.591 37.25v2.094h4.937L2.06 45.03v2.032h9.313v-2.094H5.684l5.5-5.75V37.25H2.591Zm10.28 0v9.813h3.032V37.25h-3.031Zm5.188 0v9.813h2.47v-7.5l1.937 7.5h2.25l1.906-7.5v7.5h2.469V37.25h-3.97l-1.53 5.969-1.532-5.969h-4Zm26.563 0v2.094h4.906l-5.437 5.687v2.032h9.312v-2.094h-5.719l5.532-5.75V37.25h-8.594Zm10.281 0v9.813h3.031V37.25h-3.03Zm5.188 0v9.813h2.468v-7.5l1.907 7.5h2.25l1.937-7.5v7.5h2.469V37.25h-3.969l-1.531 5.969-1.563-5.969h-3.968Zm26.906 0v2.094h4.906l-5.437 5.687v2.032h9.312v-2.094H90.06l5.5-5.75V37.25h-8.562Zm10.281 0v9.813h3.032V37.25h-3.032Zm5.157 0v9.813h2.5v-7.5l1.906 7.5h2.25l1.938-7.5v7.5h2.468V37.25h-3.968l-1.563 5.969-1.531-5.969h-4Zm-66.72 2.125c.64 0 1.159.199 1.532.625s.562 1.107.562 2.031c0 1.099-.174 1.857-.53 2.282-.358.424-.88.656-1.532.656-.634 0-1.132-.223-1.5-.657-.369-.433-.563-1.133-.563-2.124 0-1 .192-1.724.563-2.157.37-.433.857-.656 1.469-.656Zm42.032 0c.638 0 1.127.199 1.5.625s.562 1.107.562 2.031c0 1.099-.174 1.857-.53 2.282-.358.424-.849.656-1.5.656-.635 0-1.132-.223-1.5-.657-.37-.433-.563-1.133-.563-2.124 0-1 .191-1.724.562-2.157.37-.433.857-.656 1.469-.656Zm42.375 0c.639 0 1.127.199 1.5.625s.563 1.107.563 2.031c0 1.099-.174 1.857-.532 2.282-.357.424-.847.656-1.5.656-.634 0-1.162-.223-1.531-.657-.368-.433-.531-1.133-.531-2.124 0-1 .192-1.724.562-2.157.371-.433.857-.656 1.469-.656Zm-84.406 9.75c-1.595 0-2.826.42-3.72 1.313-.892.893-1.343 2.146-1.343 3.75 0 1.147.237 2.11.688 2.874.45.764 1.024 1.335 1.75 1.688.725.353 1.642.531 2.75.531 1.09 0 2.02-.216 2.75-.625a4.096 4.096 0 0 0 1.656-1.718c.386-.735.594-1.665.594-2.813 0-1.58-.46-2.81-1.344-3.688-.884-.877-2.147-1.312-3.781-1.312Zm42.03 0c-1.593 0-2.825.42-3.718 1.313-.893.893-1.344 2.146-1.344 3.75 0 1.147.206 2.11.657 2.874.45.764 1.055 1.335 1.78 1.688.727.353 1.643.531 2.75.531 1.09 0 1.99-.216 2.72-.625a4.17 4.17 0 0 0 1.687-1.718c.386-.735.563-1.665.563-2.813 0-1.58-.429-2.81-1.313-3.688-.884-.877-2.147-1.312-3.781-1.312Zm42.376 0c-1.594 0-2.825.42-3.719 1.313-.893.893-1.343 2.146-1.343 3.75 0 1.147.205 2.11.656 2.874.451.764 1.056 1.335 1.781 1.688.726.353 1.643.531 2.75.531 1.09 0 1.989-.216 2.719-.625a4.169 4.169 0 0 0 1.687-1.718c.387-.735.563-1.665.563-2.813 0-1.58-.428-2.81-1.313-3.688-.884-.877-2.146-1.312-3.781-1.312Zm-117.531.156v2.094h4.937L2.06 57.063v2.03h9.313V57H5.684l5.5-5.75v-1.969H2.591Zm10.28 0v9.813h3.032V49.28h-3.031Zm5.188 0v9.813h2.47v-7.469l1.937 7.469h2.25l1.906-7.469v7.469h2.469V49.28h-3.97l-1.53 5.969-1.532-5.969h-4Zm26.563 0v2.094h4.906l-5.437 5.688v2.03h9.312V57h-5.719l5.532-5.75v-1.969h-8.594Zm10.281 0v9.813h3.031V49.28h-3.03Zm5.188 0v9.813h2.468v-7.469l1.907 7.469h2.25l1.937-7.469v7.469h2.469V49.28h-3.969l-1.531 5.969-1.563-5.969h-3.968Zm26.906 0v2.094h4.906l-5.437 5.688v2.03h9.312V57H90.06l5.5-5.75v-1.969h-8.562Zm10.281 0v9.813h3.032V49.28h-3.032Zm5.157 0v9.813h2.5v-7.469l1.906 7.469h2.25l1.938-7.469v7.469h2.468V49.28h-3.968l-1.563 5.969-1.531-5.969h-4Zm-66.72 2.125c.64 0 1.159.23 1.532.657.373.426.562 1.075.562 2 0 1.098-.174 1.888-.53 2.312-.358.424-.88.625-1.532.625-.634 0-1.132-.223-1.5-.656-.369-.433-.563-1.134-.563-2.125 0-1 .192-1.723.563-2.157.37-.433.857-.656 1.469-.656Zm42.032 0c.638 0 1.127.23 1.5.657.373.426.562 1.075.562 2 0 1.098-.174 1.888-.53 2.312-.358.424-.849.625-1.5.625-.635 0-1.132-.223-1.5-.656-.37-.433-.563-1.134-.563-2.125 0-1 .191-1.723.562-2.157.37-.433.857-.656 1.469-.656Zm42.375 0c.639 0 1.127.23 1.5.657.373.426.563 1.075.563 2 0 1.098-.174 1.888-.532 2.312-.357.424-.847.625-1.5.625-.634 0-1.162-.223-1.531-.656-.368-.433-.531-1.134-.531-2.125 0-1 .192-1.723.562-2.157.371-.433.857-.656 1.469-.656Z"/></g></svg>