<svg xmlns="http://www.w3.org/2000/svg" xmlns:vectornator="http://vectornator.io" xml:space="preserve" stroke-miterlimit="10" style="fill-rule:nonzero;clip-rule:evenodd;stroke-linecap:round;stroke-linejoin:round" viewBox="0 0 236.844 236.844"><g vectornator:layerName="Untitled"><g vectornator:layerName="g"><path vectornator:layerName="path" d="M197.748 85.957c-7.495-3.895-15.803-5.113-24.692-3.62-10.144 1.704-19.654 6.616-27.31 10.57-2.586 1.335-5.027 2.597-7.23 3.598-.989.452-1.905.75-2.726.888-1.925.323-3.268-.22-4.102-1.66-2.241-3.858-2.093-12.954 2.704-17.616.342-.333.342-.88-.002-1.245-.337-.355-.915-.422-1.3-.133-1.292.972-2.892 1.64-4.628 1.932-3.031.509-6.198-.153-8.469-1.77-1.845-1.317-2.985-3.18-3.293-5.392-.068-.493-.542-.865-1.054-.83-.523.037-.886.468-.831.961.438 3.898-1.469 16.871-7.487 20.198-1.39.767-2.745-.136-2.745-.136-2.156-1.36-5.151-6.77-5.485-7.382C95.87 78.408 91.45 70.314 84.3 63.03c-8.44-8.597-18.993-14.194-31.365-16.635-.482-.095-.947.183-1.068.618-.124.449.13.925.59 1.109 3.084 1.23 8.83 4.941 10.804 11.038 1.56 4.814.318 9.955-3.691 15.279a.87.87 0 0 0-.018 1.01c.21.322.59.496.97.446 7.506-.985 10.605 1.738 11.665 4.292C75.478 88.117 70.4 90.89 70.4 90.89c-.434.24-.579.622-.451 1.035.131.425.557.715 1.01.689 6.902-.385 20.484 6.485 29.067 14.702 5.901 5.65 8.987 11.46 8.691 16.361-.026.424.255.818.684.956.419.135.886-.031 1.093-.382 2.357-3.961 8.015-6.875 15.933-8.206 6.622-1.111 14.326-1.046 21.132.18 6.644 1.196 11.573 3.408 13.193 5.914a1.01 1.01 0 0 0 1.174.402.85.85 0 0 0 .548-1.026c-.698-2.756-.107-5.734 1.663-8.383 1.927-2.884 4.99-4.927 8.195-5.465a9.94 9.94 0 0 1 6.083.868.983.983 0 0 0 1.012-.09.855.855 0 0 0 .296-.923c-.95-3.249-.272-6.909 1.906-10.31 3.08-4.804 8.603-8.395 14.41-9.37.473-.08.951-.141 1.421-.186a.883.883 0 0 0 .801-.718c.067-.392-.141-.786-.514-.98Zm-64.125 38.724c-5.523.351-10.598 2.479-15.08 6.325-5.115 4.389-8.789 10.365-11.747 15.174-.999 1.623-1.942 3.158-2.838 4.465-.403.589-.816 1.066-1.229 1.42-.971.833-1.908.983-2.864.457-2.563-1.406-5.558-6.56-4.445-10.799a.577.577 0 0 0-.422-.698c-.31-.086-.656.072-.774.364-.396.984-1.068 1.899-1.944 2.652-1.528 1.31-3.529 2.011-5.35 1.871-1.481-.114-2.752-.773-3.673-1.91a.655.655 0 0 0-.872-.11.57.57 0 0 0-.141.821c1.565 2.038 4.885 9.963 2.634 13.867-.52.9-1.586.853-1.586.853-1.67-.033-5.182-2.056-5.577-2.286-3.812-2.225-9.032-5.271-15.507-6.938-7.645-1.968-15.461-1.536-23.23 1.281-.301.109-.468.423-.389.708.082.294.386.475.706.422 2.147-.353 6.627-.215 9.798 2.538 2.504 2.174 3.547 5.478 3.1 9.822a.573.573 0 0 0 .332.573c.227.11.499.079.696-.079 3.877-3.093 6.538-2.613 7.997-1.538 4.53 3.335 2.62 6.609 2.62 6.609-.163.281-.115.546.097.734a.658.658 0 0 0 .8.044c3.743-2.552 13.689-3.294 21.286-1.588 5.223 1.174 8.92 3.39 10.413 6.24.129.247.42.373.707.305.282-.066.487-.317.485-.584-.019-3.021 2.17-6.571 6.163-9.997 3.34-2.866 7.684-5.436 11.918-7.051 4.132-1.577 7.648-2.005 9.404-1.145.267.13.607.06.796-.172a.56.56 0 0 0-.04-.762c-1.324-1.31-2.001-3.182-1.904-5.267.106-2.271 1.133-4.453 2.749-5.84a6.518 6.518 0 0 1 3.707-1.572.645.645 0 0 0 .537-.393.56.56 0 0 0-.147-.617c-1.632-1.502-2.49-3.785-2.419-6.431.102-3.737 1.985-7.621 4.915-10.134.238-.205.485-.402.735-.585a.579.579 0 0 0 .205-.674.616.616 0 0 0-.622-.375Zm53.541 52.306c-4.158-1.051-8.612-.771-12.196-.547-1.211.075-2.354.148-3.363.161a4.567 4.567 0 0 1-1.189-.119c-.789-.199-1.21-.632-1.287-1.321-.209-1.848 1.374-5.295 3.986-6.27a.367.367 0 0 0 .209-.475.417.417 0 0 0-.474-.268 4.415 4.415 0 0 1-2.091-.04c-1.242-.314-2.34-1.097-2.934-2.095a3.25 3.25 0 0 1-.353-2.61.417.417 0 0 0-.263-.494c-.207-.072-.417.03-.479.227-.487 1.561-3.39 6.193-6.246 6.453-.659.06-1.025-.512-1.025-.512-.595-.882-.831-3.448-.856-3.737-.24-2.798-.57-6.629-2.077-10.607-1.779-4.697-4.869-8.602-9.18-11.61a.381.381 0 0 0-.511.057c-.124.15-.105.375.039.522.969.987 2.541 3.366 2.272 6.025-.212 2.099-1.548 3.853-3.971 5.211a.364.364 0 0 0-.176.383.418.418 0 0 0 .295.333c3.03.883 3.755 2.442 3.732 3.595-.075 3.578-2.478 3.784-2.478 3.784-.206.019-.324.141-.346.321a.42.42 0 0 0 .27.432c2.699 1.011 6.73 5.912 8.628 10.487 1.305 3.146 1.507 5.881.573 7.702a.397.397 0 0 0 .1.479.395.395 0 0 0 .482.038c1.564-1.117 4.212-1.279 7.458-.46 2.714.687 5.642 2.004 8.035 3.612 2.334 1.57 3.845 3.243 4.043 4.47.03.187.191.339.38.352a.354.354 0 0 0 .381-.3c.196-1.168.921-2.205 2.041-2.921 1.219-.777 2.731-1.043 4.044-.711a4.139 4.139 0 0 1 2.176 1.351c.099.116.26.171.402.136a.355.355 0 0 0 .267-.303c.183-1.399 1.055-2.682 2.458-3.614 1.981-1.317 4.691-1.761 7.071-1.16.193.048.386.105.574.168a.367.367 0 0 0 .426-.141.391.391 0 0 0-.033-.46c-2.204-2.745-5.17-4.603-8.814-5.524Z"/></g></g></svg>