<svg xmlns="http://www.w3.org/2000/svg" xmlns:vectornator="http://vectornator.io" xml:space="preserve" stroke-miterlimit="10" style="fill-rule:nonzero;clip-rule:evenodd;stroke-linecap:round;stroke-linejoin:round" viewBox="0 0 1024 1024"><g vectornator:layerName="Layer 1"><path vectornator:layerName="Curve 1" d="M513.98 178.146c-23.192-.156-47.837 2.214-74.287 7.704-105.804 21.959-182.66 90.835-225.58 170.687-42.921 79.852-44.933 181.664-23.972 251.534 20.961 69.871 63.898 129.75 111.808 166.681 47.912 36.933 93.437 53.279 93.437 53.279.85-23.564 3.229-65.001 3.229-65.132.391-6.127.6-18.535 3.924-58.673 8.856-106.893 15.763-139.487 43.367-139.889l62.229-.92c9.518-.138 18.642-.152 18.005 9.401 0 0-11.885 5.089-18.904 12.916-5.657 2.679-12.193 4.44-19.088 3.658l-33.108-2.35c2.549 9.977 13.654 2.649 13.999 9.769l1.288 26.322c1.224 25.235-25.889 25.435-26.547 25.464l-15.287.634.123 4.149 18.148.327c18.721.327 28.438-8.494 28.897-33.108.282-15.123-1.431-18.592-1.431-25.893l12.896.204-3.863 120.167c-4.954-.911-4.892.297-17.8-.224-24.12-1.174-32.944-14.659-32.944-39.3 0-5.606-.408-7.774-.408-13.12L426 663.822c1.434 4.303-.097-5.26-1.533 24.075-1.303 26.728-3.821 40.117-3.822 40.117-.391 4.564-2.336 17.617-1.062 31.84 2.76-.212 2.753.016 5.089-23.972 0 0 1.286-21.862 4.046-40.117 3.911 15.123 21.795 24.115 36.397 24.115h18.251c0 17.21-.097 30.439 0 52.154 18.905 0 16.811-3.136 16.942 16.942.261 25.554-.1 40.959-.042 54.135.001 0 29.509 2.315 32.27 2.74 2.76.426-4.66-73.448-4.66-73.448l11.036.429s-2.103-49.042-2.125-58.592c7.218-1.063 22.081-5.347 23.993-22.542 1.909-17.194-.859-18.679-.859-18.679s3.624-4.66 6.172-14c2.548-9.34-1.921-20.804-1.921-20.804s3.815-7.636 4.026-15.491c.212-7.854-5.089-16.349-5.089-16.349s1.917-2.996 1.493-9.789c-.425-6.793-3.825-16.364-7.01-20.396-3.185-4.034-6.99-4.864-6.99-4.864s-6.374-20.597-8.072-31.636c-1.699-11.039 1.273-12.746 5.518-14.019 4.246-1.274 8.917-1.684 11.464 2.35 2.548 4.034 4.252 9.539 8.073 22.276 3.82 12.737 6.155 21.667 9.339 34.19 3.184 12.527 6.355 24.624 5.294 26.323-1.062 1.697-6.156 3.389-6.581 5.088-.423 1.699 0 1.901 0 1.901l13.591-3.597s-5.731-24.628-9.34-39.913c-3.61-15.284-8.701-33.549-8.277-40.342.426-6.793 5.086-8.91 9.544-8.91 4.457 0 7.644.005 10.402 7.01 2.76 7.006 6.801 19.527 9.135 28.019 2.335 8.491 7.439 26.751 7.439 26.751s-3.203 5.947-2.779 19.108c.425 13.162 4.92 34.823 3.433 37.584-1.486 2.759-8.079 5.529-18.27 11.26-10.189 5.732-14.648 10.179-18.045 15.062-3.397 4.882-5.942 11.053-4.456 27.609 1.485 16.559 6.376 37.604 6.376 37.604l4.456-.858s-3.612-17.614-4.251-29.715c-.636-12.1-1.275-23.175 2.759-29.756 4.032-6.581 12.093-12.726 21.008-17.821 8.917-5.093 15.711-7.846 16.983-10.606 1.274-2.76-.408-5.535-1.471-12.753-1.061-7.217-2.342-15.284-2.555-25.259-.212-9.978-.629-18.285 3.618-23.38 4.246-5.096 8.909-6.783 14.428-5.722 5.518 1.062 6.376 2.758 6.376 4.455 0 1.699-.008 14.009-.858 15.92-.849 1.91-.422 13.391 2.125 29.736 2.549 16.345 5.728 28.026 7.215 37.153 1.484 9.129 3.625 20.597.654 26.118-2.972 5.519-16.558 23.343-19.742 26.527-3.184 3.185-12.125 12.552-12.549 19.558-.424 7.005 3.2 23.788 5.11 34.191 1.897 10.328 10.604 54.166 10.729 54.79.248-.085 43.943-15.019 84.751-44.879 40.924-29.943 98.814-96.807 118.777-165.68 19.96-68.872 17.965-130.758 4.99-188.65-12.979-57.894-72.866-156.716-143.734-196.642-53.152-29.944-109.655-53.157-179.229-53.625Zm7.398 20.968c2.254-.047 3.529.015 5.784 0 .561 0 1.41.305 1.41.633 0 .11-.634 3.348-.634 4.067v13.611c.017.296-.43 17.125 1.103 21.111.895 2.322 1.574 2.777 1.574 3.903 0 .219.033.125 0 .797-.781-.219-4.598 0-5.007 0-5.366-.125-2.033-3.453-4.067-3.453-.766 0-5.257 3.126-7.99 3.923-3.306.964-7.031.614-7.031.614-11.467 1.018-14.714-11.061-14.714-13.141 0-.313.236.843 0-4.68-.249-6.118-.634-19.722-.634-19.722-.113-3.553-1.86-6.386-1.86-6.417 0-.547 10.158-.776 10.158-.776-.016.235-1.083 2.317-1.083 5.947-.001 0-.205 16.204-.205 20.069 0 6.821 3.135 11.686 10.832 13.876 1.189.126 1.388.064 2.656 0 5.335-.266 9.871-3.05 9.871-8.604v-21.744c-.405-1.252-.202-1.927-.797-5.947-.063-.455-1.41-3.136-1.41-3.434 0-.423 1.888-.633 2.044-.633Zm-49.273 1.246c.328 0 .138 6.417-.94 6.417-.408 0-2.048-.776-2.657-.776h-4.23c-.032 0-4.864.427-4.864 2.82 0 .923.315 4.39 1.103 7.03l4.538 21.132c.703 4.595 1.718 6.868 3.596 7.806-.375.565-10.156 2.106-10.156 1.574 0 0 .776-3.329.776-3.454 0-3.771-5.17-26.285-5.17-27.364 0 0-.755-7.433-2.964-7.194-8.839.957-11.894 3.597-11.894 3.597 0-4.976.925-7.067 5.947-6.724l13.774-2.35c1.768-.438 7.337-1.267 7.337-1.267s5.115-1.247 5.804-1.247Zm71.324.307h1.88c.157.079 20.036 3.615 23.931 3.74.079 0 6.111.374 6.111 1.267 0 1.189-2.821 5.334-2.821 5.334-.594-.908-4.241-3.454-9.686-3.454h-1.268c-.875 0-2.022 9.401-2.022 9.401-.059.276-1.169 8.141-1.248 8.747l-2.043 15.818c0 1.172.76 3.27 1.574 4.21v.469h-.941c-.06 0-9.237-.544-9.237-1.716 0 0 3.022-6.594 3.29-8.91l2.024-17.535 1.104-8.134v-2.493c0-1.267-5.485-2.187-5.641-2.187-2.253-.032-6.14.261-7.971.777 0 0 1.868-5.334 2.964-5.334Zm44.327 8.604c.064.054.024.163.102.163 2.206 0 4.303.542 10.811 2.514 7.948 2.409 9.994 1.675 9.993 3.74 0 1.438-1.199 4.318-1.246 4.537h-.47c-2.317-3.49-12.201-5.15-12.201-5.15-1.815 0-1.405 1.198-2.656 5.313l-1.411 6.417c0 3.489 10.178 1.871 10.178 5.314 0 .125-.823 3.26-1.574 3.76-2.847-2.488-5.745-3.29-8.297-3.29h-.613c-1.362 0-1.857 2.218-2.984 6.723 0 0-1.88 7.509-1.88 8.134 0 1.331 2.193 1.786 5.947 3.147 1.752.626 7.34 1.554 7.357 1.554 1.033 0 1.625.092 2.657 0 0 0 1.811-.634 3.454-.633.235 0 .265.031.469 0-.281.656-3.128 5.296-4.536 5.639l-24.565-6.56v-.47c3.519-2.346 4.73-13.406 6.56-18.474l4.864-20.028c0-.219-.461-1.702-.634-2.187.446-.219.61-.218.675-.163Zm-162.594.94s-.47 1.706-.47 2.82c0 4.25 4.537 15.491 4.537 15.491.455 1.064 4.7 14.842 4.7 14.857 0 0 .957 3.797 4.21 7.521v.47l-9.216 2.657c0-1.846-.032-2.982 0-4.844.015-1.079-1.574-5.79-1.575-6.274 0 0-5.057-15.562-5.149-15.797-1.159-2.722-3.316-12.253-6.274-14.224.549-.672 9.237-2.677 9.237-2.677Zm-22.991 6.417c.75.266 1.553 1.439 1.553 4.067v2.513s-2.147-.47-2.35-.47c-1.017 0-9.217 2.08-9.217 4.067 0 1.611 5.152 12.479 6.56 15.797 0 0 5.596 11.839 6.723 14.082.029.056 1.571 2.885 4.088 4.23-1.126 1.299-4.827 2.657-5.171 2.657-.608 0-3.965 1.427-4.373 1.553v-2.656c0-4.225-4.009-10.624-6.887-17.352-1.032-2.425-2.916-6.146-3.76-8.133-1.377-3.239-2.456-7.684-4.537-7.684-1.253 0-3.486 1.103-4.374 1.41-2.171.748-5.877 4.121-7.051 4.7.032-.296-.469-3.932-.47-4.23v-1.553c1.644-1.095 6.858-3.05 7.828-3.597l12.037-5.007 9.401-4.394Zm247.038 16.88c1.517-.062 2.09.048 3.576 0 3.458-.109 7.525 1.616 13.141 5.355 2.925 1.94 6.805 7.255 7.991 10.3 0 0 1.906 4.303 1.717 10.341 0 0-1.18 5.897-3.29 9.074-.595.891-1.01 1.971-3.577 4.537 0 0-4.828 4.95-12.65 6.417-.632.118-4.296.347-5.518.143-7.699-1.286-12.783-5.86-13.284-6.111-2.785-1.393-7.043-8.261-7.93-12.609-.219-1.072-.388-4.242-.388-5.212.001-10.764 8.729-21.687 20.212-22.235Zm4.19 4.415c-3.755 0-6.731 1.373-8.849 2.677-2.665 1.64-6.295 7.464-6.295 7.48-.72 1.049-2.514 5.294-2.514 8.767 0 1.501.016 3.154 0 5.314-.078 6.054 8.936 12.833 13.591 12.691 0 0 9.538.445 14.407-5.968 3.179-4.184 5.598-8.759 5.15-13.468l-.388-4.393c-1.629-8.311-9.188-13.1-15.102-13.1Zm-293.47.143c2.19 3.285 2.963 5.64 2.963 5.64-.047 0-2.57-.991-6.724 0-.532.127-7.827 3.925-7.827 7.194v1.553c0 1.595 2.159 5.334 5.804 5.334h1.716l4.68.47c.361 0 6.222.015 6.581 0 6.195-.328 7.223 1.242 9.238 2.657-.14.391 2.709 2.658 3.126 8.134.265 3.463-2.951 11.744-12.977 15.388-.094.033-5.07 2.126-6.744 2.126-2.613 0-3.238-2.736-4.537-3.597.11-.296-.245-.721-1.247-1.88 1.752-.876 1.824.251 4.373 0 4.068-.421 5.846-1.247 6.581-1.247 2.457 0 8.747-4.505 8.747-8.603 0-1.315-.197-1.913-.777-2.964-1.2-2.182-5.054-3.29-5.476-3.29h-14.224c-4.834 0-8.337-3.533-8.931-3.924-1.394-1.735-2.187-3.379-2.187-5.947v-2.023c0-8.104 11.943-13.066 17.842-15.021Zm335.569 21.274s3.035 2.272 9.074 6.888c3.064 2.331 8.767 6.169 8.767 7.03 0 0-2.249 3.752-3.454 4.393-.126-2.409-2.239-4.796-4.21-6.11-3.003-2.003-6.192-4.067-7.255-4.067-2.392 3.423-6.825 9.278-6.825 10.014 0 .5 3.451 4.503 9.155 6.458 0 0-3.004 4.333-3.678 4.333-.016 0-4.953-6.125-7.828-6.867-.044-.011-2.673 2.37-7.561 8.563 0 0-3.7 3.553-3.7 8.952-1.829-.095-7.241-5.047-8.133-5.642.704-.86 3.769-2.408 4.067-2.799 0 0 3.866-4.424 5.007-6.417 0 0 11.767-16.468 15.328-20.805 1.616-1.969.385-2.625 1.246-3.924Zm-184.441.47c7.659 7.008 19.599 44.195 19.599 68.055 0 36.376-18.249 70.239-20.866 93.947 0 0-4.241 21.683-3.944 35.682.155 7.392 1.737 18.883 1.737 18.883-1.829-25.268 22.387-72.991 31.514-101.999 5.724-18.194 6.845-38.44 6.845-44.307 0-15.645-5.93-34.102-5.537-34.885 25.421 33.042 34.344 58.313 38.134 85.711 10.545 76.242-60.697 80.825-70.588 98.587-14.471-20.339-80.416-50.145-77.25-91.822l.511-6.744c2.43-31.985 48.501-78.537 56.895-90.289 0 0 .017 10.061-.654 13.754-2.098 11.538-19.49 46.235-24.851 61.126-3.022 8.393-.102 14.101-.102 14.101 7.561-38.201 41.626-76.926 45.635-101.693l2.922-18.107Zm-189.611 2.187c1.534 4.256 2.837 5.963 7.828 10.954 1.922 1.925 5.454 5.84 6.253 6.887 1.627 2.128 2.475 1.985 2.35 3.127 1.158.766 6.091 6.417 6.09 6.417 1.939 3.364 5.478 5.823 5.478 6.887 0 .407-2.37 1.671-3.434 1.717-2.536.126-2.758-.155-3.29 0l-37.542-6.58c-.861.203-.705.297-1.268 0v.796l6.111 7.501c3.287 2.863 3.645 3.971 4.067 4.394 0 0 2.412 1.937 2.35 2.656.767.266 5.143 6.34 5.783 6.888 0 0 3.418 1.842 3.761 2.186-2.612 2.284-1.798 1.597-5.334 4.681-1.033-.847-1.005-2.487-1.553-3.597-.016-.047-8.44-9.789-9.238-10.321.095-.251-3.988-4.882-4.066-5.007 0 0-4.327-4.796-4.374-4.843-1.361-1.361-2.789-2.953-6.887-7.051-.438-.438-2.68-.8-3.29-1.41 0 0 4.335-4.537 5.476-4.537h1.575c1.032 0 34.775 6.417 38.012 6.417.783 0 .94-.066.94-.613 0-.141-4.476-6.356-10.014-11.895-.063-.062-8.268-9.066-9.237-9.707-.298-.187-1.483-.119-2.658-.776.235-.11 4.281-4.716 6.111-5.171Zm415.191 32.862c.923 0 3.605 2.881 5.64 5.947l6.07 7.092 7.378 8.706c1.829 2.095 2.35 1.967 2.35 2.656 0 .22-4.861 2.514-5.314 2.514-.829 0-.469-.938-.469-1.266 0-2.051-4.626-8.441-6.581-8.441-.501 0-6.788 5.012-8.134 6.56 0 0-6.506 5.298-7.664 7.051-.438-.157-6.075 4.992-6.56 5.477-1.799 1.799-4.286 2.663-5.334 6.887-1.547-.564-3.625-4.174-6.253-7.194v-.47c6.93-1.721 11.149-8.279 15.654-11.281 0 0 6.537-5.739 7.193-6.397 1.486-1.487 5.413-3.365 7.052-5.783-3.749-6.845-8.88-8.823-9.708-9.871 0 0 3.727-2.187 4.68-2.187Zm-459.314 8.134c.658 0 .75 2.721 3.128 4.537.093.062 7.469 7.077 7.97 7.357.892.518 14.364 13.331 15.96 14.551.219.157 4.85 2.657 4.865 2.657-1.47 2.221-6.275 6.872-6.275 6.887h-.47c-.25-.376-.47-.782-.469-1.267 0-.532-.633-1.572-2.964-3.904-.875-.875-9.988-10.213-13.141-12.67v.47h-.47v-.47c.345.187.157.156.47 0-.565-.441-1.008-.729-1.103-.633 0 0-8.083-8.678-13.917-10.791.359-.609.26-.603.776-.307.141-.813 4.874-6.417 5.64-6.417Zm488.579 27.385c.767 1.158 1.508 1.144 2.351 2.494 0 0 .801 2.009 5.62 9.237l4.945 7.5s-4.414 2.059-4.945 2.514c-.548-.548-.614-1.92-.614-2.984 0-1.221-2.013-3.68-2.983-5.15-1.939-2.911-2.415-4.394-3.76-4.394-1.189 0-1.89.912-5.457 3.29-3.755 2.504-4.537 3.426-4.537 4.067 0 1.329 5.313 7.649 5.313 8.604 0 .765-1.868 1.014-3.76 2.657 0 0-.282-2.902-5.783-9.074-3.136 1.283-13.141 8.494-13.141 8.931 0 .172.2 7.169 12.2 15.163-.267.329-4.459 1.881-5.947 1.881-1.252 0-2.679-3.427-7.357-9.544 0-.015-7.216-11.33-7.357-11.894 3.298-.157 5.272-1.88 5.804-1.88.391 0 13.976-9.47 15.164-10.157 3.895-2.254 11.49-7.115 14.244-11.261Zm-523.954 25.485c1.08 0 8.05 1.208 9.728 1.41l14.244 1.716c.39.047 8.816 1.901 13.447 1.901h4.21c.031 0 3.74-.94 3.74-.94s-3.672 8.341-4.987 9.217c-2.081-1.815-2.514-2.677-7.521-2.677-.249 0-5.927-1.063-6.866-1.063h-1.737c-.83.721-4.373 6.867-4.373 6.867-2.473 5.789-3.617 6.813-3.617 7.5 0 .156 4.676 9.988 11.608 12.507-.001 0-4.17 8.437-4.17 8.155 0-2.614-4.336-7.758-13.692-20.008-4.615-6.039-6.986-8.719-7.174-9.094-1.815-3.631-8.133-7.926-8.133-8.114 0 0 3.009-7.377 5.293-7.377Zm1.859 6.458c0 .674.506 1.473 5.232 6.683 1.626 1.8 4.069 5.883 5.927 7.377 1.401-1.168 3.515-5.415 3.515-5.415.816-1.093 2.291-3.911 2.943-6.029-.978-.978-2.606-1.097-4.905-1.472-3.411-.563-8.768-1.001-8.767-1.001l-3.945-.143Zm533.663 10.912c.452 0 3.95.33 5.906.981 6.675 2.226 11.689 6.759 13.365 9.626 2.679 4.585 5.927 13.553 5.927 14.429 0 .517-.514.664-.797 1.103-.75-.282-2.757 1.86-4.211 1.86-.673 0-.469-3.904-.469-3.904-.689-5.732-5.597-17.677-16.268-17.677 0 0-3.284.449-3.453.47-6.162.782-11.292 5.352-11.568 5.641-5.665 5.904-5.018 11.108-3.29 19.23l1.717 3.761c1.265 3.817 6.887 8.133 6.887 8.133-.767.939-3.067.777-4.537.777-1.784 0-4.635-3.013-7.357-9.381-2.316-5.428-2.964-9.206-2.964-13.304 0-4.74 1.209-7.843 2.821-10.627.547-.955 4.636-5.74 6.56-6.744 0 0 7.006-4.374 11.731-4.374Zm-555.223 21.276c1.768 2.033 6.726 5.321 23.686 11.485 5.291 2.822 11.178 4.294 13.713 4.169 1.908-.094 1.373.189 2.187 0v1.247c-.986 1.142-1.548 5.45-3.127 7.827-.283-.234-2.148-2.282-2.821-2.657-.079-.03-23.853-9.984-23.931-10.014-3.973-1.689-10.021-4.052-12.977-3.597-.047-.469 2.112-7.037 3.27-8.46Zm588.085 25.341c.688 1.378 2.186 6.099 2.186 7.663 0 1.173-.137 1.104-2.186 1.104-.346 0-2.843-.08-3.455 0 0 0-10.79 1.867-10.79 3.76 0 .439 3.597 15.634 3.597 15.634.28 1.16 1.093 5.477 3.127 5.477.704 0 1.349-.776 3.76-.776 0 0 7.799-1.579 10.648-4.067.109.139 1.032 2.972 1.716 5.62 0 0 .461 2.524.633 3.29-2.988-.47-2.636.063-5.17 0-2.972-.062-5.754 1.07-8.44 1.717-.243.059-13.8 3.344-14.551 3.454-3.567.547-9.08 1.558-12.834 4.843-2.041-4.049-2.821-9.85-2.821-9.85 1.143-.125 1.834.423 2.514.777 1.206.624 4.779.308 14.224-2.494.33-.099 4.231-.902 4.231-2.043 0-1.44-.798-2.982-1.41-6.254 0 0-3.793-14.364-4.231-15.021l-12.344 2.657c-2.035.637-3.355-.016-7.214 3.596-1.345-1.094-1.678-3.612-2.186-5.477.062-.156-.111-3.294-.471-4.373l4.865.471s30.258-7.195 31.758-7.194c.375 0 2.903-.824 4.844-2.514Zm-599.039 4.23c.345.08 4.675 2.689 9.544 3.76 6.662 1.467 11.102 2.351 11.117 2.351.032 0 14.488 3.231 19.088 4.373.453.11 2.82.142 2.82.94 0 2.237-4.347 5.864-8.133 6.887 0 0-11.506 6.467-13.775 7.03-.955.234-12.477 6.581-13.447 6.581 0 0-3.597 1.53-3.597 2.187 0 1.017 2.816 1.296 7.337 2.657 0 0 12.191 2.955 16.431 3.596 5.382.814 7.99-.442 7.99 1.247 0 0-.782 5.804-1.737 5.804-.5 0-.921-.869-2.33-1.574 0 0-14.38-3.488-15.49-3.596-1.174-.125-17.774-3.761-19.088-3.761h-1.574c-.203 0-3.597.777-3.597.777-.079-.313 1.129-6.912 1.41-7.194 0 0 5.134-2.657 5.948-2.657 0 0 19.552-10.032 19.864-10.157 3.943-1.689 9.01-4.095 10.177-5.804-1.819-1.551-10.181-3.128-12.527-3.596-9.746-1.941-14.694-2.964-14.694-2.964-.153-.03-3.454.509-3.454.307 0-1.846 1.358-5.706 1.717-7.194Zm33.168 54.607c.688 1.283.458 4.046.491 4.721.162 3.422-1.617 5.337-4.231 7.95-3.471 3.472-7.511 6.215-9.707 7.336 0 0-8.824 5.648-9.074 5.804-.564-.845-.47-.653-.47-2.186 0-2.738-3.956-9.544-8.134-9.544h-2.043c-2.57 0-6.796 3.254-7.031 7.806-.062 1.315 0 3.29 0 3.29 0 1.582-.268 2.867 3.863 2.678.453-.016 22.569-.004 22.726.45h7.214c1.721 0 3.632-.241 5.15-1.553h.633c.579 8.244-.532 9.32 0 10.32h-.47c-2.456-1.626-4.751-1.981-6.253-2.044-5.539-.219-20.192-.613-20.192-.613-.312-.03-14.387-.47-14.387-.47-.625-.266-.745.089-2.044.777l.45-15.328c.183-6.454 5.007-12.528 9.728-12.528h2.35s4.736.842 6.253 4.394c.031.077 3.291 6.887 3.761 6.887 1.533 0 5.276-3.154 11.567-8.133.071-.058 7.555-6.429 9.85-10.014Zm577.908 1.859c.155.235.633 4.516.633 6.581 0 1.659-8.362 7.815-9.707 9.85-.468-.173-5.969 5.172-8.236 7.439-1.973 1.973-10.279 7.99-11.629 10.709-.271.547 6.55.327 7.051.327 8.887-.203 14.715-.469 18.454-.47l5.171-2.043c.142.406.454 1.2.47 1.716.141 2.785 0 3.538 0 5.947-.939.266-3.389-1.184-8.604-.858-.438.028-8.699.527-9.871.552 0 0-9.72.266-12.957.266-3.144 0-4.769.204-10.198.204-.092 0-2.023 1.275-2.023-.633 0-.126-.047-2.146 3.27-5.948 1.205-1.392 4.723-4.537 4.864-4.537.297 0 7.594-6.505 7.664-6.56 4.582-3.547 9.276-7.864 11.73-10.32 2.755-2.755 3.761-3.542 3.76-4.231 0-.719-.862-.776-1.41-.776-3.064 0-4.828.47-5.313.47 0 0-8.167-.124-9.544 0 0 0-6.199.288-6.887.306-3.396.084-8.461 1.88-8.461 1.88-1.204 0-.651-1.425-.777-4.537-.077-1.847.016-2.404 0-2.656 1.033.172 2.907.794 3.454.777 0 0 12.691-.408 14.224-.47 5.695-.237 17.611-.329 18.454-.471 0 0 3.093-.633 3.454-.633 0 0 1.977-1.364 2.964-1.881Zm-196.58.573s.586 4.627-1.308 5.375c-107.23 42.37-100.7 25.755-100.692 73.02h-30.001v-23.462c0-25.1-106.903-41.408-100.385-54.77l232.386-.163Zm-297.783 38.85c.376 0 3.127.96 3.127.96 4.739 1.272 7.033 3.712 7.991 6.254v2.513c0 3.633-5.035 5.7-5.948 7.031-.513.748 2.643.945 6.398 4.7.173.407 1.553 1.974 1.553 4.68 0 5.492-7.52 9.851-10.914 9.851h-5.497c-.188-.188-9.32-2.077-10.627-7.827-1.676-7.374 6.417-10.211 6.417-11.118 0-1.003-5.879-3.898-5.804-7.644.06-2.951 2.268-6.026 3.76-6.56.677-.244 3.083-2.84 9.544-2.84Zm34.886.327c7.339 0 11.26 7.484 11.26 8.297 0 .485 1.737 2.307 1.737 7.501 0 .563.093.394 0 2.35-.189 3.645-1.843 8.174-8.133 12.977-1.659 1.267-7.128 4.394-11.588 4.394-.014 0-1.537-.321-2.82-.634.813-3.285 4.923-.556 11.587-5.64 4.991-3.802 6.09-9.497 6.091-11.404v-3.147c0-1.47-2.024-6.724-2.024-6.724 0-.017-2.849-5.15-6.417-5.15h-2.044c-3.598 0-6.396 4.826-6.396 4.843-.079.329-.47.909-.47 1.41v3.128c0 5.132 5.584 8.44 8.603 8.44h1.881c.25 0 .606-.315 1.716-.143-.203.313-1.711 2.82-3.76 2.82h-3.434c-3.128 0-9.87-4.351-9.87-11.751 0-.814-.11-1.193 0-2.023.438-3.222 5.64-7.664 5.64-7.664s4.514-1.88 8.441-1.88Zm29.674 1.205c.606.016 1.092.076 1.308.205-.845 1.283-.777 2.657-.777 3.127v26.281c0 1.267.66 2.455.94 3.597-.437.219-4.891.516-6.581 0v-.47s1.233-3.584 1.247-5.477c.142-12.922.424-17.102 0-24.565 0 0-1.005-2.06-1.083-2.187.2-.199 3.127-.558 4.946-.511Zm-96.155.225c.984.048 2.331.123 3.903.123.219.142.001.329 0 .47 0 .909-.582 1.317-.612 2.207-.423 10.419.156 16.317 0 26.751-.032 2.723.776 3.019.776 3.597 0 .235-.015.267 0 .471h-6.417c-.156-.313-.203-.227 0-.634.391-1.564.94-3.046.94-6.253 0-3.865.565-14.91.143-22.358l-.449-4.251c.125-.188.733-.17 1.716-.123Zm28.959.756c-3.833 0-6.131 4.372-6.131 5.028 0 5.429 11.118 8.113 11.118 8.113.14 0 4.516-1.825 4.516-5.783 0-1.563-.449-2.208-.449-2.208 0-3.145-5.778-4.727-6.091-5.15h-2.963Zm-100.487 6.233c.929.008 1.741.021 1.921.021 5.225-.11 13.79 4.43 17.044 10.954 1.925 3.849 3.436 6.294 3.577 10.627v5.028c-.391 3.598-2.403 7.743-4.844 11.403-.5.751-7.55 7.685-12.65 7.685h-1.574s-1.311.776-3.127.776h-3.453c-7.853 0-15.345-8.689-15.471-8.767.157-.423-3.454-5.075-3.454-7.03 0 0-1.494-4.61-1.573-6.581 0 0-.016-3.931 0-4.087 1.814-12.955 12.708-19.584 20.968-20.008.641-.03 1.707-.028 2.636-.021Zm.818 6.745c-2.598 0-7.109 1.59-7.501 1.717-10.403 3.456-12.834 12.071-12.834 15.654 0 4.207 5.455 15.471 14.858 15.471 1.564 0 2.21.047 3.29 0 5.476-.251 9.993-2.636 9.993-2.637 1.033 0 8.865-5.068 9.851-13.14.094-.783 0-1.262 0-2.044 0-11.546-11.929-14.009-12.507-14.245-.032.001-.892-.776-2.33-.776h-2.82Zm573.37.163c1.611 0 9.993 1.726 12.057 3.29 1.238.94 7.63 4.3 9.585 13.101.074.336.879 6.341.879 7.234 0 0-.825 7.778-2.657 10.954-2.188 3.802-5.963 7.357-6.417 7.357-.156 0-5.836 3.691-9.543 4.047-9.01.865-13.738-.759-19.559-5.314-3.705-2.9-9.472-11.548-5.334-25.586l.021-.062c1.769-4.144 6.121-15.021 20.968-15.021Zm-475.152 2.678c-2.957 0-5.599 3.284-5.599 6.866 0 5.038 5.093 8.311 10.177 8.155.657-.016 1.058.031 1.716 0 2.534-.126 6.091-4.125 6.091-6.254 0-5.943-12.088-8.767-12.385-8.767Zm207.779 2.329c2.077-.462 5.766 2.428 6.418 6.111.089.509 5.543 19.939 6.416 22.991.159.556-2.381.965-6.416 1.247-4.757.328-5.658.633-6.111.633-.923 0-1.39-2.213-1.39-4.7 0-1.299-1.799-2.866-1.737-5.947.047-2.441-.016-9.919 0-10.015v-9.686c.157-.391 2.82-.634 2.82-.634Zm266.412 2.024c-12.626 0-17.82 10.264-17.82 15.49v2.044c0 4.255 6.693 13.565 16.267 14.551h6.745c4.099-.062 14.202-6.276 14.202-15.491 0-13.017-12.71-16.594-17.043-16.594h-2.351Zm-254.947 33.781c13.56 0 12.559 12.008 15.818 16.963l-.531 8.093c-13.951-4.953-5.515-8.295-19.026-8.093-7.431.112-21.077 3.472-25.771 6.6-3.96-3.749-2.535-7.05-2.535-9.134 0-7.172 16.921-14.429 32.045-14.429Zm-310.575 10.811c.375 0 .205.351.143.634v2.023c0 1.315 1.267 4.138 1.267 5.17 0 1.019.856 2.821 2.187 2.821 0 0 15.333-3.15 18.761-8.298.249.376 2.513 4.829 2.043 5.784.189.781.94 2.55.94 3.597 0 .861.001.226-.327.634-.282-.235-2.516-.634-2.656-.634-1.864 0-12.798 3.76-12.814 3.76-.705.251-12.372 3.924-12.528 3.924-.11 0-7.524 2.657-8.604 2.657-1.157 0-3.903 2.963-3.903 2.963-1.237-1.86-4.394-12.321-4.394-13.447 0-.844-2.493-6.538-2.493-8.134 0-1.408 3.888-1.58 4.843-2.207.219.033.469.047.797 0-.094.61-.797 2.507-.797 3.617 0 2.63 1.41 6.17 1.41 7.03 0 .83.777 1.342.777 2.514 0 .751.641 1.553 1.737 1.553 0 0 1.663-.47 2.493-.47.516 0 4.853-2.023 6.417-2.023 0 0 3.291-.909 3.291-2.207 0-.157-.713-2.815-1.104-3.27.281-.328 0-.236 0-.47 0-1.754-1.553-4.721-1.553-5.783 0-.847 2.753-1.737 4.067-1.738Zm538.628 2.35c.876 0 .875 2.168 8.133 4.374 5.461 1.659 8.518 2.742 9.238 3.29l9.38 3.127c4.038 1.221 7.392 3.064 9.237 3.127 3.489.139 2.387-.674 3.904 0l-2.821 8.767h-.469c-1.627-2.455-4.732-3.759-16.574-7.357-12.234-3.725-15.495-6.09-17.841-6.09-2.879 0-5.477 11.361-5.477 11.424-.267 6.523 0 1.673 0 6.867-1.424.155-4.681-3.317-4.68-4.538 0-.703 2.691-9.916 3.739-11.73.61-1.08 3.354-11.261 4.231-11.261Zm-266.085 4.026c-.213 3.611 3.004 6.169 3.004 7.603 0 1.696-5.212 4.691-5.212 11.731 0 0-.755 6.344 3.066 14.836-2.335 7.854-2 14.493 1.901 22.297-2.123 4.457.245 11.117.245 11.117 2.302 5.443 5.608 2.993 19.558 16.942 0 .001 2.534 3.887 2.534 11.813s3.658 76.208 3.658 76.208l-44.879.919-.429-43.304c-.059-5.867 3.821-129.098 3.821-129.098 4.033.637 6.757-.212 12.733-1.064Zm35.907 5.947c8.866 0 21.846 11.7 21.846 22.522 0 2.737-3.903 9.135-3.903 9.135-3.129-4.693-12.008-11.751-23.481-11.751-.131 0-20.985 3.14-23.462 3.924-3.05-4.93-3.474-8.396-3.474-10.872 0-10.04 26.868-12.958 32.474-12.958Zm-276.385 17.249c.094 0 1.553 1.632 1.553 3.29 0 .596 1.41 1.79 1.41 3.291 0 .203.509 1.513.633 1.717v.612c-1.234.297-1.418 0-1.573 0-4.413 0-7.513 3.291-9.687 3.291-.391 0-1.85 1.167-2.35 1.103l-9.544 4.21c-3.583 1.785-12.087 4.378-15.655 8.461-.531-.454-2.963-5.064-2.963-6.253 0-.127-.533-.533-.94-2.208.173-.061 3.403-.39 3.903 0l11.281-4.986c8.496-4.24 12.508-5.805 12.507-5.805 2.753-.686 6.105-2.383 6.418-2.493 2.863-1.032 4.553-4.23 5.007-4.23Zm257.399 9.237c1.852-.064 3.604.019 4.987.062l13.59.408c8.989.282 21.009 11.866 21.009 22.297 0 6.648-1.753 11.46-5.273 14.98-2.086-5.998-13.938-22.153-35.192-22.153-2.346 0-5.825 4.153-9.216 2.718-3.397-2.971-1.901-9.769-1.901-9.769 0-6.943 6.442-8.348 11.996-8.543Zm246.078 1.349c4.24.044 9.552 1.215 15 5.375 4.536 3.459 7.382 8.314 8.237 14.899.925 7.143-1.858 12.972-5.048 17.759 0 0-5.554 6.131-9.933 7.5-5.215 1.63-10.338.748-11.118.675-3.734-.354-5.847-1.324-9.85-3.904-8.294-5.349-10.647-14.573-10.647-18.781-.001-7.869 4.911-16.203 11.73-20.212 0 0 4.389-2.917 9.871-3.25a24.81 24.81 0 0 1 1.758-.061Zm-4.272 6.622c-6.132.298-14.407 6.478-14.407 16.288 0 3.457 2.298 7.791 6.58 11.567 2.284 2.013 6.562 4.844 13.305 5.313.846.047 4.77.202 7.377-.776 5.051-1.893 9.538-6.32 9.83-12.528.246-5.247-.85-10.729-6.09-14.53-7.759-5.631-12.803-5.334-12.834-5.334-1.455.017-2.305-.063-3.761 0Zm-492.645 5.007h1.574c2.33 0 3.812 4.459 6.253 8.134l7.357 12.67c-.813 1.219-1.88.001-1.88 0 0 0-2.586 1.574-3.29 1.574-1.158 0-7.806 5.167-12.201 7.357-9.168 4.584-10.42 7.337-12.343 7.337 0 0-3.133 1.942-3.618 2.677-1.095-.407-2.861 3.026-3.127 3.433-.375-.295-4.843-6.96-4.843-8.133 0 0 2.324.269 6.581-2.187 3.956-2.284 4.878-3.109 5.456-2.984L270.743 660c.015 0 7.357-3.294 7.357-5.312 0-.924-.777-1.656-.777-2.658 0 0-2.656-4.66-2.656-4.863 0 0-3.467-5.121-7.051-7.501.97-1.189 2.044-.163 2.044-.163.015 0-.372-.47 1.553-.47Zm249.674 7.868c23.819-1.402 35.478 27.983 35.478 36.459 0 15.253-8.084 23.195-19.557 24.892-.652-6.39-.376-16.71-1.288-26.098-1.043-11.081-23.134-18.575-23.134-25.484 0-2.217 1.284-9.346 8.501-9.769Zm-227.603 23.257c1.627 1.424 5.527 6.427 6.888 7.99-.737.689-2.459.961-2.678 1.227-.032.045-6.416 10.829-6.416 12.691-.001.36 1.164 2.862 5.17 6.867 1.767 1.766 3.695 5.967 5.947 5.967 1.392 0 13.148-3.554 14.571-6.417 2.394.594 4.446 5.485 6.09 6.581-.282.093-3.117.143-6.09.143 0-.001-7.382 2.983-8.931 2.983-.046 0-13.508 4.823-15.041 4.823 0 0-3.397 1.37-7.48 2.841-6.212 2.253-6.013 3.29-6.765 3.29-.062 0-1.241-.872-2.963-3.126-.391-.516-2.493-2.766-2.493-3.454 0-2.644 8.394-15.405 10.648-20.662.656-1.533 3.627-6.62 7.664-14.694.312-.624 1.644-6.316 1.879-7.05Zm444.457 7.214c9.62.456 16.146 8.768 18.311 14.081.031.074 1.083 5.317 1.083 6.397 0 .813.264.531 0 3.147-.328 3.232-1.375 8.013-5.477 13.753-2.837 3.969-7.574 9.074-10.014 9.074-.515 0-1.931-1.344-3.903-3.597 0 0 13.917-5.293 13.917-16.104v-1.41c0-14.174-11.242-19.659-16.738-19.087 0-.001-4.175-.268-7.5.776 0 0-5.145 2.435-7.663 5.314-1.643 1.876-5.008 6.044-5.008 7.827 0 1.205 4.174 4.563 5.784 5.783l2.493 2.514c2.082 1.377 4.23 1.405 4.23 2.187 0 .531-3.583 4.843-4.536 4.843-.049 0-3.965-2.815-7.501-6.867-.547-.625-7.357-6.112-7.357-7.05 0-.313 2.214-4.449 8.44-11.567.845-.97 7.586-7.445 14.919-9.401 2.088-.557 6.519-.613 6.52-.613Zm-449.014 19.701c-.782 0-1.143.323-4.21 6.723-1.563 3.286-3.617 6.826-3.617 7.357 0 .486.266.634.797.634 1.143 0 2.477-.797 2.493-.797 1.299 0 4.459-1.305 6.274-2.166.705-.329 6.09-1.418 6.09-2.514.001-1.064-3.253-4.076-3.597-4.7-1.283-2.3-3.994-4.537-4.23-4.537Zm39.606 13.61c1.096 0 7.623 4.539 8.359 5.273 1.516 1.518 5.131 5.295 5.538 5.702 2.971 2.973 5.929 9.38 5.497 15.941-.338 5.166-3.22 10.302-4.863 12.364-2.832 3.555-8.703 7.516-14.388 8.44-3.519.571-5.63-.074-8.44-.776-6.086-1.518-14.4-7.204-18.781-13.775l3.597-4.537c.485.313 2.553 3.795 2.35 4.374.109.453 2.607 4.197 6.192 6.805 0 0 4.823 2.595 7.418 2.902 1.702.201 5.137-.125 7.092-.776 0 0 4.878-.816 9.115-6.52 0 0 4.455-4.98 4.455-11.628 0-1.644-.36-4.572-.879-6.132-1.303-3.91-6.269-8.663-6.315-8.725-.142-.189-6.433-5.181-11.424-5.948v-.47s4.492-2.514 5.477-2.514Zm360.911 3.597c.485 3.222 1.022 3.831 2.024 5.335.469 1.094 8.228 10.068 8.603 10.32 0 0 3.424 1.115 4.864 1.553.501.139 5.01 1.396 9.687 2.821.157.045 8.433 2.419 9.871 2.656 0 0 2.539-.65 4.006.654 0 0-6.223 5.412-7.459 5.599l-19.231-5.783c-2.803-1.278-1.411.815-1.411 1.88 0 .844.614 6.523.614 7.194 0 9.732 2.899 9.78 3.76 10.484-.033.047-6.887 5.477-6.887 5.477l-.47-2.35s-.614-4.653-.614-7.5c0-.423-.939-8.402-.939-9.402 0-.547-.641-8.308-.798-8.746-.469-1.316-8.686-10.926-10.156-11.894-.736-.486-3.339-.885-4.231-1.104 2.488-2.846 8.767-7.194 8.767-7.194Z"/></g></svg>