<svg xmlns="http://www.w3.org/2000/svg" xmlns:vectornator="http://vectornator.io" xml:space="preserve" stroke-miterlimit="10" style="fill-rule:nonzero;clip-rule:evenodd;stroke-linecap:round;stroke-linejoin:round" viewBox="0 0 256 256"><style>@keyframes pumpkinScale{0%{transform:scale(1)}to{transform:scale(1.333) translate(-15%,-15%)}}</style><g vectornator:layerName="Untitled"><path vectornator:layerName="path" id="Untitled" fill="#030104" d="M183.401 104.511c-6.169-7.233-13.055-10.21-20.664-9.688-5.508.38-10.636 2.618-15.37 6.669-4.831-2.969-10.058-4.688-15.676-5.266a18.698 18.698 0 0 1 1.448-4.756c1.756-3.576 4.524-6.473 8.296-8.787a894.015 894.015 0 0 1-8.562-5.221c-8.258 4.117-12.73 10.465-13.443 19.515-3.86.866-7.459 2.279-10.793 4.286-4.655-3.9-9.65-6.054-14.983-6.417-7.528-.507-14.46 2.432-20.796 9.564-6.606 7.427-9.88 16.919-9.88 27.777a42.858 42.858 0 0 0 1.043 9.518c2.334 11.575 7.822 21.014 16.54 28.114 7.837 6.488 15.188 9.155 22.026 8.626 3.594-.285 6.921-2.02 10-5.177 5.351 2.788 10.358 4.174 15.016 4.167 5.007-.007 10.28-1.501 15.811-4.52 3.163 3.399 6.587 5.255 10.267 5.553 7.008.545 14.535-2.088 22.543-8.554 8.884-7.165 14.245-16.657 16.151-28.185.425-2.857.646-5.736.646-8.619-.001-11.3-3.196-21.06-9.62-28.599Zm-92.588 8.097 20.655 7.364c-2.236 4.476-5.469 6.715-9.682 6.715-1.291 0-2.498-.213-3.618-.647-5.674-2.927-8.133-7.401-7.355-13.432Zm48.674 44.548-4.651-4.261-3.87 6.578a48.977 48.977 0 0 1-4.91.261c-2.236 0-4.386-.133-6.455-.394l-4.386-7.606-4.649 5.033c-2.494-1.38-4.648-2.974-6.455-4.781-4.476-4.214-6.8-9.123-6.973-14.716 1.461.859 3.772 1.758 6.946 2.696l5.403 6.923 4.796-5.004a62.22 62.22 0 0 0 6.84.647l5.43 5.841 4.912-6.07a73.331 73.331 0 0 0 5.681-.513l5.041 5.161 5.554-7.227c3.012-.687 5.687-1.422 8.011-2.196-1.466 8.525-6.89 15.065-16.265 19.628Zm12.519-30.727c-1.122.431-2.367.646-3.743.646-4.132 0-7.36-2.242-9.678-6.717l20.779-7.354c.692 6.02-1.762 10.496-7.358 13.425Z" style="animation:pumpkinScale 10s ease-in-out"/></g></svg>