<svg xmlns="http://www.w3.org/2000/svg" xmlns:vectornator="http://vectornator.io" xml:space="preserve" stroke-miterlimit="10" style="fill-rule:nonzero;clip-rule:evenodd;stroke-linecap:round;stroke-linejoin:round" viewBox="0 0 512 512"><style>@keyframes witchMoveAndScale{0%{transform:translate(0,0) scale(1)}to{transform:translate(-50%,-33%) scale(.8)}}</style><g vectornator:layerName="Untitled" style="animation:witchMoveAndScale 10s ease-in-out"><path vectornator:layerName="path" id="Untitled" d="M454.747 404.032c1.675 0 3.394-.018 5.154-.061l-.076-2.899c-.973.021-1.933.037-2.878.046l.012-1.751a249.146 249.146 0 0 1-19.652-.896c1.991.052 4.087.088 6.296.088 4.231 0 8.849-.112 13.83-.391l-.173-2.896c-4.923.273-9.484.383-13.657.383-9.702.002-17.312-.605-22.484-1.21a112.302 112.302 0 0 1-5.882-.833 51.051 51.051 0 0 1-1.493-.27l-.097-.018-6.123-5.409-1.191 1.246-.894-.915-2.203 1.987 2.768 2.826-2.403-1.048-.639 1.355-.854-.407-.914 1.763a380.582 380.582 0 0 1-24.834-5.643l-1.802-2.565c13.25 1.106 33.272 1.431 48.229-4.297l-2.966-2.002a1.77 1.77 0 0 1-.744-1.793c.13-.693.662-1.24 1.352-1.392l9.712-2.155a1.762 1.762 0 0 0 1.38-1.659 1.76 1.76 0 0 0-1.258-1.753l-2.438-.723a1.768 1.768 0 0 1-1.261-1.653 1.76 1.76 0 0 1 1.185-1.705l5.024-1.741a1.768 1.768 0 0 0 1.185-1.635 1.768 1.768 0 0 0-1.124-1.677l-9.083-3.525a1.979 1.979 0 0 1-.228-.107l-8.597-4.834a1.765 1.765 0 0 1-.896-1.581 1.76 1.76 0 0 1 .969-1.535l3.355-1.686a1.764 1.764 0 0 0-.368-3.288l-23.478-5.822a1.761 1.761 0 0 1-.796-2.984l.046-.043a1.764 1.764 0 0 0 .492-1.689 1.762 1.762 0 0 0-1.21-1.277l-12.523-3.731-6.722-2.413s-4.217-2.842-5.515-3.124c1.078.213 7.138 1.358 7.782.948.754-.483 9.56-1.453 9.56-1.453l-3.02-1.932s5.792-4.109 7.302-5.801c1.51-1.693-15.86-1.693-15.86-1.693l2.018-2.419s-12.338-.24-13.848-.48c-1.255-.204-8.277-.742-13.79-3.012l-.37-1.331c5.783 1.365 10.098.149 10.098.149l-5.042-4.397c5.953.24 8.737-1.826 8.737-1.826l-13.547-8.98c4.263.256 14.224.617 16.026-1.462 2.507-2.887-14.446-8.879-14.446-8.879l-3.775-2.176 1.159-4.89 13.944 1.505c16.863-1.207 14.185-5.048 12.341-4.607 0 0-9.685-2.656-12.45-3.541-2.765-.887-18.907-12.845-21.673-12.401-2.765.444-26.285 12.401-28.129 12.401-1.845 0-17.06-3.099-17.06-3.099s-5.999-2.659-.924 4.427c5.072 7.087 10.147 12.402 12.45 12.845l1.383.846v3.804s-.231 2.881-1.152 3.1c-.921.222-3.689 1.549-5.996 2.878-2.306 1.331-2.996 3.324-2.996 3.324s.459 1.55 7.147.662c1.839-.243 3.689 2.216 3.689 2.216l-.231 1.772 5.303.221s-1.985 3.218-4.057 3.437c0 0-.693 3.103-2.306 4.209-1.611 1.106.461 2.878 3.458 2.656 2.999-.222 8.663-3.48 12.191-2.997l2.751 4.872-1.495.447 1.51 4.351-3.932 12.238a22.05 22.05 0 0 1-8.788 11.62s-12.198 8.539-13.207 8.779c-.37.091 1.826 1.559 4.747 3.38-.906.677-1.489 1.224-1.489 1.224l-8.403-2.325a1.76 1.76 0 0 0-1.492.264 1.755 1.755 0 0 0-.738 1.322l-.057.863c-18.178-8.278-32.701-19.169-32.701-19.169L256 340.795c13.277 8.748 20.87 13.607 35.226 20.779l-.179 2.75 10.568 5.078 2.611-1.672a374.452 374.452 0 0 0 7.639 3.343l-.495.255-2.766 13.055 23.91 28.285 4.026-6.77 10.825 6.527 1.762-9.669 7.354-1.577 21.342 7.378v2.902l3.02 2.176-7.299 5.804s-9.818 2.173-11.581 2.173c-1.759 0-1.51 1.692-1.51 1.692s5.288 4.352 9.818 4.352c4.531 0 17.872-3.382 18.625-3.626.757-.243 7.804-7.979 7.804-8.706 0-.723.757-9.669-.754-10.636-1.51-.966-4.029-2.415-4.029-2.415l-4.528.966-1.261-1.693h-2.516s1.006 2.176-.757 1.453c-.894-.371-5.829-2.866-10.46-5.23l7.187-1.541-.662-1.908a624.7 624.7 0 0 0 19.654 5.193l-.343 1.571-.209-.012-.158 2.896 8.776.441c.228.103.604.264 1.124.483l-7.208-.435-.191 2.896 7.722.462c2.388 1.243 19.02 9.624 44.348 15.933l.76-2.808c-13.505-3.364-24.511-7.33-32.133-10.448a177.143 177.143 0 0 1-8.107-3.546c8.132 3.075 23.402 8.262 43.57 12.465l.638-2.835a322.24 322.24 0 0 1-10.93-2.48c4.002.723 8.317 1.386 12.936 1.951l.383-2.878c-1.471-.179-2.902-.37-4.309-.571l.1-.656a187.292 187.292 0 0 1-19.384-3.771c6.585 1.242 14.373 2.361 23.28 3.047l.243-2.889a217.973 217.973 0 0 1-15.528-1.751c4.835.42 10.14.705 15.89.778l.04-2.902c-4.848-.06-9.369-.277-13.553-.596 2.673.11 5.472.174 8.416.174Zm-128.776-40.197-8.712 4.47a380.108 380.108 0 0 1-8.734-4.014l.641-4.316 1.474-1.416a766.52 766.52 0 0 0 5.261 3.1l12.587-9.43 3.774-6.044-6.291 17.65Z"/></g></svg>