<svg xmlns="http://www.w3.org/2000/svg" xmlns:vectornator="http://vectornator.io" xml:space="preserve" stroke-miterlimit="10" style="fill-rule:nonzero;clip-rule:evenodd;stroke-linecap:round;stroke-linejoin:round" viewBox="0 0 1060.54 1060.54"><defs><linearGradient id="a" x1="166.229" x2="866.993" y1="801.982" y2="149.564" gradientTransform="translate(79.748 79.748) scale(.8496)" gradientUnits="userSpaceOnUse"><stop offset=".001" stop-color="#ffbc00"/><stop offset="1" stop-color="#ff4f00"/></linearGradient><linearGradient id="c" x1="6.456" x2="1054.08" y1="692.102" y2="692.102" gradientTransform="translate(79.748 79.748) scale(.8496)" gradientUnits="userSpaceOnUse"><stop offset=".001" stop-color="#ffbc00"/><stop offset="1" stop-color="#ff4f00"/></linearGradient><linearGradient id="d" x1="6.456" x2="1054.08" y1="692.102" y2="692.102" gradientTransform="translate(79.748 79.748) scale(.8496)" gradientUnits="userSpaceOnUse"><stop offset=".001" stop-color="#ffbc00"/><stop offset="1" stop-color="#ff4f00"/></linearGradient><linearGradient id="f" x1="5.314" x2="1052.94" y1="463.128" y2="463.128" gradientTransform="translate(79.748 79.748) scale(.8496)" gradientUnits="userSpaceOnUse"><stop offset=".001" stop-color="#ffbc00"/><stop offset="1" stop-color="#ff4f00"/></linearGradient><linearGradient id="g" x1="-276.928" x2="770.698" y1="988.178" y2="988.178" gradientTransform="translate(79.748 79.748) scale(.8496)" gradientUnits="userSpaceOnUse"><stop offset=".001" stop-color="#ffbc00"/><stop offset="1" stop-color="#ff4f00"/></linearGradient><linearGradient id="h" x1="261.96" x2="1309.59" y1="985.824" y2="985.824" gradientTransform="translate(79.748 79.748) scale(.8496)" gradientUnits="userSpaceOnUse"><stop offset=".001" stop-color="#ffbc00"/><stop offset="1" stop-color="#ff4f00"/></linearGradient></defs><g vectornator:layerName="Layer 1"><g vectornator:layerName="Group 4"><path vectornator:layerName="path" fill="url(#a)" stroke="#a24700" stroke-width="40" d="M95.27 530.27c0-240.244 194.756-435 435-435s435 194.756 435 435-194.756 435-435 435-435-194.756-435-435Z"/><g vectornator:layerName="path"><clipPath id="b" clip-rule="nonzero"><path d="M95.27 530.27c0-240.244 194.756-435 435-435s435 194.756 435 435-194.756 435-435 435-435-194.756-435-435Z"/></clipPath><g clip-path="url(#b)"><path vectornator:layerName="path" fill="url(#c)" stroke="#a24700" stroke-width="40" d="M527.376 28.22c-188.347.822-348.743 118.541-412.994 284.101-16.412 62.602-26.34 127.841-28.649 195.038.402 5.222.76 10.46 1.336 15.632-.548.279-1.068.607-1.615.89-.077 4.858-.221 9.697-.221 14.574 0 324.029 173.306 607.345 432.131 763.015.889-.53 1.84-.96 2.726-1.5 4.362 2.59 8.894 4.89 13.351 7.34 264.222-154.36 441.863-440.766 441.863-768.855 0-1.061-.051-2.11-.051-3.17-1.657-.989-3.229-2.093-4.902-3.061 1.937-14.559 2.948-29.39 3.449-44.336-3.016-53.804-10.756-106.328-22.914-157.153-59.652-176.559-226.905-303.37-423.51-302.514Z" opacity=".332"/><g vectornator:layerName="path"><path vectornator:layerName="path" fill="url(#d)" stroke="#a24700" stroke-width="40" d="M527.376 28.22c-188.347.822-348.743 118.541-412.994 284.101-16.412 62.602-26.34 127.841-28.649 195.038.402 5.222.76 10.46 1.336 15.632-.548.279-1.068.607-1.615.89-.077 4.858-.221 9.697-.221 14.574 0 324.029 173.306 607.345 432.131 763.015.889-.53 1.84-.96 2.726-1.5 4.362 2.59 8.894 4.89 13.351 7.34 264.222-154.36 441.863-440.766 441.863-768.855 0-1.061-.051-2.11-.051-3.17-1.657-.989-3.229-2.093-4.902-3.061 1.937-14.559 2.948-29.39 3.449-44.336-3.016-53.804-10.756-106.328-22.914-157.153-59.652-176.559-226.905-303.37-423.51-302.514Z"/><g vectornator:layerName="path"><clipPath id="e" clip-rule="nonzero"><path d="M527.376 28.22c-188.347.822-348.743 118.541-412.994 284.101-16.412 62.602-26.34 127.841-28.649 195.038.402 5.222.76 10.46 1.336 15.632-.548.279-1.068.607-1.615.89-.077 4.858-.221 9.697-.221 14.574 0 324.029 173.306 607.345 432.131 763.015.889-.53 1.84-.96 2.726-1.5 4.362 2.59 8.894 4.89 13.351 7.34 264.222-154.36 441.863-440.766 441.863-768.855 0-1.061-.051-2.11-.051-3.17-1.657-.989-3.229-2.093-4.902-3.061 1.937-14.559 2.948-29.39 3.449-44.336-3.016-53.804-10.756-106.328-22.914-157.153-59.652-176.559-226.905-303.37-423.51-302.514Z"/></clipPath><g stroke="#a24700" stroke-width="40" clip-path="url(#e)"><path vectornator:layerName="Oval 1" fill="url(#f)" d="M84.267 475.165C83.197 229.38 281.576 29.265 527.36 28.193c245.784-1.071 445.905 197.309 446.975 443.094 1.071 245.784-197.31 445.899-443.096 446.972-245.785 1.07-445.9-197.309-446.972-443.094Z"/><path vectornator:layerName="Oval 2" fill="url(#g)" d="M-155.529 921.251C-156.6 675.467 41.779 475.35 287.564 474.279c245.785-1.07 445.901 197.309 446.972 443.093 1.072 245.788-197.309 445.908-443.094 446.978-245.784 1.07-445.9-197.31-446.971-443.099Z"/><path vectornator:layerName="Oval 3" fill="url(#h)" d="M302.316 919.255c-1.071-245.784 197.309-445.899 443.093-446.972 245.783-1.07 445.911 197.309 446.981 443.094 1.07 245.783-197.316 445.893-443.101 446.963-245.786 1.08-445.901-197.3-446.973-443.085Z"/></g></g></g></g></g></g><path vectornator:layerName="Oval 1" fill="none" stroke="#a24700" stroke-width="40" d="M95.27 530.27c0-240.244 194.756-435 435-435s435 194.756 435 435-194.756 435-435 435-435-194.756-435-435Z"/></g></svg>