<svg xmlns="http://www.w3.org/2000/svg" xml:space="preserve" stroke-miterlimit="10" style="fill-rule:nonzero;clip-rule:evenodd;stroke-linecap:round;stroke-linejoin:round" viewBox="0 0 1024 1024"><clipPath id="a"><path d="M0 0h1024v1024H0z"/></clipPath><g clip-path="url(#a)"><g fill="#134e4a" opacity=".402"><path d="m565.833 414.853-38.841 38.841c8.788 5.152 17.057 11.34 24.516 18.798 52.987 52.988 47.456 144.428-12.342 204.227L294.417 921.467c-59.798 59.799-151.205 65.296-204.192 12.308-52.988-52.987-47.49-144.394 12.308-204.192l225.479-225.48-30.165-30.165L52.225 719.561c-69.643 69.643-69.61 182.538.033 252.181 69.643 69.638 182.538 69.678 252.181.034L589.474 686.74c69.643-69.643 69.643-182.571 0-252.214-7.398-7.399-15.369-13.846-23.641-19.673Z" opacity="1"/><path d="m458.176 609.138 38.841-38.841c-8.788-5.152-17.057-11.34-24.515-18.798-52.988-52.988-47.457-144.428 12.341-204.227l244.749-244.748c59.798-59.799 151.205-65.296 204.192-12.308 52.988 52.987 47.491 144.394-12.308 204.192l-225.479 225.48 30.165 30.164 245.623-245.623c69.645-69.642 69.605-182.537-.034-252.18-69.643-69.643-182.538-69.677-252.18-.034L434.535 337.251c-69.643 69.643-69.643 182.571 0 252.214 7.398 7.399 15.369 13.846 23.641 19.673Z" opacity="1"/></g><path fill="#fff" d="M502.469 259.094c-82.983 0-156.464 40.572-201.813 102.906 45.724-61.138 118.696-100.719 200.906-100.719 77.682 0 147.077 35.31 193.063 90.781l1.156-1.156c-45.743-56.022-115.346-91.812-193.312-91.812Zm193.312 91.812c8.951 10.963 16.931 22.728 23.938 35.125l47.312-47.312c8.17-8.19 8.17-21.362 0-29.531-8.169-8.17-21.362-8.17-29.531 0l-41.719 41.718Zm23.938 35.125-1 1c-7.12-12.316-15.075-24.092-24.094-34.969L468.938 577.75l-78.25-78.281c-8.17-8.17-21.394-8.17-29.563 0-8.169 8.169-8.169 21.362 0 29.531l93.063 93.062a20.791 20.791 0 0 0 14.75 6.126 20.912 20.912 0 0 0 14.781-6.126l235-234.968c15.912 27.605 26.851 58.436 31.312 91.344-4.005-33.27-14.536-64.494-30.312-92.407Zm31.343 102.844c.508 6.498.844 13.06.844 19.687C751.906 646.331 640.238 758 502.469 758S253 646.331 253 508.562c0-54.785 17.717-105.409 47.656-146.562-31.284 41.831-49.812 93.751-49.812 150 0 138.46 112.259 250.719 250.718 250.719 138.46 0 250.719-112.259 250.719-250.719 0-7.81-.51-15.503-1.219-23.125Z"/><path fill="#134e4a" d="M501.555 261.276c-138.46 0-250.719 112.26-250.719 250.719 0 138.46 112.259 250.719 250.719 250.719 138.46 0 250.719-112.259 250.719-250.719 0-45.534-12.327-88.104-33.543-124.91L483.722 622.052a20.89 20.89 0 0 1-14.772 6.121 20.838 20.838 0 0 1-14.772-6.121l-93.04-93.04c-8.17-8.169-8.17-21.375 0-29.544 8.169-8.17 21.375-8.17 29.544 0l78.268 78.268 225.664-225.664c-45.986-55.471-115.378-90.796-193.059-90.796Zm193.059 90.796c9.018 10.877 16.996 22.656 24.117 34.972l48.315-48.316c8.169-8.19 8.169-21.375 0-29.544s-21.375-8.169-29.544 0l-42.888 42.888Z"/></g></svg>