<svg xmlns="http://www.w3.org/2000/svg" xmlns:vectornator="http://vectornator.io" xml:space="preserve" stroke-miterlimit="10" style="fill-rule:nonzero;clip-rule:evenodd;stroke-linecap:round;stroke-linejoin:round" viewBox="0 0 1024 1024"><clipPath id="a"><path d="M0 0h1024v1024H0z"/></clipPath><g vectornator:layerName="Layer 1"><g vectornator:layerName="Group 1" fill="#0c4a6e" clip-path="url(#a)"><path vectornator:layerName="Curve 1" d="m565.833 414.853-38.841 38.841c8.788 5.152 17.057 11.34 24.516 18.798 52.987 52.988 47.456 144.428-12.342 204.227L294.417 921.467c-59.798 59.799-151.205 65.296-204.192 12.308-52.988-52.987-47.49-144.394 12.308-204.192l225.479-225.48-30.165-30.165L52.225 719.561c-69.643 69.643-69.61 182.538.033 252.181 69.643 69.638 182.538 69.678 252.181.034L589.474 686.74c69.643-69.643 69.643-182.571 0-252.214-7.398-7.399-15.369-13.846-23.641-19.673Z"/><path vectornator:layerName="Curve 2" d="m458.176 609.138 38.841-38.841c-8.788-5.152-17.057-11.34-24.515-18.798-52.988-52.988-47.457-144.428 12.341-204.227l244.749-244.748c59.798-59.799 151.205-65.296 204.192-12.308 52.988 52.987 47.491 144.394-12.308 204.192l-225.479 225.48 30.165 30.164 245.623-245.623c69.645-69.642 69.605-182.537-.034-252.18-69.643-69.643-182.538-69.677-252.18-.034L434.535 337.251c-69.643 69.643-69.643 182.571 0 252.214 7.398 7.399 15.369 13.846 23.641 19.673Z"/></g></g></svg>