<svg xmlns="http://www.w3.org/2000/svg" xmlns:vectornator="http://vectornator.io" xml:space="preserve" stroke-miterlimit="10" style="fill-rule:nonzero;clip-rule:evenodd;stroke-linecap:round;stroke-linejoin:round" viewBox="0 0 1024 1024"><clipPath id="a"><path d="M0 0h1024v1024H0z"/></clipPath><g vectornator:layerName="Layer 1" clip-path="url(#a)"><g vectornator:layerName="Group 1" fill="#701a75" opacity=".402"><path vectornator:layerName="Curve 1" d="m565.833 414.853-38.841 38.841c8.788 5.152 17.057 11.34 24.516 18.798 52.987 52.988 47.456 144.428-12.342 204.227L294.417 921.467c-59.798 59.799-151.205 65.296-204.192 12.308-52.988-52.987-47.49-144.394 12.308-204.192l225.479-225.48-30.165-30.165L52.225 719.561c-69.643 69.643-69.61 182.538.033 252.181 69.643 69.638 182.538 69.678 252.181.034L589.474 686.74c69.643-69.643 69.643-182.571 0-252.214-7.398-7.399-15.369-13.846-23.641-19.673Z" opacity="1"/><path vectornator:layerName="Curve 2" d="m458.176 609.138 38.841-38.841c-8.788-5.152-17.057-11.34-24.515-18.798-52.988-52.988-47.457-144.428 12.341-204.227l244.749-244.748c59.798-59.799 151.205-65.296 204.192-12.308 52.988 52.987 47.491 144.394-12.308 204.192l-225.479 225.48 30.165 30.164 245.623-245.623c69.645-69.642 69.605-182.537-.034-252.18-69.643-69.643-182.538-69.677-252.18-.034L434.535 337.251c-69.643 69.643-69.643 182.571 0 252.214 7.398 7.399 15.369 13.846 23.641 19.673Z" opacity="1"/></g><path vectornator:layerName="Curve 1" fill="#fff" d="M512 256.062c-141.113 0-255.938 114.825-255.938 255.938S370.887 767.937 512 767.938c141.113 0 255.937-114.825 255.938-255.938 0-141.113-114.825-255.938-255.938-255.938Zm-131.688 97.719h270.813v291H380.312v-291Zm42.657 58.031a11.078 11.078 0 0 0-7.875 3.25c-4.34 4.34-4.34 11.473 0 15.813L496.188 512l-81.094 81.125c-4.34 4.34-4.34 11.473 0 15.813 2.225 2.114 4.981 3.218 7.875 3.218 2.893 0 5.68-1.104 7.906-3.218L512 527.812l81.125 81.126c2.226 2.114 5.013 3.218 7.906 3.218 2.894 0 5.681-1.104 7.907-3.218 4.339-4.34 4.339-11.473 0-15.813L527.812 512l81.126-81.125c4.339-4.34 4.339-11.473 0-15.813-4.34-4.339-11.473-4.339-15.813 0L512 496.188l-81.125-81.126c-2.17-2.169-5.041-3.249-7.906-3.25Z"/><path vectornator:layerName="path 1" fill="#701a75" d="M512.005 256.058c-141.113 0-255.942 114.829-255.942 255.942s114.829 255.942 255.942 255.942c141.112 0 255.941-114.829 255.941-255.942S653.117 256.058 512.005 256.058Zm96.924 337.064c4.339 4.34 4.339 11.462 0 15.802-2.226 2.114-5.008 3.227-7.901 3.227-2.894 0-5.676-1.113-7.901-3.227l-81.122-81.122-81.123 81.122c-2.225 2.114-5.007 3.227-7.901 3.227-2.893 0-5.675-1.113-7.9-3.227-4.34-4.34-4.34-11.462 0-15.802L496.203 512l-81.122-81.122c-4.34-4.34-4.34-11.462 0-15.802s11.461-4.34 15.801 0l81.123 81.122 81.122-81.122c4.34-4.34 11.462-4.34 15.802 0 4.339 4.34 4.339 11.462 0 15.802L527.806 512l81.123 81.122Z"/></g></svg>