<?xml version="1.0" encoding="UTF-8" standalone="no"?>
<!DOCTYPE svg PUBLIC "-//W3C//DTD SVG 1.1//EN" "http://www.w3.org/Graphics/SVG/1.1/DTD/svg11.dtd">
<!-- Created with Vectornator (http://vectornator.io/) -->
<svg height="100%" stroke-miterlimit="10" style="fill-rule:nonzero;clip-rule:evenodd;stroke-linecap:round;stroke-linejoin:round;" version="1.1" viewBox="0 0 15 15" width="100%" xml:space="preserve" xmlns="http://www.w3.org/2000/svg" xmlns:vectornator="http://vectornator.io" xmlns:xlink="http://www.w3.org/1999/xlink">
<defs/>
<g id="Untitled" vectornator:layerName="Untitled">
<path d="M2.5 6.5L2.5 6L2 6L2 6.5L2.5 6.5ZM6.5 6.5L6.5 6L6 6L6 6.5L6.5 6.5ZM6.5 10.5L6 10.5L6 11L6.5 11L6.5 10.5ZM13.5 3.5L14 3.5L14 3.29289L13.8536 3.14645L13.5 3.5ZM10.5 0.5L10.8536 0.146447L10.7071 0L10.5 0L10.5 0.5ZM2.5 7L3.5 7L3.5 6L2.5 6L2.5 7ZM3 11L3 8.5L2 8.5L2 11L3 11ZM3 8.5L3 6.5L2 6.5L2 8.5L3 8.5ZM3.5 8L2.5 8L2.5 9L3.5 9L3.5 8ZM4 7.5C4 7.77614 3.77614 8 3.5 8L3.5 9C4.32843 9 5 8.32843 5 7.5L4 7.5ZM3.5 7C3.77614 7 4 7.22386 4 7.5L5 7.5C5 6.67157 4.32843 6 3.5 6L3.5 7ZM6 6.5L6 10.5L7 10.5L7 6.5L6 6.5ZM6.5 11L7.5 11L7.5 10L6.5 10L6.5 11ZM9 9.5L9 7.5L8 7.5L8 9.5L9 9.5ZM7.5 6L6.5 6L6.5 7L7.5 7L7.5 6ZM9 7.5C9 6.67157 8.32843 6 7.5 6L7.5 7C7.77614 7 8 7.22386 8 7.5L9 7.5ZM7.5 11C8.32843 11 9 10.3284 9 9.5L8 9.5C8 9.77614 7.77614 10 7.5 10L7.5 11ZM10 6L10 11L11 11L11 6L10 6ZM10.5 7L13 7L13 6L10.5 6L10.5 7ZM10.5 9L12 9L12 8L10.5 8L10.5 9ZM2 5L2 1.5L1 1.5L1 5L2 5ZM13 3.5L13 5L14 5L14 3.5L13 3.5ZM2.5 1L10.5 1L10.5 0L2.5 0L2.5 1ZM10.1464 0.853553L13.1464 3.85355L13.8536 3.14645L10.8536 0.146447L10.1464 0.853553ZM2 1.5C2 1.22386 2.22386 1 2.5 1L2.5 0C1.67157 0 1 0.671573 1 1.5L2 1.5ZM1 12L1 13.5L2 13.5L2 12L1 12ZM2.5 15L12.5 15L12.5 14L2.5 14L2.5 15ZM14 13.5L14 12L13 12L13 13.5L14 13.5ZM12.5 15C13.3284 15 14 14.3284 14 13.5L13 13.5C13 13.7761 12.7761 14 12.5 14L12.5 15ZM1 13.5C1 14.3284 1.67157 15 2.5 15L2.5 14C2.22386 14 2 13.7761 2 13.5L1 13.5Z" fill="#0c4a6e" fill-rule="nonzero" opacity="1" stroke="none" vectornator:layerName="path"/>
</g>
</svg>
