<svg xmlns="http://www.w3.org/2000/svg" xml:space="preserve" stroke-miterlimit="10" style="fill-rule:nonzero;clip-rule:evenodd;stroke-linecap:round;stroke-linejoin:round" viewBox="0 0 1024 1024"><clipPath id="a"><path d="M0 0h1024v1024H0z"/></clipPath><g fill="#701a75" clip-path="url(#a)"><path d="M163.954 92.876C73.404 92.876 0 166.281 0 256.831v603.215C0 950.595 73.405 1024 163.954 1024h603.215c90.55 0 163.955-73.405 163.955-163.954V412.244c0-12.921-10.475-23.396-23.396-23.396h-.047c-12.921 0-23.395 10.475-23.395 23.396v417.445c0 81.439-66.035 147.473-147.474 147.473H194.311c-81.439 0-147.473-66.034-147.473-147.473V287.188c0-81.439 66.034-147.474 147.473-147.474h417.445c12.921 0 23.396-10.474 23.396-23.395v-.047c0-12.921-10.475-23.396-23.396-23.396H163.954ZM1001.67.391c13.84 2.442 23.09 15.646 20.65 29.493l-29.585 167.778c-2.441 13.847-15.646 23.093-29.492 20.651-13.847-2.442-23.093-15.646-20.651-29.493l29.584-167.778C974.617 7.195 987.821-2.051 1001.67.391Z"/><path d="M609.512 414.488c-9.942-9.942-9.942-26.062 0-36.004L980.54 7.457c9.942-9.943 26.06-9.943 36 0 9.95 9.942 9.95 26.061 0 36.004L645.516 414.488c-9.942 9.942-26.062 9.942-36.004 0Z"/><path d="M1023.61 21.042c2.44 13.847-6.81 27.051-20.65 29.493L835.18 80.118c-13.847 2.442-27.051-6.804-29.493-20.65-2.442-13.847 6.804-27.052 20.651-29.493L994.116.39c13.844-2.442 27.054 6.804 29.494 20.651Z"/></g></svg>