<svg xmlns="http://www.w3.org/2000/svg" xml:space="preserve" stroke-miterlimit="10" style="fill-rule:nonzero;clip-rule:evenodd;stroke-linecap:round;stroke-linejoin:round" viewBox="0 0 150 150"><path fill="#701a75" d="M75 1.188c-40.666 0-73.625 32.959-73.625 73.624 0 40.666 32.96 73.625 73.625 73.626 40.666 0 73.625-32.96 73.625-73.625 0-40.666-32.959-73.626-73.625-73.626Zm30.469 29.156a7.598 7.598 0 0 1 2.75.437c3.65 1.261 5.822 5.032 5.031 8.813-.791 3.78-4.275 6.37-8.125 6.062-3.85-.308-6.883-3.423-7.063-7.281l-15.968-3.406L77.188 58a52.572 52.572 0 0 1 28.718 9.094 10.76 10.76 0 0 1 11.656-2.156 10.737 10.737 0 0 1 .157 19.687 21.28 21.28 0 0 1 .25 3.219c0 16.521-19.235 29.937-42.969 29.937s-42.938-13.416-42.938-29.937a20.763 20.763 0 0 1 .22-3.219 10.733 10.733 0 0 1-6.376-9.938c.047-4.29 2.635-8.16 6.594-9.812a10.77 10.77 0 0 1 11.625 2.188 52.662 52.662 0 0 1 29.125-9.094l5.469-25.657c.22-1.034 1.246-1.72 2.281-1.5l17.844 3.813a7.698 7.698 0 0 1 6.625-4.281ZM58.125 74.812c-4.236 0-7.656 3.452-7.656 7.688a7.646 7.646 0 0 0 7.656 7.656c4.236 0 7.688-3.42 7.688-7.656s-3.452-7.688-7.688-7.688Zm33.75 0c-4.236 0-7.656 3.452-7.656 7.688a7.646 7.646 0 0 0 7.656 7.656c4.236 0 7.688-3.42 7.688-7.656s-3.452-7.688-7.688-7.688ZM58.219 99.376a1.96 1.96 0 0 0-1.407.563 1.99 1.99 0 0 0 0 2.812c5.228 5.228 15.27 5.656 18.22 5.656 2.948 0 12.953-.44 18.187-5.656a1.98 1.98 0 0 0 .562-1.938 1.968 1.968 0 0 0-1.406-1.437 1.98 1.98 0 0 0-1.938.563c-3.307 3.301-10.365 4.468-15.406 4.468-5.04 0-12.108-1.17-15.406-4.469a1.962 1.962 0 0 0-1.406-.562Z"/></svg>