<svg stroke-miterlimit="10" style="fill-rule:nonzero;clip-rule:evenodd;stroke-linecap:round;stroke-linejoin:round" viewBox="0 0 1920 1920" xml:space="preserve" xmlns="http://www.w3.org/2000/svg" xmlns:vectornator="http://vectornator.io"><defs><linearGradient gradientUnits="userSpaceOnUse" id="x" x1="831.342" x2="1088.66" y1="940.223" y2="940.223"><stop offset="0" stop-color="#f2a2ff"/><stop offset=".994" stop-color="#ff90da"/></linearGradient><linearGradient gradientTransform="matrix(.84126 0 0 .84126 31.959 234.188)" gradientUnits="userSpaceOnUse" id="T" x1="681.536" x2="755.204" y1="1024.82" y2="1024.82"><stop offset="0" stop-color="#eaaef4"/><stop offset=".992" stop-color="#fc9edd"/></linearGradient><linearGradient gradientUnits="userSpaceOnUse" id="c" x1="397.312" x2="1538.5" y1="1052.98" y2="1052.98"><stop offset="0" stop-color="#f2a2ff"/><stop offset=".994" stop-color="#ff90da"/></linearGradient><linearGradient gradientUnits="userSpaceOnUse" id="d" x1="849.503" x2="1003.93" y1="1341.4" y2="544.143"><stop offset="0" stop-color="#f2a2ff"/><stop offset=".994" stop-color="#ff90da"/></linearGradient><linearGradient gradientUnits="userSpaceOnUse" id="e" x1="906.776" x2="1009.44" y1="1536.4" y2="582.736"><stop offset="0" stop-color="#f2a2ff"/><stop offset=".994" stop-color="#ff90da"/></linearGradient><linearGradient gradientUnits="userSpaceOnUse" id="f" x1="735.743" x2="838.405" y1="1474.12" y2="520.46"><stop offset="0" stop-color="#f2a2ff"/><stop offset=".994" stop-color="#ff90da"/></linearGradient><linearGradient gradientTransform="translate(0 -12.274)" gradientUnits="userSpaceOnUse" id="g" x1="443.045" x2="1476.95" y1="1185.01" y2="1185.01"><stop offset="0" stop-color="#f2a2ff"/><stop offset=".994" stop-color="#ff90da"/></linearGradient><linearGradient gradientTransform="translate(0 -12.274)" gradientUnits="userSpaceOnUse" id="h" x1="803.284" x2="1116.11" y1="946.921" y2="946.921"><stop offset="0" stop-color="#f2a2ff"/><stop offset=".994" stop-color="#ff90da"/></linearGradient><linearGradient gradientTransform="translate(0 -12.274)" gradientUnits="userSpaceOnUse" id="i" x1="1068.88" x2="1069.49" y1="834.305" y2="834.305"><stop offset="0" stop-color="#f2a2ff"/><stop offset=".994" stop-color="#ff90da"/></linearGradient><linearGradient gradientTransform="translate(0 -12.274)" gradientUnits="userSpaceOnUse" id="j" x1="1053.97" x2="1366.35" y1="743.428" y2="743.428"><stop offset="0" stop-color="#f2a2ff"/><stop offset=".994" stop-color="#ff90da"/></linearGradient><linearGradient gradientTransform="translate(0 -12.274)" gradientUnits="userSpaceOnUse" id="k" x1="552.877" x2="865.822" y1="743.433" y2="743.433"><stop offset="0" stop-color="#f2a2ff"/><stop offset=".994" stop-color="#ff90da"/></linearGradient><linearGradient gradientTransform="matrix(.89756 0 0 .89756 98.346 98.346)" gradientUnits="userSpaceOnUse" id="l" x1="448.29" x2="785.224" y1="723.647" y2="723.647"><stop offset="0" stop-color="#f2a2ff"/><stop offset=".994" stop-color="#ff90da"/></linearGradient><linearGradient gradientTransform="matrix(.89756 0 0 .89756 98.346 98.346)" gradientUnits="userSpaceOnUse" id="m" x1="1136.91" x2="1435.95" y1="733.81" y2="733.81"><stop offset="0" stop-color="#f2a2ff"/><stop offset=".994" stop-color="#ff90da"/></linearGradient><linearGradient gradientTransform="matrix(.89756 0 0 .89756 98.346 98.346)" gradientUnits="userSpaceOnUse" id="n" x1="841.369" x2="1077.8" y1="1000.74" y2="1000.74"><stop offset="0" stop-color="#f2a2ff"/><stop offset=".994" stop-color="#ff90da"/></linearGradient><linearGradient gradientTransform="matrix(.89756 0 0 .89756 98.346 98.346)" gradientUnits="userSpaceOnUse" id="o" x1="443.045" x2="591.071" y1="1177.91" y2="1177.91"><stop offset="0" stop-color="#f2a2ff"/><stop offset=".994" stop-color="#ff90da"/></linearGradient><linearGradient gradientTransform="matrix(.89756 0 0 .89756 98.346 98.346)" gradientUnits="userSpaceOnUse" id="p" x1="612.415" x2="784.114" y1="1282.39" y2="1282.39"><stop offset="0" stop-color="#f2a2ff"/><stop offset=".994" stop-color="#ff90da"/></linearGradient><linearGradient gradientTransform="matrix(.89756 0 0 .89756 98.346 98.346)" gradientUnits="userSpaceOnUse" id="q" x1="844.26" x2="1030.2" y1="1312.45" y2="1312.45"><stop offset="0" stop-color="#f2a2ff"/><stop offset=".994" stop-color="#ff90da"/></linearGradient><linearGradient gradientTransform="matrix(.89756 0 0 .89756 98.346 98.346)" gradientUnits="userSpaceOnUse" id="r" x1="1094.41" x2="1260.12" y1="1262.41" y2="1262.41"><stop offset="0" stop-color="#f2a2ff"/><stop offset=".994" stop-color="#ff90da"/></linearGradient><linearGradient gradientTransform="matrix(.89756 0 0 .89756 98.346 98.346)" gradientUnits="userSpaceOnUse" id="s" x1="1326.58" x2="1476.95" y1="1162.48" y2="1162.48"><stop offset="0" stop-color="#f2a2ff"/><stop offset=".994" stop-color="#ff90da"/></linearGradient><linearGradient gradientTransform="translate(0 5.408)" gradientUnits="userSpaceOnUse" id="t" x1="479.251" x2="881.955" y1="817.377" y2="817.377"><stop offset="0" stop-color="#f2a2ff"/><stop offset=".994" stop-color="#ff90da"/></linearGradient><linearGradient gradientTransform="translate(0 5.408)" gradientUnits="userSpaceOnUse" id="u" x1="1038.05" x2="1440.75" y1="817.378" y2="817.378"><stop offset="0" stop-color="#f2a2ff"/><stop offset=".994" stop-color="#ff90da"/></linearGradient><linearGradient gradientTransform="translate(0 5.408)" gradientUnits="userSpaceOnUse" id="v" x1="497.946" x2="1422.03" y1="1204.83" y2="1204.83"><stop offset="0" stop-color="#f2a2ff"/><stop offset=".994" stop-color="#ff90da"/></linearGradient><linearGradient gradientTransform="translate(0 5.408)" gradientUnits="userSpaceOnUse" id="w" x1="830.905" x2="1089.09" y1="938.558" y2="938.558"><stop offset="0" stop-color="#f2a2ff"/><stop offset=".994" stop-color="#ff90da"/></linearGradient><linearGradient gradientTransform="translate(284.485 284.485) scale(.70366)" gradientUnits="userSpaceOnUse" id="b" x1="604.662" x2="1278.87" y1="1302.5" y2="712.003"><stop offset="0" stop-color="#fbf0ff"/><stop offset=".995" stop-color="#ffe1f5"/></linearGradient><linearGradient gradientUnits="userSpaceOnUse" id="y" x1="479.251" x2="831.347" y1="798.602" y2="798.602"><stop offset="0" stop-color="#f2a2ff"/><stop offset=".994" stop-color="#ff90da"/></linearGradient><linearGradient gradientUnits="userSpaceOnUse" id="z" x1="1088.65" x2="1440.75" y1="798.602" y2="798.602"><stop offset="0" stop-color="#f2a2ff"/><stop offset=".994" stop-color="#ff90da"/></linearGradient><linearGradient gradientUnits="userSpaceOnUse" id="A" x1="559.483" x2="1360.52" y1="1225.75" y2="1225.75"><stop offset="0" stop-color="#f2a2ff"/><stop offset=".994" stop-color="#ff90da"/></linearGradient><linearGradient gradientTransform="translate(-84.624 -84.624) scale(1.08815)" gradientUnits="userSpaceOnUse" id="B" x1="480.617" x2="1439.38" y1="1119.79" y2="1119.79"><stop offset="0" stop-color="#f2a2ff"/><stop offset=".994" stop-color="#ff90da"/></linearGradient><linearGradient gradientTransform="translate(-84.624 -84.624) scale(1.08815)" gradientUnits="userSpaceOnUse" id="C" x1="986.462" x2="1274.09" y1="752.267" y2="752.267"><stop offset="0" stop-color="#f2a2ff"/><stop offset=".994" stop-color="#ff90da"/></linearGradient><linearGradient gradientTransform="translate(-84.624 -84.624) scale(1.08815)" gradientUnits="userSpaceOnUse" id="D" x1="634.914" x2="922.544" y1="752.267" y2="752.267"><stop offset="0" stop-color="#f2a2ff"/><stop offset=".994" stop-color="#ff90da"/></linearGradient><linearGradient gradientUnits="userSpaceOnUse" id="E" x1="688.431" x2="1309.04" y1="1501.62" y2="597.475"><stop offset="0" stop-color="#f2a2ff"/><stop offset=".994" stop-color="#ff90da"/></linearGradient><linearGradient gradientUnits="userSpaceOnUse" id="F" x1="809.474" x2="1499.13" y1="1021.07" y2="518.48"><stop offset="0" stop-color="#f2a2ff"/><stop offset=".994" stop-color="#ff90da"/></linearGradient><linearGradient gradientTransform="matrix(.87574 0 0 .87574 6.588 193.358)" gradientUnits="userSpaceOnUse" id="G" x1="559.464" x2="960.948" y1="1373.76" y2="1003.06"><stop offset="0" stop-color="#f2a2ff"/><stop offset=".994" stop-color="#ff90da"/></linearGradient><linearGradient gradientTransform="matrix(.84126 0 0 .84126 31.959 234.188)" gradientUnits="userSpaceOnUse" id="H" x1="820.031" x2="923.166" y1="1204.58" y2="1204.58"><stop offset="0" stop-color="#eaaef4"/><stop offset=".992" stop-color="#fc9edd"/></linearGradient><linearGradient gradientTransform="matrix(.84126 0 0 .84126 31.959 234.188)" gradientUnits="userSpaceOnUse" id="I" x1="592.398" x2="680.799" y1="1232.57" y2="1232.57"><stop offset="0" stop-color="#eaaef4"/><stop offset=".992" stop-color="#fc9edd"/></linearGradient><linearGradient gradientTransform="matrix(.84126 0 0 .84126 31.959 234.188)" gradientUnits="userSpaceOnUse" id="J" x1="615.235" x2="747.837" y1="1313.61" y2="1313.61"><stop offset="0" stop-color="#eaaef4"/><stop offset=".992" stop-color="#fc9edd"/></linearGradient><linearGradient gradientTransform="matrix(.84126 0 0 .84126 31.959 234.188)" gradientUnits="userSpaceOnUse" id="K" x1="650.595" x2="709.53" y1="1071.97" y2="1071.97"><stop offset="0" stop-color="#eaaef4"/><stop offset=".992" stop-color="#fc9edd"/></linearGradient><linearGradient gradientTransform="matrix(.84126 0 0 .84126 31.959 234.188)" gradientUnits="userSpaceOnUse" id="L" x1="746.364" x2="805.298" y1="1079.34" y2="1079.34"><stop offset="0" stop-color="#eaaef4"/><stop offset=".992" stop-color="#fc9edd"/></linearGradient><linearGradient gradientTransform="matrix(.84126 0 0 .84126 31.959 234.188)" gradientUnits="userSpaceOnUse" id="M" x1="562.931" x2="621.865" y1="1136.07" y2="1136.07"><stop offset="0" stop-color="#eaaef4"/><stop offset=".992" stop-color="#fc9edd"/></linearGradient><linearGradient gradientTransform="matrix(.84126 0 0 .84126 31.959 234.188)" gradientUnits="userSpaceOnUse" id="N" x1="775.831" x2="805.298" y1="1013.04" y2="1013.04"><stop offset="0" stop-color="#eaaef4"/><stop offset=".992" stop-color="#fc9edd"/></linearGradient><linearGradient gradientTransform="matrix(.84126 0 0 .84126 31.959 234.188)" gradientUnits="userSpaceOnUse" id="O" x1="548.197" x2="577.664" y1="1232.57" y2="1232.57"><stop offset="0" stop-color="#eaaef4"/><stop offset=".992" stop-color="#fc9edd"/></linearGradient><linearGradient gradientTransform="matrix(.84126 0 0 .84126 31.959 234.188)" gradientUnits="userSpaceOnUse" id="P" x1="871.599" x2="901.066" y1="1313.61" y2="1313.61"><stop offset="0" stop-color="#eaaef4"/><stop offset=".992" stop-color="#fc9edd"/></linearGradient><linearGradient gradientTransform="matrix(.84126 0 0 .84126 31.959 234.188)" gradientUnits="userSpaceOnUse" id="Q" x1="665.329" x2="709.53" y1="1165.53" y2="1165.53"><stop offset="0" stop-color="#eaaef4"/><stop offset=".992" stop-color="#fc9edd"/></linearGradient><linearGradient gradientTransform="matrix(.84126 0 0 .84126 31.959 234.188)" gradientUnits="userSpaceOnUse" id="R" x1="599.028" x2="628.495" y1="1060.92" y2="1060.92"><stop offset="0" stop-color="#eaaef4"/><stop offset=".992" stop-color="#fc9edd"/></linearGradient><linearGradient gradientTransform="matrix(.84126 0 0 .84126 31.959 234.188)" gradientUnits="userSpaceOnUse" id="S" x1="812.664" x2="871.599" y1="1332.76" y2="1332.76"><stop offset="0" stop-color="#eaaef4"/><stop offset=".992" stop-color="#fc9edd"/></linearGradient><radialGradient cx="1007.26" cy="1042.86" gradientTransform="translate(-1003.18 -1072.57) scale(1.94904)" gradientUnits="userSpaceOnUse" id="a" r="460.534"><stop offset=".675" stop-color="#d556ff"/><stop offset="1" stop-color="#ffb2d6" stop-opacity="0"/></radialGradient></defs><g vectornator:layerName="Layer 2"><g vectornator:layerName="Group 5"><path d="M1291.81 398.938c-44.76 38.821-127.88 131.737-219.5 2.218-89.872 127.918-174.638 113.481-218.248 28.5-128.534 134.696-215.935 34.47-248.187 51.406-32.256 16.889 62.833 400.043 183.063 506.657 30.92-156.184 239.882-183.017 262.002-177.625 36.18 8.855-11.22 48.673-36.91 100.5-25.678 51.805 70.48-31.688 110.03-17.75 39.56 13.936 62.11 139.236 74.6 82.781 12.47-56.482.54-117.188 34.28-101.406 20.61 9.663 166.6 161.551 92.78 302.621 75.71-3.63 185.42-58.78 278.9-119.46a656.88 656.88 0 0 0 7.26-97.38c0-86.787-17.09-169.55-47.88-245.281-55.55-1.92-95.21-50.518-91.88-157.781-3.19-4.056-6.3-8.18-9.59-12.157-140.19 34.519-148.99-80.66-159.03-138.75a631.68 631.68 0 0 0-11.69-7.093z" fill="url(#F)" opacity=".713" vectornator:layerName="Curve 7"/><g opacity=".713" vectornator:layerName="Group 4"><path d="M460.217 1227.61c0-106.89 86.652-193.54 193.542-193.54s193.542 86.65 193.542 193.54c0 106.89-86.652 193.54-193.542 193.54s-193.542-86.65-193.542-193.54z" fill="url(#G)" vectornator:layerName="circle"/><g vectornator:layerName="g 3"><path d="M721.815 1247.55c0-23.96 19.423-43.39 43.382-43.39s43.381 19.43 43.381 43.39c0 23.95-19.422 43.38-43.381 43.38s-43.382-19.43-43.382-43.38z" fill="url(#H)" vectornator:layerName="circle"/><path d="M530.317 1271.1c0-20.54 16.648-37.19 37.184-37.19 20.537 0 37.185 16.65 37.185 37.19 0 20.53-16.648 37.18-37.185 37.18-20.536 0-37.184-16.65-37.184-37.18z" fill="url(#I)" vectornator:layerName="circle"/><path d="M549.529 1339.27c0-30.81 24.972-55.78 55.776-55.78 30.805 0 55.776 24.97 55.776 55.78 0 30.8-24.971 55.77-55.776 55.77-30.804 0-55.776-24.97-55.776-55.77z" fill="url(#J)" vectornator:layerName="circle"/><path d="M579.276 1135.99c0-13.69 11.099-24.79 24.79-24.79 13.691 0 24.789 11.1 24.789 24.79s-11.098 24.79-24.789 24.79-24.79-11.1-24.79-24.79z" fill="url(#K)" vectornator:layerName="circle"/><path d="M659.842 1142.19c0-13.69 11.099-24.79 24.789-24.79 13.691 0 24.79 11.1 24.79 24.79s-11.099 24.79-24.79 24.79c-13.69 0-24.789-11.1-24.789-24.79z" fill="url(#L)" vectornator:layerName="circle"/><path d="M505.528 1189.91c0-13.69 11.099-24.79 24.789-24.79 13.691 0 24.79 11.1 24.79 24.79s-11.099 24.79-24.79 24.79c-13.69 0-24.789-11.1-24.789-24.79z" fill="url(#M)" vectornator:layerName="circle"/><path d="M684.631 1086.41c0-6.84 5.55-12.39 12.395-12.39s12.395 5.55 12.395 12.39c0 6.85-5.55 12.4-12.395 12.4s-12.395-5.55-12.395-12.4z" fill="url(#N)" vectornator:layerName="circle"/><path d="M493.133 1271.1c0-6.85 5.55-12.4 12.395-12.4s12.395 5.55 12.395 12.4c0 6.84-5.55 12.39-12.395 12.39s-12.395-5.55-12.395-12.39z" fill="url(#O)" vectornator:layerName="circle"/><path d="M765.197 1339.27c0-6.85 5.549-12.4 12.395-12.4 6.845 0 12.394 5.55 12.394 12.4 0 6.84-5.549 12.39-12.394 12.39-6.846 0-12.395-5.55-12.395-12.39z" fill="url(#P)" vectornator:layerName="circle"/><path d="M591.671 1214.7c0-10.27 8.324-18.59 18.592-18.59 10.268 0 18.592 8.32 18.592 18.59s-8.324 18.59-18.592 18.59c-10.268 0-18.592-8.32-18.592-18.59z" fill="url(#Q)" vectornator:layerName="circle"/><path d="M535.895 1126.7c0-6.85 5.549-12.4 12.395-12.4 6.845 0 12.394 5.55 12.394 12.4 0 6.84-5.549 12.39-12.394 12.39-6.846 0-12.395-5.55-12.395-12.39z" fill="url(#R)" vectornator:layerName="circle"/><path d="M715.618 1355.38c0-13.69 11.099-24.79 24.789-24.79 13.691 0 24.79 11.1 24.79 24.79s-11.099 24.79-24.79 24.79c-13.69 0-24.789-11.1-24.789-24.79z" fill="url(#S)" vectornator:layerName="circle"/><path d="M605.305 1096.33c0 17.35 13.634 30.99 30.987 30.99 17.353 0 30.987-13.64 30.987-30.99 0-17.35-13.634-30.99-30.987-30.99-17.353-.62-30.987 13.64-30.987 30.99" fill="url(#T)" vectornator:layerName="path"/></g></g></g></g></svg>