<svg xmlns="http://www.w3.org/2000/svg" xmlns:vectornator="http://vectornator.io" xml:space="preserve" stroke-miterlimit="10" style="fill-rule:nonzero;clip-rule:evenodd;stroke-linecap:round;stroke-linejoin:round" viewBox="0 0 1920 1920"><defs><linearGradient id="o" x1="681.536" x2="755.204" y1="1024.82" y2="1024.82" gradientTransform="translate(31.959 234.188) scale(.84126)" gradientUnits="userSpaceOnUse"><stop offset="0" stop-color="#eaaef4"/><stop offset=".992" stop-color="#fc9edd"/></linearGradient><linearGradient id="a" x1="809.474" x2="1499.13" y1="1021.07" y2="518.48" gradientUnits="userSpaceOnUse"><stop offset="0" stop-color="#f2a2ff"/><stop offset=".994" stop-color="#ff90da"/></linearGradient><linearGradient id="b" x1="559.464" x2="960.948" y1="1373.76" y2="1003.06" gradientTransform="translate(6.588 193.358) scale(.87574)" gradientUnits="userSpaceOnUse"><stop offset="0" stop-color="#f2a2ff"/><stop offset=".994" stop-color="#ff90da"/></linearGradient><linearGradient id="c" x1="820.031" x2="923.166" y1="1204.58" y2="1204.58" gradientTransform="translate(31.959 234.188) scale(.84126)" gradientUnits="userSpaceOnUse"><stop offset="0" stop-color="#eaaef4"/><stop offset=".992" stop-color="#fc9edd"/></linearGradient><linearGradient id="d" x1="592.398" x2="680.799" y1="1232.57" y2="1232.57" gradientTransform="translate(31.959 234.188) scale(.84126)" gradientUnits="userSpaceOnUse"><stop offset="0" stop-color="#eaaef4"/><stop offset=".992" stop-color="#fc9edd"/></linearGradient><linearGradient id="e" x1="615.235" x2="747.837" y1="1313.61" y2="1313.61" gradientTransform="translate(31.959 234.188) scale(.84126)" gradientUnits="userSpaceOnUse"><stop offset="0" stop-color="#eaaef4"/><stop offset=".992" stop-color="#fc9edd"/></linearGradient><linearGradient id="f" x1="650.595" x2="709.53" y1="1071.97" y2="1071.97" gradientTransform="translate(31.959 234.188) scale(.84126)" gradientUnits="userSpaceOnUse"><stop offset="0" stop-color="#eaaef4"/><stop offset=".992" stop-color="#fc9edd"/></linearGradient><linearGradient id="g" x1="746.364" x2="805.298" y1="1079.34" y2="1079.34" gradientTransform="translate(31.959 234.188) scale(.84126)" gradientUnits="userSpaceOnUse"><stop offset="0" stop-color="#eaaef4"/><stop offset=".992" stop-color="#fc9edd"/></linearGradient><linearGradient id="h" x1="562.931" x2="621.865" y1="1136.07" y2="1136.07" gradientTransform="translate(31.959 234.188) scale(.84126)" gradientUnits="userSpaceOnUse"><stop offset="0" stop-color="#eaaef4"/><stop offset=".992" stop-color="#fc9edd"/></linearGradient><linearGradient id="i" x1="775.831" x2="805.298" y1="1013.04" y2="1013.04" gradientTransform="translate(31.959 234.188) scale(.84126)" gradientUnits="userSpaceOnUse"><stop offset="0" stop-color="#eaaef4"/><stop offset=".992" stop-color="#fc9edd"/></linearGradient><linearGradient id="j" x1="548.197" x2="577.664" y1="1232.57" y2="1232.57" gradientTransform="translate(31.959 234.188) scale(.84126)" gradientUnits="userSpaceOnUse"><stop offset="0" stop-color="#eaaef4"/><stop offset=".992" stop-color="#fc9edd"/></linearGradient><linearGradient id="k" x1="871.599" x2="901.066" y1="1313.61" y2="1313.61" gradientTransform="translate(31.959 234.188) scale(.84126)" gradientUnits="userSpaceOnUse"><stop offset="0" stop-color="#eaaef4"/><stop offset=".992" stop-color="#fc9edd"/></linearGradient><linearGradient id="l" x1="665.329" x2="709.53" y1="1165.53" y2="1165.53" gradientTransform="translate(31.959 234.188) scale(.84126)" gradientUnits="userSpaceOnUse"><stop offset="0" stop-color="#eaaef4"/><stop offset=".992" stop-color="#fc9edd"/></linearGradient><linearGradient id="m" x1="599.028" x2="628.495" y1="1060.92" y2="1060.92" gradientTransform="translate(31.959 234.188) scale(.84126)" gradientUnits="userSpaceOnUse"><stop offset="0" stop-color="#eaaef4"/><stop offset=".992" stop-color="#fc9edd"/></linearGradient><linearGradient id="n" x1="812.664" x2="871.599" y1="1332.76" y2="1332.76" gradientTransform="translate(31.959 234.188) scale(.84126)" gradientUnits="userSpaceOnUse"><stop offset="0" stop-color="#eaaef4"/><stop offset=".992" stop-color="#fc9edd"/></linearGradient></defs><g vectornator:layerName="Layer 2"><g vectornator:layerName="Group 5"><path vectornator:layerName="Curve 7" fill="url(#a)" d="M1291.81 398.938c-44.76 38.821-127.88 131.737-219.5 2.218-89.872 127.918-174.638 113.481-218.248 28.5-128.534 134.696-215.935 34.47-248.187 51.406-32.256 16.889 62.833 400.043 183.063 506.657 30.92-156.184 239.882-183.017 262.002-177.625 36.18 8.855-11.22 48.673-36.91 100.5-25.678 51.805 70.48-31.688 110.03-17.75 39.56 13.936 62.11 139.236 74.6 82.781 12.47-56.482.54-117.188 34.28-101.406 20.61 9.663 166.6 161.551 92.78 302.621 75.71-3.63 185.42-58.78 278.9-119.46a656.88 656.88 0 0 0 7.26-97.38c0-86.787-17.09-169.55-47.88-245.281-55.55-1.92-95.21-50.518-91.88-157.781-3.19-4.056-6.3-8.18-9.59-12.157-140.19 34.519-148.99-80.66-159.03-138.75a631.68 631.68 0 0 0-11.69-7.093z" opacity=".713"/><g vectornator:layerName="Group 4" opacity=".713"><path vectornator:layerName="circle" fill="url(#b)" d="M460.217 1227.61c0-106.89 86.652-193.54 193.542-193.54s193.542 86.65 193.542 193.54c0 106.89-86.652 193.54-193.542 193.54s-193.542-86.65-193.542-193.54z"/><g vectornator:layerName="g 3"><path vectornator:layerName="circle" fill="url(#c)" d="M721.815 1247.55c0-23.96 19.423-43.39 43.382-43.39s43.381 19.43 43.381 43.39c0 23.95-19.422 43.38-43.381 43.38s-43.382-19.43-43.382-43.38z"/><path vectornator:layerName="circle" fill="url(#d)" d="M530.317 1271.1c0-20.54 16.648-37.19 37.184-37.19 20.537 0 37.185 16.65 37.185 37.19 0 20.53-16.648 37.18-37.185 37.18-20.536 0-37.184-16.65-37.184-37.18z"/><path vectornator:layerName="circle" fill="url(#e)" d="M549.529 1339.27c0-30.81 24.972-55.78 55.776-55.78 30.805 0 55.776 24.97 55.776 55.78 0 30.8-24.971 55.77-55.776 55.77-30.804 0-55.776-24.97-55.776-55.77z"/><path vectornator:layerName="circle" fill="url(#f)" d="M579.276 1135.99c0-13.69 11.099-24.79 24.79-24.79 13.691 0 24.789 11.1 24.789 24.79s-11.098 24.79-24.789 24.79-24.79-11.1-24.79-24.79z"/><path vectornator:layerName="circle" fill="url(#g)" d="M659.842 1142.19c0-13.69 11.099-24.79 24.789-24.79 13.691 0 24.79 11.1 24.79 24.79s-11.099 24.79-24.79 24.79c-13.69 0-24.789-11.1-24.789-24.79z"/><path vectornator:layerName="circle" fill="url(#h)" d="M505.528 1189.91c0-13.69 11.099-24.79 24.789-24.79 13.691 0 24.79 11.1 24.79 24.79s-11.099 24.79-24.79 24.79c-13.69 0-24.789-11.1-24.789-24.79z"/><path vectornator:layerName="circle" fill="url(#i)" d="M684.631 1086.41c0-6.84 5.55-12.39 12.395-12.39s12.395 5.55 12.395 12.39c0 6.85-5.55 12.4-12.395 12.4s-12.395-5.55-12.395-12.4z"/><path vectornator:layerName="circle" fill="url(#j)" d="M493.133 1271.1c0-6.85 5.55-12.4 12.395-12.4s12.395 5.55 12.395 12.4c0 6.84-5.55 12.39-12.395 12.39s-12.395-5.55-12.395-12.39z"/><path vectornator:layerName="circle" fill="url(#k)" d="M765.197 1339.27c0-6.85 5.549-12.4 12.395-12.4 6.845 0 12.394 5.55 12.394 12.4 0 6.84-5.549 12.39-12.394 12.39-6.846 0-12.395-5.55-12.395-12.39z"/><path vectornator:layerName="circle" fill="url(#l)" d="M591.671 1214.7c0-10.27 8.324-18.59 18.592-18.59 10.268 0 18.592 8.32 18.592 18.59s-8.324 18.59-18.592 18.59c-10.268 0-18.592-8.32-18.592-18.59z"/><path vectornator:layerName="circle" fill="url(#m)" d="M535.895 1126.7c0-6.85 5.549-12.4 12.395-12.4 6.845 0 12.394 5.55 12.394 12.4 0 6.84-5.549 12.39-12.394 12.39-6.846 0-12.395-5.55-12.395-12.39z"/><path vectornator:layerName="circle" fill="url(#n)" d="M715.618 1355.38c0-13.69 11.099-24.79 24.789-24.79 13.691 0 24.79 11.1 24.79 24.79s-11.099 24.79-24.79 24.79c-13.69 0-24.789-11.1-24.789-24.79z"/><path vectornator:layerName="path" fill="url(#o)" d="M605.305 1096.33c0 17.35 13.634 30.99 30.987 30.99 17.353 0 30.987-13.64 30.987-30.99 0-17.35-13.634-30.99-30.987-30.99-17.353-.62-30.987 13.64-30.987 30.99"/></g></g></g></g></svg>