<svg xmlns="http://www.w3.org/2000/svg" xmlns:vectornator="http://vectornator.io" xml:space="preserve" stroke-miterlimit="10" style="fill-rule:nonzero;clip-rule:evenodd;stroke-linecap:round;stroke-linejoin:round" viewBox="0 0 1920 1920"><defs><linearGradient id="a" x1="849.503" x2="1003.93" y1="1341.4" y2="544.143" gradientUnits="userSpaceOnUse"><stop offset="0" stop-color="#f2a2ff"/><stop offset=".994" stop-color="#ff90da"/></linearGradient></defs><g vectornator:layerName="Layer 2"><path vectornator:layerName="Curve 3" fill="url(#a)" d="M960 308.125c-4.236 0-8.408.232-12.625.313v178.124h152.565v-40.968h-96.53v-35.688h87.03V373h-87.03v-28.75h93.81v-21.531c-44.26-9.485-90.13-14.594-137.22-14.594zm-84.906 5.687c-46.431 6.044-91.328 16.875-134.156 32.157-7.299 13.871-11.032 30.579-11.032 50.25 0 21.146 4.158 38.742 12.469 52.812 8.311 14.071 19.16 24.375 32.531 30.875 13.371 6.501 30.251 9.75 50.657 9.75 20.077 0 36.828-3.784 50.281-11.312 13.453-7.529 23.758-18.059 30.875-31.594 7.117-13.535 10.687-30.853 10.687-52 0-29.128-8.145-51.8-24.437-67.969-5.22-5.18-11.235-9.448-17.875-12.969zm260.936 18.563V413.5c0 8.886 1.7 19.074 5.16 30.594 2.14 7.158 6.13 14.128 11.93 20.875 5.81 6.747 12.2 11.932 19.19 15.593 7 3.662 15.69 6.11 26.1 7.344 10.4 1.235 20 1.875 28.81 1.875 15.22 0 28.26-2.03 39.12-6.062 7.82-2.88 15.29-7.883 22.41-15 7.12-7.118 12.36-15.434 15.69-24.938 3.33-9.503 5-19.584 5-30.281v-3.688a651.89 651.89 0 0 0-55.82-31.75v38.032c.01 10.038-2.71 17.778-8.18 23.25-5.47 5.472-13.03 8.218-22.66 8.218-9.71 0-17.31-2.789-22.78-8.343-5.47-5.554-8.19-13.252-8.19-23.125v-65.375c-18.21-6.935-36.82-13.038-55.78-18.344zm-312.811 12.5c11.766 0 21.099 3.923 27.969 11.781 6.87 7.858 10.281 20.311 10.281 37.344 0 20.241-3.292 34.277-9.875 42.094s-15.862 11.718-27.875 11.718c-11.684 0-20.931-3.987-27.719-11.968-6.788-7.982-10.187-21.109-10.187-39.375-.001-18.431 3.42-31.644 10.249-39.625 6.83-7.982 15.884-11.969 27.157-11.969zm-123.438 17.406c-17.99 7.843-35.586 16.405-52.687 25.781v17.657l-8.625-12.688c-13.25 7.53-26.257 15.433-38.907 23.844l47.532 69.687h52.687V362.281zm-120.437 68.688c-18.255 13.158-35.823 27.192-52.594 42.125v13.468h52.594v-55.593zm767.466 4.375v51.218h52.6V478.5c-16.75-15.287-34.33-29.663-52.6-43.156zm-728.872 92.094c-29.375 0-52.294 8.231-68.75 24.687-16.457 16.456-24.688 39.461-24.688 69 0 21.147 4.158 38.742 12.469 52.813 8.31 14.07 19.16 24.343 32.531 30.843 13.371 6.5 30.25 9.75 50.656 9.75 20.077 0 36.86-3.752 50.313-11.281 13.453-7.529 23.727-18.058 30.844-31.594C708.43 658.121 712 640.772 712 619.625c0-29.128-8.146-51.769-24.437-67.937-16.292-16.169-39.51-24.25-69.625-24.25zm820.062 0c-29.37 0-52.29 8.231-68.75 24.687-16.46 16.456-24.69 39.461-24.69 69 0 21.147 4.16 38.742 12.47 52.813 8.31 14.07 19.16 24.343 32.53 30.843 13.37 6.5 30.25 9.75 50.66 9.75 20.08 0 36.86-3.752 50.31-11.281 13.45-7.529 23.73-18.058 30.85-31.594 4.16-7.916 6.95-17.29 8.68-27.812-23.18-41.719-50.81-80.606-82.25-116.063-3.19-.202-6.44-.343-9.81-.343zm-968.188 3.093c-9.742 11.111-19.145 22.522-28.124 34.281v65.813l-23.032-33.844c-9.274 13.795-17.905 28.048-26.125 42.563l49.157 72.125h52.718V530.531h-24.594zm272.157 0v180.938h152.562v-41H798v-35.657h87.031v-36.906H798v-28.75h93.812v-38.625H741.969zm188.656 0v107.875c0 8.887 1.731 19.074 5.187 30.594 2.14 7.158 6.106 14.128 11.907 20.875s12.194 11.933 19.187 15.594c6.994 3.661 15.685 6.109 26.094 7.343 10.41 1.235 20.01 1.844 28.81 1.844 15.22 0 28.27-2 39.13-6.031 7.81-2.88 15.29-7.883 22.4-15 7.12-7.117 12.36-15.434 15.69-24.937 3.33-9.504 5-19.585 5-30.282V530.531h-55.78V641c0 10.038-2.75 17.778-8.22 23.25-5.47 5.472-13.03 8.219-22.65 8.219-9.71 0-17.31-2.79-22.786-8.344-5.472-5.554-8.188-13.251-8.188-23.125V530.531h-55.781zm210.785 0v180.938H1194v-99.375l67.75 99.375h52.72V530.531h-52.72v100.094l-68.13-100.094h-52.21zm-523.598 39.25c11.767 0 21.099 3.924 27.969 11.781 6.871 7.858 10.313 20.312 10.313 37.344 0 20.242-3.292 34.246-9.875 42.063s-15.893 11.75-27.907 11.75c-11.684 0-20.93-4.019-27.718-12-6.789-7.982-10.188-21.077-10.188-39.344 0-18.431 3.421-31.644 10.25-39.625 6.83-7.981 15.884-11.969 27.156-11.969zm820.068 0c11.76 0 21.09 3.924 27.96 11.781 6.87 7.858 10.32 20.312 10.32 37.344 0 20.242-3.3 34.246-9.88 42.063-6.58 7.817-15.89 11.75-27.9 11.75-11.69 0-20.93-4.019-27.72-12-6.79-7.982-10.16-21.077-10.16-39.344 0-18.431 3.39-31.644 10.22-39.625 6.83-7.981 15.88-11.969 27.16-11.969zM373.938 674.375c-5.934 12.152-11.471 24.532-16.657 37.094h16.657v-37.094zM1562.03 709.75v1.719h.69c-.24-.57-.45-1.151-.69-1.719zM414.281 751.938c-29.375 0-52.293 8.231-68.75 24.687-9.745 9.745-16.525 21.852-20.5 36.187-.662 2.867-1.376 5.714-2 8.594-1.413 7.533-2.187 15.564-2.187 24.219 0 21.147 4.158 38.742 12.468 52.813 8.311 14.07 19.161 24.344 32.532 30.843 13.371 6.5 30.25 9.75 50.656 9.75 20.077 0 36.859-3.752 50.312-11.281 13.454-7.529 23.727-18.058 30.844-31.594 7.118-13.535 10.688-30.884 10.688-52.031 0-29.128-8.146-51.769-24.438-67.937-16.292-16.169-39.509-24.25-69.625-24.25zm820.059 0c-29.37 0-52.26 8.231-68.72 24.687-16.45 16.456-24.68 39.461-24.68 69 0 21.147 4.16 38.742 12.47 52.813 8.31 14.07 19.13 24.344 32.5 30.843 13.37 6.5 30.25 9.75 50.65 9.75 20.08 0 36.86-3.752 50.32-11.281 13.45-7.529 23.72-18.058 30.84-31.594 7.12-13.535 10.69-30.884 10.69-52.031 0-29.128-8.15-51.769-24.44-67.937-16.29-16.169-39.51-24.25-69.63-24.25zm-695.996 3.093v180.938h152.531V895h-96.5v-35.688h87v-36.906h-87v-28.75h93.781v-38.625H538.344zm188.625 0v107.875c0 8.887 1.731 19.075 5.187 30.594 2.139 7.158 6.106 14.128 11.907 20.875s12.193 11.933 19.187 15.594c6.994 3.661 15.685 6.109 26.094 7.343 10.408 1.235 20.039 1.844 28.844 1.844 15.222 0 28.263-2 39.124-6.031 7.817-2.88 15.259-7.883 22.376-15 7.117-7.117 12.355-15.434 15.687-24.937 3.332-9.504 5-19.585 5-30.282V755.031h-55.781V865.5c0 10.038-2.747 17.778-8.219 23.25-5.472 5.472-13.03 8.219-22.656 8.219-9.709 0-17.278-2.79-22.75-8.344-5.472-5.554-8.219-13.251-8.219-23.125V755.031h-55.781zm210.812 0v180.938h52.563v-99.375l67.746 99.375h52.72V755.031h-52.72v100.094l-68.121-100.094h-52.188zm420.629 0v180.938h152.53V895h-96.5v-35.688h87v-36.906h-87v-28.75h93.78v-38.625h-149.81zm193.59 0v107.875c0 8.887 1.73 19.075 5.19 30.594 2.14 7.158 6.1 14.128 11.9 20.875 5.8 6.747 12.2 11.932 19.19 15.594 6.27 3.28 13.99 5.543 23 6.875-2.22-63.329-13.46-124.328-32.5-181.813H1552zm-1137.844 39.25c11.767 0 21.098 3.923 27.969 11.781 6.871 7.859 10.313 20.312 10.313 37.344 0 20.242-3.293 34.246-9.876 42.063-6.582 7.817-15.892 11.75-27.906 11.75-11.684 0-20.93-4.019-27.718-12-6.789-7.982-10.157-21.078-10.157-39.344 0-18.431 3.389-31.644 10.219-39.625 6.829-7.981 15.884-11.969 27.156-11.969zm820.064 0c11.77 0 21.1 3.923 27.97 11.781 6.87 7.859 10.31 20.312 10.31 37.344 0 20.242-3.29 34.246-9.88 42.063-6.58 7.817-15.89 11.75-27.9 11.75-11.69 0-20.9-4.019-27.69-12-6.79-7.982-10.19-21.078-10.19-39.344 0-18.431 3.42-31.644 10.25-39.625 6.83-7.981 15.86-11.969 27.13-11.969zM1027.5 978.094c-29.375 0-52.294 8.231-68.75 24.686-16.456 16.46-24.688 39.43-24.688 68.97 0 21.15 4.158 38.77 12.469 52.84s19.161 24.35 32.531 30.85c13.372 6.5 30.248 9.75 50.658 9.75 20.08 0 36.86-3.75 50.31-11.28 13.45-7.53 23.73-18.06 30.85-31.6 7.11-13.53 10.68-30.88 10.68-52.03 0-29.13-8.14-51.77-24.44-67.94-16.29-16.165-39.5-24.246-69.62-24.246zm-696.031 3.062v151.654c2.703 9.86 5.601 19.62 8.75 29.28h143.812v-40.97H387.5v-35.65h87.031v-36.91H387.5v-28.75h93.812v-38.654H331.469zm188.656 0v107.874c0 8.89 1.7 19.11 5.156 30.63 2.14 7.15 6.137 14.09 11.938 20.84 5.801 6.75 12.193 11.96 19.187 15.62 6.994 3.67 15.685 6.11 26.094 7.35 10.409 1.23 20.008 1.84 28.812 1.84 15.223 0 28.264-2 39.126-6.03 7.816-2.88 15.288-7.88 22.406-15 7.117-7.12 12.355-15.43 15.687-24.94 3.333-9.5 5-19.61 5-30.31V981.156H637.75v110.464c0 10.04-2.747 17.81-8.219 23.29-5.472 5.47-13.029 8.18-22.656 8.18-9.709 0-17.309-2.75-22.781-8.31-5.472-5.55-8.188-13.28-8.188-23.16V981.156h-55.781zm210.781 0v180.934H783.5v-99.34l67.75 99.34h52.719V981.156H851.25v100.094l-68.125-100.094h-52.219zm420.624 0v180.934h152.56v-40.97h-96.5v-35.65h87v-36.91h-87v-28.75h93.79v-38.654h-149.85zm196.19 0v107.874c0 8.89 1.73 19.11 5.19 30.63 2.14 7.15 6.1 14.09 11.9 20.84 5.8 6.75 12.2 11.96 19.19 15.62 6.99 3.67 15.69 6.11 26.09 7.35 10.41 1.23 20.04 1.84 28.85 1.84 15.22 0 28.26-2.03 39.12-6.06 7.82-2.88 15.26-7.85 22.38-14.97 7.12-7.12 12.35-15.43 15.68-24.94 3.34-9.5 5-19.61 5-30.31V981.156h-55.78v110.464c0 10.04-2.74 17.81-8.22 23.29-5.47 5.47-13.02 8.18-22.65 8.18-9.71 0-17.28-2.75-22.75-8.31-5.47-5.55-8.22-13.28-8.22-23.16V981.156h-55.78zm210.81 0v180.934h21.25c18.57-56.97 29.45-117.39 31.53-180.059l-.59-.875h-52.19zm-531.15 39.254c11.76 0 21.09 3.95 27.96 11.81 6.87 7.86 10.32 20.28 10.32 37.31 0 20.24-3.3 34.28-9.88 42.09-6.58 7.82-15.89 11.72-27.9 11.72-11.69 0-20.94-3.98-27.72-11.96-6.792-7.99-10.16-21.11-10.16-39.38 0-18.43 3.389-31.64 10.22-39.62 6.83-7.99 15.88-11.97 27.16-11.97zm-205.911 182.18c-29.375 0-52.294 8.23-68.75 24.69-16.457 16.46-24.688 39.43-24.688 68.97 0 21.15 4.158 38.77 12.469 52.84s19.16 24.35 32.531 30.85c13.371 6.5 30.251 9.75 50.657 9.75 20.077 0 36.859-3.75 50.312-11.28 13.453-7.53 23.727-18.06 30.844-31.6 7.117-13.53 10.687-30.88 10.687-52.03 0-29.13-8.145-51.77-24.437-67.94-16.292-16.16-39.509-24.25-69.625-24.25zm-465.313 3.07c4.315 10.59 8.872 21.06 13.719 31.37v-31.37h-13.719zm75.563 0v110.46c0 7.62-1.598 13.92-4.75 18.91 9.925 14.08 20.267 27.83 31.25 41.06 2.911-2.14 5.792-4.51 8.593-7.31 7.118-7.12 12.356-15.43 15.688-24.94 3.332-9.5 5-19.61 5-30.31v-107.87h-55.781zm93.156 0v180.93h52.594v-99.34l67.75 99.34h52.719v-180.93h-52.719v100.12l-68.125-100.12h-52.219zm420.625 0v180.93h152.56v-40.97h-96.5v-35.65h87v-36.91h-87v-28.75h93.78v-38.65H945.5zm190.53 0v107.87c0 8.89 1.7 19.11 5.16 30.63 2.14 7.15 6.13 14.09 11.93 20.84 5.81 6.75 12.2 11.96 19.19 15.62 7 3.67 15.69 6.11 26.1 7.35 10.4 1.23 20 1.84 28.81 1.84 15.22 0 28.26-2 39.12-6.03 7.82-2.88 15.29-7.88 22.41-15 7.12-7.12 12.36-15.43 15.69-24.94 3.33-9.5 5-19.61 5-30.31v-107.87h-55.82v110.46c.01 10.04-2.71 17.81-8.18 23.29-5.47 5.47-13.03 8.18-22.66 8.18-9.71 0-17.31-2.75-22.78-8.31-5.47-5.55-8.19-13.28-8.19-23.16v-110.46h-55.78zm210.78 0v180.93h52.6v-99.34l61.37 90c21.8-26.13 41.55-53.99 59.1-83.34v-88.25h-52.72v100.12l-68.13-100.12h-52.22zm-525.466 39.25c11.766 0 21.099 3.95 27.968 11.81 6.871 7.86 10.313 20.28 10.313 37.31 0 20.24-3.292 34.28-9.875 42.09-6.582 7.82-15.893 11.72-27.906 11.72-11.684 0-20.931-3.98-27.719-11.96-6.788-7.99-10.156-21.11-10.156-39.38 0-18.43 3.389-31.61 10.219-39.59 6.829-7.99 15.883-12 27.156-12zm-200.188 185.31c-29.374 0-52.293 8.23-68.75 24.69-2.555 2.55-4.841 5.31-7 8.18 13.724 11.33 28.024 21.94 42.656 32.13 1.563-4.14 3.395-7.86 5.813-10.69 6.829-7.98 15.884-11.97 27.156-11.97 11.767 0 21.067 3.93 27.938 11.78 6.87 7.86 10.312 20.32 10.312 37.35 0 5.97-.396 11.23-.968 16.12 16.709 8.74 33.79 16.86 51.312 24.16 3.659-11.25 5.563-24.36 5.563-39.53-.001-29.13-8.146-51.8-24.438-67.97-16.292-16.17-39.478-24.25-69.594-24.25zm124.032 3.09v142.16c48.514 16.93 99.587 28.35 152.562 33.37v-35.56h-96.531v-35.69h87.031v-36.87h-87.031v-28.78h93.812v-38.63H745.188zm188.624 0v107.88c0 8.88 1.732 19.07 5.188 30.59 2.139 7.16 6.105 14.13 11.906 20.88 5.801 6.74 12.194 11.96 19.188 15.62 2.276 1.19 4.797 2.22 7.437 3.16 35.739-.95 70.769-4.71 104.849-11.19 1.4-1.22 2.8-2.46 4.18-3.84 7.12-7.12 12.33-15.41 15.66-24.91s5-19.62 5-30.31v-107.88h-55.78v110.47c0 10.04-2.72 17.78-8.19 23.25-5.47 5.47-13.03 8.22-22.66 8.22-9.71 0-17.31-2.79-22.778-8.34-5.471-5.56-8.218-13.25-8.218-23.13v-110.47h-55.782zm210.808 0v151.88c17.87-5.27 35.4-11.31 52.6-18.03v-52.25l27.75 40.68a650.121 650.121 0 0 0 92.69-50.68v-71.6h-52.69v100.1l-68.13-100.1h-52.22zm261.38 1.88c-13.15 4.06-24.38 10.56-33.53 19.72-6.31 6.31-11.36 13.61-15.25 21.84 16.95-13.05 33.21-26.94 48.78-41.56z" opacity=".385"/></g></svg>