<svg xmlns="http://www.w3.org/2000/svg" xmlns:vectornator="http://vectornator.io" xml:space="preserve" stroke-miterlimit="10" style="fill-rule:nonzero;clip-rule:evenodd;stroke-linecap:round;stroke-linejoin:round" viewBox="0 0 1920 1920"><defs><linearGradient id="a" x1="397.312" x2="1538.5" y1="1052.98" y2="1052.98" gradientUnits="userSpaceOnUse"><stop offset="0" stop-color="#f2a2ff"/><stop offset=".994" stop-color="#ff90da"/></linearGradient></defs><g vectornator:layerName="Layer 2"><path vectornator:layerName="Curve 1" fill="url(#a)" d="M1280.34 494.094c-33.49-.207-65.17 35.594-95.15 92.687-11.39 21.689-22.54 46.474-33.44 73.5-102.69 254.687-185.88 807.359-269.875 533.809C797.88 920.552 600.809 855 504.625 956.25c-76.339 80.36-88.557 139.58-107.312 332.75C510.466 1482.11 720.017 1611.87 960 1611.87c251.66.01 469.86-142.69 578.5-351.5-1.69-26.94-4.95-55.24-10.41-85.31-91.71-505.769-174.06-680.512-247.75-680.966zm-6.15 305.562c69.95 0 126.65 56.706 126.65 126.656 0 69.951-56.7 126.658-126.65 126.658s-126.66-56.707-126.66-126.658c0-69.95 56.71-126.656 126.66-126.656z" opacity=".713"/></g></svg>