<svg stroke-miterlimit="10" style="fill-rule:nonzero;clip-rule:evenodd;stroke-linecap:round;stroke-linejoin:round" viewBox="0 0 1920 1920" xml:space="preserve" xmlns="http://www.w3.org/2000/svg" xmlns:vectornator="http://vectornator.io"><defs><linearGradient gradientTransform="translate(0 -12.274)" gradientUnits="userSpaceOnUse" id="j" x1="1053.97" x2="1366.35" y1="743.428" y2="743.428"><stop offset="0" stop-color="#f2a2ff"/><stop offset=".994" stop-color="#ff90da"/></linearGradient><linearGradient gradientTransform="matrix(.89756 0 0 .89756 98.346 98.346)" gradientUnits="userSpaceOnUse" id="s" x1="1326.58" x2="1476.95" y1="1162.48" y2="1162.48"><stop offset="0" stop-color="#f2a2ff"/><stop offset=".994" stop-color="#ff90da"/></linearGradient><linearGradient gradientUnits="userSpaceOnUse" id="c" x1="397.312" x2="1538.5" y1="1052.98" y2="1052.98"><stop offset="0" stop-color="#f2a2ff"/><stop offset=".994" stop-color="#ff90da"/></linearGradient><linearGradient gradientUnits="userSpaceOnUse" id="d" x1="849.503" x2="1003.93" y1="1341.4" y2="544.143"><stop offset="0" stop-color="#f2a2ff"/><stop offset=".994" stop-color="#ff90da"/></linearGradient><linearGradient gradientUnits="userSpaceOnUse" id="e" x1="906.776" x2="1009.44" y1="1536.4" y2="582.736"><stop offset="0" stop-color="#f2a2ff"/><stop offset=".994" stop-color="#ff90da"/></linearGradient><linearGradient gradientUnits="userSpaceOnUse" id="f" x1="735.743" x2="838.405" y1="1474.12" y2="520.46"><stop offset="0" stop-color="#f2a2ff"/><stop offset=".994" stop-color="#ff90da"/></linearGradient><linearGradient gradientTransform="translate(0 -12.274)" gradientUnits="userSpaceOnUse" id="g" x1="443.045" x2="1476.95" y1="1185.01" y2="1185.01"><stop offset="0" stop-color="#f2a2ff"/><stop offset=".994" stop-color="#ff90da"/></linearGradient><linearGradient gradientTransform="translate(0 -12.274)" gradientUnits="userSpaceOnUse" id="h" x1="803.284" x2="1116.11" y1="946.921" y2="946.921"><stop offset="0" stop-color="#f2a2ff"/><stop offset=".994" stop-color="#ff90da"/></linearGradient><linearGradient gradientTransform="translate(0 -12.274)" gradientUnits="userSpaceOnUse" id="i" x1="1068.88" x2="1069.49" y1="834.305" y2="834.305"><stop offset="0" stop-color="#f2a2ff"/><stop offset=".994" stop-color="#ff90da"/></linearGradient><linearGradient gradientTransform="translate(284.485 284.485) scale(.70366)" gradientUnits="userSpaceOnUse" id="b" x1="604.662" x2="1278.87" y1="1302.5" y2="712.003"><stop offset="0" stop-color="#fbf0ff"/><stop offset=".995" stop-color="#ffe1f5"/></linearGradient><linearGradient gradientTransform="translate(0 -12.274)" gradientUnits="userSpaceOnUse" id="k" x1="552.877" x2="865.822" y1="743.433" y2="743.433"><stop offset="0" stop-color="#f2a2ff"/><stop offset=".994" stop-color="#ff90da"/></linearGradient><linearGradient gradientTransform="matrix(.89756 0 0 .89756 98.346 98.346)" gradientUnits="userSpaceOnUse" id="l" x1="448.29" x2="785.224" y1="723.647" y2="723.647"><stop offset="0" stop-color="#f2a2ff"/><stop offset=".994" stop-color="#ff90da"/></linearGradient><linearGradient gradientTransform="matrix(.89756 0 0 .89756 98.346 98.346)" gradientUnits="userSpaceOnUse" id="m" x1="1136.91" x2="1435.95" y1="733.81" y2="733.81"><stop offset="0" stop-color="#f2a2ff"/><stop offset=".994" stop-color="#ff90da"/></linearGradient><linearGradient gradientTransform="matrix(.89756 0 0 .89756 98.346 98.346)" gradientUnits="userSpaceOnUse" id="n" x1="841.369" x2="1077.8" y1="1000.74" y2="1000.74"><stop offset="0" stop-color="#f2a2ff"/><stop offset=".994" stop-color="#ff90da"/></linearGradient><linearGradient gradientTransform="matrix(.89756 0 0 .89756 98.346 98.346)" gradientUnits="userSpaceOnUse" id="o" x1="443.045" x2="591.071" y1="1177.91" y2="1177.91"><stop offset="0" stop-color="#f2a2ff"/><stop offset=".994" stop-color="#ff90da"/></linearGradient><linearGradient gradientTransform="matrix(.89756 0 0 .89756 98.346 98.346)" gradientUnits="userSpaceOnUse" id="p" x1="612.415" x2="784.114" y1="1282.39" y2="1282.39"><stop offset="0" stop-color="#f2a2ff"/><stop offset=".994" stop-color="#ff90da"/></linearGradient><linearGradient gradientTransform="matrix(.89756 0 0 .89756 98.346 98.346)" gradientUnits="userSpaceOnUse" id="q" x1="844.26" x2="1030.2" y1="1312.45" y2="1312.45"><stop offset="0" stop-color="#f2a2ff"/><stop offset=".994" stop-color="#ff90da"/></linearGradient><linearGradient gradientTransform="matrix(.89756 0 0 .89756 98.346 98.346)" gradientUnits="userSpaceOnUse" id="r" x1="1094.41" x2="1260.12" y1="1262.41" y2="1262.41"><stop offset="0" stop-color="#f2a2ff"/><stop offset=".994" stop-color="#ff90da"/></linearGradient><radialGradient cx="1007.26" cy="1042.86" gradientTransform="translate(-1003.18 -1072.57) scale(1.94904)" gradientUnits="userSpaceOnUse" id="a" r="460.534"><stop offset=".675" stop-color="#d556ff"/><stop offset="1" stop-color="#ffb2d6" stop-opacity="0"/></radialGradient></defs><g vectornator:layerName="Layer 2"><g opacity=".713" vectornator:layerName="g 1"><path d="M802.561 912.43c-28.623-112.414-57.014-224.896-85.038-337.456-3.22-12.925-19.324-12.782-26.128-3.414-46.807 64.44-91.653 130.208-133.71 197.86-17.13 27.553-69.136 81.945-54.365 115.252 1.526 3.437 5.175 4.398 8.681 4.483 2.638 2.472 6.349 3.746 11.037 2.229 35.863-11.597 69.526-40.737 105.536-48.279 55.924-11.712 109.312 52.418 148.794 83.991 11.245 8.99 29.178.989 25.193-14.666z" fill="url(#l)" vectornator:layerName="path"/><path d="M1385.39 902.092c-49.26-106.501-105.75-208.824-169.42-307.393-7.38-11.423-24.67-9.43-28.73 3.758-30.37 98.534-57.21 199.528-68.39 302.252-.4 3.634 1.23 6.218 3.61 7.901 3.64 8.678 13.81 14.767 22.88 8.322 16.46-11.697 32.81-23.517 49.18-35.338 25.83-18.663 23.25-23.409 53.4-15.226 38.22 10.376 79.38 40.292 114.91 58.292 15.32 7.761 29.47-7.631 22.56-22.568z" fill="url(#m)" vectornator:layerName="path"/><path d="M1063.85 1062.16c-17.68-33.25-35.35-66.511-53.12-99.71-11.795-22.027-19.58-49.897-44.666-58.516-6.893-2.367-14.798 1.61-18.424 7.499-16.061 26.07-31.859 52.307-47.614 78.562-10.006 16.675-21.622 33.525-29.368 51.615-4.117 5.51-8.326 10.97-12.18 16.64-1.035 1.53-1.433 3.26-1.576 5.02-10.399 11.13 5.052 33.81 21.201 24.39.05.18.1.36.151.55 49.136-20.92 119.866-6.73 171.256-1.07 13.29 1.46 19.67-14.96 14.34-24.98z" fill="url(#n)" vectornator:layerName="path"/><path d="M620.955 1137.63c-31.682-20.17-62.567-41.54-94.372-61.53-2.707-3.92-6.708-6.23-11.075-6.94-4.02-2.05-8.202-.78-11.126 1.97-4.228 2.48-7.472 6.79-7.7 13.52-1.587 47.27-.39 94.39 3.591 141.51.977 11.58 13.609 21.82 24.897 14.29 35.067-23.39 67.988-49.13 99.028-77.65 7.878-7.25 5.102-19.86-3.243-25.17z" fill="url(#o)" vectornator:layerName="path"/><path d="M786.647 1191.06c-41.911-3.98-82.976-12.28-124.6-17.94-12.806-1.74-18.506 12.55-9.964 19.63-11.596 38.99 8.23 90.72 25.596 124.97 4.954 9.78 18.675 10.31 25.973 3.35 33.759-32.19 64.984-66.54 94.244-102.86 8.936-11.1 3.051-25.79-11.249-27.15z" fill="url(#p)" vectornator:layerName="path"/><path d="M1007.04 1197.56c-47.363-.16-95.232.61-142.059 8.3-10.724 1.77-11.002 14.61-4.657 20.87.015.09-.012.17.004.26 3.132 18.49 22.502 39.16 32.449 54.92 13.779 21.82 27.553 43.65 41.328 65.48 6.31 9.99 21.417 10.66 27.572 0 23.985-41.57 44.073-84.83 60.543-129.89 3.58-9.8-5.64-19.91-15.18-19.94z" fill="url(#q)" vectornator:layerName="path"/><path d="M1205.99 1150.07c-22.91 10.34-46.23 18.93-70.27 26.19-14.28 4.31-30.09 6.16-42.09 14.56-7.9.67-15.47 7.96-12.22 16.5 8.37 21.99 28.17 38.88 44.97 54.92 18.7 17.84 38.66 34.17 59.29 49.72 8.05 6.06 21.64-.23 23.57-9.59 9.47-45.92 16.13-92.19 20.08-138.91 1.09-12.9-13.69-17.74-23.33-13.39z" fill="url(#r)" vectornator:layerName="path"/><path d="M1418.93 1073.62c-.75-10.61-13.55-21.79-24-13.78-31.67 24.28-65.7 42.92-100.42 62.32-6.43 3.59-6.66 11.31-3.47 16.64.13 3.74 1.57 7.33 4.92 9.97 33.53 26.4 68 51.43 103.46 75.17 10.46 7 24.62-2.28 24.58-14.1-.18-45.48-1.87-90.86-5.07-136.22z" fill="url(#s)" vectornator:layerName="path"/></g></g></svg>