<svg stroke-miterlimit="10" style="fill-rule:nonzero;clip-rule:evenodd;stroke-linecap:round;stroke-linejoin:round" viewBox="0 0 1920 1920" xml:space="preserve" xmlns="http://www.w3.org/2000/svg" xmlns:vectornator="http://vectornator.io"><defs><linearGradient gradientTransform="matrix(.89756 0 0 .89756 98.346 98.346)" gradientUnits="userSpaceOnUse" id="l" x1="448.29" x2="785.224" y1="723.647" y2="723.647"><stop offset="0" stop-color="#f2a2ff"/><stop offset=".994" stop-color="#ff90da"/></linearGradient><linearGradient gradientTransform="translate(0 5.408)" gradientUnits="userSpaceOnUse" id="w" x1="830.905" x2="1089.09" y1="938.558" y2="938.558"><stop offset="0" stop-color="#f2a2ff"/><stop offset=".994" stop-color="#ff90da"/></linearGradient><linearGradient gradientUnits="userSpaceOnUse" id="c" x1="397.312" x2="1538.5" y1="1052.98" y2="1052.98"><stop offset="0" stop-color="#f2a2ff"/><stop offset=".994" stop-color="#ff90da"/></linearGradient><linearGradient gradientUnits="userSpaceOnUse" id="d" x1="849.503" x2="1003.93" y1="1341.4" y2="544.143"><stop offset="0" stop-color="#f2a2ff"/><stop offset=".994" stop-color="#ff90da"/></linearGradient><linearGradient gradientUnits="userSpaceOnUse" id="e" x1="906.776" x2="1009.44" y1="1536.4" y2="582.736"><stop offset="0" stop-color="#f2a2ff"/><stop offset=".994" stop-color="#ff90da"/></linearGradient><linearGradient gradientUnits="userSpaceOnUse" id="f" x1="735.743" x2="838.405" y1="1474.12" y2="520.46"><stop offset="0" stop-color="#f2a2ff"/><stop offset=".994" stop-color="#ff90da"/></linearGradient><linearGradient gradientTransform="translate(0 -12.274)" gradientUnits="userSpaceOnUse" id="g" x1="443.045" x2="1476.95" y1="1185.01" y2="1185.01"><stop offset="0" stop-color="#f2a2ff"/><stop offset=".994" stop-color="#ff90da"/></linearGradient><linearGradient gradientTransform="translate(0 -12.274)" gradientUnits="userSpaceOnUse" id="h" x1="803.284" x2="1116.11" y1="946.921" y2="946.921"><stop offset="0" stop-color="#f2a2ff"/><stop offset=".994" stop-color="#ff90da"/></linearGradient><linearGradient gradientTransform="translate(0 -12.274)" gradientUnits="userSpaceOnUse" id="i" x1="1068.88" x2="1069.49" y1="834.305" y2="834.305"><stop offset="0" stop-color="#f2a2ff"/><stop offset=".994" stop-color="#ff90da"/></linearGradient><linearGradient gradientTransform="translate(0 -12.274)" gradientUnits="userSpaceOnUse" id="j" x1="1053.97" x2="1366.35" y1="743.428" y2="743.428"><stop offset="0" stop-color="#f2a2ff"/><stop offset=".994" stop-color="#ff90da"/></linearGradient><linearGradient gradientTransform="translate(0 -12.274)" gradientUnits="userSpaceOnUse" id="k" x1="552.877" x2="865.822" y1="743.433" y2="743.433"><stop offset="0" stop-color="#f2a2ff"/><stop offset=".994" stop-color="#ff90da"/></linearGradient><linearGradient gradientTransform="translate(284.485 284.485) scale(.70366)" gradientUnits="userSpaceOnUse" id="b" x1="604.662" x2="1278.87" y1="1302.5" y2="712.003"><stop offset="0" stop-color="#fbf0ff"/><stop offset=".995" stop-color="#ffe1f5"/></linearGradient><linearGradient gradientTransform="matrix(.89756 0 0 .89756 98.346 98.346)" gradientUnits="userSpaceOnUse" id="m" x1="1136.91" x2="1435.95" y1="733.81" y2="733.81"><stop offset="0" stop-color="#f2a2ff"/><stop offset=".994" stop-color="#ff90da"/></linearGradient><linearGradient gradientTransform="matrix(.89756 0 0 .89756 98.346 98.346)" gradientUnits="userSpaceOnUse" id="n" x1="841.369" x2="1077.8" y1="1000.74" y2="1000.74"><stop offset="0" stop-color="#f2a2ff"/><stop offset=".994" stop-color="#ff90da"/></linearGradient><linearGradient gradientTransform="matrix(.89756 0 0 .89756 98.346 98.346)" gradientUnits="userSpaceOnUse" id="o" x1="443.045" x2="591.071" y1="1177.91" y2="1177.91"><stop offset="0" stop-color="#f2a2ff"/><stop offset=".994" stop-color="#ff90da"/></linearGradient><linearGradient gradientTransform="matrix(.89756 0 0 .89756 98.346 98.346)" gradientUnits="userSpaceOnUse" id="p" x1="612.415" x2="784.114" y1="1282.39" y2="1282.39"><stop offset="0" stop-color="#f2a2ff"/><stop offset=".994" stop-color="#ff90da"/></linearGradient><linearGradient gradientTransform="matrix(.89756 0 0 .89756 98.346 98.346)" gradientUnits="userSpaceOnUse" id="q" x1="844.26" x2="1030.2" y1="1312.45" y2="1312.45"><stop offset="0" stop-color="#f2a2ff"/><stop offset=".994" stop-color="#ff90da"/></linearGradient><linearGradient gradientTransform="matrix(.89756 0 0 .89756 98.346 98.346)" gradientUnits="userSpaceOnUse" id="r" x1="1094.41" x2="1260.12" y1="1262.41" y2="1262.41"><stop offset="0" stop-color="#f2a2ff"/><stop offset=".994" stop-color="#ff90da"/></linearGradient><linearGradient gradientTransform="matrix(.89756 0 0 .89756 98.346 98.346)" gradientUnits="userSpaceOnUse" id="s" x1="1326.58" x2="1476.95" y1="1162.48" y2="1162.48"><stop offset="0" stop-color="#f2a2ff"/><stop offset=".994" stop-color="#ff90da"/></linearGradient><linearGradient gradientTransform="translate(0 5.408)" gradientUnits="userSpaceOnUse" id="t" x1="479.251" x2="881.955" y1="817.377" y2="817.377"><stop offset="0" stop-color="#f2a2ff"/><stop offset=".994" stop-color="#ff90da"/></linearGradient><linearGradient gradientTransform="translate(0 5.408)" gradientUnits="userSpaceOnUse" id="u" x1="1038.05" x2="1440.75" y1="817.378" y2="817.378"><stop offset="0" stop-color="#f2a2ff"/><stop offset=".994" stop-color="#ff90da"/></linearGradient><linearGradient gradientTransform="translate(0 5.408)" gradientUnits="userSpaceOnUse" id="v" x1="497.946" x2="1422.03" y1="1204.83" y2="1204.83"><stop offset="0" stop-color="#f2a2ff"/><stop offset=".994" stop-color="#ff90da"/></linearGradient><radialGradient cx="1007.26" cy="1042.86" gradientTransform="translate(-1003.18 -1072.57) scale(1.94904)" gradientUnits="userSpaceOnUse" id="a" r="460.534"><stop offset=".675" stop-color="#d556ff"/><stop offset="1" stop-color="#ffb2d6" stop-opacity="0"/></radialGradient></defs><g vectornator:layerName="Layer 2"><g opacity=".713" vectornator:layerName="Group 2"><path d="M869.548 852.939 613.3 674.805a28.928 28.928 0 0 0-25.327-3.794 28.898 28.898 0 0 0-18.397 17.812l-88.643 248.491a28.9 28.9 0 0 0 5.392 28.657 28.899 28.899 0 0 0 27.609 9.38l344.89-70.354a28.913 28.913 0 0 0 22.534-22.493 28.892 28.892 0 0 0-11.81-29.565zm-316.942 55.518 58.721-164.617 169.759 118.008-228.48 46.609z" fill="url(#t)" vectornator:layerName="path"/><path d="m1439.07 937.318-88.65-248.492a28.873 28.873 0 0 0-18.39-17.812 28.91 28.91 0 0 0-25.33 3.794l-256.24 178.134a28.916 28.916 0 0 0-11.82 29.566A28.905 28.905 0 0 0 1061.18 905l344.89 70.354a28.902 28.902 0 0 0 27.61-9.379 28.936 28.936 0 0 0 5.39-28.657zm-300.16-75.47 169.76-118.008 58.72 164.617-228.48-46.609z" fill="url(#u)" vectornator:layerName="path"/><path d="M1417.18 1072.79a28.907 28.907 0 0 0-30.56-12.12c-156.14 36.13-316.61 52.28-476.923 48.02-7.708-.21-15.344 2.74-20.936 8.18a28.901 28.901 0 0 0-8.741 20.71v61.09h-46.25v-66.7c0-15.06-11.562-27.6-26.576-28.81-92.061-7.46-184.196-21.76-273.827-42.49-11.722-2.72-23.891 2.12-30.564 12.12a28.91 28.91 0 0 0 .556 32.88c116.086 161.98 282.521 254.88 456.633 254.88 35.183 0 70.628-3.81 105.348-11.32 13.31-2.87 22.8-14.64 22.8-28.25v-72.2h38.54v40.43c0 9.8 4.97 18.94 13.2 24.26 8.23 5.33 18.6 6.12 27.54 2.11 95.26-42.76 181.43-115.35 249.2-209.92 7.01-9.78 7.23-22.87.56-32.87zm-232.68 169.39v-22.31c0-15.96-12.94-28.9-28.91-28.9h-96.35c-15.97 0-28.91 12.94-28.91 28.9v77.17c-23.34 3.78-46.905 5.7-70.335 5.7-131.922 0-259.564-60.74-359.423-168.97a1961.226 1961.226 0 0 0 175.385 24.68v69.13c0 15.97 12.942 28.91 28.905 28.91h104.06c15.963 0 28.905-12.94 28.905-28.91v-60.54a1952.207 1952.207 0 0 0 381.603-33.26c-40.7 44.17-86.25 80.78-134.93 108.4z" fill="url(#v)" vectornator:layerName="path"/><path d="M1085.22 1016.28 985.027 842.749a28.902 28.902 0 0 0-50.063 0L834.777 1016.28a28.898 28.898 0 0 0 0 28.9 28.898 28.898 0 0 0 25.032 14.46h200.381c10.33 0 19.87-5.51 25.03-14.46a28.864 28.864 0 0 0 0-28.9zm-175.345-14.45 50.123-86.818 50.122 86.818H909.875z" fill="url(#w)" vectornator:layerName="path"/></g></g></svg>