<svg xmlns="http://www.w3.org/2000/svg" xmlns:vectornator="http://vectornator.io" xml:space="preserve" stroke-miterlimit="10" style="fill-rule:nonzero;clip-rule:evenodd;stroke-linecap:round;stroke-linejoin:round" viewBox="0 0 1920 1920"><defs><linearGradient id="e" x1="552.877" x2="865.822" y1="743.433" y2="743.433" gradientTransform="translate(0 -12.274)" gradientUnits="userSpaceOnUse"><stop offset="0" stop-color="#f2a2ff"/><stop offset=".994" stop-color="#ff90da"/></linearGradient><linearGradient id="a" x1="443.045" x2="1476.95" y1="1185.01" y2="1185.01" gradientTransform="translate(0 -12.274)" gradientUnits="userSpaceOnUse"><stop offset="0" stop-color="#f2a2ff"/><stop offset=".994" stop-color="#ff90da"/></linearGradient><linearGradient id="b" x1="803.284" x2="1116.11" y1="946.921" y2="946.921" gradientTransform="translate(0 -12.274)" gradientUnits="userSpaceOnUse"><stop offset="0" stop-color="#f2a2ff"/><stop offset=".994" stop-color="#ff90da"/></linearGradient><linearGradient id="c" x1="1068.88" x2="1069.49" y1="834.305" y2="834.305" gradientTransform="translate(0 -12.274)" gradientUnits="userSpaceOnUse"><stop offset="0" stop-color="#f2a2ff"/><stop offset=".994" stop-color="#ff90da"/></linearGradient><linearGradient id="d" x1="1053.97" x2="1366.35" y1="743.428" y2="743.428" gradientTransform="translate(0 -12.274)" gradientUnits="userSpaceOnUse"><stop offset="0" stop-color="#f2a2ff"/><stop offset=".994" stop-color="#ff90da"/></linearGradient></defs><g vectornator:layerName="Layer 2"><g vectornator:layerName="g" opacity=".713"><path vectornator:layerName="path" fill="url(#a)" d="M1458.02 925.107c-13.45-5.945-29.4-1.252-37.85 10.637-57.87 81.956-131.38 144.836-218.35 187.066-13.13 6.57-20.33 21.58-16.57 35.98l5.31 20.33-61 15.64-2.19-8.76c-4.06-16.58-20.96-26.59-37.54-22.84-85.4 20.33-174.548 20.33-259.948-.31-16.268-4.07-32.846 5.63-37.538 21.9l-2.816 10.32-60.999-17.21 5.317-18.77c4.067-14.7-2.816-30.03-16.268-36.6-86.652-42.23-160.162-105.1-217.722-187.063-10.009-14.077-29.406-17.517-43.483-7.508-9.384 6.57-14.39 17.831-13.138 29.406.625 4.379 55.369 422.935 450.773 465.475 1.252 0 2.191.31 3.44.31 17.206 0 31.283-14.07 31.283-31.28v-35.04h62.563v35.04c0 9.07 3.753 17.52 10.636 23.46 6.57 5.95 15.64 8.76 24.4 7.82 362.56-42.54 449.21-458.588 450.15-462.969 2.5-14.702-5-29.092-18.46-35.034zm-404.47 429.813v-29.41c0-17.2-14.08-31.28-31.28-31.28H897.137c-17.206 0-31.283 14.08-31.283 31.28v30.35c-192.697-34.41-284.038-173.93-326.269-279.66 38.477 35.35 81.021 66 127.006 90.72l-6.883 24.39c-4.693 16.58 4.692 33.79 21.27 38.8h.314l120.747 34.4c16.579 4.7 33.785-5 38.791-21.58l3.44-12.2c75.701 14.39 153.593 14.7 229.61.31l2.5 10.01c4.38 16.9 21.27 26.9 38.16 22.53l121.69-30.97c16.58-4.38 26.9-21.27 22.52-38.17l-6.88-26.59c40.04-21.27 77.27-47.23 111.67-76.64-50.98 102.92-145.13 229.93-309.99 263.71z"/><path vectornator:layerName="path" fill="url(#b)" d="M806.424 1026.15c5.316 10.94 16.267 17.83 28.153 17.83h250.253c17.21 0 31.28-14.08 31.28-31.29 0-7.19-2.5-14.073-6.88-19.703L984.103 836.578c-11.886-15.015-36.914-15.015-48.8 0L810.174 992.987c-7.504 9.703-9.07 22.523-3.75 33.163zm153.279-119.812 60.057 75.076H899.642l60.061-75.076z"/><path vectornator:layerName="path" fill="url(#c)" d="M1068.88 822.188h.61c-.28-.147-.51-.261-.61-.314v.314z"/><path vectornator:layerName="path" fill="url(#d)" d="M1065.12 818.434c1.57 1.563 3.44 2.815 5.32 3.754h-.95c6.82 3.457 65.73 32.596 162.99 34.098h1.56c54.43 0 97.6-25.963 118.87-71.323 23.78-50.363 15.33-116.682-20.02-157.661-11.88-13.763-29.4-21.584-47.55-21.27h-.62c-75.39.313-190.19 128.882-223.35 168.297-11.26 13.136-9.38 32.843 3.75 44.105zm220.54-150.153c19.08 22.209 23.78 61.938 10.64 90.405-11.26 23.776-32.22 36.914-64.13 35.348-31.59-.314-62.88-4.692-93.22-12.514 61.94-66.317 127.94-117.932 146.71-113.239z"/><path vectornator:layerName="path" fill="url(#e)" d="M685.363 856.286h2.815c99.79-1.563 158.599-32.532 161.101-33.785 15.329-8.132 20.96-27.215 12.824-42.23-.938-1.877-2.19-3.754-3.753-5.317-33.16-39.729-148.277-168.609-223.978-168.922-19.707 1.252-35.975 7.193-48.175 21.27-35.348 40.668-43.483 106.984-20.021 157.661 21.587 45.36 64.756 71.323 119.187 71.323zm-52.554-187.692c.938-.313 1.877-.313 2.815-.313 22.523 0 85.714 49.738 144.837 112.928-30.345 7.822-61.625 12.2-93.221 12.514-31.594 1.563-52.868-11.261-64.129-35.348-13.139-28.156-8.446-67.882 9.698-89.781z"/></g></g></svg>