<svg stroke-miterlimit="10" style="fill-rule:nonzero;clip-rule:evenodd;stroke-linecap:round;stroke-linejoin:round" viewBox="0 0 1920 1920" xml:space="preserve" xmlns="http://www.w3.org/2000/svg" xmlns:vectornator="http://vectornator.io"><defs><linearGradient gradientTransform="matrix(.89756 0 0 .89756 98.346 98.346)" gradientUnits="userSpaceOnUse" id="n" x1="841.369" x2="1077.8" y1="1000.74" y2="1000.74"><stop offset="0" stop-color="#f2a2ff"/><stop offset=".994" stop-color="#ff90da"/></linearGradient><linearGradient gradientUnits="userSpaceOnUse" id="A" x1="559.483" x2="1360.52" y1="1225.75" y2="1225.75"><stop offset="0" stop-color="#f2a2ff"/><stop offset=".994" stop-color="#ff90da"/></linearGradient><linearGradient gradientUnits="userSpaceOnUse" id="c" x1="397.312" x2="1538.5" y1="1052.98" y2="1052.98"><stop offset="0" stop-color="#f2a2ff"/><stop offset=".994" stop-color="#ff90da"/></linearGradient><linearGradient gradientUnits="userSpaceOnUse" id="d" x1="849.503" x2="1003.93" y1="1341.4" y2="544.143"><stop offset="0" stop-color="#f2a2ff"/><stop offset=".994" stop-color="#ff90da"/></linearGradient><linearGradient gradientUnits="userSpaceOnUse" id="e" x1="906.776" x2="1009.44" y1="1536.4" y2="582.736"><stop offset="0" stop-color="#f2a2ff"/><stop offset=".994" stop-color="#ff90da"/></linearGradient><linearGradient gradientUnits="userSpaceOnUse" id="f" x1="735.743" x2="838.405" y1="1474.12" y2="520.46"><stop offset="0" stop-color="#f2a2ff"/><stop offset=".994" stop-color="#ff90da"/></linearGradient><linearGradient gradientTransform="translate(0 -12.274)" gradientUnits="userSpaceOnUse" id="g" x1="443.045" x2="1476.95" y1="1185.01" y2="1185.01"><stop offset="0" stop-color="#f2a2ff"/><stop offset=".994" stop-color="#ff90da"/></linearGradient><linearGradient gradientTransform="translate(0 -12.274)" gradientUnits="userSpaceOnUse" id="h" x1="803.284" x2="1116.11" y1="946.921" y2="946.921"><stop offset="0" stop-color="#f2a2ff"/><stop offset=".994" stop-color="#ff90da"/></linearGradient><linearGradient gradientTransform="translate(0 -12.274)" gradientUnits="userSpaceOnUse" id="i" x1="1068.88" x2="1069.49" y1="834.305" y2="834.305"><stop offset="0" stop-color="#f2a2ff"/><stop offset=".994" stop-color="#ff90da"/></linearGradient><linearGradient gradientTransform="translate(0 -12.274)" gradientUnits="userSpaceOnUse" id="j" x1="1053.97" x2="1366.35" y1="743.428" y2="743.428"><stop offset="0" stop-color="#f2a2ff"/><stop offset=".994" stop-color="#ff90da"/></linearGradient><linearGradient gradientTransform="translate(0 -12.274)" gradientUnits="userSpaceOnUse" id="k" x1="552.877" x2="865.822" y1="743.433" y2="743.433"><stop offset="0" stop-color="#f2a2ff"/><stop offset=".994" stop-color="#ff90da"/></linearGradient><linearGradient gradientTransform="matrix(.89756 0 0 .89756 98.346 98.346)" gradientUnits="userSpaceOnUse" id="l" x1="448.29" x2="785.224" y1="723.647" y2="723.647"><stop offset="0" stop-color="#f2a2ff"/><stop offset=".994" stop-color="#ff90da"/></linearGradient><linearGradient gradientTransform="matrix(.89756 0 0 .89756 98.346 98.346)" gradientUnits="userSpaceOnUse" id="m" x1="1136.91" x2="1435.95" y1="733.81" y2="733.81"><stop offset="0" stop-color="#f2a2ff"/><stop offset=".994" stop-color="#ff90da"/></linearGradient><linearGradient gradientTransform="translate(284.485 284.485) scale(.70366)" gradientUnits="userSpaceOnUse" id="b" x1="604.662" x2="1278.87" y1="1302.5" y2="712.003"><stop offset="0" stop-color="#fbf0ff"/><stop offset=".995" stop-color="#ffe1f5"/></linearGradient><linearGradient gradientTransform="matrix(.89756 0 0 .89756 98.346 98.346)" gradientUnits="userSpaceOnUse" id="o" x1="443.045" x2="591.071" y1="1177.91" y2="1177.91"><stop offset="0" stop-color="#f2a2ff"/><stop offset=".994" stop-color="#ff90da"/></linearGradient><linearGradient gradientTransform="matrix(.89756 0 0 .89756 98.346 98.346)" gradientUnits="userSpaceOnUse" id="p" x1="612.415" x2="784.114" y1="1282.39" y2="1282.39"><stop offset="0" stop-color="#f2a2ff"/><stop offset=".994" stop-color="#ff90da"/></linearGradient><linearGradient gradientTransform="matrix(.89756 0 0 .89756 98.346 98.346)" gradientUnits="userSpaceOnUse" id="q" x1="844.26" x2="1030.2" y1="1312.45" y2="1312.45"><stop offset="0" stop-color="#f2a2ff"/><stop offset=".994" stop-color="#ff90da"/></linearGradient><linearGradient gradientTransform="matrix(.89756 0 0 .89756 98.346 98.346)" gradientUnits="userSpaceOnUse" id="r" x1="1094.41" x2="1260.12" y1="1262.41" y2="1262.41"><stop offset="0" stop-color="#f2a2ff"/><stop offset=".994" stop-color="#ff90da"/></linearGradient><linearGradient gradientTransform="matrix(.89756 0 0 .89756 98.346 98.346)" gradientUnits="userSpaceOnUse" id="s" x1="1326.58" x2="1476.95" y1="1162.48" y2="1162.48"><stop offset="0" stop-color="#f2a2ff"/><stop offset=".994" stop-color="#ff90da"/></linearGradient><linearGradient gradientTransform="translate(0 5.408)" gradientUnits="userSpaceOnUse" id="t" x1="479.251" x2="881.955" y1="817.377" y2="817.377"><stop offset="0" stop-color="#f2a2ff"/><stop offset=".994" stop-color="#ff90da"/></linearGradient><linearGradient gradientTransform="translate(0 5.408)" gradientUnits="userSpaceOnUse" id="u" x1="1038.05" x2="1440.75" y1="817.378" y2="817.378"><stop offset="0" stop-color="#f2a2ff"/><stop offset=".994" stop-color="#ff90da"/></linearGradient><linearGradient gradientTransform="translate(0 5.408)" gradientUnits="userSpaceOnUse" id="v" x1="497.946" x2="1422.03" y1="1204.83" y2="1204.83"><stop offset="0" stop-color="#f2a2ff"/><stop offset=".994" stop-color="#ff90da"/></linearGradient><linearGradient gradientTransform="translate(0 5.408)" gradientUnits="userSpaceOnUse" id="w" x1="830.905" x2="1089.09" y1="938.558" y2="938.558"><stop offset="0" stop-color="#f2a2ff"/><stop offset=".994" stop-color="#ff90da"/></linearGradient><linearGradient gradientUnits="userSpaceOnUse" id="x" x1="831.342" x2="1088.66" y1="940.223" y2="940.223"><stop offset="0" stop-color="#f2a2ff"/><stop offset=".994" stop-color="#ff90da"/></linearGradient><linearGradient gradientUnits="userSpaceOnUse" id="y" x1="479.251" x2="831.347" y1="798.602" y2="798.602"><stop offset="0" stop-color="#f2a2ff"/><stop offset=".994" stop-color="#ff90da"/></linearGradient><linearGradient gradientUnits="userSpaceOnUse" id="z" x1="1088.65" x2="1440.75" y1="798.602" y2="798.602"><stop offset="0" stop-color="#f2a2ff"/><stop offset=".994" stop-color="#ff90da"/></linearGradient><radialGradient cx="1007.26" cy="1042.86" gradientTransform="translate(-1003.18 -1072.57) scale(1.94904)" gradientUnits="userSpaceOnUse" id="a" r="460.534"><stop offset=".675" stop-color="#d556ff"/><stop offset="1" stop-color="#ffb2d6" stop-opacity="0"/></radialGradient></defs><g vectornator:layerName="Layer 2"><g opacity=".713" vectornator:layerName="Group 3"><path d="M861.976 1055.75h196.044a30.636 30.636 0 0 0 26.53-45.95l-98.024-169.786a30.632 30.632 0 0 0-53.056 0L835.446 1009.8a30.628 30.628 0 0 0 0 30.63 30.64 30.64 0 0 0 26.53 15.32zm98.025-139.155 44.969 77.886h-89.938l44.969-77.886z" fill="url(#x)" vectornator:layerName="path"/><path d="M829.476 906.852a30.629 30.629 0 0 0-8.928-33.879L589.785 676.927a30.636 30.636 0 0 0-28.449-6.054 30.637 30.637 0 0 0-20.679 20.445l-60.069 196.668a30.628 30.628 0 0 0 29.295 39.579h.065l290.832-.622c12.828-.022 24.281-8.045 28.696-20.091zm-278.184-40.639 34.342-112.43 131.918 112.076-166.26.354z" fill="url(#y)" vectornator:layerName="path"/><path d="M1379.35 691.318a30.642 30.642 0 0 0-20.68-20.445 30.599 30.599 0 0 0-28.45 6.054l-230.77 196.046a30.65 30.65 0 0 0-8.93 33.879c4.42 12.046 15.87 20.071 28.7 20.097l290.83.621h.07c9.69 0 18.82-4.592 24.6-12.381a30.634 30.634 0 0 0 4.69-27.197l-60.06-196.674zm-176.9 174.544 131.92-112.076 34.34 112.43-166.26-.354z" fill="url(#z)" vectornator:layerName="path"/><path d="M1329.89 1117.01H888.015c-16.917 0-30.633 13.71-30.633 30.63v1.91h-61.264v-1.91c0-8.12-3.229-15.91-8.973-21.66a30.658 30.658 0 0 0-21.661-8.97H590.117c-16.914 0-30.634 13.71-30.634 30.63 0 103.04 83.822 186.86 186.857 186.86h287.69c16.92 0 30.63-13.71 30.63-30.63v-24.65h61.27v24.65c0 16.92 13.72 30.63 30.63 30.63h17.1c103.04 0 186.86-83.82 186.86-186.86 0-16.91-13.72-30.63-30.63-30.63zm-142.7 155.5v-23.92c0-16.92-13.71-30.64-30.63-30.64h-122.53c-16.91 0-30.63 13.72-30.63 30.64v24.64H746.34c-58.688 0-108.105-40.46-121.816-94.96h110.33v1.91c0 16.92 13.716 30.63 30.633 30.63h122.528c16.914 0 30.634-13.71 30.634-30.63v-1.91h376.831c-12.64 50.26-55.65 88.58-108.29 94.24z" fill="url(#A)" vectornator:layerName="path"/></g></g></svg>