<svg xmlns="http://www.w3.org/2000/svg" xml:space="preserve" stroke-miterlimit="10" style="fill-rule:nonzero;clip-rule:evenodd;stroke-linecap:round;stroke-linejoin:round" viewBox="0 0 1920 1920"><defs><linearGradient id="d" x1="559.483" x2="1360.52" y1="1225.75" y2="1225.75" gradientUnits="userSpaceOnUse"><stop offset="0" stop-color="#f2a2ff"/><stop offset=".994" stop-color="#ff90da"/></linearGradient><linearGradient id="a" x1="831.342" x2="1088.66" y1="940.223" y2="940.223" gradientUnits="userSpaceOnUse"><stop offset="0" stop-color="#f2a2ff"/><stop offset=".994" stop-color="#ff90da"/></linearGradient><linearGradient id="b" x1="479.251" x2="831.347" y1="798.602" y2="798.602" gradientUnits="userSpaceOnUse"><stop offset="0" stop-color="#f2a2ff"/><stop offset=".994" stop-color="#ff90da"/></linearGradient><linearGradient id="c" x1="1088.65" x2="1440.75" y1="798.602" y2="798.602" gradientUnits="userSpaceOnUse"><stop offset="0" stop-color="#f2a2ff"/><stop offset=".994" stop-color="#ff90da"/></linearGradient></defs><g opacity=".713"><path fill="url(#a)" d="M861.976 1055.75h196.044a30.636 30.636 0 0 0 26.53-45.95l-98.024-169.786a30.632 30.632 0 0 0-53.056 0L835.446 1009.8a30.628 30.628 0 0 0 0 30.63 30.64 30.64 0 0 0 26.53 15.32zm98.025-139.155 44.969 77.886h-89.938l44.969-77.886z"/><path fill="url(#b)" d="M829.476 906.852a30.629 30.629 0 0 0-8.928-33.879L589.785 676.927a30.636 30.636 0 0 0-28.449-6.054 30.637 30.637 0 0 0-20.679 20.445l-60.069 196.668a30.628 30.628 0 0 0 29.295 39.579h.065l290.832-.622c12.828-.022 24.281-8.045 28.696-20.091zm-278.184-40.639 34.342-112.43 131.918 112.076-166.26.354z"/><path fill="url(#c)" d="M1379.35 691.318a30.642 30.642 0 0 0-20.68-20.445 30.599 30.599 0 0 0-28.45 6.054l-230.77 196.046a30.65 30.65 0 0 0-8.93 33.879c4.42 12.046 15.87 20.071 28.7 20.097l290.83.621h.07c9.69 0 18.82-4.592 24.6-12.381a30.634 30.634 0 0 0 4.69-27.197l-60.06-196.674zm-176.9 174.544 131.92-112.076 34.34 112.43-166.26-.354z"/><path fill="url(#d)" d="M1329.89 1117.01H888.015c-16.917 0-30.633 13.71-30.633 30.63v1.91h-61.264v-1.91c0-8.12-3.229-15.91-8.973-21.66a30.658 30.658 0 0 0-21.661-8.97H590.117c-16.914 0-30.634 13.71-30.634 30.63 0 103.04 83.822 186.86 186.857 186.86h287.69c16.92 0 30.63-13.71 30.63-30.63v-24.65h61.27v24.65c0 16.92 13.72 30.63 30.63 30.63h17.1c103.04 0 186.86-83.82 186.86-186.86 0-16.91-13.72-30.63-30.63-30.63zm-142.7 155.5v-23.92c0-16.92-13.71-30.64-30.63-30.64h-122.53c-16.91 0-30.63 13.72-30.63 30.64v24.64H746.34c-58.688 0-108.105-40.46-121.816-94.96h110.33v1.91c0 16.92 13.716 30.63 30.633 30.63h122.528c16.914 0 30.634-13.71 30.634-30.63v-1.91h376.831c-12.64 50.26-55.65 88.58-108.29 94.24z"/></g></svg>