<svg xmlns="http://www.w3.org/2000/svg" xmlns:vectornator="http://vectornator.io" xml:space="preserve" stroke-miterlimit="10" style="fill-rule:nonzero;clip-rule:evenodd;stroke-linecap:round;stroke-linejoin:round" viewBox="0 0 1920 1920"><defs><linearGradient id="d" x1="830.905" x2="1089.09" y1="938.558" y2="938.558" gradientTransform="translate(0 5.408)" gradientUnits="userSpaceOnUse"><stop offset="0" stop-color="#f2a2ff"/><stop offset=".994" stop-color="#ff90da"/></linearGradient><linearGradient id="a" x1="479.251" x2="881.955" y1="817.377" y2="817.377" gradientTransform="translate(0 5.408)" gradientUnits="userSpaceOnUse"><stop offset="0" stop-color="#f2a2ff"/><stop offset=".994" stop-color="#ff90da"/></linearGradient><linearGradient id="b" x1="1038.05" x2="1440.75" y1="817.378" y2="817.378" gradientTransform="translate(0 5.408)" gradientUnits="userSpaceOnUse"><stop offset="0" stop-color="#f2a2ff"/><stop offset=".994" stop-color="#ff90da"/></linearGradient><linearGradient id="c" x1="497.946" x2="1422.03" y1="1204.83" y2="1204.83" gradientTransform="translate(0 5.408)" gradientUnits="userSpaceOnUse"><stop offset="0" stop-color="#f2a2ff"/><stop offset=".994" stop-color="#ff90da"/></linearGradient></defs><g vectornator:layerName="Layer 2"><g vectornator:layerName="Group 2" opacity=".713"><path vectornator:layerName="path" fill="url(#a)" d="M869.548 852.939 613.3 674.805a28.928 28.928 0 0 0-25.327-3.794 28.898 28.898 0 0 0-18.397 17.812l-88.643 248.491a28.9 28.9 0 0 0 5.392 28.657 28.899 28.899 0 0 0 27.609 9.38l344.89-70.354a28.913 28.913 0 0 0 22.534-22.493 28.892 28.892 0 0 0-11.81-29.565zm-316.942 55.518 58.721-164.617 169.759 118.008-228.48 46.609z"/><path vectornator:layerName="path" fill="url(#b)" d="m1439.07 937.318-88.65-248.492a28.873 28.873 0 0 0-18.39-17.812 28.91 28.91 0 0 0-25.33 3.794l-256.24 178.134a28.916 28.916 0 0 0-11.82 29.566A28.905 28.905 0 0 0 1061.18 905l344.89 70.354a28.902 28.902 0 0 0 27.61-9.379 28.936 28.936 0 0 0 5.39-28.657zm-300.16-75.47 169.76-118.008 58.72 164.617-228.48-46.609z"/><path vectornator:layerName="path" fill="url(#c)" d="M1417.18 1072.79a28.907 28.907 0 0 0-30.56-12.12c-156.14 36.13-316.61 52.28-476.923 48.02-7.708-.21-15.344 2.74-20.936 8.18a28.901 28.901 0 0 0-8.741 20.71v61.09h-46.25v-66.7c0-15.06-11.562-27.6-26.576-28.81-92.061-7.46-184.196-21.76-273.827-42.49-11.722-2.72-23.891 2.12-30.564 12.12a28.91 28.91 0 0 0 .556 32.88c116.086 161.98 282.521 254.88 456.633 254.88 35.183 0 70.628-3.81 105.348-11.32 13.31-2.87 22.8-14.64 22.8-28.25v-72.2h38.54v40.43c0 9.8 4.97 18.94 13.2 24.26 8.23 5.33 18.6 6.12 27.54 2.11 95.26-42.76 181.43-115.35 249.2-209.92 7.01-9.78 7.23-22.87.56-32.87zm-232.68 169.39v-22.31c0-15.96-12.94-28.9-28.91-28.9h-96.35c-15.97 0-28.91 12.94-28.91 28.9v77.17c-23.34 3.78-46.905 5.7-70.335 5.7-131.922 0-259.564-60.74-359.423-168.97a1961.226 1961.226 0 0 0 175.385 24.68v69.13c0 15.97 12.942 28.91 28.905 28.91h104.06c15.963 0 28.905-12.94 28.905-28.91v-60.54a1952.207 1952.207 0 0 0 381.603-33.26c-40.7 44.17-86.25 80.78-134.93 108.4z"/><path vectornator:layerName="path" fill="url(#d)" d="M1085.22 1016.28 985.027 842.749a28.902 28.902 0 0 0-50.063 0L834.777 1016.28a28.898 28.898 0 0 0 0 28.9 28.898 28.898 0 0 0 25.032 14.46h200.381c10.33 0 19.87-5.51 25.03-14.46a28.864 28.864 0 0 0 0-28.9zm-175.345-14.45 50.123-86.818 50.122 86.818H909.875z"/></g></g></svg>