<svg xmlns="http://www.w3.org/2000/svg" xmlns:vectornator="http://vectornator.io" xml:space="preserve" stroke-miterlimit="10" style="fill-rule:nonzero;clip-rule:evenodd;stroke-linecap:round;stroke-linejoin:round" viewBox="0 0 1920 1920"><defs><linearGradient id="a" x1="715.463" x2="1212.45" y1="1435.49" y2="560.118" gradientTransform="translate(-27.51 -27.51) scale(1.02866)" gradientUnits="userSpaceOnUse"><stop offset="0" stop-color="#f2a2ff"/><stop offset=".994" stop-color="#ff90da"/></linearGradient></defs><g vectornator:layerName="Layer 2"><path vectornator:layerName="path" fill="url(#a)" d="M959.959 425.728c-100.316 0-192.156 57.361-260.272 153.809-68.116 96.446-111.126 231.396-111.126 380.849 0 149.454 43.01 284.404 111.126 380.854 19.755 27.97 41.536 52.63 64.91 73.59v-45.3c13.592 5.91 27.694 11.12 42.193 15.67v62.22c14.503 9.52 29.429 17.72 44.8 24.49v-75c13.867 2.89 27.962 5.16 42.197 6.91v82.76c14.691 3.82 29.671 6.45 44.871 7.69v-86.85c14.043.55 28.142.61 42.19.07v86.78c15.172-1.21 30.132-3.77 44.802-7.55v-82.83c14.24-1.73 28.33-4.03 42.2-6.91v75.14c15.56-6.82 30.68-15.06 45.36-24.69v-62.23c14.5-4.54 28.6-9.76 42.19-15.66v45.29c23.39-20.96 45.16-45.61 64.91-73.59 68.12-96.45 111.13-231.4 111.13-380.849-.01-149.452-43.01-284.403-111.13-380.852-68.11-96.45-160.03-153.811-260.344-153.811h-.007zm0 145.692c178.181 0 322.651 144.473 322.651 322.647 0 13.021-.83 25.842-2.33 38.454-91.6-70.211-172.99-63.849-255.69 22.932 46.62 102.357 162.83 119.577 238.69 48.747-21.32 58.66-59.14 109.38-107.88 146.55v172.07c-13.3 6.57-27.42 12.37-42.19 17.36v-52.77h-45.37v65.19c-13.77 2.99-27.88 5.4-42.19 7.2v-72.39h-44.807v76.06c-14.043.54-28.142.55-42.188 0v-76.06h-44.87v72.31c-14.307-1.81-28.425-4.18-42.197-7.19v-65.12h-44.801v52.77c-14.77-4.99-28.899-10.79-42.19-17.35v-172.01c-48.805-37.2-86.702-87.96-108.019-146.69 75.86 70.94 192.183 53.73 238.824-48.677-82.724-86.81-164.127-93.139-255.757-22.862-1.506-12.643-2.326-25.479-2.326-38.524 0-178.174 144.466-322.642 322.643-322.642l-.003-.005zm0 421.918-57.498 150.842h115.069l-57.568-150.842h-.003z" opacity=".713"/></g></svg>