<svg stroke-miterlimit="10" style="fill-rule:nonzero;clip-rule:evenodd;stroke-linecap:round;stroke-linejoin:round" viewBox="0 0 1920 1920" xml:space="preserve" xmlns="http://www.w3.org/2000/svg" xmlns:vectornator="http://vectornator.io"><defs><linearGradient gradientUnits="userSpaceOnUse" id="x" x1="831.342" x2="1088.66" y1="940.223" y2="940.223"><stop offset="0" stop-color="#f2a2ff"/><stop offset=".994" stop-color="#ff90da"/></linearGradient><linearGradient gradientTransform="translate(-27.51 -27.51) scale(1.02866)" gradientUnits="userSpaceOnUse" id="U" x1="715.463" x2="1212.45" y1="1435.49" y2="560.118"><stop offset="0" stop-color="#f2a2ff"/><stop offset=".994" stop-color="#ff90da"/></linearGradient><linearGradient gradientUnits="userSpaceOnUse" id="c" x1="397.312" x2="1538.5" y1="1052.98" y2="1052.98"><stop offset="0" stop-color="#f2a2ff"/><stop offset=".994" stop-color="#ff90da"/></linearGradient><linearGradient gradientUnits="userSpaceOnUse" id="d" x1="849.503" x2="1003.93" y1="1341.4" y2="544.143"><stop offset="0" stop-color="#f2a2ff"/><stop offset=".994" stop-color="#ff90da"/></linearGradient><linearGradient gradientUnits="userSpaceOnUse" id="e" x1="906.776" x2="1009.44" y1="1536.4" y2="582.736"><stop offset="0" stop-color="#f2a2ff"/><stop offset=".994" stop-color="#ff90da"/></linearGradient><linearGradient gradientUnits="userSpaceOnUse" id="f" x1="735.743" x2="838.405" y1="1474.12" y2="520.46"><stop offset="0" stop-color="#f2a2ff"/><stop offset=".994" stop-color="#ff90da"/></linearGradient><linearGradient gradientTransform="translate(0 -12.274)" gradientUnits="userSpaceOnUse" id="g" x1="443.045" x2="1476.95" y1="1185.01" y2="1185.01"><stop offset="0" stop-color="#f2a2ff"/><stop offset=".994" stop-color="#ff90da"/></linearGradient><linearGradient gradientTransform="translate(0 -12.274)" gradientUnits="userSpaceOnUse" id="h" x1="803.284" x2="1116.11" y1="946.921" y2="946.921"><stop offset="0" stop-color="#f2a2ff"/><stop offset=".994" stop-color="#ff90da"/></linearGradient><linearGradient gradientTransform="translate(0 -12.274)" gradientUnits="userSpaceOnUse" id="i" x1="1068.88" x2="1069.49" y1="834.305" y2="834.305"><stop offset="0" stop-color="#f2a2ff"/><stop offset=".994" stop-color="#ff90da"/></linearGradient><linearGradient gradientTransform="translate(0 -12.274)" gradientUnits="userSpaceOnUse" id="j" x1="1053.97" x2="1366.35" y1="743.428" y2="743.428"><stop offset="0" stop-color="#f2a2ff"/><stop offset=".994" stop-color="#ff90da"/></linearGradient><linearGradient gradientTransform="translate(0 -12.274)" gradientUnits="userSpaceOnUse" id="k" x1="552.877" x2="865.822" y1="743.433" y2="743.433"><stop offset="0" stop-color="#f2a2ff"/><stop offset=".994" stop-color="#ff90da"/></linearGradient><linearGradient gradientTransform="matrix(.89756 0 0 .89756 98.346 98.346)" gradientUnits="userSpaceOnUse" id="l" x1="448.29" x2="785.224" y1="723.647" y2="723.647"><stop offset="0" stop-color="#f2a2ff"/><stop offset=".994" stop-color="#ff90da"/></linearGradient><linearGradient gradientTransform="matrix(.89756 0 0 .89756 98.346 98.346)" gradientUnits="userSpaceOnUse" id="m" x1="1136.91" x2="1435.95" y1="733.81" y2="733.81"><stop offset="0" stop-color="#f2a2ff"/><stop offset=".994" stop-color="#ff90da"/></linearGradient><linearGradient gradientTransform="matrix(.89756 0 0 .89756 98.346 98.346)" gradientUnits="userSpaceOnUse" id="n" x1="841.369" x2="1077.8" y1="1000.74" y2="1000.74"><stop offset="0" stop-color="#f2a2ff"/><stop offset=".994" stop-color="#ff90da"/></linearGradient><linearGradient gradientTransform="matrix(.89756 0 0 .89756 98.346 98.346)" gradientUnits="userSpaceOnUse" id="o" x1="443.045" x2="591.071" y1="1177.91" y2="1177.91"><stop offset="0" stop-color="#f2a2ff"/><stop offset=".994" stop-color="#ff90da"/></linearGradient><linearGradient gradientTransform="matrix(.89756 0 0 .89756 98.346 98.346)" gradientUnits="userSpaceOnUse" id="p" x1="612.415" x2="784.114" y1="1282.39" y2="1282.39"><stop offset="0" stop-color="#f2a2ff"/><stop offset=".994" stop-color="#ff90da"/></linearGradient><linearGradient gradientTransform="matrix(.89756 0 0 .89756 98.346 98.346)" gradientUnits="userSpaceOnUse" id="q" x1="844.26" x2="1030.2" y1="1312.45" y2="1312.45"><stop offset="0" stop-color="#f2a2ff"/><stop offset=".994" stop-color="#ff90da"/></linearGradient><linearGradient gradientTransform="matrix(.89756 0 0 .89756 98.346 98.346)" gradientUnits="userSpaceOnUse" id="r" x1="1094.41" x2="1260.12" y1="1262.41" y2="1262.41"><stop offset="0" stop-color="#f2a2ff"/><stop offset=".994" stop-color="#ff90da"/></linearGradient><linearGradient gradientTransform="matrix(.89756 0 0 .89756 98.346 98.346)" gradientUnits="userSpaceOnUse" id="s" x1="1326.58" x2="1476.95" y1="1162.48" y2="1162.48"><stop offset="0" stop-color="#f2a2ff"/><stop offset=".994" stop-color="#ff90da"/></linearGradient><linearGradient gradientTransform="translate(0 5.408)" gradientUnits="userSpaceOnUse" id="t" x1="479.251" x2="881.955" y1="817.377" y2="817.377"><stop offset="0" stop-color="#f2a2ff"/><stop offset=".994" stop-color="#ff90da"/></linearGradient><linearGradient gradientTransform="translate(0 5.408)" gradientUnits="userSpaceOnUse" id="u" x1="1038.05" x2="1440.75" y1="817.378" y2="817.378"><stop offset="0" stop-color="#f2a2ff"/><stop offset=".994" stop-color="#ff90da"/></linearGradient><linearGradient gradientTransform="translate(0 5.408)" gradientUnits="userSpaceOnUse" id="v" x1="497.946" x2="1422.03" y1="1204.83" y2="1204.83"><stop offset="0" stop-color="#f2a2ff"/><stop offset=".994" stop-color="#ff90da"/></linearGradient><linearGradient gradientTransform="translate(0 5.408)" gradientUnits="userSpaceOnUse" id="w" x1="830.905" x2="1089.09" y1="938.558" y2="938.558"><stop offset="0" stop-color="#f2a2ff"/><stop offset=".994" stop-color="#ff90da"/></linearGradient><linearGradient gradientTransform="translate(284.485 284.485) scale(.70366)" gradientUnits="userSpaceOnUse" id="b" x1="604.662" x2="1278.87" y1="1302.5" y2="712.003"><stop offset="0" stop-color="#fbf0ff"/><stop offset=".995" stop-color="#ffe1f5"/></linearGradient><linearGradient gradientUnits="userSpaceOnUse" id="y" x1="479.251" x2="831.347" y1="798.602" y2="798.602"><stop offset="0" stop-color="#f2a2ff"/><stop offset=".994" stop-color="#ff90da"/></linearGradient><linearGradient gradientUnits="userSpaceOnUse" id="z" x1="1088.65" x2="1440.75" y1="798.602" y2="798.602"><stop offset="0" stop-color="#f2a2ff"/><stop offset=".994" stop-color="#ff90da"/></linearGradient><linearGradient gradientUnits="userSpaceOnUse" id="A" x1="559.483" x2="1360.52" y1="1225.75" y2="1225.75"><stop offset="0" stop-color="#f2a2ff"/><stop offset=".994" stop-color="#ff90da"/></linearGradient><linearGradient gradientTransform="translate(-84.624 -84.624) scale(1.08815)" gradientUnits="userSpaceOnUse" id="B" x1="480.617" x2="1439.38" y1="1119.79" y2="1119.79"><stop offset="0" stop-color="#f2a2ff"/><stop offset=".994" stop-color="#ff90da"/></linearGradient><linearGradient gradientTransform="translate(-84.624 -84.624) scale(1.08815)" gradientUnits="userSpaceOnUse" id="C" x1="986.462" x2="1274.09" y1="752.267" y2="752.267"><stop offset="0" stop-color="#f2a2ff"/><stop offset=".994" stop-color="#ff90da"/></linearGradient><linearGradient gradientTransform="translate(-84.624 -84.624) scale(1.08815)" gradientUnits="userSpaceOnUse" id="D" x1="634.914" x2="922.544" y1="752.267" y2="752.267"><stop offset="0" stop-color="#f2a2ff"/><stop offset=".994" stop-color="#ff90da"/></linearGradient><linearGradient gradientUnits="userSpaceOnUse" id="E" x1="688.431" x2="1309.04" y1="1501.62" y2="597.475"><stop offset="0" stop-color="#f2a2ff"/><stop offset=".994" stop-color="#ff90da"/></linearGradient><linearGradient gradientUnits="userSpaceOnUse" id="F" x1="809.474" x2="1499.13" y1="1021.07" y2="518.48"><stop offset="0" stop-color="#f2a2ff"/><stop offset=".994" stop-color="#ff90da"/></linearGradient><linearGradient gradientTransform="matrix(.87574 0 0 .87574 6.588 193.358)" gradientUnits="userSpaceOnUse" id="G" x1="559.464" x2="960.948" y1="1373.76" y2="1003.06"><stop offset="0" stop-color="#f2a2ff"/><stop offset=".994" stop-color="#ff90da"/></linearGradient><linearGradient gradientTransform="matrix(.84126 0 0 .84126 31.959 234.188)" gradientUnits="userSpaceOnUse" id="H" x1="820.031" x2="923.166" y1="1204.58" y2="1204.58"><stop offset="0" stop-color="#eaaef4"/><stop offset=".992" stop-color="#fc9edd"/></linearGradient><linearGradient gradientTransform="matrix(.84126 0 0 .84126 31.959 234.188)" gradientUnits="userSpaceOnUse" id="I" x1="592.398" x2="680.799" y1="1232.57" y2="1232.57"><stop offset="0" stop-color="#eaaef4"/><stop offset=".992" stop-color="#fc9edd"/></linearGradient><linearGradient gradientTransform="matrix(.84126 0 0 .84126 31.959 234.188)" gradientUnits="userSpaceOnUse" id="J" x1="615.235" x2="747.837" y1="1313.61" y2="1313.61"><stop offset="0" stop-color="#eaaef4"/><stop offset=".992" stop-color="#fc9edd"/></linearGradient><linearGradient gradientTransform="matrix(.84126 0 0 .84126 31.959 234.188)" gradientUnits="userSpaceOnUse" id="K" x1="650.595" x2="709.53" y1="1071.97" y2="1071.97"><stop offset="0" stop-color="#eaaef4"/><stop offset=".992" stop-color="#fc9edd"/></linearGradient><linearGradient gradientTransform="matrix(.84126 0 0 .84126 31.959 234.188)" gradientUnits="userSpaceOnUse" id="L" x1="746.364" x2="805.298" y1="1079.34" y2="1079.34"><stop offset="0" stop-color="#eaaef4"/><stop offset=".992" stop-color="#fc9edd"/></linearGradient><linearGradient gradientTransform="matrix(.84126 0 0 .84126 31.959 234.188)" gradientUnits="userSpaceOnUse" id="M" x1="562.931" x2="621.865" y1="1136.07" y2="1136.07"><stop offset="0" stop-color="#eaaef4"/><stop offset=".992" stop-color="#fc9edd"/></linearGradient><linearGradient gradientTransform="matrix(.84126 0 0 .84126 31.959 234.188)" gradientUnits="userSpaceOnUse" id="N" x1="775.831" x2="805.298" y1="1013.04" y2="1013.04"><stop offset="0" stop-color="#eaaef4"/><stop offset=".992" stop-color="#fc9edd"/></linearGradient><linearGradient gradientTransform="matrix(.84126 0 0 .84126 31.959 234.188)" gradientUnits="userSpaceOnUse" id="O" x1="548.197" x2="577.664" y1="1232.57" y2="1232.57"><stop offset="0" stop-color="#eaaef4"/><stop offset=".992" stop-color="#fc9edd"/></linearGradient><linearGradient gradientTransform="matrix(.84126 0 0 .84126 31.959 234.188)" gradientUnits="userSpaceOnUse" id="P" x1="871.599" x2="901.066" y1="1313.61" y2="1313.61"><stop offset="0" stop-color="#eaaef4"/><stop offset=".992" stop-color="#fc9edd"/></linearGradient><linearGradient gradientTransform="matrix(.84126 0 0 .84126 31.959 234.188)" gradientUnits="userSpaceOnUse" id="Q" x1="665.329" x2="709.53" y1="1165.53" y2="1165.53"><stop offset="0" stop-color="#eaaef4"/><stop offset=".992" stop-color="#fc9edd"/></linearGradient><linearGradient gradientTransform="matrix(.84126 0 0 .84126 31.959 234.188)" gradientUnits="userSpaceOnUse" id="R" x1="599.028" x2="628.495" y1="1060.92" y2="1060.92"><stop offset="0" stop-color="#eaaef4"/><stop offset=".992" stop-color="#fc9edd"/></linearGradient><linearGradient gradientTransform="matrix(.84126 0 0 .84126 31.959 234.188)" gradientUnits="userSpaceOnUse" id="S" x1="812.664" x2="871.599" y1="1332.76" y2="1332.76"><stop offset="0" stop-color="#eaaef4"/><stop offset=".992" stop-color="#fc9edd"/></linearGradient><linearGradient gradientTransform="matrix(.84126 0 0 .84126 31.959 234.188)" gradientUnits="userSpaceOnUse" id="T" x1="681.536" x2="755.204" y1="1024.82" y2="1024.82"><stop offset="0" stop-color="#eaaef4"/><stop offset=".992" stop-color="#fc9edd"/></linearGradient><radialGradient cx="1007.26" cy="1042.86" gradientTransform="translate(-1003.18 -1072.57) scale(1.94904)" gradientUnits="userSpaceOnUse" id="a" r="460.534"><stop offset=".675" stop-color="#d556ff"/><stop offset="1" stop-color="#ffb2d6" stop-opacity="0"/></radialGradient></defs><g vectornator:layerName="Layer 2"><path d="M959.959 425.728c-100.316 0-192.156 57.361-260.272 153.809-68.116 96.446-111.126 231.396-111.126 380.849 0 149.454 43.01 284.404 111.126 380.854 19.755 27.97 41.536 52.63 64.91 73.59v-45.3c13.592 5.91 27.694 11.12 42.193 15.67v62.22c14.503 9.52 29.429 17.72 44.8 24.49v-75c13.867 2.89 27.962 5.16 42.197 6.91v82.76c14.691 3.82 29.671 6.45 44.871 7.69v-86.85c14.043.55 28.142.61 42.19.07v86.78c15.172-1.21 30.132-3.77 44.802-7.55v-82.83c14.24-1.73 28.33-4.03 42.2-6.91v75.14c15.56-6.82 30.68-15.06 45.36-24.69v-62.23c14.5-4.54 28.6-9.76 42.19-15.66v45.29c23.39-20.96 45.16-45.61 64.91-73.59 68.12-96.45 111.13-231.4 111.13-380.849-.01-149.452-43.01-284.403-111.13-380.852-68.11-96.45-160.03-153.811-260.344-153.811h-.007zm0 145.692c178.181 0 322.651 144.473 322.651 322.647 0 13.021-.83 25.842-2.33 38.454-91.6-70.211-172.99-63.849-255.69 22.932 46.62 102.357 162.83 119.577 238.69 48.747-21.32 58.66-59.14 109.38-107.88 146.55v172.07c-13.3 6.57-27.42 12.37-42.19 17.36v-52.77h-45.37v65.19c-13.77 2.99-27.88 5.4-42.19 7.2v-72.39h-44.807v76.06c-14.043.54-28.142.55-42.188 0v-76.06h-44.87v72.31c-14.307-1.81-28.425-4.18-42.197-7.19v-65.12h-44.801v52.77c-14.77-4.99-28.899-10.79-42.19-17.35v-172.01c-48.805-37.2-86.702-87.96-108.019-146.69 75.86 70.94 192.183 53.73 238.824-48.677-82.724-86.81-164.127-93.139-255.757-22.862-1.506-12.643-2.326-25.479-2.326-38.524 0-178.174 144.466-322.642 322.643-322.642l-.003-.005zm0 421.918-57.498 150.842h115.069l-57.568-150.842h-.003z" fill="url(#U)" opacity=".713" vectornator:layerName="path"/></g></svg>