<svg stroke-miterlimit="10" style="fill-rule:nonzero;clip-rule:evenodd;stroke-linecap:round;stroke-linejoin:round" viewBox="0 0 1920 1920" xml:space="preserve" xmlns="http://www.w3.org/2000/svg" xmlns:vectornator="http://vectornator.io"><defs><linearGradient gradientTransform="matrix(.89756 0 0 .89756 98.346 98.346)" gradientUnits="userSpaceOnUse" id="p" x1="612.415" x2="784.114" y1="1282.39" y2="1282.39"><stop offset="0" stop-color="#f2a2ff"/><stop offset=".994" stop-color="#ff90da"/></linearGradient><linearGradient gradientUnits="userSpaceOnUse" id="E" x1="688.431" x2="1309.04" y1="1501.62" y2="597.475"><stop offset="0" stop-color="#f2a2ff"/><stop offset=".994" stop-color="#ff90da"/></linearGradient><linearGradient gradientUnits="userSpaceOnUse" id="c" x1="397.312" x2="1538.5" y1="1052.98" y2="1052.98"><stop offset="0" stop-color="#f2a2ff"/><stop offset=".994" stop-color="#ff90da"/></linearGradient><linearGradient gradientUnits="userSpaceOnUse" id="d" x1="849.503" x2="1003.93" y1="1341.4" y2="544.143"><stop offset="0" stop-color="#f2a2ff"/><stop offset=".994" stop-color="#ff90da"/></linearGradient><linearGradient gradientUnits="userSpaceOnUse" id="e" x1="906.776" x2="1009.44" y1="1536.4" y2="582.736"><stop offset="0" stop-color="#f2a2ff"/><stop offset=".994" stop-color="#ff90da"/></linearGradient><linearGradient gradientUnits="userSpaceOnUse" id="f" x1="735.743" x2="838.405" y1="1474.12" y2="520.46"><stop offset="0" stop-color="#f2a2ff"/><stop offset=".994" stop-color="#ff90da"/></linearGradient><linearGradient gradientTransform="translate(0 -12.274)" gradientUnits="userSpaceOnUse" id="g" x1="443.045" x2="1476.95" y1="1185.01" y2="1185.01"><stop offset="0" stop-color="#f2a2ff"/><stop offset=".994" stop-color="#ff90da"/></linearGradient><linearGradient gradientTransform="translate(0 -12.274)" gradientUnits="userSpaceOnUse" id="h" x1="803.284" x2="1116.11" y1="946.921" y2="946.921"><stop offset="0" stop-color="#f2a2ff"/><stop offset=".994" stop-color="#ff90da"/></linearGradient><linearGradient gradientTransform="translate(0 -12.274)" gradientUnits="userSpaceOnUse" id="i" x1="1068.88" x2="1069.49" y1="834.305" y2="834.305"><stop offset="0" stop-color="#f2a2ff"/><stop offset=".994" stop-color="#ff90da"/></linearGradient><linearGradient gradientTransform="translate(0 -12.274)" gradientUnits="userSpaceOnUse" id="j" x1="1053.97" x2="1366.35" y1="743.428" y2="743.428"><stop offset="0" stop-color="#f2a2ff"/><stop offset=".994" stop-color="#ff90da"/></linearGradient><linearGradient gradientTransform="translate(0 -12.274)" gradientUnits="userSpaceOnUse" id="k" x1="552.877" x2="865.822" y1="743.433" y2="743.433"><stop offset="0" stop-color="#f2a2ff"/><stop offset=".994" stop-color="#ff90da"/></linearGradient><linearGradient gradientTransform="matrix(.89756 0 0 .89756 98.346 98.346)" gradientUnits="userSpaceOnUse" id="l" x1="448.29" x2="785.224" y1="723.647" y2="723.647"><stop offset="0" stop-color="#f2a2ff"/><stop offset=".994" stop-color="#ff90da"/></linearGradient><linearGradient gradientTransform="matrix(.89756 0 0 .89756 98.346 98.346)" gradientUnits="userSpaceOnUse" id="m" x1="1136.91" x2="1435.95" y1="733.81" y2="733.81"><stop offset="0" stop-color="#f2a2ff"/><stop offset=".994" stop-color="#ff90da"/></linearGradient><linearGradient gradientTransform="matrix(.89756 0 0 .89756 98.346 98.346)" gradientUnits="userSpaceOnUse" id="n" x1="841.369" x2="1077.8" y1="1000.74" y2="1000.74"><stop offset="0" stop-color="#f2a2ff"/><stop offset=".994" stop-color="#ff90da"/></linearGradient><linearGradient gradientTransform="matrix(.89756 0 0 .89756 98.346 98.346)" gradientUnits="userSpaceOnUse" id="o" x1="443.045" x2="591.071" y1="1177.91" y2="1177.91"><stop offset="0" stop-color="#f2a2ff"/><stop offset=".994" stop-color="#ff90da"/></linearGradient><linearGradient gradientTransform="translate(284.485 284.485) scale(.70366)" gradientUnits="userSpaceOnUse" id="b" x1="604.662" x2="1278.87" y1="1302.5" y2="712.003"><stop offset="0" stop-color="#fbf0ff"/><stop offset=".995" stop-color="#ffe1f5"/></linearGradient><linearGradient gradientTransform="matrix(.89756 0 0 .89756 98.346 98.346)" gradientUnits="userSpaceOnUse" id="q" x1="844.26" x2="1030.2" y1="1312.45" y2="1312.45"><stop offset="0" stop-color="#f2a2ff"/><stop offset=".994" stop-color="#ff90da"/></linearGradient><linearGradient gradientTransform="matrix(.89756 0 0 .89756 98.346 98.346)" gradientUnits="userSpaceOnUse" id="r" x1="1094.41" x2="1260.12" y1="1262.41" y2="1262.41"><stop offset="0" stop-color="#f2a2ff"/><stop offset=".994" stop-color="#ff90da"/></linearGradient><linearGradient gradientTransform="matrix(.89756 0 0 .89756 98.346 98.346)" gradientUnits="userSpaceOnUse" id="s" x1="1326.58" x2="1476.95" y1="1162.48" y2="1162.48"><stop offset="0" stop-color="#f2a2ff"/><stop offset=".994" stop-color="#ff90da"/></linearGradient><linearGradient gradientTransform="translate(0 5.408)" gradientUnits="userSpaceOnUse" id="t" x1="479.251" x2="881.955" y1="817.377" y2="817.377"><stop offset="0" stop-color="#f2a2ff"/><stop offset=".994" stop-color="#ff90da"/></linearGradient><linearGradient gradientTransform="translate(0 5.408)" gradientUnits="userSpaceOnUse" id="u" x1="1038.05" x2="1440.75" y1="817.378" y2="817.378"><stop offset="0" stop-color="#f2a2ff"/><stop offset=".994" stop-color="#ff90da"/></linearGradient><linearGradient gradientTransform="translate(0 5.408)" gradientUnits="userSpaceOnUse" id="v" x1="497.946" x2="1422.03" y1="1204.83" y2="1204.83"><stop offset="0" stop-color="#f2a2ff"/><stop offset=".994" stop-color="#ff90da"/></linearGradient><linearGradient gradientTransform="translate(0 5.408)" gradientUnits="userSpaceOnUse" id="w" x1="830.905" x2="1089.09" y1="938.558" y2="938.558"><stop offset="0" stop-color="#f2a2ff"/><stop offset=".994" stop-color="#ff90da"/></linearGradient><linearGradient gradientUnits="userSpaceOnUse" id="x" x1="831.342" x2="1088.66" y1="940.223" y2="940.223"><stop offset="0" stop-color="#f2a2ff"/><stop offset=".994" stop-color="#ff90da"/></linearGradient><linearGradient gradientUnits="userSpaceOnUse" id="y" x1="479.251" x2="831.347" y1="798.602" y2="798.602"><stop offset="0" stop-color="#f2a2ff"/><stop offset=".994" stop-color="#ff90da"/></linearGradient><linearGradient gradientUnits="userSpaceOnUse" id="z" x1="1088.65" x2="1440.75" y1="798.602" y2="798.602"><stop offset="0" stop-color="#f2a2ff"/><stop offset=".994" stop-color="#ff90da"/></linearGradient><linearGradient gradientUnits="userSpaceOnUse" id="A" x1="559.483" x2="1360.52" y1="1225.75" y2="1225.75"><stop offset="0" stop-color="#f2a2ff"/><stop offset=".994" stop-color="#ff90da"/></linearGradient><linearGradient gradientTransform="translate(-84.624 -84.624) scale(1.08815)" gradientUnits="userSpaceOnUse" id="B" x1="480.617" x2="1439.38" y1="1119.79" y2="1119.79"><stop offset="0" stop-color="#f2a2ff"/><stop offset=".994" stop-color="#ff90da"/></linearGradient><linearGradient gradientTransform="translate(-84.624 -84.624) scale(1.08815)" gradientUnits="userSpaceOnUse" id="C" x1="986.462" x2="1274.09" y1="752.267" y2="752.267"><stop offset="0" stop-color="#f2a2ff"/><stop offset=".994" stop-color="#ff90da"/></linearGradient><linearGradient gradientTransform="translate(-84.624 -84.624) scale(1.08815)" gradientUnits="userSpaceOnUse" id="D" x1="634.914" x2="922.544" y1="752.267" y2="752.267"><stop offset="0" stop-color="#f2a2ff"/><stop offset=".994" stop-color="#ff90da"/></linearGradient><radialGradient cx="1007.26" cy="1042.86" gradientTransform="translate(-1003.18 -1072.57) scale(1.94904)" gradientUnits="userSpaceOnUse" id="a" r="460.534"><stop offset=".675" stop-color="#d556ff"/><stop offset="1" stop-color="#ffb2d6" stop-opacity="0"/></radialGradient></defs><g vectornator:layerName="Layer 2"><path d="M1060.97 486.969c-40.7-.739-80.347 4.486-121.189 7.906-45.498 3.811-90.826.91-136.406 1.594-5.118.076-6.756 4.274-5.813 7.969-2.515 1.025-4.491 3.222-4.343 6.437 4.5 97.165 21.444 197.465 41.593 292.844-64.974-40.973-132.478-75.522-203.687-104.407-5.791-2.347-11.958 3.517-11.937 9.063.438 119.835 1.147 239.649 3 359.465.096 6.19 6.576 12.35 13.031 9.94 69.836-26.01 146.132-50.21 209.719-90.218 12.092 143.208 21.263 287.548 39.5 430.158a789.972 789.972 0 0 0-21.844 24.81c.316-28.77-1.579-57.12-5.625-85.97-1.056-7.53-12.76-8.35-16-2.09-18.425 35.58-36.544 68.1-71.25 87.47-28.339-32.72-45.537-73.63-75.907-105.19-5.189-5.39-13.163-2.19-15.5 4.09-15.429 41.48-19.681 82.09-13.624 124.47-35.447-21.75-74.674-31.41-117.407-28.06-8.363.66-12.755 12.09-4.5 16.69 24.448 13.61 43.516 30.54 59.75 51.09 73.546 48.34 157.433 82.16 247.657 97.47.323-1.52.698-3.03.968-4.56.743-5.67 1.163-8.64 1.282-9.35.01.18-.205 2.2-.75 6.82 2.531 2.59 4.767 5.51 6.843 8.56 33.069 5.17 66.949 7.91 101.469 7.91.734 0 1.454-.07 2.188-.07 1.488-2.74 2.868-5.5 4-8.31 1.652 2.77 3.507 5.44 5.437 8.09 37.825-.66 74.855-4.53 110.845-11.37.01-5.8.17-11.67.56-17.78a23 23 0 0 0 1.56.34c4.61 4.38 8.31 9.35 11.07 14.84 87.45-18.51 168.37-54.6 239.03-104.34-2.43-.3-4.84-.69-7.31-.87 11.78-31.24 3.85-70.69-13.57-97.41-3.26-5.01-11.94-6.19-14.9 0-13.64 28.48-35.52 48.14-62.41 62.84 5.31-33.92 15.68-58.25 46.81-80.37 7.7-5.47 5.29-18.06-4.97-18.28-34.48-.74-66.52 4.96-97.28 21.34-19.8 10.55-49.12 49.87-74 67.35 10.43-19.91 17.39-39.56 17.85-60.85 2.2-8.51 2.14-16.65-2.03-23.06-.85-4.14-1.91-8.35-3.29-12.66-1.97-6.15-10.26-9.13-15.03-3.93-15.32 16.68-33.12 29.37-51.25 41.09 13.82-138.56 14.24-279.26 16.03-418.251 73.3 40.651 147.26 80.031 219.38 122.811 6.5 3.86 14.62-1.1 14.75-8.47 1.99-116.414-26.45-236.471-40.97-351.872-.85-6.715-7.75-12.799-14.56-8.376-62.5 40.549-127.33 73.566-197.1 99.532 21.97-106.125 34.86-217.864 44.32-325.469.51-5.822-5.6-8.733-10.44-7.687-1.45-1.633-3.49-2.832-6.22-3-5.86-.371-11.72-.614-17.53-.719zm-17.16 17.687c11.26.051 22.54.378 33.85 1.063-18.15 107.293-33.99 218.517-39.04 326.969-2.44 7.204 2.7 16.646 11.82 13.437 33.55-11.802 66.26-25.028 98.25-40.656 17.26-8.435 34.24-17.394 50.84-27.063 31.55-18.379 38.51-40.35 50.94 9 10.95 43.478 11.97 92.341 17.78 136.844 6.2 47.529 14.01 95.07 15.13 143-69.94-40.91-140.98-79.536-215.47-111.625-4.23-6.082-16.19-4.522-16.32 4.937-1.64 123.308-9.01 246.798-11.53 370.158-2.28-2.38-5.68-3.89-9.22-3.28-55.567 9.59-97.545 39.91-134.528 77.65-7.199-141.74-23.123-283.62-35.843-424.871-.761-8.47-11.778-9.916-15.125-4.344-57.147 15.409-109.286 50.805-166.688 63.375-42.666 9.34-36.412 2.78-37.187-40.531a24389.11 24389.11 0 0 1-1.563-96.75c-.388-27.65-.74-55.319-1.031-82.969-.393-37.028-21.739-93.543 32.469-82.562 53.417 10.817 112.996 57.43 158.218 86.218 4.598 2.929 8.903 1.198 11.5-2.094 3.618 1.261 8.583-.553 8.063-5.124C837.563 713.864 826.55 610.415 807.656 510c79.626 7.139 157.377-5.696 236.154-5.344zM1039.84 1343c-.32 18.14-.5 36.27-.56 54.41-17.23 10.79-34.31 21.36-49.405 34.12 6.133-33.8 22.335-63.08 49.965-88.53z" fill="url(#E)" opacity=".713" vectornator:layerName="Curve 6"/></g></svg>