<svg xmlns="http://www.w3.org/2000/svg" xmlns:vectornator="http://vectornator.io" xml:space="preserve" stroke-miterlimit="10" style="fill-rule:nonzero;clip-rule:evenodd;stroke-linecap:round;stroke-linejoin:round" viewBox="0 0 1920 1920"><defs><linearGradient id="a" x1="906.776" x2="1009.44" y1="1536.4" y2="582.736" gradientUnits="userSpaceOnUse"><stop offset="0" stop-color="#f2a2ff"/><stop offset=".994" stop-color="#ff90da"/></linearGradient></defs><g vectornator:layerName="Layer 2"><path vectornator:layerName="Curve 4" fill="url(#a)" d="M959.781 376.469c-9.667-.151-18.485 3.045-22.562 12.5-37.209 86.28-84.752 169.311-108.031 260.343-8.23 32.179 3.951 67.484 16.312 98.313 8.366 20.865 42.065 28.954 43.688 51.375 10.125 139.998-2.593 280.81-9.532 421-6.321 127.71-19.82 254.94-29.968 382.41 35.874 6.11 72.694 9.47 110.312 9.47 37.576 0 74.35-3.37 110.19-9.47-9.22-116.15-21.15-232.12-27.22-348.47-6.73-128.88-16.71-424.951-12.31-447.596 1.66-8.587 41.3-52.415 45.78-65.906 9.49-28.623 22.22-60.188 14.4-89.313-25.31-94.295-66.57-175.353-108.621-263.469-2.908-6.093-15.688-11.082-22.438-11.187zm-1.906 223.5h4.25c16.991 0 30.781 13.759 30.781 30.75v98.343c0 16.991-13.79 30.75-30.781 30.75h-4.25c-16.991 0-30.781-13.759-30.781-30.75v-98.343c0-16.991 13.79-30.75 30.781-30.75zm0 234.343h4.25c16.991.001 30.781 13.791 30.781 30.782v98.312c0 16.991-13.79 30.75-30.781 30.75h-4.25c-16.991 0-30.781-13.759-30.781-30.75v-98.312c0-16.991 13.79-30.782 30.781-30.782zm0 234.568h4.25c16.991 0 30.781 13.75 30.781 30.74v98.32c0 16.99-13.79 30.78-30.781 30.78h-4.25c-16.991 0-30.781-13.79-30.781-30.78v-98.32c0-16.99 13.79-30.75 30.781-30.74z" opacity=".713"/></g></svg>